<svg xmlns="http://www.w3.org/2000/svg" viewBox="0 0 500 500"><g id="freepik--Character--inject-2"><path d="M210.44,426.56l-2.39,28.68-8.42,22.15a3,3,0,0,0,1.89,3.87h0a3,3,0,0,0,2.66-.48c4.81-3.73,22.16-17.42,22.36-19.21.25-2.31,4.67-30.51,4.67-30.51Z" style="fill:#455a64"></path><path d="M201.52,481.26,227,458.31l-.25,2.12c-.17,1.16-.19,1.79-.95,2.52a248.7,248.7,0,0,1-21.36,18.32c-.78.6-2,.3-2.93,0Z" style="fill:#263238"></path><path d="M222,449.36a1.78,1.78,0,0,0-.73,2.27,1.72,1.72,0,0,0,2.24.74,1.88,1.88,0,0,0,.76-2.4,1.78,1.78,0,0,0-2.42-.52" style="fill:#fff"></path><path d="M209.39,469.45c-.17.06-.65-1.51-2.27-2.49s-3.21-.8-3.23-1,.37-.26,1.05-.28a4.56,4.56,0,0,1,2.52.72,4.66,4.66,0,0,1,1.74,2C209.47,469,209.47,469.43,209.39,469.45Z" style="fill:#263238"></path><path d="M207,473.07c-.15.11-1-.92-2.41-1.5a22.41,22.41,0,0,0-2.75-.66c-.07-.16,1.37-.62,3,.07S207.11,473,207,473.07Z" style="fill:#263238"></path><path d="M213.71,464.94c-.15.12-1.4-1.47-3.55-2.57s-4.16-1.25-4.15-1.44,2.14-.33,4.44.88S213.86,464.87,213.71,464.94Z" style="fill:#263238"></path><path d="M215.16,456.28c-.09.16-1.6-.67-3.65-1s-3.73,0-3.78-.15,1.67-.81,3.87-.47S215.27,456.16,215.16,456.28Z" style="fill:#263238"></path><path d="M216.08,447.88c-.11.15-1.6-1-3.78-1.1s-3.82.72-3.9.55.31-.39,1-.71a6.48,6.48,0,0,1,5.77.42C215.83,447.44,216.13,447.82,216.08,447.88Z" style="fill:#263238"></path><path d="M212.52,445.18a2.43,2.43,0,0,1,.07-1.08,7.58,7.58,0,0,1,1.17-2.75,3.31,3.31,0,0,1,1.6-1.44,1.19,1.19,0,0,1,1.3.4,2,2,0,0,1,.31,1.34,4.16,4.16,0,0,1-4,3.45,4.85,4.85,0,0,1-4.46-3,1.72,1.72,0,0,1,.07-1.4,1.17,1.17,0,0,1,1.28-.48,4.09,4.09,0,0,1,1.78,1.18,8.6,8.6,0,0,1,1.72,2.43,2.46,2.46,0,0,1,.33,1,13.17,13.17,0,0,0-2.36-3.15,3.85,3.85,0,0,0-1.58-1,.61.61,0,0,0-.69.26,1.13,1.13,0,0,0,0,.92,4.3,4.3,0,0,0,3.89,2.57,3.61,3.61,0,0,0,3.47-2.88,1.37,1.37,0,0,0-.18-.94.63.63,0,0,0-.71-.23,3,3,0,0,0-1.38,1.19A11,11,0,0,0,212.52,445.18Z" style="fill:#263238"></path><path d="M283.4,426.8l-1.06,24.29s24.33,9.24,24.57,13.75l-47.17-.37.1-37.91Z" style="fill:#455a64"></path><path d="M267.77,448.94a1.91,1.91,0,0,0-1.35,2.18,1.85,1.85,0,0,0,2.16,1.36,2,2,0,0,0,1.41-2.32,1.92,1.92,0,0,0-2.4-1.17" style="fill:#e0e0e0"></path><path d="M259.74,464.47l.16-3.82,45.17,1.78s2.09.93,1.84,2.41Z" style="fill:#263238"></path><path d="M283.1,450.86c0,.23-1.16.33-2.3,1.06s-1.75,1.69-2,1.6.14-1.42,1.54-2.28S283.16,450.65,283.1,450.86Z" style="fill:#263238"></path><path d="M288,452.94c0,.23-1,.61-1.74,1.58s-1,2-1.26,2-.36-1.31.64-2.5S288,452.72,288,452.94Z" style="fill:#263238"></path><path d="M290.8,458.89c-.21,0-.52-1.11.08-2.37s1.68-1.75,1.78-1.55-.58.86-1.06,1.9S291,458.87,290.8,458.89Z" style="fill:#263238"></path><path d="M282.73,445.3c-.1.21-1.15-.12-2.45,0s-2.32.48-2.44.28.86-1,2.4-1.08S282.85,445.12,282.73,445.3Z" style="fill:#263238"></path><path d="M291,244.25c0,1.51-6,204.15-6,204.15l-29.38,1.11L248,266.84s-7.44,93.77-7.44,95.79-8.36,87.59-8.36,87.59L204.76,449l2-193,3.57-27.68,77.93.79Z" style="fill:#263238"></path><path d="M244.74,260.21a5.54,5.54,0,0,0,1.28.53c.83.31,2,.73,3.55,1.24l.29.1,0-.3c.18-2.52.37-5.9.56-9.59.2-4,.35-7.64.42-10.27,0-1.31.06-2.37.06-3.11a3.58,3.58,0,0,0-.07-1.14,4.37,4.37,0,0,0-.18,1.13c-.07.73-.16,1.79-.25,3.1-.19,2.63-.4,6.25-.6,10.26-.19,3.7-.33,7.07-.4,9.6l.3-.2c-1.52-.46-2.76-.82-3.62-1.05A5,5,0,0,0,244.74,260.21Z" style="fill:#455a64"></path><path d="M247.13,238.4s-.1-.16-.42-.27a1.89,1.89,0,0,0-1.39.12,1.74,1.74,0,0,0-1,1.72,2.1,2.1,0,0,0,1.67,1.86,2.31,2.31,0,0,0,2.32-1.05,1.86,1.86,0,0,0,0-2,2.06,2.06,0,0,0-1-.87c-.31-.11-.5-.1-.5-.06s.71.24,1.15,1.12a1.49,1.49,0,0,1-.08,1.52,1.76,1.76,0,0,1-1.7.75,1.6,1.6,0,0,1-1.23-1.33,1.31,1.31,0,0,1,.69-1.3A2.47,2.47,0,0,1,247.13,238.4Z" style="fill:#455a64"></path><path d="M232.68,240.55c.17,0,.41-.89.53-2s.08-2.07-.09-2.09-.41.9-.53,2S232.5,240.54,232.68,240.55Z" style="fill:#455a64"></path><path d="M230.49,240.34c.17,0,.32-1,.32-2.16s-.12-2.16-.3-2.16-.31,1-.32,2.16S230.32,240.34,230.49,240.34Z" style="fill:#455a64"></path><path d="M268.45,241.79a5.16,5.16,0,0,0,.59-2.43,5.22,5.22,0,0,0,0-2.5,5.24,5.24,0,0,0-.6,2.43A5.29,5.29,0,0,0,268.45,241.79Z" style="fill:#455a64"></path><path d="M265.8,242c.16.06.71-1.05.77-2.55s-.39-2.65-.55-2.6a13.74,13.74,0,0,0-.07,2.58A13.23,13.23,0,0,0,265.8,242Z" style="fill:#455a64"></path><path d="M275.76,239.19a2.76,2.76,0,0,0,.11.92,16.46,16.46,0,0,0,.63,2.46,25.91,25.91,0,0,0,3.9,7.47,27.38,27.38,0,0,0,6.15,6,19.81,19.81,0,0,0,2.24,1.38,3.86,3.86,0,0,0,.88.4c.05-.09-1.14-.76-2.88-2.07a30.91,30.91,0,0,1-5.93-6,29.36,29.36,0,0,1-4-7.28C276.14,240.46,275.86,239.17,275.76,239.19Z" style="fill:#455a64"></path><path d="M207.68,253.32a3,3,0,0,0,.95.15,15.15,15.15,0,0,0,2.64-.05,17.34,17.34,0,0,0,8.06-3,16.1,16.1,0,0,0,5.38-6.45,12.74,12.74,0,0,0,.82-2.38,2.26,2.26,0,0,0,.13-.91c-.1,0-.36,1.26-1.31,3.13A17.06,17.06,0,0,1,219,250a18.44,18.44,0,0,1-7.78,3C209.05,253.36,207.68,253.22,207.68,253.32Z" style="fill:#455a64"></path><path d="M279.67,57a17.25,17.25,0,0,0-4-5.56,8,8,0,0,0-6.38-2A5.28,5.28,0,0,0,264.87,54l-1.65.62c3.32,1.81,5.31,5.34,6.78,8.82s1.57,6.84,4,9.78c1.72-2.4,3.78-5,3.88-7.91a8.27,8.27,0,0,1,1,5.76,8.29,8.29,0,0,0,3-6.8A17.47,17.47,0,0,0,279.67,57Z" style="fill:#263238"></path><path d="M267,51.2c-1.78-7.81-11.84-8.74-18.26-8.48s-12.41,3.63-16.83,8.2S224.48,61.17,222,67l4.66.56a3,3,0,0,0-3,2.09,8,8,0,0,0-.09,3.9,59,59,0,0,0,2,9.21c2.47,7.86,7.33,14.76,12.11,21.52,1.13-6.16-.11-12.47-1.54-18.56-.5-2.16-1-4.47-.25-6.55A8.78,8.78,0,0,1,240,74.88c1.77-1,3.7-1.68,5.47-2.69a16.85,16.85,0,0,0,7.91-10.48Z" style="fill:#263238"></path><path d="M233.06,73.32,236.37,120c.57,7.94,3,19.48,15.52,18h0c10.76-2.08,12.78-12.6,12.25-20-.26-3.52-.46-6.45-.46-6.81,0,0,11.8-2,11.82-13.78,0-5.71-.93-17.48-1.9-28.11a22,22,0,0,0-22.16-20H250.3C238,50.16,231.87,61.07,233.06,73.32Z" style="fill:#ffbe9d"></path><path d="M263.68,111.19a28.5,28.5,0,0,1-15.44-4.39s3.85,8.6,15.63,7.41Z" style="fill:#eb996e"></path><path d="M253.94,75.78c-.21.26-1.66-.72-3.63-.61s-3.36,1.2-3.58,1,.09-.56.69-1.06A4.91,4.91,0,0,1,250.28,74a4.75,4.75,0,0,1,2.9.79C253.82,75.24,254.05,75.67,253.94,75.78Z" style="fill:#263238"></path><path d="M252.25,80.56a1.6,1.6,0,0,1-1.52,1.63,1.53,1.53,0,0,1-1.66-1.43,1.58,1.58,0,0,1,1.52-1.62A1.52,1.52,0,0,1,252.25,80.56Z" style="fill:#263238"></path><path d="M260,89.05a12.16,12.16,0,0,1,2.94-.56c.47-.06.9-.15,1-.47a2.32,2.32,0,0,0-.32-1.37l-1.41-3.52c-2-5-3.38-9.13-3.18-9.2s2,3.92,3.91,8.92l1.35,3.54a2.7,2.7,0,0,1,.26,1.82,1.19,1.19,0,0,1-.75.69A3,3,0,0,1,263,89,12.08,12.08,0,0,1,260,89.05Z" style="fill:#263238"></path><path d="M252.49,68.46c-.16.45-1.76.26-3.63.51s-3.4.8-3.65.4c-.11-.19.15-.62.76-1.06a6.15,6.15,0,0,1,5.54-.69C252.2,67.9,252.55,68.25,252.49,68.46Z" style="fill:#263238"></path><path d="M271.46,70.54c-.17.38-1.74.11-3.6.21s-3.39.46-3.62.11c-.1-.17.18-.52.81-.85a6.4,6.4,0,0,1,2.71-.69,6.84,6.84,0,0,1,2.79.45C271.22,70.05,271.54,70.37,271.46,70.54Z" style="fill:#263238"></path><path d="M234.11,82.06c-.2-.08-8.14-2.31-7.8,5.76s8.38,6.07,8.39,5.84S234.11,82.06,234.11,82.06Z" style="fill:#ffbe9d"></path><path d="M232.1,90.7s-.14.11-.37.23a1.44,1.44,0,0,1-1,.06c-.87-.27-1.64-1.6-1.74-3a4.6,4.6,0,0,1,.3-2,1.67,1.67,0,0,1,1-1.13.72.72,0,0,1,.84.35c.12.22.08.39.12.4s.17-.14.09-.47a1,1,0,0,0-.34-.5,1.09,1.09,0,0,0-.79-.17,2,2,0,0,0-1.41,1.32,4.66,4.66,0,0,0-.4,2.27c.12,1.62,1,3.11,2.2,3.4a1.53,1.53,0,0,0,1.28-.27C232.09,90.9,232.13,90.72,232.1,90.7Z" style="fill:#eb996e"></path><path d="M271.93,75c-.22.25-1.66-.72-3.63-.61s-3.36,1.2-3.59,1,.1-.56.7-1.06a5,5,0,0,1,2.85-1.08,4.78,4.78,0,0,1,2.91.8C271.8,74.48,272,74.91,271.93,75Z" style="fill:#263238"></path><path d="M269.13,80.56a1.62,1.62,0,0,1-1.53,1.63,1.54,1.54,0,0,1-1.66-1.43,1.59,1.59,0,0,1,1.52-1.62A1.53,1.53,0,0,1,269.13,80.56Z" style="fill:#263238"></path><path d="M267.3,55.33c1.27-4.93-2.8-7.18-7.06-10a12.65,12.65,0,0,0-14.31.53c-2.12,1.64-3.64,3.9-5.48,5.83s-4.28,3.6-6.94,3.48a9.54,9.54,0,0,0,10.75,1.63,24,24,0,0,1-11.44,7.69,8.69,8.69,0,0,0,11-1.72A24.24,24.24,0,0,1,238.09,73c-.46.49-1,1.11-.77,1.74s1,.85,1.7.88A11.16,11.16,0,0,0,249,70.21c2.14-3.7,3.54-7.63,5.48-11.43.93-1.81,3.91-5,6.32-5.08,2-.08,5.83.57,6.77,2.34" style="fill:#263238"></path><path d="M249,51.13a2.38,2.38,0,0,0-1.73-.91c-4.46-.72-8.93,2-11.45,5.75s-3.45,8.32-4,12.8c-.46,3.63-.71,7.42.51,10.87L233.67,82a12.11,12.11,0,0,1,1.8,3.59c.26,1,1.08,2.15,2.14,2a2.17,2.17,0,0,0,1.52-1.65c.68-2.29-.29-4.84.47-7.09.52-1.52,1.73-2.66,2.66-4A23.5,23.5,0,0,0,245.38,67L249,53.23A2.73,2.73,0,0,0,249,51.13Z" style="fill:#263238"></path><path d="M267.3,55.33c1.27-4.93-2.8-7.18-7.06-10a12.65,12.65,0,0,0-14.31.53c-2.12,1.64-3.64,3.9-5.48,5.83s-4.28,3.6-6.94,3.48a9.54,9.54,0,0,0,10.75,1.63,24,24,0,0,1-11.44,7.69,8.69,8.69,0,0,0,11-1.72A24.24,24.24,0,0,1,238.09,73c-.46.49-1,1.11-.77,1.74s1,.85,1.7.88A11.16,11.16,0,0,0,249,70.21c2.14-3.7,3.54-7.63,5.48-11.43.93-1.81,3.91-5,6.32-5.08,2-.08,5.83.57,6.77,2.34" style="fill:#263238"></path><path d="M241.83,54.38s.4-.13,1.07-.41a10.39,10.39,0,0,0,2.59-1.71c1-.85,2-2,3.32-3.28a13,13,0,0,1,2.2-1.74,7.48,7.48,0,0,1,2.85-1.06,9.88,9.88,0,0,1,5.71.93,14.54,14.54,0,0,1,3.84,2.75,21.84,21.84,0,0,1,2.1,2.38,4.83,4.83,0,0,1,.66,1c-.08.06-1.07-1.27-3-3.08a15.13,15.13,0,0,0-3.79-2.59,9.74,9.74,0,0,0-5.44-.85,9.08,9.08,0,0,0-4.81,2.64c-1.27,1.19-2.35,2.38-3.41,3.22A9.27,9.27,0,0,1,243,54.15,2.87,2.87,0,0,1,241.83,54.38Z" style="fill:#455a64"></path><path d="M247.93,61.26c-.05,0,.78-1,1.84-2.84.54-.89,1.16-2,2-3.12A11,11,0,0,1,255,52.1a9.1,9.1,0,0,1,4.4-1.28,8.76,8.76,0,0,1,3.67.71,8.23,8.23,0,0,1,2.13,1.32c.45.39.65.65.63.68a13.88,13.88,0,0,0-2.9-1.67,8.71,8.71,0,0,0-7.67.68,11.14,11.14,0,0,0-3.15,3c-.81,1.11-1.45,2.17-2,3a19.66,19.66,0,0,1-1.48,2C248.2,61.07,248,61.28,247.93,61.26Z" style="fill:#455a64"></path><path d="M275.4,60.15a13.44,13.44,0,0,1-.84-1.7,11.33,11.33,0,0,0-2.69-3.56,7.7,7.7,0,0,0-4-1.78c-1.14-.12-1.86.07-1.87,0a3.22,3.22,0,0,1,1.9-.34,7.17,7.17,0,0,1,4.31,1.74,10,10,0,0,1,2.69,3.8A4.87,4.87,0,0,1,275.4,60.15Z" style="fill:#455a64"></path><path d="M242.38,74.41s-.11,0-.34.09a7.22,7.22,0,0,1-1,.13,9.81,9.81,0,0,1-3.86-.52,5.15,5.15,0,0,1-2.42-1.46,1.62,1.62,0,0,1-.25-1.65,2.38,2.38,0,0,1,1.39-1.12c.56-.23,1.17-.35,1.74-.55a12.14,12.14,0,0,0,1.74-.77A11.26,11.26,0,0,0,242.5,66l.26.32a6.54,6.54,0,0,1-7.59-1l-.23-.23.29-.14a14.77,14.77,0,0,0,5.35-4.6l.3.37a9,9,0,0,1-8.9-1.44L231.7,59l-.32-.27.4-.15A8.58,8.58,0,0,0,235.17,56a29.46,29.46,0,0,0,2.39-3.52A22.6,22.6,0,0,1,240,49.06a17.56,17.56,0,0,1,3-2.67,17.32,17.32,0,0,1,13.2-2.94,17.61,17.61,0,0,1,8.29,4A12,12,0,0,1,266.76,50a27.89,27.89,0,0,0-2.41-2.36,17.78,17.78,0,0,0-8.22-3.84,16.45,16.45,0,0,0-6.28.09,17.62,17.62,0,0,0-6.6,2.88,18.29,18.29,0,0,0-5.27,6,29.73,29.73,0,0,1-2.43,3.58A8.79,8.79,0,0,1,232,59l.08-.42.27.22a8.5,8.5,0,0,0,8.38,1.37l.78-.31-.48.68a15,15,0,0,1-5.55,4.73l.06-.37a6.12,6.12,0,0,0,7.05,1l1-.57-.75.89a11.54,11.54,0,0,1-3.28,2.66,11.26,11.26,0,0,1-1.8.78c-.61.2-1.2.32-1.73.53a2.1,2.1,0,0,0-1.23.93,1.3,1.3,0,0,0,.2,1.34,5,5,0,0,0,2.26,1.42,10.35,10.35,0,0,0,3.78.61C241.91,74.48,242.38,74.38,242.38,74.41Z" style="fill:#455a64"></path><path d="M261.06,94l-5.79-2.57a10,10,0,0,0-1.17,2.42,3.24,3.24,0,0,0,.3,2.59,4.14,4.14,0,0,0,2.09,1.42,3.71,3.71,0,0,0,2.19.31,2.88,2.88,0,0,0,1.83-1.68,8.49,8.49,0,0,0,.56-2.49" style="fill:#eb996e"></path><path d="M258.68,98.16s-.21.14-.64.16a4.73,4.73,0,0,1-1.78-.36,3.91,3.91,0,0,1-2.18-1.62,3.83,3.83,0,0,1,0-3.32,12.77,12.77,0,0,1,.94-1.73l.12-.19.19.09c1.66.75,3.1,1.43,4.11,1.93a7,7,0,0,1,1.58.87,7.26,7.26,0,0,1-1.71-.59c-1.05-.42-2.51-1-4.18-1.76l.31-.1a14.72,14.72,0,0,0-.89,1.67,3.46,3.46,0,0,0-.1,2.91,3.64,3.64,0,0,0,1.9,1.5,5.5,5.5,0,0,0,1.65.5C258.44,98.17,258.67,98.12,258.68,98.16Z" style="fill:#263238"></path><path d="M235.28,116.2s8.37,9.15,30.27,1.85l13.84,20.26,13.8,111.81-46.3,5.3-36.25-5.12,11.58-112Z" style="fill:#e0e0e0"></path><path d="M290.86,125.45s8,1.36,12.52,10.61S311,182.82,311,182.82l23.13-17.17L346,170.16s-19.25,41.49-32,44.52c-10.55,2.5-16.47,3.66-22.18-5.31s-9.85-73.31-9.85-73.31Z" style="fill:#455a64"></path><path d="M300.12,275s-6-61.68-5.68-62.42-.65-36.1,0-36.65-3.58-50.45-3.58-50.45l-22-6.79.29,0-5-5.32s-6.14,20.39-6.06,20.72c1.78,7,8.15,111.41,8.15,111.41,0,.74,2.51,29.46,2.51,29.46Z" style="fill:#455a64"></path><path d="M293.47,179.13a5.35,5.35,0,0,1-.75.58l-2.22,1.56-.05,0-.07,0-11.67-5.65-.13-.06v-.13c-.28-3.79-.6-8.09-.95-12.63-.3-4.26-.59-8.31-.85-11.94v-.21l.2,0a29.79,29.79,0,0,1,12.48.09,25.88,25.88,0,0,1,3.43,1,6.08,6.08,0,0,1,1.17.51,10.38,10.38,0,0,1-1.21-.36,31.87,31.87,0,0,0-3.45-.84,30.63,30.63,0,0,0-12.32.1l.19-.25c.27,3.63.58,7.67.9,11.93.32,4.54.63,8.84.9,12.63l-.13-.19,11.57,5.85h-.13l2.29-1.46A4.17,4.17,0,0,1,293.47,179.13Z" style="fill:#263238"></path><path d="M293.82,143.17a8,8,0,0,1,.16,1.49c.07,1,.14,2.37.2,4.09.12,3.46.15,8.24.12,13.51s-.05,10.05,0,13.5c0,1.65,0,3,0,4.09a8.23,8.23,0,0,1-.05,1.51,8,8,0,0,1-.16-1.5c-.07-1-.14-2.36-.2-4.09-.12-3.46-.15-8.24-.12-13.51s.05-10,0-13.5c0-1.65,0-3,0-4.09A8,8,0,0,1,293.82,143.17Z" style="fill:#263238"></path><path d="M269.17,118.7a6.43,6.43,0,0,1-.07,1.37c-.08.88-.21,2.15-.38,3.72-.36,3.13-.9,7.45-1.65,12.2-.26,1.71-.54,3.36-.82,4.89l-.13.73-.34-.66a46.57,46.57,0,0,0-2.5-4.29c-.41-.63-.81-1.21-1.19-1.75a6.8,6.8,0,0,0-1.15-1.34,1.79,1.79,0,0,0-1.25-.47,1.53,1.53,0,0,0-.92.43,1.16,1.16,0,0,0-.32.8s-.23-.38.19-.92a1.68,1.68,0,0,1,1-.55,2,2,0,0,1,1.48.46,6.69,6.69,0,0,1,1.26,1.37c.4.53.82,1.1,1.24,1.73a43.2,43.2,0,0,1,2.58,4.3l-.47.07.8-4.88c.75-4.75,1.34-9.06,1.8-12.17.22-1.48.4-2.72.55-3.69A6.76,6.76,0,0,1,269.17,118.7Z" style="fill:#263238"></path><g style="opacity:0.30000000000000004"><path d="M265.84,140.52c-.36,1.48-.71,3-1.06,4.44q-1.59-4.43-3.17-8.86a6.19,6.19,0,0,0-.79-1.66,3.65,3.65,0,0,0-2.18-1,2.16,2.16,0,0,1,2.88.15C262.8,134.94,265.84,140.52,265.84,140.52Z"></path></g><g style="opacity:0.30000000000000004"><path d="M294.28,179.46c2.75-9.87,2.18-22.23-.46-32.14Z"></path></g><path d="M293.87,156.62a13,13,0,0,1-2.41-.28c-1.47-.21-3.51-.45-5.78-.58s-4.32-.11-5.81-.07a12.48,12.48,0,0,1-2.42,0,9.87,9.87,0,0,1,2.4-.38,42.29,42.29,0,0,1,11.67.65A9.64,9.64,0,0,1,293.87,156.62Z" style="fill:#263238"></path><path d="M294.83,228.77a4.4,4.4,0,0,1-1-.46c-.63-.32-1.52-.82-2.6-1.45a94.86,94.86,0,0,1-8.2-5.45,93.57,93.57,0,0,1-7.59-6.26c-.93-.85-1.66-1.56-2.15-2.06a5,5,0,0,1-.73-.82,4,4,0,0,1,.87.67l2.25,1.94c1.91,1.62,4.59,3.83,7.67,6.11s6,4.2,8.07,5.55l2.51,1.6A4.11,4.11,0,0,1,294.83,228.77Z" style="fill:#263238"></path><path d="M208,210.31l-1.31,9.9s46.64,10.17,51.41,9.87,7.81-5,7.81-5l.76-5.32s28,1.58,29.21-1.72l-43.94-6.43L239,214Z" style="opacity:0.30000000000000004"></path><path d="M263.42,124.47a49,49,0,1,1,51.14,65.16l-4.13,11.67L269.91,187s2.07-6.64,4-12.51A49,49,0,0,1,263.42,124.47Z" style="fill:#687DAC"></path><path d="M276,189.09s.1-.18.28-.54l.78-1.62c.68-1.42,1.67-3.53,2.91-6.26,2.46-5.47,5.9-13.45,9.58-23.53.92-2.51,1.86-5.16,2.79-7.94.47-1.39.94-2.8,1.41-4.25a15.29,15.29,0,0,0,1-4.56,5.07,5.07,0,0,0-.53-2.37,3.14,3.14,0,0,0-1.83-1.67,3,3,0,0,0-2.47.46,4.61,4.61,0,0,0-1.64,2,5.72,5.72,0,0,0,.45,5,8.63,8.63,0,0,0,3.89,3.54,9.41,9.41,0,0,0,5.35.76,9.91,9.91,0,0,0,5-2.41,11.82,11.82,0,0,0,3.21-4.65,8.78,8.78,0,0,0,.6-2.84,4.06,4.06,0,0,0-.85-2.81,2.54,2.54,0,0,0-1.31-.79,3.25,3.25,0,0,0-1.52,0,4.67,4.67,0,0,0-2.53,1.58,10.27,10.27,0,0,0-1.56,2.57,29.29,29.29,0,0,0-1.05,2.8,20.22,20.22,0,0,0-1.06,6,11.19,11.19,0,0,0,1.45,5.94,9,9,0,0,0,2,2.37,6.87,6.87,0,0,0,2.77,1.37,6.5,6.5,0,0,0,3.07-.12,8.23,8.23,0,0,0,2.72-1.38,18.44,18.44,0,0,0,4-4.41c.56-.81,1.08-1.64,1.58-2.48a17.4,17.4,0,0,0,1.35-2.61,4.86,4.86,0,0,0,.26-2.92,3.11,3.11,0,0,0-.68-1.34,2.13,2.13,0,0,0-1.35-.69,2.54,2.54,0,0,0-1.46.3,5.05,5.05,0,0,0-1.17.86,9.77,9.77,0,0,0-1.69,2.28,16.49,16.49,0,0,0-2.27,10.56,10.5,10.5,0,0,0,2.14,4.82,7.85,7.85,0,0,0,4.27,2.82,6.78,6.78,0,0,0,4.9-.77,7.7,7.7,0,0,0,3.31-3.49,6.22,6.22,0,0,0,.6-2.31,3.54,3.54,0,0,0-.58-2.28,1.82,1.82,0,0,0-2.19-.59,4.32,4.32,0,0,0-1.71,1.48,17.91,17.91,0,0,0-1.91,3.88l-1.56,3.81c-4.08,9.92-7.23,18-9.3,23.63-1,2.81-1.81,5-2.32,6.51l-.57,1.7-.18.59s.08-.2.22-.58l.6-1.69c.53-1.48,1.32-3.68,2.38-6.48,2.11-5.61,5.29-13.68,9.4-23.59.51-1.24,1-2.5,1.58-3.8a17.31,17.31,0,0,1,1.88-3.81,4,4,0,0,1,1.6-1.39,1.53,1.53,0,0,1,1.85.5,3.22,3.22,0,0,1,.52,2.1,5.89,5.89,0,0,1-.58,2.19,7.4,7.4,0,0,1-3.19,3.36,6.52,6.52,0,0,1-4.68.73,7.55,7.55,0,0,1-4.09-2.72,10.09,10.09,0,0,1-2.06-4.67A16.11,16.11,0,0,1,310,144.86a9.59,9.59,0,0,1,1.63-2.2,3.12,3.12,0,0,1,2.36-1.07,2.15,2.15,0,0,1,1.74,1.77,4.48,4.48,0,0,1-.26,2.72,17.15,17.15,0,0,1-1.32,2.55c-.49.83-1,1.66-1.57,2.46a18.2,18.2,0,0,1-3.93,4.33,8.09,8.09,0,0,1-2.6,1.32,5.94,5.94,0,0,1-2.9.11,7.36,7.36,0,0,1-4.56-3.57,10.7,10.7,0,0,1-1.4-5.75,20.1,20.1,0,0,1,1-5.86,15.8,15.8,0,0,1,2.54-5.23,4.35,4.35,0,0,1,2.34-1.48,2.52,2.52,0,0,1,2.5.68,3.69,3.69,0,0,1,.76,2.57,8.16,8.16,0,0,1-.57,2.72,11.53,11.53,0,0,1-3.11,4.52,9.55,9.55,0,0,1-4.8,2.34,8.94,8.94,0,0,1-5.16-.73,8.26,8.26,0,0,1-3.75-3.4,5.42,5.42,0,0,1-.45-4.77,4.31,4.31,0,0,1,1.53-1.82,2.64,2.64,0,0,1,2.21-.43,2.9,2.9,0,0,1,1.66,1.51,4.82,4.82,0,0,1,.49,2.24,14.55,14.55,0,0,1-1,4.47c-.47,1.45-.94,2.87-1.39,4.26q-1.4,4.15-2.78,7.94c-3.64,10.08-7,18.07-9.46,23.55-1.22,2.74-2.19,4.86-2.85,6.29-.33.71-.58,1.26-.76,1.63Z" style="fill:#fff"></path><g id="freepik--2ggvdetif--inject-2"><path d="M287.43,233a14.74,14.74,0,0,0-3.85,1.56,3.21,3.21,0,0,1-2.8.29l-9-3.21a3.25,3.25,0,0,1-2.06-2.23,6,6,0,0,0-2.23-3.51Z" style="fill:#263238"></path></g><path d="M306.17,211.25c-.07.18-7.18,13.57-9.9,18.69a7.06,7.06,0,0,1-5.56,3.79,6.36,6.36,0,0,1-2.77-.35l-19.79-7s-5.18-1.83-4.89-6.35c.29-4.76,4-22.57,4-22.57Z" style="fill:#e0e0e0"></path><rect x="279.16" y="203.48" width="2.2" height="38.67" rx="1.04" transform="translate(-24.1 411.38) rotate(-70.27)" style="fill:#e0e0e0"></rect><path d="M262.67,217.67a1.25,1.25,0,0,1-.56-.55,1.1,1.1,0,0,1,0-.92,1,1,0,0,1,1-.59c1.88.64,4.64,1.7,8,2.92l26.58,9.59a.83.83,0,0,1,.55.61.85.85,0,0,1,0,.42,1.34,1.34,0,0,1-.18.4.86.86,0,0,1-.74.35,6.12,6.12,0,0,1-.91-.28l-3.73-1.34-7.07-2.53-12-4.25-8.08-2.84-2.21-.75-.57-.19-.2-.05.19.08.56.22,2.18.82,8,3,11.95,4.32,7.06,2.54,3.73,1.35.48.17a1.93,1.93,0,0,0,.54.14,1.24,1.24,0,0,0,1-.49,1.48,1.48,0,0,0,.24-.53,1.31,1.31,0,0,0,0-.59,1.22,1.22,0,0,0-.78-.87l-26.61-9.49c-3.42-1.19-6.15-2.2-8.11-2.81a1.08,1.08,0,0,0-1.13.68,1.14,1.14,0,0,0,0,1A1,1,0,0,0,262.67,217.67Z" style="fill:#263238"></path><rect x="280.74" y="198.25" width="2.2" height="40.22" rx="1.04" transform="translate(-18.86 409.91) rotate(-70.27)" style="fill:#e0e0e0"></rect><path d="M263.52,213a1.07,1.07,0,0,1-.57-.57,1.12,1.12,0,0,1,.07-.95,1,1,0,0,1,1.11-.51l8.35,3.05,27.61,10a.88.88,0,0,1,.56.64.82.82,0,0,1,0,.44,1.06,1.06,0,0,1-.21.41.87.87,0,0,1-.79.28c-.27-.07-.64-.22-1-.33L294.78,224l-7.34-2.62L275,216.94,266.61,214l-2.29-.79-.6-.19-.2-.06s.06,0,.19.09l.59.23,2.26.85,8.36,3.06,12.41,4.49,7.33,2.64,3.88,1.39a10.31,10.31,0,0,0,1,.35,1.23,1.23,0,0,0,1.11-.4,1.43,1.43,0,0,0,.28-.53,1.3,1.3,0,0,0,0-.62,1.2,1.2,0,0,0-.79-.9l-27.65-9.87c-3.54-1.25-6.4-2.26-8.4-2.94a1.09,1.09,0,0,0-1.23.59,1.18,1.18,0,0,0-.05,1A.92.92,0,0,0,263.52,213Z" style="fill:#263238"></path><rect x="282.32" y="193.3" width="2.2" height="41.2" rx="1.04" transform="translate(-13.62 408.45) rotate(-70.27)" style="fill:#e0e0e0"></rect><path d="M264.63,208.34a1.22,1.22,0,0,1-.57-.6,1.1,1.1,0,0,1,.09-1,1,1,0,0,1,1.16-.45l8.55,3.13,28.28,10.19a.91.91,0,0,1,.56.67,1.06,1.06,0,0,1-.27.85.87.87,0,0,1-.82.25c-.31-.1-.67-.24-1-.36l-4-1.42L289.12,217l-12.73-4.53-8.59-3-2.34-.81-.62-.2-.21,0,.2.09.6.23,2.32.87,8.56,3.13,12.7,4.59,7.51,2.71,4,1.43c.35.12.65.24,1,.36a1.25,1.25,0,0,0,1.17-.34,1.5,1.5,0,0,0,.3-.53,1.35,1.35,0,0,0,.06-.63,1.23,1.23,0,0,0-.79-.94L274,209.21l-8.6-3a1.12,1.12,0,0,0-1.29.53,1.2,1.2,0,0,0-.07,1.05A1,1,0,0,0,264.63,208.34Z" style="fill:#263238"></path><rect x="283.9" y="188.06" width="2.2" height="42.79" rx="1.04" transform="translate(-8.39 406.99) rotate(-70.27)" style="fill:#e0e0e0"></rect><path d="M265.46,203.62a1.16,1.16,0,0,1-.58-.62,1.13,1.13,0,0,1,.14-1,1,1,0,0,1,1.24-.36l8.87,3.25,29.33,10.57a.89.89,0,0,1,.57.7,1.08,1.08,0,0,1-.32.87.88.88,0,0,1-.88.16l-1.05-.37-4.12-1.48-7.79-2.79-13.21-4.69-8.91-3.14-2.43-.84-.64-.2a.63.63,0,0,0-.22-.06l.21.09.62.24,2.41.9,8.88,3.24,13.18,4.77,7.78,2.81,4.12,1.48,1,.38a1.25,1.25,0,0,0,1.59-.78,1.35,1.35,0,0,0,.08-.64,1.23,1.23,0,0,0-.8-1l-29.36-10.48-8.91-3.14a1.12,1.12,0,0,0-1.38.43,1.22,1.22,0,0,0-.12,1.08,1,1,0,0,0,.44.51A.59.59,0,0,0,265.46,203.62Z" style="fill:#263238"></path><path d="M317.72,196.3c-.13.36-4,8.73-6,13a5.72,5.72,0,0,1-3.84,3.13l-2.48.59-38.27-13.58-1.53-2a5.69,5.69,0,0,1-1-4.91l3.62-13.83Z" style="fill:#687DAC"></path><g style="opacity:0.30000000000000004"><path d="M295.85,229.48a53.48,53.48,0,0,1-11.72-3.16c-3.26-1.18-6.49-2.22-10-3.56-2.58-1-4.93-1.95-7.48-3a7.51,7.51,0,0,1-2.78-1.72Z"></path></g><g style="opacity:0.30000000000000004"><path d="M298.8,225.49A61.42,61.42,0,0,1,286.19,222c-3.51-1.27-7-2.4-10.8-3.83-2.78-1.05-5.31-2.1-8.06-3.2a8.75,8.75,0,0,1-3-1.8Z"></path></g><g style="opacity:0.30000000000000004"><path d="M300.37,221.07a61.42,61.42,0,0,1-12.61-3.47c-3.52-1.27-7-2.4-10.8-3.83-2.78-1.05-5.31-2.09-8.07-3.2a8.78,8.78,0,0,1-3-1.8Z"></path></g><g style="opacity:0.30000000000000004"><path d="M301.94,216.65a61.24,61.24,0,0,1-12.61-3.47c-3.52-1.27-7-2.4-10.8-3.83-2.78-1-5.31-2.09-8.07-3.2a8.62,8.62,0,0,1-3-1.8Z"></path></g><path d="M310.43,186.48a3.55,3.55,0,0,0,.61,0c.39,0,1,0,1.73-.05a43.4,43.4,0,0,0,6.31-.84,45.11,45.11,0,0,0,9-2.85,45.12,45.12,0,0,0,18.08-14.12,45.64,45.64,0,0,0,4.95-8,43.9,43.9,0,0,0,2.34-5.92c.24-.72.36-1.29.47-1.67a4.84,4.84,0,0,0,.14-.59,2.52,2.52,0,0,0-.21.57c-.13.37-.27.94-.53,1.64a48.93,48.93,0,0,1-2.44,5.86,46,46,0,0,1-22.93,22,47.62,47.62,0,0,1-8.93,2.91,49.14,49.14,0,0,1-6.27.94c-.75.08-1.33.09-1.73.12Z" style="fill:#263238"></path><path d="M355.22,142.89a9.82,9.82,0,0,0-.42,2.51,8.93,8.93,0,0,0-.07,2.54,9.82,9.82,0,0,0,.42-2.51A8.93,8.93,0,0,0,355.22,142.89Z" style="fill:#263238"></path><path d="M264.74,137a4.16,4.16,0,0,0,.1-.51c.05-.37.12-.86.21-1.48l.14-1.07c.07-.38.17-.8.26-1.25.2-.9.36-1.93.71-3,.16-.55.32-1.14.5-1.74s.43-1.22.65-1.86c.42-1.29,1-2.6,1.66-4a50.35,50.35,0,0,1,5.16-8.47,51.44,51.44,0,0,1,6.82-7.2c1.19-1,2.29-1.91,3.43-2.65.56-.39,1.08-.79,1.62-1.12l1.55-.93c1-.63,1.93-1.06,2.75-1.49.41-.2.78-.41,1.14-.57l1-.42,1.37-.59a2.9,2.9,0,0,0,.47-.23,2.74,2.74,0,0,0-.49.16l-1.4.53-1,.39c-.36.16-.74.36-1.16.55-.82.42-1.79.83-2.78,1.45l-1.58.92c-.54.33-1.07.72-1.64,1.1-1.15.75-2.27,1.69-3.47,2.65a49.86,49.86,0,0,0-6.89,7.23,50.8,50.8,0,0,0-5.18,8.55c-.61,1.41-1.23,2.74-1.64,4-.22.65-.46,1.27-.64,1.88s-.32,1.2-.47,1.76a29.29,29.29,0,0,0-.67,3.06c-.08.46-.17.88-.23,1.27s-.07.75-.11,1.07c-.06.62-.11,1.12-.15,1.49A1.86,1.86,0,0,0,264.74,137Z" style="fill:#fff"></path><g style="opacity:0.2"><path d="M323.21,108.26c1.49-1.67,4.14-2.32,7-2.18a15.46,15.46,0,0,1,10.51,5.1c8.05,8.74,11.44,17,10.94,29.47-.17,4.21-1.81,10.68-5,13.74a8,8,0,0,1-5.94,2.34c-5.75-.33-8.1-6.87-8-12.29.09-5.05,1.35-10.34-.61-15-1.62-3.83-5.13-6.47-7.68-9.77S320.43,111.35,323.21,108.26Z" style="fill:#fff"></path></g><g style="opacity:0.2"><path d="M305.31,99.89c2.75-2.36,7.47-2.07,9.56-.06a8,8,0,0,1,2.25,6.61,7.31,7.31,0,0,1-5.56,6A6.92,6.92,0,0,1,304.2,109C302.86,106.44,303.11,101.78,305.31,99.89Z" style="fill:#fff"></path></g><path d="M317.72,196.3c-.13.36-4,8.73-6,13a5.72,5.72,0,0,1-3.84,3.13l-2.48.59-38.27-13.58-1.53-2a5.69,5.69,0,0,1-1-4.91l3.62-13.83Z" style="opacity:0.30000000000000004"></path><path d="M267.92,178.63c0,.1,11,4.11,24.73,9s24.81,8.72,24.84,8.63-11-4.11-24.73-9S268,178.54,267.92,178.63Z" style="fill:#263238"></path><path d="M264.87,194.74c0,.1,10.17,3.8,22.8,8.28s22.89,8,22.92,7.94-10.17-3.79-22.8-8.27S264.9,194.65,264.87,194.74Z" style="fill:#263238"></path><path d="M299,83c-.14,0-1.68-8-3.44-17.83s-3.08-17.89-2.94-17.92,1.69,8,3.45,17.83S299.19,83,299,83Z" style="fill:#263238"></path><path d="M355,33.65c.14.05-4.65,12.27-10.69,27.29s-11,27.15-11.18,27.1,4.65-12.27,10.69-27.29S354.84,33.6,355,33.65Z" style="fill:#263238"></path><path d="M388.73,79.63c.08.12-7.43,5-16.77,10.92S355,101.16,354.9,101s7.44-5,16.78-10.93S388.66,79.51,388.73,79.63Z" style="fill:#263238"></path><path d="M394.64,128.05c0,.15-6.63-.42-14.76-1.27s-14.72-1.65-14.71-1.79,6.62.42,14.76,1.27S394.65,127.91,394.64,128.05Z" style="fill:#263238"></path><path d="M319.89,79.33c-.15,0,.37-6.15,1.14-13.7S322.55,52,322.69,52s-.37,6.15-1.14,13.7S320,79.35,319.89,79.33Z" style="fill:#263238"></path><path d="M365.73,67.57a4.61,4.61,0,0,1-.53,1c-.37.62-.92,1.48-1.63,2.54-1.42,2.12-3.48,5-5.93,8s-4.82,5.64-6.6,7.47c-.88.91-1.61,1.64-2.14,2.13a5.82,5.82,0,0,1-.84.72,4,4,0,0,1,.7-.86c.55-.62,1.22-1.36,2-2.24,1.7-1.89,4-4.53,6.45-7.54s4.54-5.83,6-7.89L365,68.43A4.55,4.55,0,0,1,365.73,67.57Z" style="fill:#263238"></path><path d="M379.51,106.44a65,65,0,0,1-7.89,2.46,65.19,65.19,0,0,1-8,2,65.85,65.85,0,0,1,7.9-2.47A66.26,66.26,0,0,1,379.51,106.44Z" style="fill:#263238"></path><path d="M269.94,201.79a13.7,13.7,0,0,1,4.43-3.91c3-1.69,8.93-2.27,10.08-4.24s2.93.1,1.9,2.64c-.65,1.62-5,5.32-5,5.32s3.85,1.84,6.87.83,13-1.89,13.79-.36c.84,1.72-1.74,1.72-2.92,2.11-.91.29-7.83,2.14-7.83,2.14s12.6,2.11,14.06,3-.48,2.15-1.27,2c-.51-.08.86,1.58-.95,2.69-1.22.75-6.58.83-8,.57l-2.92-.55,8.65,2.72s1.24,1.7-1,2c-1,.13-28.58-1.44-30.68-1.74-3.63-.52-8.78-1.44-8.78-1.44l2.95-14.92Z" style="fill:#ffbe9d"></path><path d="M291.26,206.32a5.62,5.62,0,0,1,1.34.09c.86.1,2.1.26,3.62.5s3.34.54,5.34,1a21.25,21.25,0,0,1,3.1.89,3,3,0,0,1,.81.45,1.11,1.11,0,0,1,.19.23l.1.21a2,2,0,0,1,.16.45,1.21,1.21,0,0,1-.23,1,1.79,1.79,0,0,1-.88.5,10.43,10.43,0,0,1-1.79.16l-1.7,0c-1.11,0-2.18,0-3.2,0-2.05-.07-3.88-.22-5.42-.4s-2.77-.37-3.61-.54a5.73,5.73,0,0,1-1.31-.31,6.66,6.66,0,0,1,1.34.11c.85.1,2.09.24,3.62.38s3.36.24,5.39.28c1,0,2.08,0,3.18,0l1.69-.06a11,11,0,0,0,1.67-.14,1.32,1.32,0,0,0,.63-.34.67.67,0,0,0,.11-.59,2.06,2.06,0,0,0-.12-.35l-.08-.18s0-.05-.08-.09a3.15,3.15,0,0,0-.66-.36,24,24,0,0,0-3-.9c-2-.46-3.78-.8-5.29-1.09l-3.59-.66A8.53,8.53,0,0,1,291.26,206.32Z" style="fill:#eb996e"></path><path d="M349,169.87l2.76-6.29s-5.68-7.2-5.69-10l-.11-1.63s-3.36-3.3-1.94-5.6c-.43-1.84-.1-2.94,1.47-2.86,0,0-2.57-2.44-.19-4.69S357,148,357,148s4.25,5.17,2.1,6.61c0,0,1.39,3.49-2.14,4.62,0,0,1.32,2.47-1.08,5.31l-1,1.25a12.3,12.3,0,0,1-4.27,3.33Z" style="fill:#ffbe9d"></path><path d="M355.52,158.14s.23,0,.56.14a2.43,2.43,0,0,1,1,1.15,3.4,3.4,0,0,1,.14,2.33,7.8,7.8,0,0,1-1.36,2.59,19.88,19.88,0,0,1-3.69,3.78,6.69,6.69,0,0,1-1.86,1.17,35.85,35.85,0,0,0,5.14-5.23,7.8,7.8,0,0,0,1.32-2.41,3.18,3.18,0,0,0,0-2.08A2.84,2.84,0,0,0,355.52,158.14Z" style="fill:#eb996e"></path><path d="M354.87,152.19c-.13.09-1.84-2.32-4.47-4.82s-5.11-4.11-5-4.24a6.08,6.08,0,0,1,1.71.93,26.93,26.93,0,0,1,6.77,6.47A6.37,6.37,0,0,1,354.87,152.19Z" style="fill:#eb996e"></path><path d="M353.51,155.13c-.12.1-2-2.11-4.63-4.53s-4.94-4.17-4.85-4.29a31.19,31.19,0,0,1,9.48,8.82Z" style="fill:#eb996e"></path><path d="M356.78,152.65c0-.14,1-.07,1.83.82s.8,1.9.66,1.89-.34-.81-1-1.54S356.75,152.79,356.78,152.65Z" style="fill:#eb996e"></path><path d="M350.65,157.81a19.45,19.45,0,0,1-2.33-2.78,19.23,19.23,0,0,1-2.2-2.87,15.08,15.08,0,0,1,4.53,5.65Z" style="fill:#eb996e"></path><path d="M236.71,193.14c2.37-25.64,6.63-62.66,6.63-62.66s-3.3-8.87-5.08-12.77l-2.38-5.7h0l-5.22,6.65-19.55,6.79a23.45,23.45,0,0,0-7.36,6.29c-3.52,4.77-5.54,9-6.6,16.86-2.92,21.65-7.48,51.7-3.31,58.66,1.11,1.86,6.24,4.77,13.6,7.44L199.87,268c10.11,7.77,17.71,6.91,32.43,2.2,0,0,2.13-31.68,2.71-48.5,13.34,2.86,24.57,5.06,24.57,5.06l4.27-25.67Z" style="fill:#455a64"></path><path d="M220.38,188a19.94,19.94,0,0,0-5.23,2.29,19.5,19.5,0,0,0-4,4.08,4.06,4.06,0,0,1,.76-1.55,11.37,11.37,0,0,1,6.75-4.66A4.12,4.12,0,0,1,220.38,188Z" style="fill:#263238"></path><path d="M215.77,151.33a15.2,15.2,0,0,1-.39-2.73c-.18-1.69-.43-4-.76-6.6-.5-4-1-7.47-1.17-8.73l.17,0c0,.38,0,.58,0,.58s-.08-.18-.17-.56l.18,0a77.08,77.08,0,0,1,1.52,8.71c.33,2.58.52,4.93.61,6.63A13.56,13.56,0,0,1,215.77,151.33Z" style="fill:#263238"></path><path d="M220.47,162.26a2.19,2.19,0,0,1,0,.45c0,.33,0,.77,0,1.33,0,1.19,0,2.91-.09,5.11-.1,4.46-.25,10.88-.43,18.82l-.13-.18,44,12.81.22.06,0,.23-1.63,9.85-2.63,15.81,0,.25-.25,0c-18.45-3-34.51-6.42-45.73-9.84A84.38,84.38,0,0,1,200.88,212l-1.91-1-1.31-.85-.8-.54a2.34,2.34,0,0,1-.26-.19,1.54,1.54,0,0,1,.29.16l.82.49,1.33.81,1.91.94a89.33,89.33,0,0,0,12.9,4.72c11.21,3.33,27.27,6.68,45.71,9.66l-.3.21,2.63-15.82c.56-3.37,1.11-6.7,1.64-9.85l.18.29-44-12.94-.14,0V188c.25-7.94.45-14.36.59-18.82.08-2.2.15-3.91.19-5.1,0-.57,0-1,.06-1.33A3.09,3.09,0,0,1,220.47,162.26Z" style="fill:#263238"></path><path d="M230.93,119.38c.16.8,6.62,22.23,6.62,22.23A49.74,49.74,0,0,1,239.7,133c1.39-3.34.76-3.49.76-3.49s-2.24.8-3.06,4.2c-.15.61-.46,2.61-.46,2.61Z" style="opacity:0.30000000000000004"></path><path d="M242.82,133.16a5.49,5.49,0,0,1-.09-1,3.09,3.09,0,0,0-1-2.35,1.44,1.44,0,0,0-1.61-.17,4.69,4.69,0,0,0-1.43,1.55,9.71,9.71,0,0,0-1.55,4.77l-.07,1.41-.43-1.34c-.27-.83-.55-1.69-.86-2.56-1.45-4.12-3-7.78-3.91-10.5-.47-1.36-.82-2.47-1.05-3.24a6.17,6.17,0,0,1-.28-1.22,6.83,6.83,0,0,1,.48,1.16l1.2,3.17c1,2.68,2.6,6.32,4.06,10.46.3.88.59,1.74.85,2.57l-.51.07a10,10,0,0,1,1.7-5,4.83,4.83,0,0,1,1.62-1.65,1.79,1.79,0,0,1,2,.26,2.61,2.61,0,0,1,.87,1.4,4.77,4.77,0,0,1,.14,1.21A3.49,3.49,0,0,1,242.82,133.16Z" style="fill:#263238"></path></g></svg>