<svg xmlns="http://www.w3.org/2000/svg" viewBox="0 0 500 500"><g id="freepik--Character--inject-79"><path d="M355.41,133.27l-13.92-22.34a.79.79,0,0,0-1.34,0l-13.66,23.62Z" style="fill:#9DAFCD"></path><g style="opacity:0.30000000000000004"><path d="M355.41,133.27l-13.92-22.34a.79.79,0,0,0-1.34,0l-13.66,23.62Z"></path></g><polygon points="341.49 111.99 354.5 133.18 351.19 132.66 329.94 129.31 337.86 112.65 341.49 111.99" style="fill:#ebebeb"></polygon><path d="M342.88,153.65l12.53-20.38-32.45-6a2.55,2.55,0,0,0-2.67,1.22l-18.3,31a1.59,1.59,0,0,0,1.09,2.37l30.5,5.41Z" style="fill:#9DAFCD"></path><polygon points="334.22 113.27 352.23 132.77 326.08 127.87 334.22 113.27" style="fill:#ebebeb"></polygon><path d="M326.08,127.87a1.07,1.07,0,0,1,.12-.29l.4-.79,1.6-3c1.44-2.61,3.44-6.26,5.83-10.63l.15-.27.21.23,11.74,12.66,6.28,6.82-.39.31c-4.1-5.81-7.66-10.84-10.23-14.47l-2.93-4.24-.76-1.14a2.52,2.52,0,0,1-.25-.41s.12.11.32.36l.83,1.1,3.05,4.14,10.38,14.37-.39.32-6.29-6.8-11.69-12.72.36,0c-2.46,4.33-4.51,8-6,10.54l-1.71,2.94-.46.76C326.15,127.79,326.09,127.88,326.08,127.87Z" style="fill:#263238"></path><g style="opacity:0.30000000000000004"><path d="M326.44,136.35c-.28.42-10.92,18.15-10.92,18.15l17.34,3.24,11.51-18.39Z" style="fill:#fff"></path></g><path d="M196,438.8l9.53-12.45.5-.64,16.24,12.08-15,16.52.55,16.72c8.37,2.17,9.63,6.35,9.63,6.35l-17.41,0L184.15,446.9Z" style="fill:#455a64"></path><path d="M184.15,446.9,200,477.36l17.41,0a7.19,7.19,0,0,0-2-2.62L201.25,474l-14.59-28.79Z" style="fill:#ebebeb"></path><path d="M207.63,463.37c-.13.18-1.13-.39-2.48-.36s-2.33.6-2.47.42.82-1.17,2.46-1.18S207.79,463.23,207.63,463.37Z" style="fill:#263238"></path><path d="M207.35,459.22c-.17.12-.95-.9-2.34-1.18s-2.49.37-2.61.19.15-.37.63-.64a3.24,3.24,0,0,1,2.14-.3,3.3,3.3,0,0,1,1.85,1.1C207.36,458.83,207.44,459.17,207.35,459.22Z" style="fill:#263238"></path><path d="M207.47,453.89c-.19.1-.78-.91-2-1.33s-2.3,0-2.39-.22.18-.33.66-.51a3,3,0,0,1,2,0,3.05,3.05,0,0,1,1.55,1.24C207.54,453.53,207.56,453.86,207.47,453.89Z" style="fill:#263238"></path><path d="M212.13,449.77c-.21.07-.69-.92-1.77-1.62s-2.17-.81-2.18-1,1.29-.5,2.6.38S212.34,449.74,212.13,449.77Z" style="fill:#263238"></path><path d="M214.41,446.19c-.09.06-.67-.64-1.52-1.82l-1.47-2.09a5.29,5.29,0,0,1-.81-1.41,1.42,1.42,0,0,1,.11-1.06,1.08,1.08,0,0,1,1.05-.55,3.14,3.14,0,0,1,1.62.85,5.45,5.45,0,0,1,1.06,1.21,5.87,5.87,0,0,1,.91,2.51,3.26,3.26,0,0,1-.39,2.38,20.84,20.84,0,0,0-.14-2.29,5.64,5.64,0,0,0-1.92-3.24,2.8,2.8,0,0,0-1.2-.65.3.3,0,0,0-.33.15.75.75,0,0,0,0,.5,5.78,5.78,0,0,0,.68,1.21c.45.74.89,1.47,1.33,2.18A8,8,0,0,1,214.41,446.19Z" style="fill:#263238"></path><path d="M215,446.71c-.08,0,0-.92.93-2a4.36,4.36,0,0,1,5.16-.92.8.8,0,0,1,.27.62,1,1,0,0,1-.21.55,3,3,0,0,1-.63.55,8,8,0,0,1-1.23.7,7.31,7.31,0,0,1-2.29.64,3.61,3.61,0,0,1-2.15-.2,18.78,18.78,0,0,1,2.06-.34,8.32,8.32,0,0,0,2.08-.74,8.1,8.1,0,0,0,1.1-.67,2.68,2.68,0,0,0,.45-.39c.08-.16.06-.11,0-.16a1.39,1.39,0,0,0-.5-.19,4.87,4.87,0,0,0-.65-.1,4.59,4.59,0,0,0-1.24.09,4.33,4.33,0,0,0-1.88.95C215.4,446,215.14,446.76,215,446.71Z" style="fill:#263238"></path><path d="M198,446.38a2.07,2.07,0,1,1-2.07-2.07A2.07,2.07,0,0,1,198,446.38Z" style="fill:#ebebeb"></path><g style="opacity:0.30000000000000004"><polygon points="220.71 439.45 217.37 443.12 203.31 429.2 205.27 426.65 220.71 439.45"></polygon></g><path d="M264.11,445.13l-1.78,21.17s20.92,7.14,21,11.08l-41.17-.19,1.42-33.1Z" style="fill:#455a64"></path><path d="M249.68,463.9a1.68,1.68,0,0,0-1.25,1.87,1.62,1.62,0,0,0,1.83,1.26,1.78,1.78,0,0,0,1.32-2,1.68,1.68,0,0,0-2.06-1.1" style="fill:#ebebeb"></path><path d="M242.13,477.19l.14-3.3,39,.93s2.07,1.66,2.05,2.56Z" style="fill:#ebebeb"></path><path d="M263,466.12c0,.2-1,.25-2,.85s-1.59,1.41-1.77,1.33.17-1.24,1.42-1.94S263.06,465.94,263,466.12Z" style="fill:#263238"></path><path d="M267.24,468.12c0,.19-.86.49-1.58,1.31s-1,1.71-1.16,1.69-.28-1.16.64-2.16S267.24,467.92,267.24,468.12Z" style="fill:#263238"></path><path d="M269.44,473.4c-.19,0-.42-1,.15-2.06s1.53-1.47,1.61-1.3-.53.74-1,1.63S269.64,473.39,269.44,473.4Z" style="fill:#263238"></path><path d="M262.87,461.25c-.09.18-1-.14-2.14-.12s-2,.34-2.14.16.79-.85,2.13-.86S263,461.1,262.87,461.25Z" style="fill:#263238"></path><path d="M263.15,457a4,4,0,0,1-2.06-.11,9.52,9.52,0,0,1-2.12-.77,8.84,8.84,0,0,1-1.16-.69,2.63,2.63,0,0,1-.6-.51.88.88,0,0,1,0-1.07,1.1,1.1,0,0,1,.91-.42,2.71,2.71,0,0,1,.76.14,8.07,8.07,0,0,1,1.26.5,7.55,7.55,0,0,1,1.85,1.34c.91.93,1.2,1.7,1.13,1.74s-.53-.59-1.47-1.37a8.5,8.5,0,0,0-1.79-1.13,7.93,7.93,0,0,0-1.16-.42c-.43-.13-.81-.15-.93,0s-.05.11,0,.24a2.18,2.18,0,0,0,.44.37,10.47,10.47,0,0,0,1.06.68,11.23,11.23,0,0,0,2,.86A12.52,12.52,0,0,1,263.15,457Z" style="fill:#263238"></path><path d="M262.88,457.25c-.08,0-.44-.71-.45-2a6.77,6.77,0,0,1,.39-2.24,7.58,7.58,0,0,1,.58-1.23,1.77,1.77,0,0,1,1.37-1,1,1,0,0,1,.83.62,2.74,2.74,0,0,1,.18.77,4.58,4.58,0,0,1-.07,1.39,4.64,4.64,0,0,1-1,2.08c-.86,1-1.71,1.23-1.72,1.16s.66-.46,1.32-1.45a4.81,4.81,0,0,0,.75-1.91,4.29,4.29,0,0,0,0-1.19c-.05-.44-.19-.8-.36-.77s-.57.3-.75.65a6.31,6.31,0,0,0-.57,1.09,7.65,7.65,0,0,0-.5,2C262.81,456.46,263,457.23,262.88,457.25Z" style="fill:#263238"></path><path d="M347.6,160.31a5.1,5.1,0,0,0-.14-3.63c-1.7-4-5.7-13-7.15-12.75-1.28.23-2.22,2.67-.76,5.36l-4.71-4a1.36,1.36,0,0,0-2.23,1.24,7.26,7.26,0,0,0,.58,1.75c1.46,3.1,5.52,6,5.52,6l-8.2.05s-1.53,2.14,1.28,3.58a5.74,5.74,0,0,0,2,.56l4.24.43s-7.66,8.47-7.92,9.26a17.31,17.31,0,0,0-.68,3.9l-14.7,16.35,3.93,24.86,26.56-46Z" style="fill:#b78876"></path><path d="M345.47,156.57c-.07.05-.34-.34-.92-.78a6.17,6.17,0,0,0-2.59-1.08,14.58,14.58,0,0,0-2.89-.16,3.39,3.39,0,0,1-1.24-.07c0-.07.45-.19,1.21-.3a9.78,9.78,0,0,1,3,0,5.33,5.33,0,0,1,2.74,1.31C345.36,156.07,345.52,156.55,345.47,156.57Z" style="fill:#aa6550"></path><path d="M345.6,154a15.66,15.66,0,0,1-3.33-2.29,15.41,15.41,0,0,1-3-2.71,16.35,16.35,0,0,1,3.34,2.3A16.06,16.06,0,0,1,345.6,154Z" style="fill:#aa6550"></path><path d="M273.1,276.6c.22,0,1,49,1.32,71.07a38.36,38.36,0,0,1-5.18,19.81l-47.85,84.06L193.9,428.67l44.45-75.12L222,274.37l32.4-27.86Z" style="fill:#263238"></path><path d="M296.35,266.59c-.14,2.82-26,184.54-26,184.54l-32-2.28,11.74-183.39Z" style="fill:#263238"></path><path d="M269.55,279.34s0,.17.06.48.08.8.14,1.4c.1,1.26.26,3.07.45,5.4.37,4.71.91,11.48,1.56,19.84s1.36,18.37,2.18,29.45q.27,4.17.56,8.52c.08,1.45.21,2.93.16,4.42a32.79,32.79,0,0,1-.44,4.51,33.86,33.86,0,0,1-2.78,8.84c-.66,1.43-1.45,2.79-2.22,4.18l-2.33,4.17-32.08,57.33c-4.12,7.3-7.46,13.22-9.77,17.34-1.16,2-2.06,3.61-2.69,4.7l-.7,1.22-.26.4s.06-.15.21-.43l.66-1.24,2.6-4.75,9.63-17.42c8.18-14.71,19.47-35,31.95-57.4.78-1.4,1.55-2.8,2.33-4.18s1.56-2.74,2.2-4.14a33.77,33.77,0,0,0,2.75-8.71,31.63,31.63,0,0,0,.43-4.43c.06-1.47-.07-2.93-.14-4.38q-.28-4.35-.55-8.51c-.78-11.09-1.48-21.07-2.06-29.46s-1.07-15.14-1.4-19.86c-.15-2.32-.27-4.14-.36-5.4,0-.6-.06-1.07-.08-1.41S269.55,279.34,269.55,279.34Z" style="fill:#455a64"></path><path d="M247.68,365.28a1.85,1.85,0,0,1-.65-.11,8.59,8.59,0,0,1-1.68-.62,12.64,12.64,0,0,1-6.85-9.16,8.92,8.92,0,0,1-.12-1.79c0-.42,0-.65.08-.65s.09.93.4,2.37a13.7,13.7,0,0,0,6.66,8.9C246.81,364.93,247.7,365.19,247.68,365.28Z" style="fill:#455a64"></path><path d="M251.3,359.81a6.14,6.14,0,0,1-2.33,0,14.27,14.27,0,0,1-5.31-1.84,14.47,14.47,0,0,1-4.2-3.73,6.27,6.27,0,0,1-1.15-2c.08,0,.53.72,1.44,1.8a16.19,16.19,0,0,0,9.28,5.44C250.41,359.7,251.3,359.72,251.3,359.81Z" style="fill:#455a64"></path><path d="M228.74,282s.22.28.77.53a2.89,2.89,0,0,0,2.44-.17,22.05,22.05,0,0,0,3.15-2.25c1.15-.92,2.37-2,3.61-3.13a62.7,62.7,0,0,0,5.87-6.41c1.38-1.74,2.17-2.88,2.23-2.83a3.39,3.39,0,0,1-.46.86c-.32.53-.82,1.29-1.48,2.2a48.76,48.76,0,0,1-5.8,6.56c-1.25,1.17-2.5,2.22-3.67,3.13a19.67,19.67,0,0,1-3.3,2.2,3,3,0,0,1-2.68,0C228.84,282.35,228.72,282,228.74,282Z" style="fill:#455a64"></path><path d="M246.56,280.49a13.65,13.65,0,0,1-1.27,2.82,19.49,19.49,0,0,1-4.6,5.89,11.26,11.26,0,0,1-7,2.66,7.35,7.35,0,0,1-2.26-.32,2.13,2.13,0,0,1-.77-.34,14.62,14.62,0,0,0,3,.29,11.57,11.57,0,0,0,6.64-2.69,21.78,21.78,0,0,0,4.61-5.67A27.53,27.53,0,0,1,246.56,280.49Z" style="fill:#455a64"></path><path d="M296.35,266.59s-24.7,11.53-33.56,7.56-14.66-13.13-21.07-11-16.19,4-19.55,13.13a8,8,0,0,1-2.13-5.75c0-3.56,3-8.39,3-8.39l-4-41.26.17-69.38s6.88-10.25,25.51-9.64l25.73,3.7s13.13,4,16.79,10.69,2.14,54.48,2.14,54.48,8.14,46.36,8.14,50a13.93,13.93,0,0,1-1.15,5.87" style="fill:#9DAFCD"></path><path d="M311,187.73l-10.61,9.46-13.14-40.93-11,24.65,4.44,40a15.34,15.34,0,0,0,11.62,13.21h0a15.36,15.36,0,0,0,13.79-3.43l11.2-9.58a6,6,0,0,0,2.05-5.55l-4.17-26.32A2.52,2.52,0,0,0,311,187.73Z" style="fill:#9DAFCD"></path><path d="M230.64,176.65c0,.91-4.93,45.59-4.93,45.59l20.89,45.19c-2,4.26-5.92,8.13-10.23,11.91,0,0-5.34-4.88-5.65-15.27,0,0-23.74-27.89-26.18-35.22s4.28-57.39,4.28-57.39Z" style="fill:#b78876"></path><path d="M283.71,184.43a3.61,3.61,0,0,1-.43.91c-.31.57-.77,1.38-1.35,2.38a38.68,38.68,0,0,1-2.14,3.46,6.32,6.32,0,0,1-1.79,1.69,5.46,5.46,0,0,1-2.56.75,7.78,7.78,0,0,1-4.79-1.52,12.73,12.73,0,0,1-2.83-3,23.49,23.49,0,0,1-1.45-2.33,3.81,3.81,0,0,1-.44-.9c.08-.05.81,1.18,2.18,3a13.53,13.53,0,0,0,2.81,2.8,7.5,7.5,0,0,0,4.5,1.39,4.86,4.86,0,0,0,2.31-.67,6.06,6.06,0,0,0,1.68-1.54c.9-1.19,1.57-2.41,2.21-3.37s1.13-1.75,1.49-2.28A3.84,3.84,0,0,1,283.71,184.43Z" style="fill:#263238"></path><path d="M299.1,221.49a3.82,3.82,0,0,1-.4-.9,21.71,21.71,0,0,1-.79-2.59,30.73,30.73,0,0,1,.89-17.64,23.4,23.4,0,0,1,1.05-2.49,3.79,3.79,0,0,1,.49-.86c.09,0-.51,1.31-1.19,3.47a35.06,35.06,0,0,0-1.57,8.66,35.48,35.48,0,0,0,.68,8.78C298.73,220.13,299.19,221.46,299.1,221.49Z" style="fill:#263238"></path><path d="M304.69,213.3a9.54,9.54,0,0,1-1.29-2.15,30.22,30.22,0,0,1-3.11-11.64,9.62,9.62,0,0,1,0-2.5,15.45,15.45,0,0,1,.32,2.47,41.25,41.25,0,0,0,1.1,5.88,42.58,42.58,0,0,0,2,5.64A16.39,16.39,0,0,1,304.69,213.3Z" style="fill:#263238"></path><path d="M283,192.81s.1.15.23.44a12.23,12.23,0,0,1,.5,1.34,14.61,14.61,0,0,1,.66,5.2,11.62,11.62,0,0,1-2.93,7.15,10,10,0,0,1-3.81,2.67,8.85,8.85,0,0,1-5,.42,8.18,8.18,0,0,1-4.39-2.38,9.25,9.25,0,0,1-2.11-4.14,25.61,25.61,0,0,1-.6-4.12c-.1-1.29-.2-2.49-.29-3.6-.15-2.13-.27-3.89-.37-5.2,0-.57-.05-1-.07-1.42a1.82,1.82,0,0,1,0-.5,2.25,2.25,0,0,1,.09.49c0,.38.11.85.17,1.41.14,1.31.32,3.06.54,5.19.11,1.11.22,2.31.35,3.59a26.33,26.33,0,0,0,.63,4,8.79,8.79,0,0,0,2,3.91,7.74,7.74,0,0,0,4.12,2.22,8.42,8.42,0,0,0,4.68-.39,9.61,9.61,0,0,0,3.63-2.51,11.41,11.41,0,0,0,2.92-6.86,15.28,15.28,0,0,0-.48-5.12C283.24,193.46,283,192.83,283,192.81Z" style="fill:#263238"></path><g style="opacity:0.2"><path d="M232.41,236.72a38,38,0,0,1,2.38-9.5c1.44-3.79,3.32-7.55,3.38-11.61a26.55,26.55,0,0,0-1.34-7.51l-7.29-26.27q-.42,10.18-.83,20.38a8.65,8.65,0,0,0,.76,4.84c1.08,1.76,3.29,2.53,4.52,4.18a4.91,4.91,0,0,1,.67,4.51c-.54,1.49-1.88,1.87-3.41,2.24a19.42,19.42,0,0,1-2.12.43c-1,.16-2.56-.07-3,.88-1.21,2.36.08,3.79.59,4.92,2.32,5.15,5.73,12.51,5.73,12.51"></path></g><path d="M223.49,148S202,158.86,199,216.94a6.18,6.18,0,0,0,7.31,6.4c8.83-1.68,22.21-4.28,22.12-4.64-.12-.53,5-51.11,5-51.11Z" style="fill:#9DAFCD"></path><path d="M233,166.69s0,.27,0,.78,0,1.26,0,2.22c0,1.93-.16,4.73-.39,8.18s-.58,7.55-1.06,12.09c-.25,2.27-.52,4.65-.79,7.12-.15,1.24-.3,2.49-.46,3.77s-.54,2.57-.74,3.83a5.06,5.06,0,0,0,0,1.86,3.49,3.49,0,0,0,.86,1.56c.82.9,2,1.37,3,2.28a6,6,0,0,1,1.64,3.38,6.31,6.31,0,0,1,0,1.84,2.46,2.46,0,0,1-2.42,2.38l-1.62.31-3.08.61L222.48,220l-8,1.67-1.26.25-.5.1h-.08s0-.23,0-.12h0l.11,0,.19,0a3.7,3.7,0,0,1,.77-.12,4.05,4.05,0,0,1-.74.22l-.2,0-.11,0h0c0,.11,0-.15,0-.12h0l.06,0,.5-.12,1.25-.3,8-1.83,5.52-1.2,3.08-.64,1.62-.33A2.48,2.48,0,0,0,234,217a3.72,3.72,0,0,0,.55-3.12,5.53,5.53,0,0,0-1.5-3.09c-.85-.82-2.08-1.3-3-2.3a4,4,0,0,1-1-1.8,5.44,5.44,0,0,1,0-2.05c.21-1.34.63-2.55.74-3.82s.31-2.53.46-3.76c.29-2.46.56-4.84.83-7.11.5-4.54.89-8.63,1.16-12.07s.45-6.23.56-8.16l.12-2.22A3.68,3.68,0,0,1,233,166.69Z" style="fill:#263238"></path><path d="M224.17,202.3a2.2,2.2,0,0,1-.13.69,4.17,4.17,0,0,1-.26.78,8.38,8.38,0,0,1-.46,1,10.93,10.93,0,0,1-1.64,2.34,13.44,13.44,0,0,1-2.69,2.22,13.22,13.22,0,0,1-3.2,1.4,11,11,0,0,1-2.82.4,7.57,7.57,0,0,1-1.1,0,5,5,0,0,1-.81-.12,2.31,2.31,0,0,1-.68-.2c0-.1,1,.1,2.57,0a12.61,12.61,0,0,0,2.7-.49,14.71,14.71,0,0,0,3.07-1.38,14.47,14.47,0,0,0,2.61-2.11,12.26,12.26,0,0,0,1.67-2.19C223.81,203.23,224.07,202.27,224.17,202.3Z" style="fill:#263238"></path><g style="opacity:0.2"><path d="M247.37,254.12c10,5.93,22.26,7.35,33.77,5.6a16.54,16.54,0,0,0,5.49-1.59,6.6,6.6,0,0,0,3.44-4.36,4.17,4.17,0,0,0-2.46-4.67c-1.83-.62-3.77.38-5.5,1.25a50,50,0,0,1-35.3,3.56"></path></g><path d="M294,255a2.34,2.34,0,0,1-.43.33c-.3.2-.72.53-1.32.87a28.21,28.21,0,0,1-5.24,2.46,41.34,41.34,0,0,1-18.89,1.67,84.63,84.63,0,0,1-18.39-4.94c-2.28-.86-4.11-1.59-5.37-2.11l-1.45-.61a2.66,2.66,0,0,1-.49-.25,3.06,3.06,0,0,1,.53.15l1.48.52,5.43,1.95a90.81,90.81,0,0,0,18.33,4.77,42.39,42.39,0,0,0,18.7-1.5,32,32,0,0,0,5.26-2.29C293.34,255.39,294,255,294,255Z" style="fill:#263238"></path><g style="opacity:0.2"><path d="M293.43,234.29c3-3,3-8.41,2.4-12.62s-2.23-8.25-2.8-12.48c-.54-4-.15-8.09-.33-12.14s-1.05-8.27-3.68-11.34a132.34,132.34,0,0,0,4.41,48.58"></path></g><g style="opacity:0.2"><path d="M265,190.35c-.46,2.66,0,5.45-.23,8.17a35.43,35.43,0,0,0,0,8.17,12,12,0,0,0,3.57,7.2,7.37,7.37,0,0,0,7.6,1.54,6.86,6.86,0,0,0,3.84-6.74,11.18,11.18,0,0,1-5.82,1.1,8.19,8.19,0,0,1-5.27-2.54,13.15,13.15,0,0,1-2.93-8.11c-.19-2.92-.55-5.91-.79-8.79"></path></g><path d="M231.62,182.85a4.15,4.15,0,0,1-1.08.24c-.7.11-1.71.26-3,.41a37.36,37.36,0,0,1-9.92,0,18.56,18.56,0,0,1-9.09-3.91,12.43,12.43,0,0,1-2.08-2.2,4,4,0,0,1-.57-.95,22.57,22.57,0,0,0,2.88,2.87,19.49,19.49,0,0,0,8.94,3.68,42.74,42.74,0,0,0,9.8.12l3-.24A4.83,4.83,0,0,1,231.62,182.85Z" style="fill:#fafafa"></path><path d="M230.21,190.53a4.89,4.89,0,0,1-1.06.38,11.66,11.66,0,0,1-1.28.33c-.5.1-1.07.24-1.72.32a27.8,27.8,0,0,1-4.55.3,31.53,31.53,0,0,1-5.55-.64,31,31,0,0,1-5.32-1.71,27.32,27.32,0,0,1-4-2.15c-.55-.33-1-.7-1.43-1a10.51,10.51,0,0,1-1-.83,4.6,4.6,0,0,1-.81-.78c.07-.08,1.27,1,3.47,2.3a30.39,30.39,0,0,0,4,2,30.37,30.37,0,0,0,10.7,2.31,30.69,30.69,0,0,0,4.48-.19C228.65,190.89,230.18,190.43,230.21,190.53Z" style="fill:#fafafa"></path><path d="M264.19,189.28c0,.14-7.26.07-16.2-.16s-16.2-.53-16.19-.68,7.25-.07,16.2.16S264.19,189.13,264.19,189.28Z" style="fill:#fafafa"></path><path d="M265.23,197.35a6.71,6.71,0,0,1-1.33.42c-.86.24-2.12.53-3.7.84a69.66,69.66,0,0,1-12.45,1.25,70.54,70.54,0,0,1-12.48-1c-1.58-.28-2.85-.54-3.71-.77a6.85,6.85,0,0,1-1.34-.39,8.39,8.39,0,0,1,1.38.19c.87.17,2.15.38,3.73.6a80.64,80.64,0,0,0,24.81-.26c1.57-.26,2.84-.5,3.72-.68A8.14,8.14,0,0,1,265.23,197.35Z" style="fill:#fafafa"></path><path d="M284,195.87a2.23,2.23,0,0,1-.33.74,6.27,6.27,0,0,1-1.47,1.67,9.71,9.71,0,0,1-6.95,1.89,17.56,17.56,0,0,1-6.82-2.43,12.8,12.8,0,0,1-2.49-1.67,23.32,23.32,0,0,1,2.66,1.35,19.58,19.58,0,0,0,6.71,2.24A9.79,9.79,0,0,0,282,198,11.21,11.21,0,0,0,284,195.87Z" style="fill:#fafafa"></path><path d="M288.52,189.73a7.32,7.32,0,0,1-2.58.81,7.07,7.07,0,0,1-2.68.3,7.22,7.22,0,0,1,2.58-.81A7.07,7.07,0,0,1,288.52,189.73Z" style="fill:#fafafa"></path><path d="M298.19,190.05a16.56,16.56,0,0,1-4.65,2.3,16.74,16.74,0,0,1-5,1.24c0-.15,2.2-.75,4.86-1.73S298.12,189.92,298.19,190.05Z" style="fill:#fafafa"></path><path d="M295,180.47a16.73,16.73,0,0,1-3.07.9,16,16,0,0,1-3.09.83,10.84,10.84,0,0,1,6.16-1.73Z" style="fill:#fafafa"></path><path d="M289.55,176.81a2.63,2.63,0,0,1,0,.59l-.15,1.68c-.07.73-.15,1.62-.22,2.66s-.18,2.22-.23,3.52c-.17,2.62-.25,5.73-.27,9.19s.11,7.27.35,11.25.66,7.77,1.09,11.21.95,6.51,1.45,9.08c.23,1.29.48,2.44.69,3.46s.39,1.9.56,2.61.26,1.22.36,1.65a2.14,2.14,0,0,1,.09.58,2.4,2.4,0,0,1-.19-.56l-.46-1.62c-.2-.71-.42-1.58-.65-2.6s-.51-2.17-.76-3.45c-.55-2.57-1.06-5.65-1.56-9.09s-.87-7.24-1.14-11.23-.33-7.82-.31-11.29.16-6.59.38-9.21c.08-1.31.21-2.49.31-3.53s.21-1.93.31-2.65.18-1.24.24-1.67A2.23,2.23,0,0,1,289.55,176.81Z" style="fill:#263238"></path><g style="opacity:0.2"><path d="M267.73,188.55a10.8,10.8,0,0,0,10.22.75,4.67,4.67,0,0,1,1.2-.44,1.17,1.17,0,0,1,1.13.43,1.48,1.48,0,0,1-.32,1.62,6.32,6.32,0,0,1-6.5,2,9.72,9.72,0,0,1-5.55-4.33"></path></g><path d="M249,103.13a35,35,0,0,1-1.14-6.95,11.91,11.91,0,0,1,1.6-6.77,7.26,7.26,0,0,1,5.78-3.53c1.45,0,2.91.47,4.34.21,1.65-.3,2.94-1.55,4.35-2.46a12.16,12.16,0,0,1,7.49-1.95A7.17,7.17,0,0,1,275.24,83,4.07,4.07,0,0,1,277,86.5a19.64,19.64,0,0,1,5.07-.32,6.57,6.57,0,0,1,4.44,2.21,4,4,0,0,1,.29,4.72A3.24,3.24,0,0,1,290.68,95a4.21,4.21,0,0,1-1,4.41,7.87,7.87,0,0,1-5.06,1.84,11.42,11.42,0,0,1-4.85-1" style="fill:#263238"></path><path d="M254.55,156.12h0A11.83,11.83,0,0,0,269,145.76c.38-3.81.71-7,.78-7.51,0,0,9.57.18,11.32-9.11s3.88-31,3.88-31h0a32.86,32.86,0,0,0-33.24-1.61l-1.57.82-4.71,46A11.83,11.83,0,0,0,254.55,156.12Z" style="fill:#b78876"></path><path d="M269.79,138.12a21.93,21.93,0,0,1-11.53-5.58s1.69,7.21,11.13,8Z" style="fill:#aa6550"></path><path d="M249.6,107.24c-.15-.1-6.07-3-7,3.39s5.7,6,5.74,5.81S249.6,107.24,249.6,107.24Z" style="fill:#b78876"></path><path d="M246.75,113.74s-.12.06-.32.12a1.14,1.14,0,0,1-.84-.1,2.78,2.78,0,0,1-.92-2.66,3.54,3.54,0,0,1,.54-1.55,1.3,1.3,0,0,1,1-.74.57.57,0,0,1,.61.4c.06.19,0,.32,0,.33s.15-.09.13-.36a.7.7,0,0,0-.19-.44.89.89,0,0,0-.59-.25,1.61,1.61,0,0,0-1.31.83,3.71,3.71,0,0,0-.64,1.73,2.93,2.93,0,0,0,1.23,3,1.2,1.2,0,0,0,1.05,0C246.72,113.89,246.77,113.75,246.75,113.74Z" style="fill:#aa6550"></path><path d="M280.27,112.45a1.35,1.35,0,0,1-1.52,1.11,1.28,1.28,0,0,1-1.16-1.43A1.35,1.35,0,0,1,279.1,111,1.3,1.3,0,0,1,280.27,112.45Z" style="fill:#263238"></path><path d="M280.89,111c-.2.15-1.07-.78-2.51-1s-2.6.28-2.73.08.16-.38.68-.63a3.72,3.72,0,0,1,2.22-.28,3.57,3.57,0,0,1,2,1C280.89,110.57,281,110.91,280.89,111Z" style="fill:#263238"></path><path d="M266.39,110a1.36,1.36,0,0,1-1.52,1.12,1.29,1.29,0,0,1-1.16-1.44,1.35,1.35,0,0,1,1.51-1.12A1.3,1.3,0,0,1,266.39,110Z" style="fill:#263238"></path><path d="M266.77,108.77c-.19.15-1.07-.77-2.5-1s-2.61.28-2.73.08.16-.37.67-.62a3.67,3.67,0,0,1,2.23-.29,3.54,3.54,0,0,1,1.95,1C266.77,108.37,266.87,108.71,266.77,108.77Z" style="fill:#263238"></path><path d="M270.11,120.3a9.17,9.17,0,0,1,2.4,0c.37,0,.73,0,.83-.23a1.82,1.82,0,0,0,0-1.12c-.19-1-.39-1.94-.59-3-.81-4.22-1.33-7.67-1.16-7.7s1,3.37,1.77,7.59c.19,1,.38,2,.55,3a2.2,2.2,0,0,1-.06,1.47.92.92,0,0,1-.7.43,2.53,2.53,0,0,1-.63,0A9.76,9.76,0,0,1,270.11,120.3Z" style="fill:#263238"></path><path d="M265.72,120.55c.24,0,0,1.58,1.11,2.92s2.82,1.45,2.79,1.67-.42.24-1.12.13a3.87,3.87,0,0,1-2.35-1.31,3.46,3.46,0,0,1-.83-2.42C265.38,120.88,265.62,120.52,265.72,120.55Z" style="fill:#263238"></path><path d="M280.8,108.36c-.31.28-1.23-.23-2.41-.45s-2.23-.17-2.4-.55c-.08-.18.14-.48.63-.71a3.56,3.56,0,0,1,3.88.8C280.86,107.86,280.94,108.22,280.8,108.36Z" style="fill:#263238"></path><path d="M265.82,103.27c-.19.15-.55,0-1-.16a11.69,11.69,0,0,0-1.72-.55,12.14,12.14,0,0,0-1.8-.19c-.49,0-.87,0-1-.25s.1-.58.67-.9a3.83,3.83,0,0,1,4.6,1C266,102.7,266,103.14,265.82,103.27Z" style="fill:#263238"></path><path d="M284.91,101.12a22.26,22.26,0,0,1-13.47-3.07c-4.5-2.67-9.87-4.21-11.14-3.36s-1.87,5.65-6.6,6.72c0,0-.35,9.21-4,8.62s-.32-14.66-.32-14.66l9.28-3.73,9.92-1.13,9.16.67,8.33,3.24Z" style="fill:#263238"></path></g></svg>