<svg xmlns="http://www.w3.org/2000/svg" width="416.68" height="359.93" viewBox="0 0 416.68 359.93">
  <defs>
    <style>
      .cls-1 {
        fill: #f0d7ba;
      }

      .cls-2 {
        opacity: 0.1;
      }

      .cls-3 {
        opacity: 0.25;
      }

      .cls-4 {
        fill: #fff;
      }

      .cls-5 {
        opacity: 0.2;
      }

      .cls-6, .cls-7 {
        opacity: 0.15;
      }

      .cls-8 {
        opacity: 0.3;
      }

      .cls-9 {
        opacity: 0.6;
      }

      .cls-10 {
        fill: #263238;
      }

      .cls-11 {
        fill: #37474f;
      }

      .cls-12 {
        fill: #b16668;
      }

      .cls-13 {
        fill: #9a4a4d;
      }

      .cls-14 {
        opacity: 0.8;
      }

      .cls-15, .cls-16 {
        opacity: 0.05;
      }
    </style>
  </defs>
  <g id="Group_34" data-name="Group 34" transform="translate(-751.66 -617.567)">
    <g id="Mindfulness-amico" transform="translate(710.47 513.077)">
      <g id="freepik--Floor--inject-10">
        <ellipse id="freepik--floor--inject-10-2" data-name="freepik--floor--inject-10" class="cls-1" cx="208.34" cy="120.29" rx="208.34" ry="120.29" transform="translate(41.19 223.84)"/>
      </g>
      <g id="freepik--Shadow--inject-10">
        <path id="freepik--shadow--inject-10-2" data-name="freepik--shadow--inject-10" class="cls-2" d="M174,339.42c-3.22,1.91-6.69,4.11-7.88,7.66a10.4,10.4,0,0,0,.28,6.72c3.37,9.68,15.44,13.92,19.54,23.31,2.17,5,1.76,10.62,2,16s1.46,11.34,5.75,14.66a17.62,17.62,0,0,0,7.09,2.92,43.57,43.57,0,0,0,27.42-3.05c13.55-6.31,22.84-19.06,34.9-27.88a69.47,69.47,0,0,1,22.87-11,96.37,96.37,0,0,1,22.32-2.94c4-.11,8.68-.46,10.75-3.86,2.9-4.77-2-10.41-6.34-13.87,3.9-2.07,8.6-1.44,13-1.28s9.47-.56,12-4.2c2.12-3.09,1.6-7.42-.37-10.6s-5.14-5.42-8.34-7.35c-25.27-15.26-56.41-16.51-85.9-15.31-7.07.29-14.22.71-21,2.82C204.16,317.84,190,330,174,339.42Z"/>
      </g>
      <g id="freepik--Plants--inject-10">
        <g id="freepik--plants--inject-10-2" data-name="freepik--plants--inject-10">
          <path id="Path_453" data-name="Path 453" class="cls-1" d="M93.9,278l7.14-4.12s4.25-17.67,2.56-33.57c-2.38-22.34-17.09-30.75-22.69-28.83s-7.21,8.43,2,21.74C88.42,241.05,95.12,257.41,93.9,278Z"/>
          <path id="Path_454" data-name="Path 454" class="cls-3" d="M93.9,278l7.14-4.12s4.25-17.67,2.56-33.57c-2.38-22.34-17.09-30.75-22.69-28.83s-7.21,8.43,2,21.74C88.42,241.05,95.12,257.41,93.9,278Z"/>
          <path id="Path_455" data-name="Path 455" class="cls-4" d="M96.86,269.3h-.07a.49.49,0,0,1-.39-.58c3.91-20.62-3.29-43.78-12.21-53.42a.5.5,0,1,1,.73-.67c9.08,9.8,16.42,33.37,12.45,54.26A.5.5,0,0,1,96.86,269.3Z"/>
          <path id="Path_456" data-name="Path 456" class="cls-1" d="M75.19,288.78c-1.13.58-4.13-2-5-2.62A10.55,10.55,0,0,1,66.94,282a9.8,9.8,0,0,1-.57-5.93,22.41,22.41,0,0,1,.9-3.1c.34-1,.68-2,1-3a7.81,7.81,0,0,0,.6-3c-.16-2.09-1.94-3.64-3.55-5-1.79-1.49-3.63-3.42-3.49-5.92a8.86,8.86,0,0,1,2.47-5.13c1.27-1.46,2.76-2.72,3.92-4.27a6.13,6.13,0,0,0,1.46-3.83,6.39,6.39,0,0,0-.72-2.47,33.449,33.449,0,0,1-2.42-5c-.52-1.78-.32-3.95,1.11-5.14a5.73,5.73,0,0,1,4.36-.85A9.73,9.73,0,0,1,76,230.93c3.87,2.41,5.9,7.23,10,9.14a41.215,41.215,0,0,0,5,1.51,6.34,6.34,0,0,1,4.07,3.09c1.39,3.18-1.68,6.84-.75,10.18.81,3,3.58,4.21,5,6.9a6.19,6.19,0,0,1,.55,3.84A18.24,18.24,0,0,1,98,271.94a57.26,57.26,0,0,1-3.81,5.86Z"/>
          <path id="Path_457" data-name="Path 457" class="cls-2" d="M75.19,288.78c-1.13.58-4.13-2-5-2.62A10.55,10.55,0,0,1,66.94,282a9.8,9.8,0,0,1-.57-5.93,22.41,22.41,0,0,1,.9-3.1c.34-1,.68-2,1-3a7.81,7.81,0,0,0,.6-3c-.16-2.09-1.94-3.64-3.55-5-1.79-1.49-3.63-3.42-3.49-5.92a8.86,8.86,0,0,1,2.47-5.13c1.27-1.46,2.76-2.72,3.92-4.27a6.13,6.13,0,0,0,1.46-3.83,6.39,6.39,0,0,0-.72-2.47,33.449,33.449,0,0,1-2.42-5c-.52-1.78-.32-3.95,1.11-5.14a5.73,5.73,0,0,1,4.36-.85A9.73,9.73,0,0,1,76,230.93c3.87,2.41,5.9,7.23,10,9.14a41.215,41.215,0,0,0,5,1.51,6.34,6.34,0,0,1,4.07,3.09c1.39,3.18-1.68,6.84-.75,10.18.81,3,3.58,4.21,5,6.9a6.19,6.19,0,0,1,.55,3.84A18.24,18.24,0,0,1,98,271.94a57.26,57.26,0,0,1-3.81,5.86Z"/>
          <path id="Path_458" data-name="Path 458" class="cls-4" d="M86.12,283.08h0a.5.5,0,0,1-.46-.54c1.81-19.6-6.35-41.76-12.77-48.4a.5.5,0,0,1,.72-.69c6.54,6.77,14.87,29.3,13,49.18A.5.5,0,0,1,86.12,283.08Z"/>
          <path id="Path_459" data-name="Path 459" class="cls-4" d="M84.17,258.91h-.14a67,67,0,0,0-14.14-3,.49.49,0,0,1-.45-.54.48.48,0,0,1,.54-.45A67.7,67.7,0,0,1,84.37,258a.49.49,0,0,1,.29.63.5.5,0,0,1-.49.28Z"/>
        </g>
        <g id="freepik--plants--inject-10-3" data-name="freepik--plants--inject-10">
          <path id="Path_460" data-name="Path 460" class="cls-1" d="M412.76,280.89l-8.95-5.17s-2.19-19.17-.74-34c2.05-20.87,15.53-46,31.6-40.08s-7.37,27.15-12.59,44.85S412.76,280.89,412.76,280.89Z"/>
          <path id="Path_461" data-name="Path 461" class="cls-5" d="M412.76,280.89l-8.95-5.17s-2.19-19.17-.74-34c2.05-20.87,15.53-46,31.6-40.08s-7.37,27.15-12.59,44.85S412.76,280.89,412.76,280.89Z"/>
          <path id="Path_462" data-name="Path 462" class="cls-4" d="M408.05,278.71h0a.54.54,0,0,0,.52-.56c-1.57-46.36,21.51-69.68,21.74-69.91a.54.54,0,0,0,0-.77.55.55,0,0,0-.77,0c-.23.23-23.65,23.89-22.06,70.72a.54.54,0,0,0,.57.52Z"/>
          <path id="Path_463" data-name="Path 463" class="cls-1" d="M418.39,284.11,412,280.43s-1.08-13.15,5.37-29.14c5.61-13.91,19.54-25.45,26.55-23s6.84,7.4,3.42,12.61S423.16,258.51,418.39,284.11Z"/>
          <path id="Path_464" data-name="Path 464" class="cls-2" d="M418.39,284.11,412,280.43s-1.08-13.15,5.37-29.14c5.61-13.91,19.54-25.45,26.55-23s6.84,7.4,3.42,12.61S423.16,258.51,418.39,284.11Z"/>
          <path id="Path_465" data-name="Path 465" class="cls-4" d="M415,282.71h0a.54.54,0,0,0,.54-.54c-.13-29.31,27.4-49.13,27.68-49.32a.55.55,0,0,0-.63-.89c-.28.2-28.26,20.34-28.13,50.21A.54.54,0,0,0,415,282.71Z"/>
        </g>
        <g id="freepik--Grass--inject-10">
          <path id="Path_466" data-name="Path 466" class="cls-1" d="M139.45,341.88s-.62-18.4,1.79-23.91a27,27,0,0,1,6.68-9.05s-4.7,6.92-5,13.57.71,19.39.71,19.39S141.13,343.91,139.45,341.88Z"/>
          <path id="Path_467" data-name="Path 467" class="cls-2" d="M139.45,341.88s-.62-18.4,1.79-23.91a27,27,0,0,1,6.68-9.05s-4.7,6.92-5,13.57.71,19.39.71,19.39S141.13,343.91,139.45,341.88Z"/>
          <path id="Path_468" data-name="Path 468" class="cls-1" d="M138.89,346.39s1,.06,1.94-1.51c.12-.61-1.21-19-6.77-25.77s-16.33-8.47-16.33-8.47,10.78,3.9,15.24,12.95c3.48,7.06,4.11,22,4.11,22Z"/>
          <path id="Path_469" data-name="Path 469" class="cls-6" d="M138.89,346.39s1,.06,1.94-1.51c.12-.61-1.21-19-6.77-25.77s-16.33-8.47-16.33-8.47,10.78,3.9,15.24,12.95c3.48,7.06,4.11,22,4.11,22Z"/>
          <path id="Path_470" data-name="Path 470" class="cls-1" d="M135.59,345.63s-7-20.23-22-23.78c0,0,8.45-.34,14.48,5.46s10.22,14.83,10.86,19.08C138.89,346.39,136.75,348.67,135.59,345.63Z"/>
          <path id="Path_471" data-name="Path 471" class="cls-2" d="M135.59,345.63s-7-20.23-22-23.78c0,0,8.45-.34,14.48,5.46s10.22,14.83,10.86,19.08C138.89,346.39,136.75,348.67,135.59,345.63Z"/>
        </g>
        <g id="freepik--grass--inject-10-2" data-name="freepik--grass--inject-10">
          <path id="Path_472" data-name="Path 472" class="cls-1" d="M373.63,337.85s-1.91-19.92-5.27-25.52a29.381,29.381,0,0,0-8.47-8.82s6,6.81,7.26,13.93,2,21,2,21S372.1,340.28,373.63,337.85Z"/>
          <path id="Path_473" data-name="Path 473" class="cls-6" d="M373.63,337.85s-1.91-19.92-5.27-25.52a29.381,29.381,0,0,0-8.47-8.82s6,6.81,7.26,13.93,2,21,2,21S372.1,340.28,373.63,337.85Z"/>
          <path id="Path_474" data-name="Path 474" class="cls-1" d="M374.86,342.63s-1,.2-2.3-1.36c-.22-.63-1.36-20.63,3.69-28.71s16.42-11.41,16.42-11.41-11.08,5.71-14.62,16.08c-2.76,8.1-1.35,24.33-1.35,24.33Z"/>
          <path id="Path_475" data-name="Path 475" class="cls-5" d="M374.86,342.63s-1,.2-2.3-1.36c-.22-.63-1.36-20.63,3.69-28.71s16.42-11.41,16.42-11.41-11.08,5.71-14.62,16.08c-2.76,8.1-1.35,24.33-1.35,24.33Z"/>
          <path id="Path_476" data-name="Path 476" class="cls-1" d="M378.31,341.35s4.69-22.78,20.43-28.71c0,0-9.15.81-14.84,7.91s-8.94,17.41-9,22.08C374.86,342.63,377.49,344.79,378.31,341.35Z"/>
          <path id="Path_477" data-name="Path 477" class="cls-6" d="M378.31,341.35s4.69-22.78,20.43-28.71c0,0-9.15.81-14.84,7.91s-8.94,17.41-9,22.08C374.86,342.63,377.49,344.79,378.31,341.35Z"/>
        </g>
      </g>
      <g id="freepik--Character--inject-10">
        <g id="freepik--character--inject-10-2" data-name="freepik--character--inject-10">
          <g id="freepik--Sence--inject-10">
            <path id="Path_478" data-name="Path 478" class="cls-1" d="M242.44,208.83a41.5,41.5,0,1,1,41.49-41.493,41.5,41.5,0,0,1-41.49,41.493Zm0-82.14a40.65,40.65,0,1,0,40.65,40.65,40.65,40.65,0,0,0-40.65-40.65Z"/>
            <g id="Group_29" data-name="Group 29" class="cls-7">
              <path id="Path_479" data-name="Path 479" class="cls-1" d="M242.44,230.17a62.84,62.84,0,1,1,62.83-62.833,62.842,62.842,0,0,1-62.83,62.833Zm0-124.83a62,62,0,1,0,62,62,62,62,0,0,0-62-62Z"/>
            </g>
            <g id="Group_30" data-name="Group 30" class="cls-8">
              <path id="Path_480" data-name="Path 480" class="cls-1" d="M242.44,222.54a55.21,55.21,0,1,1,55.21-55.207,55.21,55.21,0,0,1-55.21,55.207Zm0-109.57a54.327,54.327,0,1,1,0,.03Z"/>
            </g>
            <g id="Group_31" data-name="Group 31" class="cls-9">
              <path id="Path_481" data-name="Path 481" class="cls-1" d="M242.44,215.85A48.52,48.52,0,1,1,291,167.34,48.52,48.52,0,0,1,242.44,215.85Zm0-96.19a47.68,47.68,0,1,0,47.67,47.677,47.682,47.682,0,0,0-47.67-47.677Z"/>
            </g>
          </g>
          <path id="Path_482" data-name="Path 482" class="cls-10" d="M275.9,165.34c-1.44-19.9-14.9-31.59-33.46-31.59a33.629,33.629,0,0,0-31.668,22.326l0,0v.09c-.11.3-.21.61-.31.92a25.89,25.89,0,0,1-7.58,11c-5.08,4.1-11.42,2.83-17.55,2.13a36.491,36.491,0,0,0-5.67-.32c-8.13.31-16.18,5.66-14.47,14.79.48,2.57,1.87,5.09,1.34,7.64s-2.58,4.17-4.75,5.31-4.57,1.91-6.55,3.37a11.75,11.75,0,0,0-4.64,8.4c-.39,4.53,2.05,9.53,5.21,12.65a44.62,44.62,0,0,0,23.33,11.79c9.68,1.83,19.85,1.36,29.66.44a96.705,96.705,0,0,0,11.09-1.69c16.66-3.56,36.71-13.79,44.39-23.87a54.51,54.51,0,0,0,11.26-26.08,74,74,0,0,0,.37-17.31Z"/>
          <path id="Path_483" data-name="Path 483" class="cls-11" d="M206.28,294.34c-5.41,10.93-18.76,43.8-24.06,66.54-4.95,21.29-.18,31.45,4,34.76,6.58,5.17,22.6,8.45,35.1-18.16,3.91-8.32,18.63-34,18.63-34s10.9-3.93,14.65-6.87c0,0,36.35,1.06,54-2.56s28.5-23.51,20.9-26.85c-12.38-5.46-32.5-10.3-61.8-12.2Z"/>
          <path id="Path_484" data-name="Path 484" class="cls-10" d="M287.88,315.71c-7.95,1.84-16.24,6.91-22.94,11.22a17.77,17.77,0,0,0-.22-7.05,16,16,0,0,1-1.66,5.16c-.8,1.93-2.34,2.93-4.19,3.88,0,0-15.22,6.8-19.68,3.78a21.23,21.23,0,0,0-12.5-4.64c3.8,2.56,14.82,10.45,10.91,19.6l2.39-4.2s10.9-3.93,14.65-6.87c0,0,20.32.59,37.95-.62l12.88-19.83S298.94,313.14,287.88,315.71Z"/>
          <path id="Path_485" data-name="Path 485" class="cls-12" d="M257,348.76c6.13-1.7,11.16-3.4,13.17-7.06s6.7-7.6,14.37-4c8.71,4,18.46,1.33,25.35,1.08s11.69,5.85,14.11,11.11c4.07,8.87-3.26,4.52-9.69,3.37s-21.56.66-27.59,1.86c-9.87,2-26.94,13.57-45.11,26.88,0,0-9.82-21.76-11.06-25.61C230.56,356.35,250.89,350.47,257,348.76Z"/>
          <path id="Path_486" data-name="Path 486" class="cls-13" d="M321.63,345.69c-2.69-3.85-6.64-7.14-11.73-6.95-6.89.25-16.64,3-25.35-1.08-7.67-3.56-12.37.38-14.37,4s-7,5.36-13.17,7.06-26.45,7.59-26.45,7.59c.39,1.2.79,2.21,2.4,5.95,9.82-3.62,33.23-11.16,52.24-14.64C306.48,343.76,316.24,340.45,321.63,345.69Z"/>
          <path id="Path_487" data-name="Path 487" class="cls-11" d="M186.26,395.64c3,4.13,15.11,7.85,26.82,4.13,13-4.13,26.49-15.37,32.77-20.89,0,0-.54-8.82-12-21.45a206.778,206.778,0,0,0-20,8.86c-8.45,15.72-20.28,11.63-23.5,17.2C185,392.78,186.26,395.64,186.26,395.64Z"/>
          <path id="Path_488" data-name="Path 488" class="cls-10" d="M217,372.57a32.71,32.71,0,0,1,6.63-6,56.82,56.82,0,0,1,13-5.9q-1.27-1.59-2.77-3.26-7,2.67-13.87,5.88c-2.32,1.08-4.54,1.71-6.51,3.4a20.66,20.66,0,0,0-4.45,5.36,5.08,5.08,0,0,0-.87,2.81,4.24,4.24,0,0,0,.83,2.05,2.85,2.85,0,0,0,2.72,1.47,3.49,3.49,0,0,0,1.75-1.44C214.6,375.49,215.78,374,217,372.57Z"/>
          <path id="Path_489" data-name="Path 489" class="cls-12" d="M274.11,324.07c-16.38,10.12-27.71,14-33.65,12.49-4-1-10.89-4.26-15,3.12A34.42,34.42,0,0,1,216,350.16c-2.81,2.14-6.19,4-8.35,6.89s-2.56,6.1-2.52,9.49c0,2.13.18,4.38,1.38,6.14a4,4,0,0,0,3.15,1.87c2.62,0,3.94-3.64,5.34-5.35a24.71,24.71,0,0,1,6.25-5.27c4.78-2.91,10.16-4.59,15.38-6.5,5.51-2,26.39-8,43.43-11.89Z"/>
          <path id="Path_490" data-name="Path 490" class="cls-11" d="M321.76,304.84c22.43,4.46,19.6,19.44,11,26.37-7.87,6.3-19.33,8.31-32.36,10.59s-21,3.9-21,3.9-5.82-9.9-5.22-21.63c7.5-5.26,17.68-10.08,31.53-8.05Z"/>
          <path id="Path_491" data-name="Path 491" class="cls-12" d="M258.71,209c11.42,1.27,15.73,4.47,19.36,16.24,4,12.82,15.83,53.45,15.83,53.45,4,2.28,37.21,20.37,40.09,18.57,1.21-.76,2.72-4.52,3.27-5.84a46.2,46.2,0,0,0,2-6c.48-1.83.88-3.76,2.32-5.12a3.51,3.51,0,0,1,2.51-1c2.07.1,3.05,2.12,3.58,3.94a42.59,42.59,0,0,1,1.25,7.87c.43,4.3.79,11.07-.17,13.3-.81,1.89-6,7.95-10.35,9.19s-32-9.69-49.36-14.85c-9.44-2.81-10.9-5-13-9.78-2.75-6.33-16.43-40.8-16.43-40.8Z"/>
          <path id="Path_492" data-name="Path 492" class="cls-1" d="M266.19,280.92l4,14.26c-2.81,9.45-10.07,16.27-30.54,17.74-15.61,1.12-31-2.86-35.85-13.19,2.42-9.66,6.17-18.81,9.65-28,0,0-7.38-20-7.38-20.12,2-1.45,5.52-10.27,7-21,.71-5.06.28-13.51-2.28-18.67l18-3.17,21.27-.62c5.09.28,8.71.77,8.71.77,2.9,3.78,6.75,11.23,11.74,20,2.92,5.12,8.86,17.73-3.53,29.58C267.11,260.18,266,278.21,266.19,280.92Z"/>
          <g id="Group_32" data-name="Group 32" class="cls-14">
            <path id="Path_493" data-name="Path 493" class="cls-4" d="M266.19,280.92l4,14.26c-2.81,9.45-10.07,16.27-30.54,17.74-15.61,1.12-31-2.86-35.85-13.19,2.42-9.66,6.17-18.81,9.65-28,0,0-7.38-20-7.38-20.12,2-1.45,5.52-10.27,7-21,.71-5.06.28-13.51-2.28-18.67l18-3.17,21.27-.62c5.09.28,8.71.77,8.71.77,2.9,3.78,6.75,11.23,11.74,20,2.92,5.12,8.86,17.73-3.53,29.58C267.11,260.18,266,278.21,266.19,280.92Z"/>
          </g>
          <g id="Group_33" data-name="Group 33" class="cls-15">
            <path id="Path_494" data-name="Path 494" d="M258.69,308.62c-4.55,2.21-10.71,3.7-19.08,4.31-15.6,1.12-31-2.87-35.84-13.2,2.41-9.66,6.16-18.8,9.64-28,0,0-7.38-20-7.38-20.12a2.509,2.509,0,0,0,.39-.36l.18-.2a9,9,0,0,0,.8-1.19c.06-.1.12-.22.19-.33.18-.34.38-.72.58-1.13s.27-.58.4-.88c.4-.91.81-1.95,1.21-3.09.13-.39.27-.78.4-1.18v-.11c.08-.25.17-.51.24-.77.16-.52.32-1,.48-1.6.32-1.13.63-2.35.91-3.6.06-.25.12-.49.17-.74l1.37,4.73s-1.35,10,0,14.57,10,16.8,10.68,19.22-4.85,2.39-8.07,8.94-2.42,17.21,8.13,23C238,314.52,257.9,308.85,258.69,308.62Z"/>
          </g>
          <path id="Path_495" data-name="Path 495" class="cls-16" d="M225.71,250.42s1.36,5.45,9.22,8.84A16.83,16.83,0,0,0,254,255.78s-5.93,11.88-20.15,6.5C224.44,258.7,225.71,250.42,225.71,250.42Z"/>
          <path id="Path_496" data-name="Path 496" class="cls-12" d="M209.63,250.55A79.08,79.08,0,0,0,216,230.64c2.11-12.07-1.6-19.31-1.6-19.31-13.06,1.29-18.1,5.13-26.54,30.74-5.89,17.86-13.94,39.65-16.66,54.85-1.31,7.35,5.53,41.31,9.33,53.78,1,3.31,5.49,9.32,11.4,11.6,4,.83,12.9-6.94,14.2-9.6,1.59-4.94,4.66-19.21,2.91-23.07-1.62-3.56-4.87-3.84-8.06-.71a29.14,29.14,0,0,0-6.68,9.8c-1.34-13-2.37-39.51-2.37-39.51Z"/>
          <path id="Path_497" data-name="Path 497" class="cls-12" d="M263.13,151.41c3.55,2.1,7.71,7.91,7.28,26.62-.37,15.87-5.51,19.79-8.09,20.92s-7.56.44-12.4-.37v9.53s6.69,7.77,6.27,12.13-9.66,5.4-15.93,1.14-11.53-12.58-11.53-12.58l.11-21.9s-2.85,2.77-7.68-1.45c-4-3.49-5.33-9.37-2.23-12.52s8.86-2.3,11.06,2.2l4.53-1.25h0a10.69,10.69,0,0,1,6.06-9.73,19.851,19.851,0,0,1,2.75-1C253.87,160,259.15,159.79,263.13,151.41Z"/>
          <path id="Path_498" data-name="Path 498" class="cls-10" d="M234.52,171.68,230,172.93v7.44h0a4.53,4.53,0,0,0,4.53-4.53Z"/>
          <path id="Path_499" data-name="Path 499" class="cls-13" d="M249.92,198.58c-5.1-.67-15.6-3.68-17.24-7.83a10.8,10.8,0,0,0,3.68,5.3c3.14,2.68,13.56,5.71,13.56,5.71Z"/>
          <path id="Path_500" data-name="Path 500" class="cls-10" d="M251.27,172.06a3.45,3.45,0,0,1-6.67.69,5,5,0,0,0,6.67-.69Z"/>
          <path id="Path_501" data-name="Path 501" class="cls-10" d="M268.94,171.75a3.45,3.45,0,0,1-6.71-.33,5,5,0,0,0,3.28,1.44,5.11,5.11,0,0,0,3.43-1.11Z"/>
          <path id="Path_502" data-name="Path 502" class="cls-10" d="M247.27,165.58l-4.53,2.5a2.71,2.71,0,0,1,1.06-3.6,2.52,2.52,0,0,1,3.47,1.1Z"/>
          <path id="Path_503" data-name="Path 503" class="cls-13" d="M251.25,186.9l4.83,1.82a2.53,2.53,0,0,1-3.28,1.6A2.7,2.7,0,0,1,251.25,186.9Z"/>
          <path id="Path_504" data-name="Path 504" class="cls-10" d="M269.19,166.12l-4.92-1.74a2.52,2.52,0,0,1,3.25-1.64A2.75,2.75,0,0,1,269.19,166.12Z"/>
          <path id="Path_505" data-name="Path 505" class="cls-13" d="M256.08,169.66l.7,12.74,6.65-2.27Z"/>
        </g>
      </g>
    </g>
  </g>
</svg>
