<?xml version="1.0" encoding="UTF-8"?><svg id="Layer_1" xmlns="http://www.w3.org/2000/svg" xmlns:xlink="http://www.w3.org/1999/xlink" viewBox="0 0 1366 170"><defs><style>.cls-1{fill:#d2e0ee;}.cls-2{clip-path:url(#clippath);}.cls-3{fill:none;}.cls-4{fill:#687dac;}</style><clipPath id="clippath"><rect class="cls-3" width="1366" height="170"/></clipPath></defs><g class="cls-2"><g><path class="cls-1" d="M1406.05,105.54c.5,14.99-4.53,22.72-10.18,35.76-4.71,10.88-10.22,21.65-17.72,30.7-7.78,9.39-19.97,10.28-31.67,13.31-28.22,7.3-55.93,16.33-83.9,24.52-34.72,10.17-69.77,18.84-103.98,30.68-30.61,10.61-60.4,23.61-91.08,33.92-35.19,11.83-71.44,19.27-107.88,26.07-72.81,13.57-146.51,10.12-220.4,8.59-46.43-.97-90.82,3.52-136.99,7.5-53.94,4.65-108.55,2.41-162.64,2.41-100.27,0-206.17,8.14-299.61-34.88-44.56-20.52-72.31-60.44-104.04-95.92C11.08,160.39-14.41,123.48-17,85c14.16-4.39,31.64-4.46,46.37-6.99,16.04-2.76,31.16-3.85,47.47-4.01,10.43-.11,22.57,0,32.16-4,39.88,0,79.48,1,119.3,1,33.68,0,66.5,5.13,99.74,10.05,24.97,3.69,50.02,7.6,74.19,14.9,27.84,8.41,55.2,18.04,84.05,22.05,38.13,5.29,76.96,4.92,115.6,5,25.27,.05,49.26-7.59,74.09-9.78,53.43-4.7,105.78-22.23,160.24-20.22,24.69,.91,49.17,7.21,74.2,8,19.75,.62,39.9,2.49,59.67,.3,17-1.89,33.28-6.1,50.25-8.27,73.74-9.43,148.14-25.03,222.67-25.03,24.73,0,47.87-6.82,72.02-10,24.8-3.26,51.18-8.34,75.98-9,.32,9.21,3.82,20.1,6.95,28.71,3.43,9.42,7.75,17.51,8.1,27.83Z"/><path class="cls-4" d="M1382.62,133.16c3.96,39.87-20.15,80.62-28.79,118.69-7.05,31.02-19.03,61.85-32.6,90.43-4.2,8.85-9.96,20.81-17.26,26.59-22,17.39-66.8,13.34-91.82,16.38-22.81,2.78-43.19,9.91-65.19,15.8-28.04,7.5-56.17,7.97-84.96,7.95-43.59-.04-86.14,1.51-129.57,4.58-50.4,3.57-101.48,1.42-151.97,1.42-62.59,0-125.27-3.09-187.82-1.96-34.82,.63-69.33,5.8-104.14,6.01-31,.18-62.01,0-93-.05-77.48-.08-154.96,3-232.54,3-28.78,0-57.55,1.06-86.3,1.05-16.68,0-37.82,1.57-53.75-4.33-11.69-4.33-8.93-9.95-8.91-21.62,.02-11.22-.53-20.91-4.73-31.07-10.69-25.9-5.55-60.01-4.18-87.57,1.43-28.95,6.71-56.65,.91-85.39-4.05-20.06-7-36.76-7-57.32,0-23.73,2-46.92,2-70.75,12.79,.61,26.89-5.27,39.88-6.34,15.24-1.25,30.59-.71,45.77,1.02,30.9,3.53,61.05,12.03,90.45,21.95,56.37,19.03,112.45,43.08,171.9,45.26,73.29,2.68,144.04-28.22,217.32-31.04,65.19-2.51,130.28,17.3,195.1,9.94,30.76-3.49,60.63-13.04,91.48-15.69,50-4.29,99.77,9.74,149.94,10.6,66.76,1.14,130.91-20.67,194.11-39.43,32.33-9.6,64.95-18.73,98.34-23.86,29.78-4.57,59.79-4.05,89.66-4.33-40.27,12.27-5.61,67.09-2.33,100.08Z"/></g></g></svg>