<?xml version="1.0" encoding="UTF-8"?><svg id="Layer_1" xmlns="http://www.w3.org/2000/svg" viewBox="0 0 1366 55.04"><defs><style>.cls-1{fill:#f0d7ba;}.cls-2{fill:#9eb0ce;}</style></defs><path class="cls-1" d="M0,27.04S124-10.96,208,9.04s125,13.18,198,6.09,119-12.91,209,0,193,23.91,313,11.91S1129-8.6,1226,3.22s140,20.82,140,20.82v31H0V27.04Z"/><path class="cls-2" d="M0,15.04s125,15.96,185,12.48,93.04-17.4,201-18.48,166.56,23.67,225,18.48S764,1.97,840,9s95,20.43,199,19.23,132-12.19,215-20.69,112,16.5,112,16.5v31H0V15.04Z"/></svg>