<svg id="Layer_1" data-name="Layer 1" xmlns="http://www.w3.org/2000/svg" xmlns:xlink="http://www.w3.org/1999/xlink" viewBox="0 0 786 695"><defs><style>.cls-1{fill:none;}.cls-2{clip-path:url(#clip-path);}.cls-3{fill:#d2e0ee;}.cls-4{fill:#f0d7ba;}.cls-5,.cls-6{fill:#ebebeb;}.cls-13,.cls-17,.cls-19,.cls-6{isolation:isolate;}.cls-6{opacity:0.5;}.cls-7{fill:#fff;}.cls-8{fill:#c7c7c7;}.cls-9{fill:#dbdbdb;}.cls-10{fill:#687dac;}.cls-11{fill:#f7a9a0;}.cls-12{fill:#263238;}.cls-13,.cls-17,.cls-21{opacity:0.1;}.cls-14{fill:#37474f;}.cls-15{fill:#ff9cbd;}.cls-16{fill:#ad6359;}.cls-17{fill:#030402;}.cls-18{fill:#d3766a;}.cls-19{opacity:0.2;}.cls-20{fill:#455a64;}.cls-22{opacity:0.4;}</style><clipPath id="clip-path"><rect class="cls-1" width="786" height="695"/></clipPath></defs><g class="cls-2"><g id="Iteration_1" data-name="Iteration 1"><g id="Group_69" data-name="Group 69"><path id="blob" class="cls-3" d="M648.92,183.94c36.87,23.23,63.29,63,85.06,103.93,21.78,41.23,39.2,83.61,42.39,128.32,3.48,44.42-7.55,90.58-30.19,130.35-22.36,40.07-56.9,73.16-97,97-40.06,23.51-86.22,37.74-130.93,36-45-1.75-88.83-19.74-128.61-43.84-39.48-23.81-75.19-54-101.32-92C262.23,505.9,245.1,460,245.68,414.45c.87-45.29,18.87-90.58,43.26-131.8,24.09-41.52,54.57-79,93.47-101,39.2-21.77,86.8-27.87,134.42-27.58C564.44,154,612.05,160.72,648.92,183.94Z"/><path id="blob-2" data-name="blob" class="cls-4" d="M221.54,68.81c52.62,26.19,82,56.59,95.8,86.78,13.39,30.56,11.26,60.9,72.12,96.9,61,35.22,184.46,76.47,222.48,142.78,38.81,66.34-8.65,157.71-81.86,201C456.52,639.22,358,634.12,263.75,638.68c-94.15,3.77-183.34,18-243-14.79-59.25-33.17-89.56-112.21-122.48-192.54-32.59-79.93-67.34-161.52-48-233.46C-130.92,126.33-57.42,63.27,17.12,42.51,92.45,21.8,168.46,43,221.54,68.81Z"/><g id="Team_goals-cuate" data-name="Team goals-cuate"><g id="freepik--background-complete--inject-43"><path id="Path_225" data-name="Path 225" class="cls-5" d="M435.26,246.66H323.92s11-30.15,28-30.15,22.31,20.81,22.31,20.81S385.68,226,395.11,226s17.6,15,17.6,15S426,232.92,435.26,246.66Z"/><path id="Path_226" data-name="Path 226" class="cls-5" d="M672.34,395.82H561s11-30.15,28-30.15,22.32,20.81,22.32,20.81,11.47-11.3,20.87-11.3,17.61,14.94,17.61,14.94S663.11,382.07,672.34,395.82Z"/><path id="Path_227" data-name="Path 227" class="cls-6" d="M314.24,355.29h-52s11.64-16.84,20.8-16.84,11.85,11.23,11.85,11.23,6.47-5.24,12.46-4.31S314.24,355.29,314.24,355.29Z"/><path id="Path_228" data-name="Path 228" class="cls-6" d="M491.66,464.13h-52s11.61-16.84,20.77-16.84,11.87,11.23,11.87,11.23,6.46-5.24,12.46-4.31S491.66,464.13,491.66,464.13Z"/><path id="Path_229" data-name="Path 229" class="cls-6" d="M557.09,288.24h-52s11.62-16.85,20.78-16.85,11.87,11.23,11.87,11.23,6.47-5.24,12.46-4.3S557.09,288.24,557.09,288.24Z"/><path id="Path_230" data-name="Path 230" class="cls-5" d="M176,340.6H74.66s13.87-31,28.72-32.93,22,23,22,23,9.58-8.82,17.11-8.82,13.34,11.62,13.34,11.62S170.85,325.53,176,340.6Z"/><path id="Path_231" data-name="Path 231" class="cls-6" d="M223.69,300.7H155.22s11.76-22.45,24.52-22.78,19.47,17,19.47,17S219.05,279,223.69,300.7Z"/><ellipse id="Ellipse_5" data-name="Ellipse 5" class="cls-5" cx="424.1" cy="307.62" rx="47.1" ry="46.38" transform="translate(-5.78 607.11) rotate(-70.82)"/><ellipse id="Ellipse_6" data-name="Ellipse 6" class="cls-7" cx="424.08" cy="307.61" rx="36.74" ry="36.18" transform="translate(-5.78 607.09) rotate(-70.82)"/><ellipse id="Ellipse_7" data-name="Ellipse 7" class="cls-5" cx="424.09" cy="307.62" rx="26.49" ry="26.08" transform="translate(-5.78 607.1) rotate(-70.82)"/><ellipse id="Ellipse_8" data-name="Ellipse 8" class="cls-7" cx="424.08" cy="307.61" rx="16.13" ry="15.88" transform="translate(-5.78 607.09) rotate(-70.82)"/><path id="Path_232" data-name="Path 232" class="cls-5" d="M431.17,307.5a7.21,7.21,0,0,1-7,7.29,7,7,0,0,1-7.12-7s0-.06,0-.09a7.23,7.23,0,0,1,7-7.28,7,7,0,0,1,7.13,6.87A.54.54,0,0,1,431.17,307.5Z"/><rect id="Rectangle_10" data-name="Rectangle 10" class="cls-8" x="389.46" y="251.2" width="0.8" height="76.85" transform="translate(-47.43 500.94) rotate(-62.4)"/><path id="Path_233" data-name="Path 233" class="cls-8" d="M352.75,273.41l.17-.07,3.12-1-6.15-3.21-3.33,1Z"/><path id="Path_234" data-name="Path 234" class="cls-8" d="M349.16,265.23l1.1,3.24,6.15,3.21a14.3,14.3,0,0,1-1.09-3.23Z"/><path id="Path_235" data-name="Path 235" class="cls-8" d="M425.58,306.83l-1.28,2.3-3.42-.29,2.24-1.83.23-2.88Z"/><path id="Path_236" data-name="Path 236" class="cls-5" d="M73.1,389.53l-4.44,9.79,3,1.36a2.53,2.53,0,0,1,1.49,2.23,14.45,14.45,0,0,0,.16,1.6,2.55,2.55,0,0,1-1,2.47l-2.68,1.92,6.27,8.74,2.68-1.92a2.54,2.54,0,0,1,2.68-.17q.72.36,1.47.66a2.51,2.51,0,0,1,1.63,2.12l.32,3.28,10.72-1.06-.33-3.28a2.59,2.59,0,0,1,1.2-2.4c.23-.14.44-.29.66-.45s.43-.31.63-.47a2.58,2.58,0,0,1,2.65-.37l3,1.37,4.44-9.79-3-1.36a2.58,2.58,0,0,1-1.49-2.23A12.21,12.21,0,0,0,103,400a2.59,2.59,0,0,1,1-2.47l2.68-1.91-6.19-8.74-2.68,1.91a2.61,2.61,0,0,1-2.68.18,12.78,12.78,0,0,0-1.46-.66A2.59,2.59,0,0,1,92,386.16l-.33-3.29L81,383.93l.32,3.28a2.54,2.54,0,0,1-1.19,2.39c-.23.15-.45.29-.67.45l-.63.48a2.56,2.56,0,0,1-2.66.36ZM83,395.07a8.81,8.81,0,1,1-2,12.3h0A8.82,8.82,0,0,1,83,395.07Z"/><path id="Path_237" data-name="Path 237" class="cls-5" d="M642.67,311.07l-6.53,3.77,1.15,2a1.77,1.77,0,0,1-.06,1.88,8.91,8.91,0,0,0-.57,1,1.76,1.76,0,0,1-1.59,1h-2.31v7.53h2.31a1.76,1.76,0,0,1,1.59,1c.18.33.36.66.57,1a1.77,1.77,0,0,1,.06,1.88l-1.15,2,6.53,3.76,1.16-2a1.79,1.79,0,0,1,1.66-.87h1.11a1.75,1.75,0,0,1,1.66.87l1.16,2,6.54-3.76-1.16-2a1.8,1.8,0,0,1,.07-1.87,8.21,8.21,0,0,0,.56-1,1.78,1.78,0,0,1,1.59-1h2.31v-7.53H657a1.83,1.83,0,0,1-1.59-1,7.52,7.52,0,0,0-.56-1,1.82,1.82,0,0,1-.07-1.88l1.16-2-6.54-3.78-1.15,2a1.82,1.82,0,0,1-1.66.87h-1.12a1.79,1.79,0,0,1-1.65-.88Zm3.38,7.2a6.18,6.18,0,1,1-4.36,1.8A6.16,6.16,0,0,1,646.05,318.27Z"/><path id="Path_238" data-name="Path 238" class="cls-9" d="M100.2,441.59l4.58,6,1.84-1.4a1.78,1.78,0,0,1,1.87-.18c.33.16.66.3,1,.43a1.78,1.78,0,0,1,1.19,1.45l.31,2.29,7.48-1-.3-2.29a1.81,1.81,0,0,1,.78-1.71c.3-.21.61-.44.9-.68a1.76,1.76,0,0,1,1.85-.31l2.14.89,2.89-6.95-2.14-.89a1.78,1.78,0,0,1-1.09-1.53,2.5,2.5,0,0,0,0-.55l-.09-.55a1.78,1.78,0,0,1,.65-1.75l1.85-1.42-4.58-6-1.79,1.43a1.8,1.8,0,0,1-1.88.18c-.33-.16-.68-.3-1-.43a1.83,1.83,0,0,1-1.19-1.45l-.3-2.29-7.48,1,.3,2.28a1.81,1.81,0,0,1-.78,1.71,11.05,11.05,0,0,0-.89.68,1.82,1.82,0,0,1-1.86.31l-2.14-.89-2.89,6.95,2.14.89a1.78,1.78,0,0,1,1.08,1.53l.06.56a1.42,1.42,0,0,0,.08.54,1.78,1.78,0,0,1-.65,1.77Zm6.72-4.27a6.16,6.16,0,1,1,2.36,4.1A6.17,6.17,0,0,1,106.92,437.32Z"/></g><g id="freepik--Arrow--inject-43"><rect id="Rectangle_11" data-name="Rectangle 11" class="cls-10" x="298.52" y="465.76" width="170.45" height="26.71" transform="translate(-111.81 116.86) rotate(-15.14)"/><rect id="Rectangle_12" data-name="Rectangle 12" class="cls-10" x="279.65" y="491.61" width="17.16" height="26.71" transform="translate(-121.88 92.81) rotate(-15.14)"/><rect id="Rectangle_13" data-name="Rectangle 13" class="cls-10" x="264.59" y="496.57" width="10.58" height="26.71" transform="translate(-123.81 88.19) rotate(-15.14)"/><rect id="Rectangle_14" data-name="Rectangle 14" class="cls-10" x="254.63" y="499.99" width="5.25" height="26.71" transform="translate(-125.14 85.01) rotate(-15.14)"/><path id="Path_239" data-name="Path 239" class="cls-10" d="M471.83,478.34l-11.63-43,35.55,13.44Z"/></g><g id="freepik--character-1--inject-43"><path id="Path_240" data-name="Path 240" class="cls-11" d="M185.11,359.87c3,22.9,9.55,45.63,15.94,48.65,8.61,4.06,31,3.42,42.68,2,3.42-.42-.35-26.94-4-26.5-4.42.53-27.21,3.64-27.65,3.56-.94-.17-14.82-22.83-18-28.33C188.77,350.07,183.8,349.7,185.11,359.87Z"/><path id="Path_241" data-name="Path 241" class="cls-11" d="M239,409.61c3,.61,14.64,1.88,22.68.34,3.9-.75,14.87-4.08,14.52-7.12s-3.63-2.35-3.63-2.35,4.42-2.1,3.79-5.12-5.71-1.79-5.71-1.79,4.4-2.49,3.55-5.46-5.75-.87-5.75-.87,4.12-2.09,2.39-4.24c-2.07-2.6-9.22,2.11-13.57,2.72-1,.14-20.24,1.38-20.24,1.38Z"/><path id="Path_242" data-name="Path 242" class="cls-12" d="M268.39,387.22c-5.27,3.45-8.18,4-14.37,4.15a.09.09,0,0,0-.1.1.1.1,0,0,0,.1.1c6.08.45,9.82.22,14.56-4.1C268.8,387.25,268.64,387.07,268.39,387.22Z"/><path id="Path_243" data-name="Path 243" class="cls-12" d="M270.93,393.5c-5.79,3.11-8.92,3.79-15.42,4.37-.09,0-.08.17,0,.17,6.41-.05,10.15-.36,15.52-4.22C271.29,393.65,271.2,393.36,270.93,393.5Z"/><path id="Path_244" data-name="Path 244" class="cls-12" d="M272.1,400.71c-5.82,2.61-9.23,3.5-15.6,3.26a.13.13,0,0,0-.08.15.15.15,0,0,0,.08.08c6.47.88,10.74-.2,15.69-3.3C272.49,400.69,272.49,400.55,272.1,400.71Z"/><path id="Path_245" data-name="Path 245" class="cls-11" d="M236.57,386.34s6-5.16,9.09-6.85,17.07-3.7,17.69-.71c.78,3.85-7.05,6.6-11.05,7.45,0,0,1.8,8.92-3.39,12.11S236.57,386.34,236.57,386.34Z"/><path id="Path_246" data-name="Path 246" class="cls-12" d="M263.2,379.91c-1.82,4-7.16,4.8-11,5.91a.37.37,0,0,0-.26.45.49.49,0,0,0,0,.11c.51,3.79.13,9.29-2.85,12a.1.1,0,0,0,0,.14.1.1,0,0,0,.09,0c3.59-2.5,4.4-7.87,3.58-12,3.94-1.08,9.25-2.08,10.39-6.64C263.26,379.9,263.23,379.88,263.2,379.91Z"/><path id="Path_247" data-name="Path 247" class="cls-10" d="M238.89,383.07l-1.15,29.7s-31.55,1.43-38.41-5.2c-4.58-4.43-12.75-27.75-14.42-43.74s3.42-15.7,11.75-1.65,15.27,24.42,15.72,24.42S238.89,383.07,238.89,383.07Z"/><path id="Path_248" data-name="Path 248" class="cls-12" d="M233.35,385.83c0-.09-.14-.09-.15,0a233.64,233.64,0,0,0-1.65,24.81c0,.09.14.09.15,0A239.4,239.4,0,0,0,233.35,385.83Z"/><path id="Path_249" data-name="Path 249" class="cls-13" d="M213.11,412c-6-.75-11.39-2.09-13.77-4.39-4.59-4.45-12.77-27.76-14.44-43.75-.59-5.72-.32-9.35.66-11Z"/><path id="Path_250" data-name="Path 250" class="cls-11" d="M247.3,603.22c-2,.64-59.89-.78-62.06-2.23-.83-.54,6.25-51.84,6.25-51.84l37.22,1-7.33,32.48s21.89,10.44,24.11,12.27S249.33,602.6,247.3,603.22Z"/><path id="Path_251" data-name="Path 251" class="cls-5" d="M247.3,603.22c-2.05.64-59.89-.77-62.06-2.23-.41-.27,1.08-12.61,2.68-25.18l34.86.58-1.41,6.22s21.9,10.46,24.12,12.29S249.33,602.6,247.3,603.22Z"/><path id="Path_252" data-name="Path 252" class="cls-10" d="M248.14,603.48c-2.07.66-61-.35-63.23-1.81-.85-.55,1.9-20,1.9-20.11l34.8.47v.64S244,593.15,246.27,595,250.21,602.83,248.14,603.48Z"/><path id="Path_253" data-name="Path 253" class="cls-12" d="M247.49,601.18c-9.92-.41-50-1.14-59.86-.8-.08,0-.09.06,0,.07,9.83.62,49.94,1,59.88.9C247.72,601.34,247.72,601.19,247.49,601.18Z"/><path id="Path_254" data-name="Path 254" class="cls-12" d="M225.85,582.21c-3.9-.8-8.69-.28-11.73,2.45-.11.11,0,.27.17.24a54.49,54.49,0,0,1,11.53-2.2.25.25,0,0,0,.21-.29A.23.23,0,0,0,225.85,582.21Z"/><path id="Path_255" data-name="Path 255" class="cls-12" d="M228.63,584c-3.89-.8-8.69-.28-11.72,2.45-.11.11,0,.27.16.24a54.7,54.7,0,0,1,11.54-2.2.25.25,0,0,0,.21-.29A.23.23,0,0,0,228.63,584Z"/><path id="Path_256" data-name="Path 256" class="cls-12" d="M231.43,585.7c-3.89-.79-8.69-.27-11.72,2.46-.12.11,0,.27.16.24a53.84,53.84,0,0,1,11.54-2.2.25.25,0,0,0,.26-.24.25.25,0,0,0-.24-.26Z"/><path id="Path_257" data-name="Path 257" class="cls-14" d="M224.74,580.75l-39-.21s11.49-80.87,10.49-84.2c-.43-1.27-42.74-42.34-42.74-42.34-16.86-16.61-11.8-43.41-11.8-43.41H190.3s-2.22,11.84.3,14.43c3.06,3.13,39.75,42.7,44.51,55.31C241.49,497.16,224.74,580.75,224.74,580.75Z"/><path id="Path_258" data-name="Path 258" class="cls-12" d="M224.24,573c-6-.39-4.28-.38-10.28-.68-2.94-.15-22.26-1.11-25-.66-.06,0-.08.14,0,.15,2.72.67,22.06,1.22,25,1.29,6,.17,4.28,0,10.3.12C224.33,573.23,224.35,573.07,224.24,573Z"/><path id="Path_259" data-name="Path 259" class="cls-12" d="M192.71,427.21l-18.43,47.06C163.8,464,153.49,454,153.49,454c-16.83-16.61-11.78-43.42-11.78-43.42h48.61s-2.22,11.85.3,14.43C191,425.36,191.68,426.07,192.71,427.21Z"/><path id="Path_260" data-name="Path 260" class="cls-11" d="M160.08,638.57c-2.12.25-58.72-11.81-60.58-13.64-.72-.68.56-9,2.39-19.08l.06-.31c.37-2.07,10.34-32.71,10.34-32.71l36.89,4.69-10.63,35.39-.15.62s19.6,14.31,21.44,16.53S162.19,638.34,160.08,638.57Z"/><path id="Path_261" data-name="Path 261" class="cls-5" d="M160.07,638.57c-2.11.25-58.71-11.81-60.57-13.64-.72-.69.56-9,2.39-19.08l.06-.31c.1-.54.86-3.35,1.93-7.18l36.64,8-2,6.55-.14.62s19.61,14.31,21.44,16.53S162.19,638.34,160.07,638.57Z"/><path id="Path_262" data-name="Path 262" class="cls-10" d="M160.61,638.8c-2.16.24-59.79-12.18-61.68-14-.73-.7.59-9.2,2.48-19.43a.58.58,0,0,1,.07-.32l37.26,7.6-.14.63s19.92,14.62,21.8,16.9S162.77,638.56,160.61,638.8Z"/><path id="Path_263" data-name="Path 263" class="cls-12" d="M160.49,636.42c-9.66-2.33-48.86-10.83-58.58-12.4-.07,0-.09,0,0,.06,9.52,2.52,48.79,10.7,58.57,12.5C160.61,636.62,160.64,636.47,160.49,636.42Z"/><path id="Path_264" data-name="Path 264" class="cls-12" d="M142.86,613.6c-3.67-1.54-8.47-2-12,.14-.14.08,0,.27.11.26a54.3,54.3,0,0,1,11.75.08.24.24,0,0,0,.31-.17A.24.24,0,0,0,142.86,613.6Z"/><path id="Path_265" data-name="Path 265" class="cls-12" d="M145.27,615.86c-3.67-1.54-8.47-2-12,.13-.14.08,0,.28.11.26a55,55,0,0,1,11.75.09.24.24,0,0,0,.3-.17A.24.24,0,0,0,145.27,615.86Z"/><path id="Path_266" data-name="Path 266" class="cls-12" d="M147.66,618.12c-3.67-1.54-8.47-2-12,.13-.13.08,0,.27.12.26a54.85,54.85,0,0,1,11.74.09.24.24,0,0,0,.31-.17A.24.24,0,0,0,147.66,618.12Z"/><path id="Path_267" data-name="Path 267" class="cls-14" d="M181,410.59s3.16,27-2.42,33.22c0,0-9.89,62.3-13.43,80.25-4.67,23.69-23.45,88.24-23.45,88.24l-41.32-7s24.37-84.85,24.57-86.4c1.12-8.76,11-69.56,10.5-71.07-5.17-15.45,2.29-37.26,2.29-37.26Z"/><path id="Path_268" data-name="Path 268" class="cls-14" d="M190.33,410.59s-3.94,28.59-11.73,33.22c0,0-9.89,62.3-13.43,80.25-4.67,23.69-23.45,88.24-23.45,88.24l-41.32-7s24.37-84.85,24.57-86.4c1.12-8.76,11-69.56,10.5-71.07-5.17-15.45,2.29-37.26,2.29-37.26Z"/><path id="Path_269" data-name="Path 269" class="cls-12" d="M141.55,603.8c-6.12-1.37-4.34-1.08-10.47-2.36-3-.63-22.7-4.75-25.61-4.75-.07,0-.09.12,0,.15,2.7,1.11,22.48,4.81,25.49,5.37,6.15,1.15,4.4.74,10.58,1.8C141.63,604.07,141.66,603.83,141.55,603.8Z"/><path id="Path_270" data-name="Path 270" class="cls-12" d="M184.24,440.7a78.58,78.58,0,0,0-12.58,5.86.14.14,0,1,0,.11.25c4.24-1.82,8.55-3.56,12.69-5.61a.28.28,0,0,0,.07-.39A.26.26,0,0,0,184.24,440.7Z"/><path id="Path_271" data-name="Path 271" class="cls-12" d="M185.57,411.61c0-.14-.25-.18-.25,0,0,5-.29,9.46-.72,14.16-.19,2.19-2,14.25-5.74,13.37-.64-.15-1-.77-1.06-1.72a15.94,15.94,0,0,1,.5-3.71c.42-2.52.76-5,1-7.61a68.75,68.75,0,0,0-.16-14.27.12.12,0,0,0-.12-.12.12.12,0,0,0-.12.12h0a131.27,131.27,0,0,1-1.15,19.71c-.48,3.14-2.06,7.86,1.22,8.34s5.51-7.42,5.92-9.58a71.8,71.8,0,0,0,.68-18.69Z"/><path id="Path_272" data-name="Path 272" class="cls-12" d="M179,439.45a21.63,21.63,0,0,0-.85,2.5,5.94,5.94,0,0,0-.36,2.05.16.16,0,0,0,.16.13.14.14,0,0,0,.1-.07,6.74,6.74,0,0,0,.88-2c.29-.77.6-1.54.86-2.32a.41.41,0,0,0-.26-.53.43.43,0,0,0-.53.24Z"/><path id="Path_273" data-name="Path 273" class="cls-12" d="M140.41,427.26c.91-.15,2.25.17,6.25-.11a21.42,21.42,0,0,0,3.27-.53,7.32,7.32,0,0,0,3-1.23,16.19,16.19,0,0,0,3.47-4.78,25,25,0,0,0,2.42-5.89c0-.12.21-.06.19.06-.21,1.16-.33,2.33-.63,3.48a22.18,22.18,0,0,1-1.17,3.16,12.89,12.89,0,0,1-3.56,5.26c-1.8,1.35-4.3,1.61-6.48,1.76-1.26.09-6.21-.05-6.87-.75C140.21,427.56,140.22,427.29,140.41,427.26Z"/><path id="Path_274" data-name="Path 274" class="cls-10" d="M191.57,421.72c-1.1.78-54.36-11-54.58-11.38-.59-1.15,25.94-54.62,41.15-62.12,3.27-1.61,11.48,1.75,13.16,4.11,1,1.48,2.27,10,3,16.91C195.66,383.07,192.49,421.07,191.57,421.72Z"/><path id="Path_275" data-name="Path 275" class="cls-12" d="M189.27,358.21c-.17,5.28-.43,10.56-.72,15.84s-.64,10.55-1,15.83-.75,10.54-1.2,15.81l-.67,7.9c-.25,2.64-.47,5.27-.75,7.9.07-2.64.2-5.28.31-7.93l.39-7.92c.29-5.27.65-10.55,1-15.82s.75-10.55,1.19-15.82S188.71,363.47,189.27,358.21Z"/><path id="Path_276" data-name="Path 276" class="cls-12" d="M192.07,374.66a1,1,0,0,1-1,1,1,1,0,0,1-1-1,1,1,0,0,1,1-1h.06A1,1,0,0,1,192.07,374.66Z"/><path id="Path_277" data-name="Path 277" class="cls-12" d="M191.17,384.83a1,1,0,1,1-1-1A1,1,0,0,1,191.17,384.83Z"/><path id="Path_278" data-name="Path 278" class="cls-12" d="M190.27,395a1,1,0,0,1-1,1,1,1,0,0,1-1-1,1,1,0,0,1,1-1h.05A1,1,0,0,1,190.27,395Z"/><path id="Path_279" data-name="Path 279" class="cls-12" d="M189.38,405.17a1,1,0,1,1-1-1.05,1,1,0,0,1,1,1.05Z"/><path id="Path_280" data-name="Path 280" class="cls-12" d="M188.49,415.35a1,1,0,0,1-1.05.89,1,1,0,0,1-.9-1.06,1,1,0,0,1,2,.17Z"/><path id="Path_281" data-name="Path 281" class="cls-11" d="M167,353.61c-20.2,9.22-36.26,24.33-36.21,31,.07,9.5,8.5,32.91,14.33,43.08,1.7,3,24.68-10.79,22.85-14-2.2-3.86-13.52-26.62-13.61-27.06-.21-.93,15.61-20,19.76-24.6C181.72,353.48,178,348.6,167,353.61Z"/><path id="Path_282" data-name="Path 282" class="cls-11" d="M183.38,445.07a4.11,4.11,0,0,1-4.57,1,6.08,6.08,0,0,1-2,3.62c-2,1.56-5.26-.83-5.26-.83a7.48,7.48,0,0,1-2.72,3.49c-2,1.3-5.7-.63-5.7-.63a6.6,6.6,0,0,1-4.32,1.57c-4.21-.21-7.36-5.84-9.39-9.4s-4.48-15.56-5.17-17.8L167,412.84s13.67,13.33,15.52,17.86C184,434.51,185.49,442.64,183.38,445.07Z"/><path id="Path_283" data-name="Path 283" class="cls-12" d="M179.08,445.68c-.64-4.44-2.56-8.45-4.24-12.56,0,0-.07,0-.11,0a.09.09,0,0,0,0,.07c1.72,4.07,2.62,8.42,4.17,12.55a.12.12,0,0,0,.15,0A.1.1,0,0,0,179.08,445.68Z"/><path id="Path_284" data-name="Path 284" class="cls-12" d="M171.8,448.6a11.1,11.1,0,0,0-1.11-2.85c-.46-1-.92-1.95-1.42-2.92-1-1.93-2-3.84-3.11-5.72,0-.08-.19,0-.14.06,1,1.93,1.93,3.87,2.83,5.84.45,1,.89,2,1.33,3a13.46,13.46,0,0,0,1.36,2.74.16.16,0,0,0,.21.06.16.16,0,0,0,.06-.21Z"/><path id="Path_285" data-name="Path 285" class="cls-12" d="M163.1,451.62a8.26,8.26,0,0,0-1.14-2.51c-.47-.87-.92-1.74-1.39-2.62-.91-1.75-1.83-3.5-2.69-5.29,0-.08-.17,0-.14.06.86,1.82,1.69,3.65,2.58,5.45.42.89.86,1.78,1.3,2.66a7.53,7.53,0,0,0,1.39,2.3S163.1,451.66,163.1,451.62Z"/><path id="Path_286" data-name="Path 286" class="cls-10" d="M167.71,412.7l-28.65,8.81s-11.83-33.95-9-39.66,19.7-21.34,34.44-27.68S182.94,352.84,172,365s-17.3,21.22-17.17,21.65S167.71,412.7,167.71,412.7Z"/><path id="Path_287" data-name="Path 287" class="cls-12" d="M162.88,407.74c.08,0,0-.17,0-.15a216,216,0,0,0-22.86,6.7c-.09,0,0,.17,0,.15A220.83,220.83,0,0,0,162.88,407.74Z"/><path id="Path_288" data-name="Path 288" class="cls-12" d="M167.8,412.23c-2-4.43-10.16-20.61-12.34-24.94a2.7,2.7,0,0,1-.25-.61,1.44,1.44,0,0,1,.42-1.06c.33-.48.69-1,1.05-1.43l2.23-3c1.46-1.93,3-3.83,4.47-5.73l.22-.3c1.2-1,2.4-2,3.51-3.12.06,0,0-.14-.09-.1-1,.74-1.84,1.54-2.74,2.35l4.26-5.41h0c-3.53,3.83-6.83,7.86-10,12-.77,1-1.53,2-2.3,3.07-.38.52-.77,1-1.14,1.55a1.83,1.83,0,0,0-.42.9,2.31,2.31,0,0,0,.37,1.19c.29.61.59,1.23.89,1.84l1.71,3.41c1.28,2.57,8.67,16.94,10,19.46C167.71,412.4,167.85,412.32,167.8,412.23Z"/><path id="Path_289" data-name="Path 289" class="cls-11" d="M186.58,359.24c-3.33-.12-7.37-6.37-8.42-10.83a64.65,64.65,0,0,1,2.39-6.32c.75-2,1.57-4.29,2.16-6.41l12.43,6.91a34.3,34.3,0,0,0-3.54,7.8,3.84,3.84,0,0,0-.14.9v.15C191.24,353.17,189.8,359.36,186.58,359.24Z"/><path id="Path_290" data-name="Path 290" class="cls-12" d="M183.3,336c-.33,2.77-.92,12.84,6.75,15.14a10.58,10.58,0,0,0,1.38.3v-.15a5.28,5.28,0,0,1,.14-.9,35.25,35.25,0,0,1,3.56-7.8Z"/><path id="Path_291" data-name="Path 291" class="cls-11" d="M179.38,324.35c-.72,5.08,4,18.67,8,21.24,5.7,3.74,14,2.88,16.84-3.72,2.81-6.41-3.7-24-8-26.23C189.88,312.35,180.49,316.86,179.38,324.35Z"/><path id="Path_292" data-name="Path 292" class="cls-12" d="M194.32,330.76s-.06.06,0,.1c.34.91.59,2-.14,2.59v.05C195.13,333,194.78,331.56,194.32,330.76Z"/><path id="Path_293" data-name="Path 293" class="cls-12" d="M193.16,330.07c-1.5.4-.61,3.39.8,3S194.43,329.75,193.16,330.07Z"/><path id="Path_294" data-name="Path 294" class="cls-12" d="M199.49,329.23s.09,0,.11.06c.25.94.69,2,1.61,2,0,0,.06,0,0,.06C200.13,331.53,199.55,330.16,199.49,329.23Z"/><path id="Path_295" data-name="Path 295" class="cls-12" d="M200,328c1.46-.57,2.48,2.39,1.12,2.92S198.77,328.48,200,328Z"/><path id="Path_296" data-name="Path 296" class="cls-12" d="M191.57,329.07a9.39,9.39,0,0,0,1-.76,2.28,2.28,0,0,0,.92-1,.64.64,0,0,0-.33-.73,1.64,1.64,0,0,0-1.64.31,2.46,2.46,0,0,0-1,1.4.71.71,0,0,0,1,.78Z"/><path id="Path_297" data-name="Path 297" class="cls-12" d="M200.71,326.15c-.43,0-.86,0-1.28,0a2.11,2.11,0,0,1-1.33-.2.65.65,0,0,1-.19-.78,1.6,1.6,0,0,1,1.47-.77,2.37,2.37,0,0,1,1.67.46.69.69,0,0,1,.22,1,.7.7,0,0,1-.57.33Z"/><path id="Path_298" data-name="Path 298" class="cls-12" d="M195.78,339.72a1.53,1.53,0,0,0,1,.31,2.53,2.53,0,0,0,.93-.53h0a1.28,1.28,0,0,1-1,.86,1,1,0,0,1-1-.6C195.68,339.74,195.74,339.7,195.78,339.72Z"/><path id="Path_299" data-name="Path 299" class="cls-12" d="M195.92,336.65a3.32,3.32,0,0,0,2.54.77,4,4,0,0,0,1.15-.29l.21-.09.19-.1a.2.2,0,0,0,.12-.26h0v-.09h0v-.08c-.2-.72-.6-1.78-.6-1.78.3,0,1.82.25,1.68-.12a49.22,49.22,0,0,0-4.11-9.2.08.08,0,0,0-.12,0,.11.11,0,0,0,0,.11c1,3,2.43,5.73,3.44,8.69a5.57,5.57,0,0,0-1.63,0c-.09.06.8,2,.87,2.38h0a4.63,4.63,0,0,1-3.58,0C195.91,336.51,195.85,336.59,195.92,336.65Z"/><path id="Path_300" data-name="Path 300" class="cls-12" d="M199,337.07a3.73,3.73,0,0,1-1.27,1.49,1.74,1.74,0,0,1-1,.28c-.79,0-.95-.72-.94-1.34a4.17,4.17,0,0,1,.15-1A5.17,5.17,0,0,0,199,337.07Z"/><path id="Path_301" data-name="Path 301" class="cls-15" d="M197.75,338.58a1.74,1.74,0,0,1-1,.28c-.79,0-.95-.72-.94-1.34A1.78,1.78,0,0,1,197.75,338.58Z"/><path id="Path_302" data-name="Path 302" class="cls-12" d="M185.27,331c.57-2.82-1.56-7.16-.37-8.55,2.6-3,9.23,1.28,13.35.77s5-3.22,3.86-6.36-4.16-5-8.72-5.06a16.86,16.86,0,0,0-10.8,4.07s.8-1.75.35-2.2-2.19,1.35-2.7,2.09a5.66,5.66,0,0,0-.73,2,6.37,6.37,0,0,0-1.85.05,3.84,3.84,0,0,0-2.23,1.36c0,.25,1.44.25,2.46.17,0,0-1.57,2.76-1.26,4.91s5,12,5.81,12C183.49,336.27,185,332.15,185.27,331Z"/><path id="Path_303" data-name="Path 303" class="cls-12" d="M178.24,319.07s.09,0,.06.05a6.92,6.92,0,0,0-1.77,3.33,8.64,8.64,0,0,0,.53,4.44,41.07,41.07,0,0,0,4.24,7.61c0,.07-.08.15-.12.08a30.4,30.4,0,0,1-4.58-8.19C175.8,323.87,176,320.82,178.24,319.07Z"/><path id="Path_304" data-name="Path 304" class="cls-12" d="M184.6,321.43a9.57,9.57,0,0,1,3.65-.23,13.57,13.57,0,0,1,3.3,1.14,14,14,0,0,0,7.63,1.08v.05a12.23,12.23,0,0,1-7-.59,30,30,0,0,0-3.42-1.29,12.69,12.69,0,0,0-4.08,0,.12.12,0,0,1-.09-.13,0,0,0,0,0,0,0Z"/><path id="Path_305" data-name="Path 305" class="cls-12" d="M184.89,314.42a19.2,19.2,0,0,1,4.9-2.34,15.06,15.06,0,0,1,5.14-.84c3,.1,6,1.63,7,4.58a6.41,6.41,0,0,1,0,4.68.08.08,0,0,1-.1.06.09.09,0,0,1-.06-.1h0a6.71,6.71,0,0,0-2.52-7.65c-2.69-1.79-6.11-1.52-9.08-.65a28,28,0,0,0-5.31,2.29S184.88,314.43,184.89,314.42Z"/><path id="Path_306" data-name="Path 306" class="cls-14" d="M193.82,336.44a4.09,4.09,0,1,1,2.93-5.75h0a4.07,4.07,0,0,1-2,5.42h0A4.09,4.09,0,0,1,193.82,336.44Zm-1.42-7.5a4.12,4.12,0,0,0-.84.27,3.54,3.54,0,1,0,.84-.27Z"/><path id="Path_307" data-name="Path 307" class="cls-14" d="M202.75,333.57c-1.54.3-3.23-1-3.87-3.05a5,5,0,0,1,0-3,2.55,2.55,0,0,1,3.09-1.87,2.49,2.49,0,0,1,1.08.56,4.8,4.8,0,0,1,1.67,2.47c.68,2.15-.07,4.3-1.67,4.81Zm-1.83-7.39h-.2a2.19,2.19,0,0,0-1.36,1.48,4.44,4.44,0,0,0,0,2.65c.58,1.86,2.12,3,3.44,2.63s1.91-2.27,1.33-4.13a4.3,4.3,0,0,0-1.5-2.19,2.22,2.22,0,0,0-1.71-.44Z"/><path id="Path_308" data-name="Path 308" class="cls-14" d="M196.77,331.18l-.47-.29c.44-.68,1.61-1.78,2.87-1.06l-.27.47C197.77,329.66,196.82,331.12,196.77,331.18Z"/><path id="Path_309" data-name="Path 309" class="cls-14" d="M179.71,337.65l-.53-.09c0-.25.45-2.47,1.56-3s8.22-2.06,8.53-2.13l.11.53c-2.06.45-7.6,1.68-8.39,2.08S179.82,337.07,179.71,337.65Z"/><path id="Path_310" data-name="Path 310" class="cls-11" d="M185,334.68s-3.94-3.94-5.8-2.46,1.69,7.61,4.25,8.07a2.49,2.49,0,0,0,3-1.84v-.05Z"/><path id="Path_311" data-name="Path 311" class="cls-12" d="M180.25,334V334a6.18,6.18,0,0,1,3.88,3.29,1.36,1.36,0,0,0-1.93-.15,1.06,1.06,0,0,0-.15.15s0,.1.06.08a1.53,1.53,0,0,1,1.75.23,6.78,6.78,0,0,1,1,1.2c.11.14.36,0,.27-.15h0C184.8,336.46,182.6,333.76,180.25,334Z"/><path id="Path_312" data-name="Path 312" class="cls-10" d="M191.43,351.44l-2.6,6.39-10.34-10.76-3,3.11s8.86,16.76,9,16l4.67-6.79,3.57,5.15.39-10.28Z"/><path id="Path_313" data-name="Path 313" class="cls-12" d="M193.14,358.59c0-2,.09-2.15,0-4.16a.07.07,0,0,0-.07-.07.08.08,0,0,0-.07.07c-.51,1.91-.48,7.72-.6,9.55h0c-.19-.22-3.26-4.55-3.3-4.49-.79,1.06-4.45,6-4.65,6.47-1.4-2.67-6.79-12.36-8.48-14.9a.07.07,0,0,0-.09-.05.08.08,0,0,0,0,.09v0c1.22,2.8,8.34,15.85,8.46,15.82a61.8,61.8,0,0,0,4.84-7.18c.66.92,3.74,5.77,3.78,5.47A64,64,0,0,0,193.14,358.59Z"/></g><g id="freepik--character-2--inject-43"><path id="Path_314" data-name="Path 314" class="cls-16" d="M339.26,612.83c-2.21.26-61.15-12.3-63.09-14.21-.75-.71.58-9.4,2.49-19.86l.06-.33c.39-2.15,10.77-38.22,10.77-38.22l38.41,9-11.07,36.81-.15.64s20.42,14.9,22.33,17.22S341.49,612.59,339.26,612.83Z"/><path id="Path_315" data-name="Path 315" class="cls-12" d="M277.73,584c-1.38,8-2.18,14.07-1.56,14.66,1.94,1.91,60.87,14.47,63.09,14.21s1.65-6.55-.25-8.86c-1.18-1.41-9.21-7.49-15.3-12,4.09,3.31,10,11.23-15.25,3.13C292.89,590.07,283.17,586.26,277.73,584Z"/><path id="Path_316" data-name="Path 316" class="cls-12" d="M356.76,379.89s3.29,28.17-2.52,34.59c0,0-8.94,63.83-12.61,82.52-4.86,24.67-19.74,78.87-19.74,78.87l-42-10.17s21.77-71.4,22-73c1.18-9.12,8-72.44,7.49-74-7.16-20.19,2.38-38.8,2.38-38.8Z"/><path id="Path_317" data-name="Path 317" class="cls-14" d="M321.11,564.57c-5.85-1.62-4.14-1.26-10-2.8-2.87-.74-21.76-5.64-24.6-5.73a.07.07,0,0,0-.06.1s0,.05.06.06c2.54,1.25,21.56,5.72,24.45,6.4,5.91,1.38,4.24.9,10.17,2.19C321.17,564.82,321.23,564.6,321.11,564.57Z"/><path id="Path_318" data-name="Path 318" class="cls-14" d="M316.63,557.61l5.14-21.49L327,514.66l2.57-10.75.61-2.68c.17-.89.32-1.8.45-2.71l.79-5.46,2.93-21.9,5.84-43.8,1.47-10.94.75-5.48.21-1.37a5.07,5.07,0,0,1,.11-.68q0-.33.06-.66c0-.92.06-1.84.08-2.76.1-7.36.06-14.72,0-22.09.15,7.37.3,14.73.31,22.1,0,.92,0,1.84-.05,2.76a3.42,3.42,0,0,1,0,.71c-.05.24-.08.42-.12.68l-.21,1.37-.73,5.47-1.41,10.95L335,471.25c-.94,7.31-2,14.6-3,21.89l-.81,5.47c-.15.91-.29,1.82-.48,2.74l-.6,2.72-2.6,10.7-5.35,21.44Z"/><path id="Path_319" data-name="Path 319" class="cls-14" d="M354.24,414.48s-3.51,25.09-7,48.41l-35.48-83h45S360.05,408.07,354.24,414.48Z"/><path id="Path_320" data-name="Path 320" class="cls-16" d="M426.23,579.07c-2.1.7-62.37.23-64.65-1.25-.87-.55,5.6-54.08,5.6-54.08l38.52,1.66-6.81,32.67s23,10.49,25.32,12.38S428.35,578.35,426.23,579.07Z"/><path id="Path_321" data-name="Path 321" class="cls-12" d="M426.23,579.07c-.93.31-13.07.39-26.6.26H397c-2.31,0-4.65-.06-7-.1h-2.68l-2.65-.06c-1.35,0-2.67,0-3.95-.09L378.2,579h0l-2.37-.08h0q-1.74,0-3.33-.12c-.71,0-1.41,0-2.08-.09-1.31-.05-2.51-.12-3.57-.19l-1.5-.11c-1.15-.08-2.08-.18-2.71-.28a3.34,3.34,0,0,1-1-.25c-.3-.19-.11-6.71.27-15.18,5.81,1.36,16.45,3.49,32.73,5.83,26.76,3.85,18.78-3.34,14.24-5.78l-.13-.08.85.4.14.06,1.55.74,1.7.81c.94.45,1.88.9,2.78,1.35l2.59,1.27,1.42.71c.22.1.44.23.66.34s.58.29.85.44c.61.31,1.14.6,1.6.86a2.48,2.48,0,0,1,.31.18,9.91,9.91,0,0,1,1.06.67C426.49,572.28,428.33,578.35,426.23,579.07Z"/><path id="Path_322" data-name="Path 322" class="cls-12" d="M404,543.07l-40.34.49s10-73.16,9-76.62c-.41-1.35-49.34-45.74-49.34-45.74-17.55-17.3-11.51-41.26-11.51-41.26h45s.6,7,3,9.7c13.54,15.2,48.09,46.65,53.38,60.62C419.76,467.74,404,543.07,404,543.07Z"/><path id="Path_323" data-name="Path 323" class="cls-14" d="M311.83,395.42a30.73,30.73,0,0,0,1.43,7.89,40.88,40.88,0,0,0,3.15,7.36A59.5,59.5,0,0,0,326,423.46c3.68,3.9,7.7,7.49,11.69,11.09s8.08,7.1,12.16,10.61c-2.17-1.59-4.28-3.26-6.41-4.92s-4.17-3.4-6.24-5.14c-4.1-3.49-8.11-7.09-11.89-11A57.22,57.22,0,0,1,315.76,411a41.24,41.24,0,0,1-2.95-7.57A28.81,28.81,0,0,1,311.83,395.42Z"/><path id="Path_324" data-name="Path 324" class="cls-14" d="M346.29,383.38a21.86,21.86,0,0,0,.37,5.17,9.19,9.19,0,0,0,.83,2.43c.5.7,1.08,1.35,1.64,2,2.28,2.6,4.65,5.14,7,7.68l14.15,15.24q7.08,7.62,14.1,15.31c4.65,5.13,9.3,10.28,13.75,15.62,1.1,1.35,2.18,2.71,3.21,4.12.51.71,1,1.42,1.46,2.19a4.45,4.45,0,0,1,.56,1.26,8.25,8.25,0,0,1,.28,1.31,56.12,56.12,0,0,1,.22,10.45c-.35,6.94-1.09,13.84-1.91,20.73s-1.79,13.75-2.82,20.61-2.19,13.7-3.39,20.53q1.65-10.29,3.05-20.58t2.69-20.62c.79-6.89,1.48-13.79,1.78-20.7a55.6,55.6,0,0,0-.27-10.32,8.42,8.42,0,0,0-.27-1.23,4.05,4.05,0,0,0-.5-1.1c-.43-.73-.93-1.43-1.44-2.13-1-1.38-2.11-2.73-3.21-4.06-4.39-5.35-9-10.52-13.64-15.68s-9.31-10.28-14-15.38l-14.06-15.34c-2.32-2.58-4.64-5.15-6.88-7.8-.56-.67-1.12-1.33-1.62-2a9.46,9.46,0,0,1-.8-2.48A21.93,21.93,0,0,1,346.29,383.38Z"/><path id="Path_325" data-name="Path 325" class="cls-14" d="M400.8,533.44c-5.64-.17-4-.23-9.66-.31-2.76,0-20.9-.26-23.48.35-.06,0-.06.14,0,.16,2.58.6,20.72.38,23.48.34,5.65-.08,4-.14,9.66-.31C400.91,533.67,400.91,533.44,400.8,533.44Z"/><path id="Path_326" data-name="Path 326" class="cls-12" d="M370,362.74l-7-.36a21.47,21.47,0,0,1-1.26-13c.2-1-2.62,4.62-2.3,12.81-7.38-.38-17.42-.9-26.19-1.43.09-3.43,0-6.62,0-6.62a38,38,0,0,1-1.92,6.51l-3.5-.22a137,137,0,0,0,.45-14.61,47.35,47.35,0,0,1-5.4,14.25c-5.56-.4-9.21-.77-9-1,9.14-9,3.4-15,6.43-23.35,3.64-10,12.53-10.92,12.85-18.58.27-6.23.34-17.58,8.38-19.4a15.18,15.18,0,0,1,16.67-1.91c12.06,5.69,5.7,24.5,6.25,28.47.79,5.66,3.29,7.83,4.8,14.33s-1.72,10.64-2.38,15S371.39,362.83,370,362.74Z"/><path id="Path_327" data-name="Path 327" class="cls-12" d="M313.76,357.7a21.71,21.71,0,0,0,3.11-5.24,11.26,11.26,0,0,0,.41-5.84c-.29-2.07-.47-4.15-.56-6.23a16.38,16.38,0,0,1,1.1-6.35,14.24,14.24,0,0,1,3.76-5.27,39.68,39.68,0,0,1,5.08-3.7,22.91,22.91,0,0,0,4.73-3.75,11.21,11.21,0,0,0,2.65-5.4,10.5,10.5,0,0,1-2.07,5.87,20.89,20.89,0,0,1-4.61,4.29,47.81,47.81,0,0,0-4.75,3.79,13.71,13.71,0,0,0-3.28,4.78,16.08,16.08,0,0,0-1,5.75c0,2,.18,4,.3,6.11a24.1,24.1,0,0,1,0,3.18,9.51,9.51,0,0,1-.95,3.11,17.69,17.69,0,0,1-3.92,4.9Z"/><path id="Path_328" data-name="Path 328" class="cls-12" d="M364.71,303.52a31.06,31.06,0,0,1,1.14,7.55c.13,2.55.13,5.1.1,7.63v3.79a20.17,20.17,0,0,0,.3,3.64,20.43,20.43,0,0,0,2.91,6.68,27.67,27.67,0,0,1,1.78,3.47,17.57,17.57,0,0,1,1.1,3.82,24.51,24.51,0,0,1,.25,3.92,16.21,16.21,0,0,1-.51,3.92c-.32,1.28-.78,2.48-1.17,3.65a21.08,21.08,0,0,0-.86,3.61,7.81,7.81,0,0,0,2.57,6.65,8,8,0,0,1-3.36-6.71,20.88,20.88,0,0,1,.62-3.85c.33-1.25.74-2.44,1-3.64a20.24,20.24,0,0,0,0-7.28,18,18,0,0,0-1.05-3.46,29.91,29.91,0,0,0-1.72-3.27,37.42,37.42,0,0,1-1.83-3.42,15.6,15.6,0,0,1-1.19-3.81,19.16,19.16,0,0,1-.2-3.93c0-1.29.09-2.55.17-3.82.13-2.53.31-5.05.37-7.58A36.77,36.77,0,0,0,364.71,303.52Z"/><path id="Path_329" data-name="Path 329" class="cls-16" d="M350.27,341.22c7.33,20.5,20.77,37.45,27.24,37.95,9.29.72,28.34-3.6,38.75-8.44,3.06-1.43-7.26-24.54-10.54-23-4,1.83-23.84,8.55-24.27,8.6-.93.13-18.21-16.9-22.4-21.35C351.38,326.81,346.29,330.07,350.27,341.22Z"/><path id="Path_330" data-name="Path 330" class="cls-16" d="M411.79,371.89c3-.24,14.24-2.21,21.36-5.83,3.45-1.76,12.83-7.87,11.68-10.62s-4-1.21-4-1.21,3.58-3.17,2.17-5.84-5.84-.12-5.84-.12,3.44-3.52,1.85-6.08-5.63.74-5.63.74,3.3-3.07,1.1-4.63c-2.65-1.87-8.07,4.49-12,6.24-.89.4-18.6,6.79-18.6,6.79Z"/><path id="Path_331" data-name="Path 331" class="cls-12" d="M433.26,342.94c-4,4.66-6.56,6-12.35,7.79-.11,0-.08.21,0,.18,5.82-1.22,9.26-2.45,12.54-7.79C433.64,342.86,433.49,342.71,433.26,342.94Z"/><path id="Path_332" data-name="Path 332" class="cls-12" d="M437.35,348.14c-4.58,4.48-7.36,6-13.27,8.28-.08,0,0,.17.05.15,6-1.78,9.42-3.09,13.41-8.17C437.71,348.17,437.54,347.93,437.35,348.14Z"/><path id="Path_333" data-name="Path 333" class="cls-12" d="M440.39,354.58c-4.75,4-7.71,5.78-13.73,7.28a.13.13,0,0,0-.09.15.14.14,0,0,0,.09.08c6.29-.94,10-3.11,13.8-7.35C440.76,354.45,440.7,354.33,440.39,354.58Z"/><path id="Path_334" data-name="Path 334" class="cls-16" d="M403.18,350.75s4.2-6.46,6.67-8.89,15-8.11,16.38-5.47c1.79,3.4-4.81,8.1-8.33,10,0,0,4.12,7.87.12,12.27S403.18,350.75,403.18,350.75Z"/><path id="Path_335" data-name="Path 335" class="cls-12" d="M426.42,337.49c-.62,4.27-5.41,6.44-8.71,8.52a.34.34,0,0,0-.13.47.31.31,0,0,0,.09.11c1.51,3.42,2.64,8.68.59,12a.09.09,0,0,0,.15.1c2.69-3.31,2-8.57.1-12.2,3.41-2.08,8.12-4.47,7.95-9.05Z"/><path id="Path_336" data-name="Path 336" class="cls-10" d="M391.42,352.07,397,378s-16.9,4.89-22.25,1.64-19.21-21-24.17-36,.22-18.12,11.16-6.42,19.29,18.67,19.72,18.58S391.42,352.07,391.42,352.07Z"/><path id="Path_337" data-name="Path 337" class="cls-12" d="M387.1,354.86c0-.08-.17,0-.15,0a210,210,0,0,0,4.65,22.89c0,.08.16,0,.14,0A217.28,217.28,0,0,0,387.1,354.86Z"/><path id="Path_338" data-name="Path 338" class="cls-13" d="M383,380.65c-3.31.25-6.38.07-8.18-1-5.35-3.25-19.2-21-24.17-36-3.59-10.82-1.89-15.46,3.48-12.79Z"/><path id="Path_339" data-name="Path 339" class="cls-10" d="M359.67,369.67l-2.9,10.23h-45s10-36.32,27.1-47.49c8.55-5.59,14.38-3.06,18.11,3.3.94,1.61,8,17.18,8.33,23.85A11,11,0,0,1,359.67,369.67Z"/><path id="Path_340" data-name="Path 340" class="cls-17" d="M357.63,376.86l-.34,1.21h-45q.15-.54.36-1.17Zm-43.92-3.3c-.13.4-.26.79-.39,1.16h44.91l.33-1.16Zm1.17-3.31c-.15.4-.29.78-.42,1.16h44.72l.33-1.16Zm1.25-3.31c-.16.39-.31.78-.46,1.17h46.11a12.07,12.07,0,0,0,1.09-1.17Zm1.31-3.3L317,364.8h47.26a9.71,9.71,0,0,0,.47-1.16Zm1.42-3.31-.51,1.16h46.84a11.45,11.45,0,0,0,.07-1.16Zm46.05-3.26H320.38c-.2.39-.37.78-.55,1.17h45.29Q365,357.64,364.91,357.07Zm-.83-3.31H322l-.6,1.17h43c-.11-.43-.22-.86-.33-1.22Zm-1-3.3H323.79l-.65,1.16h40.29Zm-1.2-3.31H325.73c-.24.39-.49.77-.71,1.17h37.26c-.14-.44-.29-.83-.44-1.25Zm-1.29-3.31h-32.7c-.27.39-.54.78-.79,1.17H361Zm-1.39-3.3H330.32c-.31.38-.61.76-.9,1.16h30.24Zm-1.49-3.31H333.2c-.37.38-.72.77-1.08,1.17h26.09Zm-2-3.31H336.79a15.25,15.25,0,0,0-1.38,1.17h21.08a6.53,6.53,0,0,0-.79-1.22Zm-3.58-3.3h-10a19.81,19.81,0,0,0-2.24,1.16h13.84a9.34,9.34,0,0,0-1.6-1.21Z"/><path id="Path_341" data-name="Path 341" class="cls-12" d="M354.89,366.22a24.46,24.46,0,0,0-5.07.93c-.83.26-1.65.58-2.47.93-.41.17-.82.32-1.23.47a3.89,3.89,0,0,1-1.31.28v.09a6.42,6.42,0,0,0,1.24,0,6.93,6.93,0,0,0,1.2-.26c.85-.25,1.69-.57,2.53-.83,1.7-.54,3.41-1.08,5.12-1.44C355,366.41,355,366.21,354.89,366.22Z"/><path id="Path_342" data-name="Path 342" class="cls-12" d="M358.89,368.7a25.23,25.23,0,0,0-4.15-.55,14.46,14.46,0,0,0-2.08.06,6.65,6.65,0,0,0-1,.11c-.33.05-.74.17-1.11.2v.1a8.34,8.34,0,0,1,1,0h3.09c1.4,0,2.77,0,4.16.13C359,368.87,359,368.71,358.89,368.7Z"/><path id="Path_343" data-name="Path 343" class="cls-16" d="M340.55,330.36c-22.26,2.34-39.73,9.43-45.78,12.65-3.95,2.1-25.92,17.6-30.92,22.2-2.46,2.25,13.08,20.73,16,18.63,3.89-2.85,28.16-24.69,28.5-25,1.28-1,27.14-16.77,32.57-19.77C350,334.12,350.43,329.32,340.55,330.36Z"/><path id="Path_344" data-name="Path 344" class="cls-16" d="M262.35,406.24a4,4,0,0,1-2.55-3.75,6,6,0,0,1-4-.48c-2.12-1.19-1.17-5-1.17-5a7.36,7.36,0,0,1-4.12-1.17c-1.91-1.35-1.51-5.35-1.51-5.35a6.44,6.44,0,0,1-3-3.32c-1.35-3.86,2.57-8.73,5-11.85s12.36-9.66,14.13-11.1l14.6,19.65s-1.49,13.09-4.91,16.35C272,402.93,265.27,407.25,262.35,406.24Z"/><path id="Path_345" data-name="Path 345" class="cls-12" d="M260.23,402.6c3.75-2.18,6.66-5.36,9.74-8.36.07-.07,0-.18-.1-.11-3,3-6.62,5.41-9.77,8.31C260,402.52,260.14,402.66,260.23,402.6Z"/><path id="Path_346" data-name="Path 346" class="cls-12" d="M255,397.12a11.14,11.14,0,0,0,2.17-2l2.1-2.34q2.07-2.38,4-4.86c0-.08-.05-.18-.11-.11-1.38,1.58-2.78,3.14-4.22,4.66-.72.76-1.45,1.51-2.18,2.26a12.8,12.8,0,0,0-2,2.22.15.15,0,0,0,0,.21.16.16,0,0,0,.21,0Z"/><path id="Path_347" data-name="Path 347" class="cls-12" d="M249.08,390.39a7.54,7.54,0,0,0,1.85-1.93c.62-.74,1.23-1.47,1.86-2.2,1.24-1.46,2.48-2.91,3.78-4.33a.09.09,0,0,0,0-.11.07.07,0,0,0-.1,0c-1.32,1.43-2.66,2.84-4,4.28-.65.71-1.28,1.42-1.92,2.14a6.77,6.77,0,0,0-1.56,2.08S249.05,390.41,249.08,390.39Z"/><path id="Path_348" data-name="Path 348" class="cls-10" d="M290.88,378.28l-18.31-21.92s16.81-11.39,22-14.55,26.53-10.49,42.06-11.74,15.13,3.68,1.32,11.42-23.73,14.34-24,14.66C313.1,357.07,290.88,378.28,290.88,378.28Z"/><path id="Path_349" data-name="Path 349" class="cls-12" d="M294.82,371.83c.06.06.17,0,.11-.1a208.82,208.82,0,0,0-15-17.55c-.05-.06-.16,0-.1.1A213.87,213.87,0,0,0,294.82,371.83Z"/><path id="Path_350" data-name="Path 350" class="cls-12" d="M314.82,355.44c1.75-1.23,3.55-2.4,5.35-3.55s3.65-2.26,5.46-3.39,3.67-2.19,5.54-3.25,3.73-2.1,5.63-3.08c-1.75,1.24-3.55,2.4-5.35,3.56s-3.63,2.25-5.46,3.38-3.67,2.19-5.54,3.25S316.73,354.46,314.82,355.44Z"/><path id="Path_351" data-name="Path 351" class="cls-12" d="M331.32,345.59a13.86,13.86,0,0,1,2.27-1A18.77,18.77,0,0,1,336,344a6.68,6.68,0,0,1-1.07.63,11.18,11.18,0,0,1-3.58,1Z"/><path id="Path_352" data-name="Path 352" class="cls-16" d="M347.24,334.19c.3.93,5.31,6.7,9.61,6.15,1.41-.18.76-7.88.76-7.88l.08-.58,1.14-8.11L349,318.52l-1.41-.69s-.17,2.24-.35,5v.85c0,.42-.06.85-.08,1.27s0,.64,0,1v1A54.68,54.68,0,0,0,347.24,334.19Z"/><path id="Path_353" data-name="Path 353" class="cls-12" d="M347.23,322.86a16.4,16.4,0,0,0,10.47,9l1.14-8.11L349,318.5l-1.41-.69S347.41,320.07,347.23,322.86Z"/><path id="Path_354" data-name="Path 354" class="cls-16" d="M368.23,308.25c4.78,13.55-2.8,17.95-5.72,19-2.65.93-11.81,3.77-18-9.22s-1.37-19.49,4.59-22S363.49,294.69,368.23,308.25Z"/><path id="Path_355" data-name="Path 355" class="cls-12" d="M365.49,307.74a8.13,8.13,0,0,1-.88.46,1.54,1.54,0,0,1-1,.3.52.52,0,0,1-.4-.48,1.28,1.28,0,0,1,.78-1,1.78,1.78,0,0,1,1.33-.24.54.54,0,0,1,.36.68.54.54,0,0,1-.19.28Z"/><path id="Path_356" data-name="Path 356" class="cls-12" d="M356.35,311.07c.32-.08.61-.22.94-.33a1.76,1.76,0,0,0,.89-.52.53.53,0,0,0-.09-.62,1.26,1.26,0,0,0-1.27-.13,1.8,1.8,0,0,0-1.08.81.54.54,0,0,0,.23.74.55.55,0,0,0,.38.05Z"/><path id="Path_357" data-name="Path 357" class="cls-12" d="M359.18,312.69s-.05.07,0,.11c.31.93.51,2-.24,2.61C359.91,315,359.63,313.52,359.18,312.69Z"/><path id="Path_358" data-name="Path 358" class="cls-12" d="M358,312c-1.54.34-.74,3.39.68,3.08S359.35,311.68,358,312Z"/><path id="Path_359" data-name="Path 359" class="cls-12" d="M357.49,312.28c-.23.25-.41.62-.72.73a1.17,1.17,0,0,1-1-.35h0c.15.58.53,1.13,1.18,1s.86-.69.85-1.32C357.71,312.32,357.57,312.19,357.49,312.28Z"/><path id="Path_360" data-name="Path 360" class="cls-12" d="M364.23,310.73a.1.1,0,0,1,.09.07c.23,1,.66,2,1.6,2.08v.05C364.85,313.07,364.29,311.67,364.23,310.73Z"/><path id="Path_361" data-name="Path 361" class="cls-12" d="M364.79,309.51c1.48-.53,2.44,2.48,1.07,3S363.54,310,364.79,309.51Z"/><path id="Path_362" data-name="Path 362" class="cls-12" d="M365.43,309.49c.33.08.68.3,1,.23s.55-.48.71-.86h.06a1.16,1.16,0,0,1-.43,1.52,1.18,1.18,0,0,1-1.44-.65C365.26,309.64,365.3,309.45,365.43,309.49Z"/><path id="Path_363" data-name="Path 363" class="cls-12" d="M361,320.07c.28.18.57.44.93.39a2.68,2.68,0,0,0,1-.46h0a1.32,1.32,0,0,1-1.1.78,1,1,0,0,1-.93-.69C360.83,320.07,360.91,320,361,320.07Z"/><path id="Path_364" data-name="Path 364" class="cls-12" d="M364,315.55s.58,1.36.77,2c0,.06-.13.13-.35.21h0a3.29,3.29,0,0,1-3.4-.34c-.07,0,0-.15.07-.12a5,5,0,0,0,3.11,0c0-.2-1.07-2.29-1-2.33a5.73,5.73,0,0,1,1.6-.07c-1.12-2.86-2.69-5.52-3.77-8.39,0-.1.11-.17.17-.09a50.4,50.4,0,0,1,4.45,8.87C365.77,315.72,364.26,315.59,364,315.55Z"/><path id="Path_365" data-name="Path 365" class="cls-12" d="M364.2,317.56a3.86,3.86,0,0,1-1.16,1.66,1.79,1.79,0,0,1-1,.39c-.82,0-1-.65-1.1-1.29a5.54,5.54,0,0,1,.06-1A5.17,5.17,0,0,0,364.2,317.56Z"/><path id="Path_366" data-name="Path 366" class="cls-15" d="M363,319.22a1.79,1.79,0,0,1-1,.39c-.82,0-1-.65-1.1-1.29A1.87,1.87,0,0,1,363,319.22Z"/><path id="Path_367" data-name="Path 367" class="cls-12" d="M344.8,318.23c3.31-1,1.59-6.25,1.59-6.25s3.65-1.57,1.94-7.71a9.66,9.66,0,0,0,8.33,2.15c1.13-.19-3.4-1.8-3.4-1.8s5.6,2.5,13.13-1.6c.54-.29-3.43-8.36-10.67-9.19s-12.37,2.65-15,7.89a8,8,0,0,0-2.09,7.27C339.57,313.53,343.49,318.64,344.8,318.23Z"/><path id="Path_368" data-name="Path 368" class="cls-16" d="M347.86,317.73s-4.16-3.56-5.85-2,2.21,7.3,4.75,7.57a2.43,2.43,0,0,0,2.82-2s0-.07,0-.1Z"/><path id="Path_369" data-name="Path 369" class="cls-12" d="M343.17,317.37v.07a6.11,6.11,0,0,1,4,2.93,1.33,1.33,0,0,0-1.89,0,.65.65,0,0,0-.11.12s0,.1.07.08a1.49,1.49,0,0,1,1.72.09,7.15,7.15,0,0,1,1.11,1.09c.1.13.35,0,.25-.17h0C347.8,319.49,345.49,317,343.17,317.37Z"/></g><g id="freepik--character-3--inject-43"><path id="Path_370" data-name="Path 370" class="cls-18" d="M515.34,297.55c6.74,17.63,25.44,41,30.11,42.71,7.42,2.7,30.95-6.8,39.87-11.54,2.68-1.43-8.78-25.38-11.51-23.63-5.79,3.71-21.63,10.34-23.7,10.18-1.38-.11-16.14-13.32-25.3-21.09C513.22,284.35,513.58,292.92,515.34,297.55Z"/><path id="Path_371" data-name="Path 371" class="cls-10" d="M530.49,326.4l8.65-22.08A134.25,134.25,0,0,0,521.23,290c-8.9-5.66-9.34,3.43-2.63,16S530.49,326.4,530.49,326.4Z"/><path id="Path_372" data-name="Path 372" class="cls-12" d="M527.68,320.44c1.67-4.85,3.68-9.59,5.79-14.27.59-1.33,1.21-2.64,1.87-3.93h.06c-.88,2.4-1.87,4.76-2.83,7.14s-2,4.75-3,7.1c-.59,1.33-1.17,2.65-1.79,4C527.74,320.53,527.66,320.5,527.68,320.44Z"/><path id="Path_373" data-name="Path 373" class="cls-19" d="M535.49,313.57l-5,12.84s-5.16-7.83-11.89-20.41c-3.65-6.85-5.19-12.65-4.4-15.62C519.61,296.22,529.68,307.16,535.49,313.57Z"/><path id="Path_374" data-name="Path 374" class="cls-18" d="M577.49,329.25c-3.13-.8-6.84-21.05-4.54-23.45a12.79,12.79,0,0,1,2.77-1.83h0a47.14,47.14,0,0,0,7.21-11.67c2-5.11,4.4-12.92,7.18-11.94,4.07,1.41,2.23,11.64.82,17.46,3.13-.88,5.91-1.35,7.63-1,5.7,1.07,7.36,22.9,2.79,26.63S580.59,330.07,577.49,329.25Z"/><rect id="Rectangle_15" data-name="Rectangle 15" class="cls-12" x="597.74" y="212.69" width="2.32" height="270.7" transform="translate(-25.04 47.19) rotate(-4.42)"/><path id="Path_375" data-name="Path 375" class="cls-18" d="M587.71,296.2c-1.14,2.79,2.81,2.54,2.81,2.54s-5.59,1.73-5.65,5.07,4.7,2.73,5,2.7c-.3.1-5.39,1.82-5.1,5.18s5,2.19,5.28,2.11c-.25.17-3.52,2.56-2.71,5.06,1.36,4.3,9.89-1.58,13.45-.77,0,0-1.83,6.54-1.81,6.73,0,0,9.37-5.78,10.2-10.64a3.17,3.17,0,0,0-1.87-3.48s2.85-1.45,2.71-4.1c-.08-1.36-2.32-2.45-2.32-2.45a4,4,0,0,0,2-3.61c-.21-1.87-2.42-2.68-2.42-2.68s1.58-2.2.74-4.05C606.34,290.07,590.16,290.23,587.71,296.2Z"/><path id="Path_376" data-name="Path 376" class="cls-12" d="M607,297.68v-.08a28.07,28.07,0,0,0-16.66,1.13c-.15.07-.12.37.07.33A57.49,57.49,0,0,1,607,297.68Z"/><path id="Path_377" data-name="Path 377" class="cls-12" d="M607.82,304.12c.07,0,.07-.1,0-.12a26.31,26.31,0,0,0-18.1,2.36c-.19.11-.25.4,0,.29C593.58,304.85,602.6,303.71,607.82,304.12Z"/><path id="Path_378" data-name="Path 378" class="cls-12" d="M589.78,314.15c5.45-2.81,11.26-3.58,17.35-3.52.08,0,.07-.11,0-.13-3-.84-6.85-.47-9.84.07a16.08,16.08,0,0,0-7.61,3.39C589.59,314.07,589.66,314.21,589.78,314.15Z"/><path id="Path_379" data-name="Path 379" class="cls-12" d="M590.43,298.69c-.2.08.15.28,0,.37-.84.38-5.62,3.09-5.22,5,.35,1.54,2.64,2.16,3.62,2.05l2.45-.28L589,306.94a10.21,10.21,0,0,0-2.66,1.91,3.68,3.68,0,0,0-1.21,2.7,2.07,2.07,0,0,0,1.66,2,6.23,6.23,0,0,0,3.12-.23l2.8-.84-2.36,1.71a10.23,10.23,0,0,0-1.77,1.65,4,4,0,0,0-1,2.05,1.86,1.86,0,0,0,.86,1.76,4.15,4.15,0,0,0,2.28.3,32.51,32.51,0,0,0,5-1.09c.83-.22,1.66-.45,2.5-.63a6.2,6.2,0,0,1,2.57-.15,6.53,6.53,0,0,0-2.51.38c-.82.25-1.62.53-2.43.81a28.48,28.48,0,0,1-5,1.39,4.8,4.8,0,0,1-2.75-.28,2.65,2.65,0,0,1-1.37-2.55,4.79,4.79,0,0,1,1.12-2.57,10.78,10.78,0,0,1,1.94-1.88l.44.87a7.34,7.34,0,0,1-3.69.31,3.09,3.09,0,0,1-1.72-1.06,3.42,3.42,0,0,1-.68-1.89,4.63,4.63,0,0,1,1.53-3.42,11.39,11.39,0,0,1,3-2l.25.84c-1.25.1-3.89-.31-4.72-2.63C583.57,301.17,589.34,299,590.43,298.69Z"/><path id="Path_380" data-name="Path 380" class="cls-12" d="M590.49,298.74a6.26,6.26,0,0,1-1.78-.52,1.4,1.4,0,0,1-.83-1.14,2.78,2.78,0,0,1,.52-1.53c.33-.52.7-1,1.1-1.56a4.74,4.74,0,0,0-1.62,1.16,2.86,2.86,0,0,0-.85,2,1.89,1.89,0,0,0,1.47,1.7A3.3,3.3,0,0,0,590.49,298.74Z"/><path id="Path_381" data-name="Path 381" class="cls-18" d="M498.2,498.21S491.66,535,491.65,535c-1,7.07-1.8,13.29-1.9,16.55h0a4.82,4.82,0,0,0,.21,2.26h0c1.9,1.73,58.18,11.58,60.25,11.26s1.34-6.27-.54-8.39-21.75-15.53-21.75-15.53L534,504.32Z"/><path id="Path_382" data-name="Path 382" class="cls-5" d="M492.7,527.4s-1,7.58-1.06,7.6c-1,7.07-1.79,13.29-1.9,16.55h0a9.57,9.57,0,0,0,.21,2.26h0c1.9,1.73,58.19,11.58,60.25,11.26s1.34-6.27-.54-8.39-21.75-15.53-21.75-15.53l1.19-7.7Z"/><path id="Path_383" data-name="Path 383" class="cls-10" d="M550.2,565.38c-2.11.32-59.31-9.67-61.25-11.43-.74-.66-.06-9.63,2.43-19.25l36.85,6.49s19.48,13.5,21.41,15.66S552.32,565.07,550.2,565.38Z"/><path id="Path_384" data-name="Path 384" class="cls-12" d="M549.78,563c-9.55-1.91-48.23-8.71-57.82-9.88-.07,0-.08,0,0,.06,9.42,2.1,48.17,8.59,57.8,10C550,563.13,550,563,549.78,563Z"/><path id="Path_385" data-name="Path 385" class="cls-12" d="M546.32,554.15a7.79,7.79,0,0,0-6.15,1.34,7.56,7.56,0,0,0-3,4.74.07.07,0,0,0,.07.06.06.06,0,0,0,0-.06,9,9,0,0,1,9-6C546.38,554.27,546.4,554.16,546.32,554.15Z"/><path id="Path_386" data-name="Path 386" class="cls-12" d="M531.08,542.67c-3.82-.72-8.51-.14-11.44,2.58-.12.1,0,.26.15.23a53.07,53.07,0,0,1,11.28-2.32.26.26,0,0,0,.2-.29A.26.26,0,0,0,531.08,542.67Z"/><path id="Path_387" data-name="Path 387" class="cls-12" d="M533.84,544.34c-3.83-.72-8.52-.14-11.45,2.58-.12.11,0,.27.16.23a53.11,53.11,0,0,1,11.27-2.32.25.25,0,0,0,.21-.29A.23.23,0,0,0,533.84,544.34Z"/><path id="Path_388" data-name="Path 388" class="cls-12" d="M536.6,546.07c-3.83-.73-8.52-.15-11.45,2.57-.11.11,0,.27.16.23a53.74,53.74,0,0,1,11.27-2.32.24.24,0,0,0,.25-.23A.23.23,0,0,0,536.6,546.07Z"/><path id="Path_389" data-name="Path 389" class="cls-12" d="M539.36,547.69c-3.83-.72-8.52-.15-11.45,2.58-.11.1,0,.26.16.22a53.74,53.74,0,0,1,11.27-2.32.24.24,0,0,0,.25-.23.23.23,0,0,0-.23-.25Z"/><path id="Path_390" data-name="Path 390" class="cls-20" d="M501.3,342.9s7,93.1,7.24,94.42c0,.12-18.8,95.17-18.8,95.17l40.75,7.06s13.47-91.62,13.6-101.74c.21-17.34-2.32-69.36-8.7-94.91Z"/><path id="Path_391" data-name="Path 391" class="cls-12" d="M530.36,529.56c-1-.42-25.26-5.15-34.76-6.09-.11,0-.34.23,0,.35,2.57.91,34.12,6,34.74,6C530.43,529.83,530.49,529.6,530.36,529.56Z"/><path id="Path_392" data-name="Path 392" class="cls-12" d="M510.65,350.07c-.15-1.08-.34-2.16-.53-3.24,0-.16-.3-.12-.28.05.34,4.66,1,9.31,1.5,14s6.42,74.81,6.2,77.11a51.73,51.73,0,0,1-1.25,6.73c-1.07,4.54-13.22,63.85-15.52,72.91-.29,1.14-.51,2.28-.75,3.43a.11.11,0,0,0,.14.07.1.1,0,0,0,.07-.07c1.59-4.44,18.5-78.71,18.59-83.29S512,359.5,510.65,350.07Z"/><path id="Path_393" data-name="Path 393" class="cls-12" d="M543.84,422.85,505.55,399c-2-26.17-4.24-56.1-4.24-56.1h34.06C540.49,363.38,543.32,400.64,543.84,422.85Z"/><path id="Path_394" data-name="Path 394" class="cls-18" d="M557,490.41s-2.3,37.29-2.3,37.32c-.48,7.13-.77,13.39-.62,16.64v0a5.06,5.06,0,0,0,.37,2.24v.05c2,1.58,58.91,7,61,6.57s.85-6.35-1.19-8.32-22.88-13.81-22.88-13.81l1.94-37.3Z"/><path id="Path_395" data-name="Path 395" class="cls-5" d="M555.14,520.07s-.47,7.63-.47,7.66c-.48,7.13-.77,13.39-.62,16.64a0,0,0,0,0,0,0,9.45,9.45,0,0,0,.37,2.24v.05c2,1.58,58.9,7,61,6.57s.85-6.35-1.19-8.32-22.88-13.81-22.88-13.81l.58-7.76Z"/><path id="Path_396" data-name="Path 396" class="cls-10" d="M615.66,553.18c-2.07.52-60-3.91-62.07-5.47-.8-.59-1-9.58.56-19.39l37.32,2.9s20.69,11.56,22.81,13.52S617.73,552.66,615.66,553.18Z"/><path id="Path_397" data-name="Path 397" class="cls-12" d="M615,550.8c-9.69-1-48.85-4-58.5-4.25-.09,0-.1,0,0,.06,9.58,1.18,48.77,3.9,58.5,4.35C615.21,551,615.21,550.82,615,550.8Z"/><path id="Path_398" data-name="Path 398" class="cls-12" d="M610.72,542.38a7.84,7.84,0,0,0-6,1.92,7.61,7.61,0,0,0-2.57,5c0,.06.11.07.12,0a9,9,0,0,1,8.43-6.83s0-.05,0-.08Z"/><path id="Path_399" data-name="Path 399" class="cls-12" d="M594.49,532.42c-3.88-.35-8.48.68-11.14,3.67-.11.12.06.26.18.21a53.84,53.84,0,0,1,11-3.39.25.25,0,0,0,.18-.31A.25.25,0,0,0,594.49,532.42Z"/><path id="Path_400" data-name="Path 400" class="cls-12" d="M597.35,533.82c-3.88-.35-8.49.68-11.14,3.67-.11.12.06.26.18.21a53.22,53.22,0,0,1,11-3.39.25.25,0,0,0,.18-.31A.25.25,0,0,0,597.35,533.82Z"/><path id="Path_401" data-name="Path 401" class="cls-12" d="M600.27,535.22c-3.88-.35-8.49.68-11.14,3.67-.11.11,0,.26.17.21a53.86,53.86,0,0,1,11-3.4.25.25,0,0,0,.22-.27A.24.24,0,0,0,600.27,535.22Z"/><path id="Path_402" data-name="Path 402" class="cls-12" d="M603.17,536.62c-3.88-.35-8.49.67-11.14,3.67-.11.11.06.26.18.21a53.86,53.86,0,0,1,11-3.4.25.25,0,0,0,.22-.27A.24.24,0,0,0,603.17,536.62Z"/><path id="Path_403" data-name="Path 403" class="cls-20" d="M552.76,525.33l41.91,3.84s11.57-112.35,7.49-124.37c-5.39-15.92-75.4-38.37-73.64-40.63,0,0,3.34-13.48,6.85-21.27H483.92c-6.93,20.43-3,34.89-.6,39,11.23,19.17,80.1,39.11,79.4,44.17C561.6,434,552.76,525.33,552.76,525.33Z"/><path id="Path_404" data-name="Path 404" class="cls-12" d="M591.8,519.79c-1-.32-25.64-2.72-35.19-2.75-.09,0-.32.26,0,.35,2.66.66,34.55,2.77,35.16,2.68C591.9,520.07,591.9,519.82,591.8,519.79Z"/><path id="Path_405" data-name="Path 405" class="cls-12" d="M534.34,363.49h-2a14.73,14.73,0,0,0-2,.2c-1.29.16-2.56.43-3.83.71a37.67,37.67,0,0,0-7.46,2.38c-.08,0,0,.16.06.14,2.56-.52,5.09-1.18,7.63-1.71,1.24-.25,2.48-.45,3.72-.7.65-.13,1.31-.27,2-.38s1.29-.32,1.94-.44C534.49,363.71,534.49,363.48,534.34,363.49Z"/><path id="Path_406" data-name="Path 406" class="cls-12" d="M534.41,343c0-.06-.08-.06-.09,0a93.2,93.2,0,0,1-2,13.49,5.73,5.73,0,0,1-1.29,2.79c-.4.41-.92.75-1.45.37a1.87,1.87,0,0,1-.61-1.54c.09-1.27.25-2.52.46-3.77s.24-2.38.35-3.57c.24-2.87.23-4.74.33-7.61A.09.09,0,0,0,530,343a.08.08,0,0,0-.07.08c-.17,3-.63,4.94-1,7.89-.19,1.43-.41,2.85-.6,4.28-.18,1.23-.62,2.68-.22,3.91a2.25,2.25,0,0,0,1.71,1.55l-.09.22-.44,1.07c-.28.7-.54,1.42-.85,2.11,0,.1.08.2.15.11a6,6,0,0,0,1.21-2,11.61,11.61,0,0,0,.47-1.52,3.32,3.32,0,0,0,2.21-2,12.57,12.57,0,0,0,.91-3.29c.26-1.45.47-2.91.65-4.37A45,45,0,0,0,534.41,343Z"/><path id="Path_407" data-name="Path 407" class="cls-12" d="M510.8,346.84c0-.16-.28-.14-.32,0-.26,1.17-.35,2.38-.52,3.57s-.35,2.33-.61,3.47a12.77,12.77,0,0,1-2.46,5.58c-2.87,3.33-7.79,4.2-12,4.13-.1,0-.09.14,0,.15,3.68.4,7.53.63,10.79-1.45,3.06-2,4.25-5.32,4.8-8.75a20.66,20.66,0,0,0,.32-6.7Z"/><path id="Path_408" data-name="Path 408" class="cls-12" d="M540.08,369.41a52,52,0,0,0-6-2.82c-2-.81-4.1-1.42-6.11-2.2-.08,0-.14.11-.06.14,2,.9,4,2,6,2.81a51.64,51.64,0,0,0,6.11,2.2C540.1,369.56,540.15,369.44,540.08,369.41Z"/><path id="Path_409" data-name="Path 409" class="cls-12" d="M549.59,410.57c-2-1.18-34.78-15.27-36.81-16.37s-4.1-2.3-6.12-3.51a105.05,105.05,0,0,1-11.17-7.54,24.11,24.11,0,0,1-7.82-9.91,33.72,33.72,0,0,1-1.82-12.52,94.88,94.88,0,0,1,1.48-16.32.09.09,0,0,0-.11,0,.07.07,0,0,0,0,0,122.34,122.34,0,0,0-2,14.78,37,37,0,0,0,1.14,13,22.61,22.61,0,0,0,6.95,10.45,74.69,74.69,0,0,0,11.22,7.76c2.31,1.4,4.68,2.7,7.08,3.94S547,410,549.57,410.8C549.64,410.85,549.71,410.64,549.59,410.57Z"/><path id="Path_410" data-name="Path 410" class="cls-12" d="M570.7,421.07c-.59-1.16-27.07-13.5-29.24-14.05-.1,0-.22.36-.12.4,1.45.6,28.13,13.43,28.51,14,.8,1.2-7.55,89.15-7.54,90a.2.2,0,0,0,.2.21.22.22,0,0,0,.22-.21h0C563.21,509.89,571.38,422.42,570.7,421.07Z"/><path id="Path_411" data-name="Path 411" class="cls-10" d="M479,359.52c.15.15,59.74-3.3,60.26-3.94.73-.9-15.6-59.06-22.09-66.83-1.39-1.67-5.75-2-9.43-1.35a17.31,17.31,0,0,0-2.82.69h-.09a7,7,0,0,0-2.05,1.11c-9.94,8.63-16.91,33.94-18.58,42.63C481.42,346.18,478.49,359,479,359.52Z"/><path id="Path_412" data-name="Path 412" class="cls-7" d="M533.61,333.78a5.5,5.5,0,0,0-1.21.23,7.44,7.44,0,0,0-2.69,1.47,13,13,0,0,0-2.66,3.28c-.08.12-.15.24-.22.37-.3.5-.57,1-.84,1.55l-.13.27a1.43,1.43,0,0,0-.13.28c-.88,1.79-1.65,3.64-2.49,5.48a17.91,17.91,0,0,1-3.64,5.64,5.18,5.18,0,0,1-3.1,1.42,10.52,10.52,0,0,1-3.35-.46,17.85,17.85,0,0,1-5.69-3.46l-.85-.73c-.26-.21-.51-.43-.76-.65-1-.88-2-1.75-3.07-2.55l-.41-.3-.44-.32A10,10,0,0,0,495,343c-.53.06-1.05.16-1.57.25a11.24,11.24,0,0,0-2.89,1.25h0c-.29.18-.57.36-.85.57a36.49,36.49,0,0,0-3.42,2.91l-.59.53-.19.17a19.63,19.63,0,0,1-5.37,3.45,2.8,2.8,0,0,1,.13-.64,21.42,21.42,0,0,0,4.71-3.37h0l.53-.49c1.14-1.05,2.25-2.17,3.52-3.13a8,8,0,0,1,.82-.58l.22-.15a9.82,9.82,0,0,1,6.61-1.53,12.39,12.39,0,0,1,5.73,2.75l.31.24c.16.13.32.26.48.41,1,.85,2,1.75,2.95,2.64l.73.66c.27.24.54.48.82.71a15.7,15.7,0,0,0,5.57,3.39,8.87,8.87,0,0,0,3.2.36,4.64,4.64,0,0,0,2.77-1.39,18.34,18.34,0,0,0,3.29-5.57c.77-1.81,1.49-3.67,2.33-5.48a1.43,1.43,0,0,1,.13-.28c0-.12.1-.23.16-.35.33-.67.68-1.34,1.07-2a2.33,2.33,0,0,1,.2-.34A13.41,13.41,0,0,1,529,334.7,7.69,7.69,0,0,1,532.1,333a9.45,9.45,0,0,1,1.2-.25C533.41,333.07,533.49,333.44,533.61,333.78ZM537,345.92h-.86a14.11,14.11,0,0,1-1.53-.36,10.57,10.57,0,0,1-3.45-2c-.3-.26-.59-.54-.87-.82s-.56-.58-.83-.88c-.86-1-1.66-2-2.45-3-.21-.28-.42-.56-.64-.83-.34-.45-.69-.91-1-1.35a17.54,17.54,0,0,0-4.91-4.61,9.7,9.7,0,0,0-3.17-1.13,5.21,5.21,0,0,0-3.33.75,17.6,17.6,0,0,0-4.7,4.8c-1.33,1.78-2.56,3.62-3.93,5.33a21.71,21.71,0,0,1-3,3.14c-.15.13-.31.25-.47.37a9.15,9.15,0,0,1-1.26.83,7.51,7.51,0,0,1-2.93.89,9,9,0,0,1-3.09-.37,12.51,12.51,0,0,1-4.1-2.2l-.71-.59-.57-.53a30.17,30.17,0,0,1-4-5.14c-.59-.92-1.17-1.85-1.75-2.79-.07.33-.13.67-.2,1,.42.74.84,1.48,1.29,2.21a31.66,31.66,0,0,0,4,5.41l.44.42c.21.21.43.4.66.59a13.64,13.64,0,0,0,4.68,2.6,9.9,9.9,0,0,0,3.46.44,8.24,8.24,0,0,0,3.36-1,10.65,10.65,0,0,0,1.6-1.12,3.53,3.53,0,0,0,.41-.34,22.17,22.17,0,0,0,2.92-3.21c1.37-1.77,2.56-3.65,3.82-5.45a18.08,18.08,0,0,1,4.35-4.79,4.65,4.65,0,0,1,3-.79,8.56,8.56,0,0,1,3.05,1,15.25,15.25,0,0,1,4.77,4.45c.38.48.74,1,1.11,1.47l.62.86c.72,1,1.45,2,2.24,3l.08.09.59.69a12,12,0,0,0,4.65,3.38,9.12,9.12,0,0,0,2.89.53C537.18,346.52,537.11,346.22,537,345.92Zm-.56-2a18.79,18.79,0,0,1-6.15-1.22l-1.18-.43c-1.1-.41-2.19-.85-3.29-1.27l-.88-.33a18.19,18.19,0,0,0-8.9-1.36,8,8,0,0,0-5,2.88c-1.29,1.48-2.28,3.12-3.47,4.55a13.72,13.72,0,0,1-1.43,1.53l-.29.25a9.87,9.87,0,0,1-2.53,1.58,13.35,13.35,0,0,1-5.37,1,24.61,24.61,0,0,1-10.8-2.66l-.89-.42-.76-.37c-1.16-.56-2.33-1.12-3.54-1.62a4.63,4.63,0,0,0-.56-.21l-.09.47.44.2c1.08.51,2.14,1.09,3.2,1.67l.72.39,1.14.59a32.42,32.42,0,0,0,5.36,2.19,20.58,20.58,0,0,0,5.78.8,13.65,13.65,0,0,0,5.79-1,10.79,10.79,0,0,0,2.87-1.88l.26-.24a14.26,14.26,0,0,0,1.43-1.59c1.22-1.53,2.17-3.2,3.34-4.63a7.54,7.54,0,0,1,4.54-2.86,14.41,14.41,0,0,1,5.59.19,23.78,23.78,0,0,1,3.09.91l.88.33,1.4.59c.86.36,1.72.74,2.6,1.09l1.46.56c.43.15.86.3,1.3.43a17,17,0,0,0,4.18.71c-.11-.37-.17-.62-.22-.87Z"/><path id="Path_413" data-name="Path 413" class="cls-18" d="M500.6,290.53c-21.62,5.8-37.77,15.54-43.24,19.66-3.57,2.7-22.84,21.45-27.07,26.77-2.07,2.61,16.17,18.43,18.68,15.9,3.42-3.42,23.95-28.79,24.24-29.11,1.14-1.24,24.25-20.92,29.12-24.68C510.49,292.78,510.2,288,500.6,290.53Z"/><path id="Path_414" data-name="Path 414" class="cls-18" d="M407.33,361.47a1.29,1.29,0,0,0,1.18.24c-.46,2.06-.33,3.82,1.12,4.47a2.34,2.34,0,0,0,2.55-.6,1.8,1.8,0,0,0,1.31,2.09c1.69.47,4.37-2.48,6.71-5.7-1.25,2.46-1.87,4.7-.35,5.19,4,1.27,8.45-6.5,12.2-11.33a20,20,0,0,1,4-4,4.56,4.56,0,0,1,.75-.41,1.53,1.53,0,0,1,1.81.08c.82.78-.38,3.1-1.63,4.33-2.35,2.33-3.3,7.35-1.85,8.85,2.1,2.2,6.82-3.86,9-5.56,2.89-2.28,5.83-8.44,6.14-8.79,0,0-.6-1.18-2.22-3.94-3.07-5.25-8.2-13.07-11.94-14.19A89.3,89.3,0,0,0,414.2,343C410.82,345.32,403.86,359.07,407.33,361.47Z"/><path id="Path_415" data-name="Path 415" class="cls-12" d="M428.49,350.26a15.06,15.06,0,0,0-5,4.79c-1.82,2.66-2.23,4.45-3.54,7.25a.08.08,0,0,0,.07.07l.05,0c.62-1.33,2.88-5.67,3.62-6.89a14.43,14.43,0,0,1,4.87-5.16Z"/><path id="Path_416" data-name="Path 416" class="cls-12" d="M424.29,346.69a33.13,33.13,0,0,0-5.69,5.22c-2.08,2.41-3.24,5.44-4.4,8.37-.7,1.76-1.35,3.53-2,5.33,0,.07.09.13.12.05q1.74-4.52,3.75-8.92a22.77,22.77,0,0,1,5.16-7.24c1.25-1.16,1.74-1.71,3.07-2.77Z"/><path id="Path_417" data-name="Path 417" class="cls-12" d="M420.41,343.46c-2.3,1.54-4.37,2.85-6,5.1a33.85,33.85,0,0,0-4.08,8.13c-.62,1.63-1.18,3.28-1.72,4.94,0,.06.09.11.1,0a92.26,92.26,0,0,1,4.56-10.74,14.19,14.19,0,0,1,2.9-4,32.08,32.08,0,0,1,4.28-3.44Z"/><path id="Path_418" data-name="Path 418" class="cls-12" d="M419.8,367.16a1.54,1.54,0,0,1-.73-.74,2.13,2.13,0,0,1-.09-1,8.7,8.7,0,0,1,.6-2c.13-.33.27-.66.37-1v-.15a.09.09,0,0,0-.1-.09h0a.42.42,0,0,0-.12.08h0l-.16.22-.3.45c-.39.59-.8,1.18-1.23,1.74a8.54,8.54,0,0,1-3.09,2.76,2.12,2.12,0,0,1-1.9-.12,1.3,1.3,0,0,1-.6-1.6l.27-.75-.59.54a2.41,2.41,0,0,1-1.62.67,1.58,1.58,0,0,1-1.46-.8,4.15,4.15,0,0,1-.44-1.79,5.81,5.81,0,0,1,.19-1.86l.14-.44-.43.19a1.19,1.19,0,0,1-1.09-.23,1.61,1.61,0,0,1-.65-1,7.84,7.84,0,0,1,0-2.69,20.31,20.31,0,0,1,1.53-5.18,31.24,31.24,0,0,1,6-9.37,29.12,29.12,0,0,0-6.31,9.13,20.07,20.07,0,0,0-1.56,5.37,8,8,0,0,0,0,2.84,2.31,2.31,0,0,0,.27.7,1.52,1.52,0,0,0,.53.57,1.56,1.56,0,0,0,1.51.27l-.29-.26a5.62,5.62,0,0,0-.21,2,4.4,4.4,0,0,0,.51,2,1.82,1.82,0,0,0,.77.76,2.45,2.45,0,0,0,1,.24,3,3,0,0,0,1.9-.81l-.33-.2a1.71,1.71,0,0,0,0,1.18,1.74,1.74,0,0,0,.77.88,2.57,2.57,0,0,0,1.1.34,2.66,2.66,0,0,0,1.12-.21,9.12,9.12,0,0,0,3.18-2.93c.42-.58.82-1.18,1.2-1.78l.29-.45c.07-.15.29-.33.07-.28-.08.33-.22.67-.33,1a7.42,7.42,0,0,0-.54,2.08,1.85,1.85,0,0,0,.14,1.06,1.42,1.42,0,0,0,.82.66Z"/><path id="Path_419" data-name="Path 419" class="cls-10" d="M470.67,299.07l20.11,12.47a135.13,135.13,0,0,0,17.22-15c7.13-7.74-1.7-9.81-15.22-5.45S470.67,299.07,470.67,299.07Z"/><path id="Path_420" data-name="Path 420" class="cls-12" d="M476.39,297.33c4.46,2.51,8.74,5.33,13,8.24,1.19.82,2.37,1.67,3.52,2.55-2.21-1.3-4.34-2.69-6.49-4.07s-4.31-2.78-6.43-4.22c-1.2-.82-2.39-1.63-3.57-2.47C476.29,297.37,476.33,297.29,476.39,297.33Z"/><path id="Path_421" data-name="Path 421" class="cls-12" d="M500.79,304.71c.07,0,0-.12,0-.08-1,.56-1.93,1.16-2.88,1.77,1.74-1.51,3.42-3.09,5.08-4.7.07-.07,0-.19-.11-.12-2.21,1.74-4.42,3.48-6.58,5.3-1.06.89-5.34,4.53-5.48,4.56-.39-.2-.78-.43-1.16-.67-.09,0-.17.08-.09.13.33.18,1.17.89,1.38.93a46.14,46.14,0,0,0,5-3.72l1.14-1h0C498.32,306.38,499.55,305.55,500.79,304.71Z"/><path id="Path_422" data-name="Path 422" class="cls-18" d="M515,298.15c-3.16.54-8.49-3.47-11.3-7a58.42,58.42,0,0,1-.58-6.59c-.18-2.11-.44-4.46-.82-6.59l13.92.83a34.15,34.15,0,0,0,.19,8.39,3.83,3.83,0,0,0,.25.86v.14C517.22,289.84,519.39,297.38,515,298.15Z"/><path id="Path_423" data-name="Path 423" class="cls-12" d="M516.16,278.83s-.06.6-.11,1.54c-2.17,4.2-6.23,9.51-12.66,8.89-.07-1.19-.19-2.84-.32-4.66-.19-2.11-.43-4.46-.83-6.59Z"/><path id="Path_424" data-name="Path 424" class="cls-18" d="M515.49,259.63c2.34,4.45,2.41,18.56-.38,22.24-4,5.32-11.93,7.24-16.78,2.1s-4.47-23.38-1.23-26.85C501.86,252,512.07,253.07,515.49,259.63Z"/><path id="Path_425" data-name="Path 425" class="cls-12" d="M503.26,270.27a.08.08,0,0,1,.08.07h0c0,1,.12,2,1,2.35v.05C503.26,272.61,503.08,271.16,503.26,270.27Z"/><path id="Path_426" data-name="Path 426" class="cls-12" d="M504.1,269.26c1.52-.13,1.67,2.94.26,3.06S502.82,269.37,504.1,269.26Z"/><path id="Path_427" data-name="Path 427" class="cls-12" d="M498.05,270.74a.08.08,0,0,0-.07.07v0c.1.94,0,2-.79,2.42h0C498.24,273.07,498.29,271.62,498.05,270.74Z"/><path id="Path_428" data-name="Path 428" class="cls-12" d="M497.14,269.81c-1.53,0-1.44,3.06,0,3.07S498.42,269.82,497.14,269.81Z"/><path id="Path_429" data-name="Path 429" class="cls-12" d="M505.24,267.8a11.88,11.88,0,0,1-1.2-.36,2,2,0,0,1-1.16-.6.65.65,0,0,1,.05-.79,1.6,1.6,0,0,1,1.61-.24,2.33,2.33,0,0,1,1.41,1,.69.69,0,0,1-.71,1Z"/><path id="Path_430" data-name="Path 430" class="cls-12" d="M495.85,268.35c.4-.12.8-.25,1.19-.4a2,2,0,0,0,1.14-.64.68.68,0,0,0-.09-.79,1.61,1.61,0,0,0-1.62-.19,2.3,2.3,0,0,0-1.38,1,.68.68,0,0,0,.24.94.72.72,0,0,0,.52.08Z"/><path id="Path_431" data-name="Path 431" class="cls-12" d="M505,279.07c-.21.23-.43.55-.77.6a2.65,2.65,0,0,1-1-.19h0a1.3,1.3,0,0,0,1.24.45,1,1,0,0,0,.7-.87Z"/><path id="Path_432" data-name="Path 432" class="cls-12" d="M503.91,276.28a3.25,3.25,0,0,1-2.08,1.54,4.12,4.12,0,0,1-1.16.11h-.43a.24.24,0,0,1-.21-.21h0a.17.17,0,0,1,0-.1h0v-.08a14.28,14.28,0,0,1,0-1.85c-.26.15-1.6.83-1.59.45a48.56,48.56,0,0,1,.77-9.85c0-.1.18-.09.17,0,.09,3-.36,6.09-.32,9.15a5.67,5.67,0,0,1,1.51-.54c.1,0-.07,2.16,0,2.48a4.5,4.5,0,0,0,3.29-1.2S504,276.2,503.91,276.28Z"/><path id="Path_433" data-name="Path 433" class="cls-12" d="M501.07,277.54a3.92,3.92,0,0,0,1.59,1.11,1.74,1.74,0,0,0,1.06,0c.74-.24.73-.93.56-1.52a4,4,0,0,0-.38-.9A5.06,5.06,0,0,1,501.07,277.54Z"/><path id="Path_434" data-name="Path 434" class="cls-15" d="M502.67,278.65a1.74,1.74,0,0,0,1.06,0c.73-.24.73-.93.56-1.52A1.76,1.76,0,0,0,502.67,278.65Z"/><path id="Path_435" data-name="Path 435" class="cls-12" d="M494.07,263.61c5.45,2.84,11.7-3.22,11.7-3.22a5.54,5.54,0,0,0,6,2.79s2,8.41,4.27,8.12c3.42-.44,3.07-12.2,1.71-14.35s-4.33-2.39-4.33-2.39a5.66,5.66,0,0,0-2.75-3.1c-2.55-1.51-10.33,1.88-10.33,1.88a7.81,7.81,0,0,0-2.41-2.54,2.13,2.13,0,0,0-3,.59.43.43,0,0,0,0,.07,5.19,5.19,0,0,1,1.08,2c.7,2.44-1.34,2.69-1.59.42a3.5,3.5,0,0,1,.51-2.42c-1.19-1.36-2.89-1.64-3.79-.73C489.49,252.39,489.49,261.25,494.07,263.61Z"/><path id="Path_436" data-name="Path 436" class="cls-18" d="M514.17,271.55s2.36-4.94,4.55-4.17.94,7.57-1.27,8.84a2.43,2.43,0,0,1-3.37-.66l-.06-.09Z"/><path id="Path_437" data-name="Path 437" class="cls-12" d="M518.32,269.32v.06a6,6,0,0,0-2.5,4.32,1.34,1.34,0,0,1,1.72-.8l.19.1a0,0,0,0,1,0,.05.05.05,0,0,1,0,.05,1.49,1.49,0,0,0-1.53.79,6.82,6.82,0,0,0-.56,1.44c0,.16-.34.13-.3-.05h0C515,273.13,516.09,269.91,518.32,269.32Z"/><path id="Path_438" data-name="Path 438" class="cls-10" d="M632.28,286.8l-3.79-48.62a8,8,0,0,0,.6,2.41,8.61,8.61,0,0,0,1.49,2.34c4.7,5.41,17.15,8.37,37.14,8.83l3.77,48.62c-20-.46-32.45-3.43-37.15-8.83a9.65,9.65,0,0,1-1.48-2.34A7.73,7.73,0,0,1,632.28,286.8Z"/><g id="Group_3" data-name="Group 3" class="cls-21"><path id="Path_439" data-name="Path 439" d="M632.28,286.8l-3.79-48.62a8,8,0,0,0,.6,2.41,8.61,8.61,0,0,0,1.49,2.34c4.7,5.41,17.15,8.37,37.14,8.83l3.77,48.62c-20-.46-32.45-3.43-37.15-8.83a9.65,9.65,0,0,1-1.48-2.34A7.73,7.73,0,0,1,632.28,286.8Z"/></g><path id="Path_440" data-name="Path 440" class="cls-10" d="M632.77,279.81a16.37,16.37,0,0,1-.24,3.56,15.16,15.16,0,0,0-.24,3.43l-3.8-48.62a16.27,16.27,0,0,1,.24-3.42,15.77,15.77,0,0,0,.25-3.56Z"/><g id="Group_4" data-name="Group 4" class="cls-22"><path id="Path_441" data-name="Path 441" d="M632.77,279.81a16.37,16.37,0,0,1-.24,3.56,15.16,15.16,0,0,0-.24,3.43l-3.8-48.62a16.27,16.27,0,0,1,.24-3.42,15.77,15.77,0,0,0,.25-3.56Z"/></g><path id="Path_442" data-name="Path 442" class="cls-10" d="M629,231.2l3.78,48.61a8.17,8.17,0,0,0-.72-2.75,9.5,9.5,0,0,0-1.47-2.27c-4.88-5.62-17.53-8.29-38.44-8.13l-3.79-48.59c20.92-.17,33.56,2.5,38.44,8.12a8.76,8.76,0,0,1,1.48,2.28,7.83,7.83,0,0,1,.72,2.73Z"/></g></g></g></g></g></svg>