<svg xmlns="http://www.w3.org/2000/svg" width="41" height="41" viewBox="0 0 41 41">
  <defs>
    <style>
      .cls-1 {
        fill: #687dac;
        fill-rule: evenodd;
      }
    </style>
  </defs>
  <path id="instagram-round-line-icon" class="cls-1" d="M20.439,14.437a6.346,6.346,0,1,1-6.346,6.346A6.345,6.345,0,0,1,20.439,14.437ZM15.7,9.26H25.3a6.522,6.522,0,0,1,6.542,6.456v9.567A6.514,6.514,0,0,1,25.3,31.74H15.7a6.687,6.687,0,0,1-5.253-2.616,6.192,6.192,0,0,1-1.29-3.841V15.716A6.522,6.522,0,0,1,15.7,9.26Zm10.871,4.292a1.033,1.033,0,1,1-1.033,1.033A1.031,1.031,0,0,1,26.575,13.552Zm-10.084-2.46h8.018a5.471,5.471,0,0,1,5.472,5.448v8.067a5.471,5.471,0,0,1-5.472,5.448H16.491a5.471,5.471,0,0,1-5.472-5.448V16.54A5.471,5.471,0,0,1,16.491,11.092ZM20.5,0A20.489,20.489,0,1,1,6,6,20.489,20.489,0,0,1,20.5,0ZM33.941,7.046a19,19,0,1,0,5.571,13.441A18.941,18.941,0,0,0,33.941,7.046Zm-13.5,9.518a4.193,4.193,0,1,1-4.193,4.193A4.2,4.2,0,0,1,20.439,16.565Z"/>
</svg>
