<svg xmlns="http://www.w3.org/2000/svg" width="519.348" height="455.138" viewBox="0 0 519.348 455.138">
  <g id="Contact_us-pana" data-name="Contact us-pana" transform="translate(-16.629 -31.167)">
    <g id="freepik--background-complete--inject-31" transform="translate(41.725 31.167)">
      <rect id="Rectangle_110" data-name="Rectangle 110" width="180.534" height="161.513" transform="translate(0.406 59.98)" fill="#fafafa"/>
      <path id="Path_510" data-name="Path 510" d="M221.7,250.377V238.729c0-7.582-.062-18.668-.1-32.781-.052-28.226-.125-68.547-.208-117.084l.406.406-180.607.073h0l.478-.478V250.377l-.426-.416,130.573.208,36.837.114h9.838l-9.662.052-36.733.114-130.853.208h-.426v-.426c0-47.455,0-102.752-.052-161.513V88.24h.5l180.513.073h.416v.406c-.083,48.641-.156,89.056-.208,117.333,0,14.082-.083,25.137-.1,32.7v8.58A20.971,20.971,0,0,1,221.7,250.377Z" transform="translate(-40.76 -28.884)" fill="#e0e0e0"/>
      <path id="Path_511" data-name="Path 511" d="M109.343,116.447c0,.27-9.506.489-21.216.489s-21.226-.218-21.226-.489S76.364,116,88.126,116,109.343,116.187,109.343,116.447Z" transform="translate(-39.714 -27.774)" fill="#e0e0e0"/>
      <path id="Path_512" data-name="Path 512" d="M185.743,128.119c0,.26-26.1.478-58.24.478s-58.313-.218-58.313-.478,26.1-.489,58.313-.489S185.743,127.848,185.743,128.119Z" transform="translate(-39.623 -27.309)" fill="#e0e0e0"/>
      <rect id="Rectangle_111" data-name="Rectangle 111" width="7.602" height="7.602" transform="translate(27.498 121.35)" fill="#e0e0e0"/>
      <rect id="Rectangle_112" data-name="Rectangle 112" width="7.602" height="7.602" transform="translate(46.218 121.35)" fill="#e0e0e0"/>
      <rect id="Rectangle_113" data-name="Rectangle 113" width="7.602" height="7.602" transform="translate(65.281 121.007)" fill="#e0e0e0"/>
      <rect id="Rectangle_114" data-name="Rectangle 114" width="7.602" height="7.602" transform="translate(90.42 121.35)" fill="#e0e0e0"/>
      <rect id="Rectangle_115" data-name="Rectangle 115" width="7.602" height="7.602" transform="translate(110.664 121.35)" fill="#e0e0e0"/>
      <rect id="Rectangle_116" data-name="Rectangle 116" width="7.602" height="7.602" transform="translate(130.897 121.35)" fill="#e0e0e0"/>
      <rect id="Rectangle_117" data-name="Rectangle 117" width="7.602" height="7.602" transform="translate(151.131 121.35)" fill="#ebebeb"/>
      <rect id="Rectangle_118" data-name="Rectangle 118" width="7.602" height="7.602" transform="translate(27.498 137.522)" fill="#ebebeb"/>
      <rect id="Rectangle_119" data-name="Rectangle 119" width="7.602" height="7.602" transform="translate(46.218 137.522)" fill="#e0e0e0"/>
      <rect id="Rectangle_120" data-name="Rectangle 120" width="7.602" height="7.602" transform="translate(64.938 137.522)" fill="#ebebeb"/>
      <rect id="Rectangle_121" data-name="Rectangle 121" width="7.602" height="7.602" transform="translate(90.42 137.522)" fill="#e0e0e0"/>
      <rect id="Rectangle_122" data-name="Rectangle 122" width="7.602" height="7.602" transform="translate(110.664 137.522)" fill="#e0e0e0"/>
      <rect id="Rectangle_123" data-name="Rectangle 123" width="7.602" height="7.602" transform="translate(131.268 137.169)" fill="#e0e0e0"/>
      <rect id="Rectangle_124" data-name="Rectangle 124" width="7.602" height="7.602" transform="translate(151.131 137.522)" fill="#e0e0e0"/>
      <rect id="Rectangle_125" data-name="Rectangle 125" width="7.602" height="7.602" transform="translate(27.498 153.684)" fill="#e0e0e0"/>
      <rect id="Rectangle_126" data-name="Rectangle 126" width="7.602" height="7.602" transform="translate(46.561 153.341)" fill="#e0e0e0"/>
      <rect id="Rectangle_127" data-name="Rectangle 127" width="7.602" height="7.602" transform="translate(64.938 153.684)" fill="#e0e0e0"/>
      <rect id="Rectangle_128" data-name="Rectangle 128" width="7.602" height="7.602" transform="translate(90.42 153.684)" fill="#ebebeb"/>
      <rect id="Rectangle_129" data-name="Rectangle 129" width="7.602" height="7.602" transform="translate(110.664 153.684)" fill="#e0e0e0"/>
      <rect id="Rectangle_130" data-name="Rectangle 130" width="7.602" height="7.602" transform="translate(130.897 153.684)" fill="#e0e0e0"/>
      <rect id="Rectangle_131" data-name="Rectangle 131" width="7.602" height="7.602" transform="translate(151.131 153.684)" fill="#e0e0e0"/>
      <rect id="Rectangle_132" data-name="Rectangle 132" width="7.602" height="7.602" transform="translate(27.498 169.856)" fill="#e0e0e0"/>
      <rect id="Rectangle_133" data-name="Rectangle 133" width="7.602" height="7.602" transform="translate(46.218 169.856)" fill="#e0e0e0"/>
      <rect id="Rectangle_134" data-name="Rectangle 134" width="7.602" height="7.602" transform="translate(64.938 169.856)" fill="#e0e0e0"/>
      <rect id="Rectangle_135" data-name="Rectangle 135" width="7.602" height="7.602" transform="translate(90.802 169.513)" fill="#e0e0e0"/>
      <rect id="Rectangle_136" data-name="Rectangle 136" width="7.602" height="7.602" transform="translate(110.664 169.856)" fill="#e0e0e0"/>
      <rect id="Rectangle_137" data-name="Rectangle 137" width="7.602" height="7.602" transform="translate(130.897 169.856)" fill="#ebebeb"/>
      <rect id="Rectangle_138" data-name="Rectangle 138" width="7.602" height="7.602" transform="translate(151.131 169.856)" fill="#e0e0e0"/>
      <rect id="Rectangle_139" data-name="Rectangle 139" width="7.602" height="7.602" transform="translate(27.498 186.028)" fill="#e0e0e0"/>
      <rect id="Rectangle_140" data-name="Rectangle 140" width="7.602" height="7.602" transform="translate(46.218 186.028)" fill="#ebebeb"/>
      <rect id="Rectangle_141" data-name="Rectangle 141" width="7.602" height="7.602" transform="translate(64.938 186.028)" fill="#e0e0e0"/>
      <rect id="Rectangle_142" data-name="Rectangle 142" width="7.602" height="7.602" transform="translate(90.42 186.028)" fill="#e0e0e0"/>
      <rect id="Rectangle_143" data-name="Rectangle 143" width="7.602" height="7.602" transform="translate(110.664 186.028)" fill="#e0e0e0"/>
      <rect id="Rectangle_144" data-name="Rectangle 144" width="7.602" height="7.602" transform="translate(131.268 185.685)" fill="#e0e0e0"/>
      <rect id="Rectangle_145" data-name="Rectangle 145" width="7.602" height="7.602" transform="translate(151.131 186.028)" fill="#e0e0e0"/>
      <rect id="Rectangle_146" data-name="Rectangle 146" width="11.606" height="57.731" transform="matrix(1, -0.005, 0.005, 1, 408.562, 21.59)" fill="#e0e0e0"/>
      <rect id="Rectangle_147" data-name="Rectangle 147" width="30.046" height="31.866" transform="matrix(1, -0.005, 0.005, 1, 295.93, 21.843)" fill="#ebebeb"/>
      <rect id="Rectangle_148" data-name="Rectangle 148" width="30.046" height="31.866" transform="matrix(1, -0.005, 0.005, 1, 328.389, 21.671)" fill="#f5f5f5"/>
      <path id="Path_513" data-name="Path 513" d="M303.008,60.687q29.952.25,59.946-.281a.322.322,0,0,0,0-.634c-19.958-.114-39.978,0-59.935.364a.281.281,0,0,0,0,.551Z" transform="translate(-5.226 -30.025)" fill="#e0e0e0"/>
      <rect id="Rectangle_149" data-name="Rectangle 149" width="54.59" height="25.969" transform="matrix(1, -0.005, 0.005, 1, 276.978, 53.31)" fill="#ebebeb"/>
      <rect id="Rectangle_150" data-name="Rectangle 150" width="54.59" height="25.969" transform="matrix(1, -0.005, 0.005, 1, 336.227, 53.016)" fill="#f5f5f5"/>
      <path id="Path_514" data-name="Path 514" d="M285.009,89.439c36.265.416,72.655,0,108.909-.541a.322.322,0,0,0,0-.634c-36.265-.187-72.655-.166-108.909.624a.281.281,0,0,0,0,.551Z" transform="translate(-4.264 -28.887)" fill="#e0e0e0"/>
      <rect id="Rectangle_151" data-name="Rectangle 151" width="211.485" height="9.308" transform="translate(268.945 79.303)" fill="#e0e0e0"/>
      <rect id="Rectangle_152" data-name="Rectangle 152" width="8.58" height="31.751" transform="translate(289.934 83.775)" fill="#e0e0e0"/>
      <rect id="Rectangle_153" data-name="Rectangle 153" width="8.59" height="31.751" transform="translate(431.726 83.775)" fill="#e0e0e0"/>
      <rect id="Rectangle_154" data-name="Rectangle 154" width="11.606" height="79.394" transform="matrix(1, -0.005, 0.005, 1, 419.885, 0.063)" fill="#ebebeb"/>
      <rect id="Rectangle_155" data-name="Rectangle 155" width="18.023" height="64.345" transform="translate(431.814 12.858) rotate(-0.573)" fill="#f5f5f5"/>
      <path id="Path_515" data-name="Path 515" d="M439.693,57.332a66.56,66.56,0,0,1-9.017.312,66.434,66.434,0,0,1-9.006-.312c0-.177,4.035-.312,9.006-.312S439.693,57.155,439.693,57.332Z" transform="translate(9.838 -30.133)" fill="#e0e0e0"/>
      <path id="Path_516" data-name="Path 516" d="M439.693,54.732a66.56,66.56,0,0,1-9.017.312,66.433,66.433,0,0,1-9.006-.312c0-.177,4.035-.312,9.006-.312S439.693,54.555,439.693,54.732Z" transform="translate(9.838 -30.237)" fill="#e0e0e0"/>
      <path id="Path_517" data-name="Path 517" d="M439.693,98.012a130.3,130.3,0,0,1-18.023,0c0-.177,4.035-.312,9.006-.312S439.693,97.794,439.693,98.012Z" transform="translate(9.838 -28.506)" fill="#e0e0e0"/>
      <path id="Path_518" data-name="Path 518" d="M439.693,95.372a130.3,130.3,0,0,1-18.023,0c0-.177,4.035-.312,9.006-.312S439.693,95.2,439.693,95.372Z" transform="translate(9.838 -28.611)" fill="#e0e0e0"/>
      <path id="Path_519" data-name="Path 519" d="M430.582,90.805c-.166,0-.312-6.49-.312-14.5s.146-14.5.312-14.5.312,6.49.312,14.5S430.759,90.805,430.582,90.805Z" transform="translate(10.182 -29.942)" fill="#e0e0e0"/>
      <rect id="Rectangle_156" data-name="Rectangle 156" width="19.625" height="48.568" transform="translate(449.687 30.6)" fill="#ebebeb"/>
      <path id="Path_520" data-name="Path 520" d="M419.367,44.348a3.338,3.338,0,1,1-3.328-3.338A3.338,3.338,0,0,1,419.367,44.348Z" transform="translate(9.478 -30.774)" fill="#e0e0e0"/>
      <rect id="Rectangle_157" data-name="Rectangle 157" width="2.059" height="47.237" transform="translate(424.477 22.748)" fill="#e0e0e0"/>
    </g>
    <g id="freepik--Plant--inject-31" transform="translate(16.629 308.903)">
      <path id="Path_521" data-name="Path 521" d="M74.512,342.933c5.45-2.808,11.856-3.172,17.9-2.174,3.245.541,6.625,1.508,8.84,3.952s2.621,6.729.083,8.819c-1.508,1.248-3.609,1.435-5.564,1.414-4.732-.052-9.984-.884-13.759,1.955-2.163,1.633-3.6,4.326-6.167,5.127s-5.377-.707-6.708-2.985a10.4,10.4,0,0,1-.759-7.686,11.731,11.731,0,0,1,6.136-8.424Z" transform="translate(-14.575 -269.573)" fill="#687dac"/>
      <path id="Path_522" data-name="Path 522" d="M62.391,321.586c3.328,4.753,9.8,3.172,12.8.281s4.264-7.114,5.418-11.118c2.631-9.162,5.294-18.72,3.328-28.08a15.527,15.527,0,0,0-3.588-7.634,8.154,8.154,0,0,0-7.727-2.579c-3.266.863-5.283,4.056-6.75,7.1a66.9,66.9,0,0,0-6.625,28.746c0,4.628.53,9.485,3.12,13.312" transform="translate(-14.923 -272.292)" fill="#687dac"/>
      <path id="Path_523" data-name="Path 523" d="M54.954,327.822c3.619-4.3,4.306-10.546,2.694-15.922s-5.2-9.942-9.422-13.676a50.763,50.763,0,0,0-16.879-9.953,17.889,17.889,0,0,0-7.592-1.29,7.967,7.967,0,0,0-6.375,3.848c-1.778,3.39-.073,7.5,1.768,10.858a128.612,128.612,0,0,0,11.086,16.879c3.328,4.285,7.134,8.507,12.2,10.4s10.327,1.716,13.062-1.758" transform="translate(-16.629 -271.705)" fill="#687dac"/>
      <path id="Path_524" data-name="Path 524" d="M62.063,390.31a10.774,10.774,0,0,0,.3-2.153c.146-1.581.343-3.546.572-5.9a84.419,84.419,0,0,1,1.321-8.653,67.707,67.707,0,0,1,3.12-10.2,37.784,37.784,0,0,1,5.2-9.235,19.375,19.375,0,0,1,6.594-5.47,18.376,18.376,0,0,1,5.574-1.685A10.544,10.544,0,0,0,86.9,346.7a9.827,9.827,0,0,0-2.184,0,16.963,16.963,0,0,0-5.793,1.5,19.49,19.49,0,0,0-6.947,5.522,36.983,36.983,0,0,0-5.4,9.422,62.4,62.4,0,0,0-3.12,10.4A73.631,73.631,0,0,0,62.3,382.3c-.187,2.506-.25,4.534-.291,5.938a9.6,9.6,0,0,0,.052,2.07Z" transform="translate(-14.814 -269.318)" fill="#263238"/>
      <path id="Path_525" data-name="Path 525" d="M62.469,388.021a4.628,4.628,0,0,0,0-1.04v-2.87c0-2.486,0-6.084.125-10.525.218-8.892,1.04-18.46,2.465-31.949,1.394-12.678,3.276-27.446,5.262-37.035.416-2.184.853-4.16,1.248-5.866s.718-3.214,1.04-4.42.5-2.08.676-2.777a4.16,4.16,0,0,0,.177-1.04,3.724,3.724,0,0,0-.354.936c-.218.718-.489,1.633-.832,2.746s-.749,2.662-1.175,4.389-.926,3.671-1.394,5.845a328.374,328.374,0,0,0-5.533,34.32c-1.477,13.52-2.142,25.823-2.2,34.726,0,4.462,0,8.07.156,10.556.073,1.165.135,2.08.177,2.86A4.264,4.264,0,0,0,62.469,388.021Z" transform="translate(-14.815 -271.564)" fill="#263238"/>
      <path id="Path_526" data-name="Path 526" d="M63.72,364.005a18.875,18.875,0,0,0,0-3,81.52,81.52,0,0,0-.915-8.112,106.341,106.341,0,0,0-2.631-11.814A96.593,96.593,0,0,0,55.2,327.137a74.506,74.506,0,0,0-14.56-22.6,38.148,38.148,0,0,0-3.411-3.172c-.53-.437-.988-.884-1.466-1.227l-1.321-.915A18.724,18.724,0,0,0,32,297.57c-.146.187,3.567,2.382,8.258,7.363a78.593,78.593,0,0,1,14.134,22.516A111.384,111.384,0,0,1,59.363,341.3a119.46,119.46,0,0,1,2.8,11.7c.645,3.38.978,6.126,1.2,8.039a21.235,21.235,0,0,0,.364,2.964Z" transform="translate(-16.014 -271.281)" fill="#263238"/>
      <path id="Path_527" data-name="Path 527" d="M40.45,401.71l2.371,32.583h41.86l2.382-32.583Z" transform="translate(-15.676 -267.115)" fill="#263238"/>
      <rect id="Rectangle_158" data-name="Rectangle 158" width="55.651" height="12.844" transform="translate(20.729 121.751)" fill="#263238"/>
      <path id="Path_528" data-name="Path 528" d="M36.56,431.84V435.4H91.3V431.84Z" transform="translate(-15.831 -265.91)" fill="#455a64"/>
      <path id="Path_529" data-name="Path 529" d="M41.639,441.531,39.07,435.26H89.2l-3,6.271Z" transform="translate(-15.731 -265.773)" fill="#455a64"/>
      <path id="Path_530" data-name="Path 530" d="M86.256,412.175a1.27,1.27,0,0,1-.2.291c-.166.229-.364.5-.624.832L83,416.418l-.114.146-.1-.146-5.99-8.32h.343l-5.9,8.32-.187.26-.208-.239-6.989-8.32h.406c-.125.146-.26.312-.385.478l-6.24,7.842-.208.26-.187-.27-5.907-8.32h.343c-2.9,3.318-5.377,6.126-7.28,8.32l-.125.146-.094-.166c-.967-1.6-1.726-2.891-2.278-3.817-.239-.416-.437-.749-.582-1.04a1.465,1.465,0,0,1-.187-.364,4.035,4.035,0,0,1,.25.322l.645.978,2.392,3.754h-.229l7.145-8.382.187-.208.156.229,5.959,8.32h-.416l6.24-7.852.385-.478.208-.25.2.239c2.454,2.922,4.8,5.741,6.978,8.32h-.4l5.959-8.32.177-.239.166.239L83,416.242h-.208l2.538-3.026.676-.79Q86.245,412.1,86.256,412.175Z" transform="translate(-15.648 -266.878)" fill="#e0e0e0"/>
      <path id="Path_531" data-name="Path 531" d="M87.632,401.51c0,.146-10.494.26-23.421.26s-23.431-.114-23.431-.26,10.483-.26,23.431-.26S87.632,401.364,87.632,401.51Z" transform="translate(-15.662 -267.133)" fill="#455a64"/>
      <path id="Path_532" data-name="Path 532" d="M89.819,435.61c0,.146-11.44.26-25.459.26s-25.459-.114-25.459-.26,11.44-.26,25.459-.26S89.819,435.464,89.819,435.61Z" transform="translate(-15.738 -265.769)" fill="#263238"/>
    </g>
    <g id="freepik--Chair--inject-31" transform="translate(396.616 347.194)">
      <path id="Path_533" data-name="Path 533" d="M363.7,309.11h97.272a15.735,15.735,0,0,1,15.735,15.735V447.171H348V324.845a15.735,15.735,0,0,1,15.7-15.735Z" transform="translate(-348 -309.11)" fill="#455a64"/>
      <path id="Path_534" data-name="Path 534" d="M461.35,309.79c.156,0,.27,30.732.27,68.64s-.114,68.64-.27,68.64-.27-30.732-.27-68.64S461.2,309.79,461.35,309.79Z" transform="translate(-343.476 -309.083)" fill="#263238"/>
    </g>
    <g id="freepik--Character--inject-31" transform="translate(240.92 172.967)">
      <path id="Path_535" data-name="Path 535" d="M401.782,165.3a109.263,109.263,0,0,1,19.573,57.554c.6,13.832-1.258,28.569,5.3,40.758,9.422,17.493,29.8,16.9,36.036,35.755,2.714,8.206-2.288,26.25-3.64,34.788-1.529,9.693,4.4,17.836,2.87,27.539-1.4,8.892-8.06,15.236-16.047,19.375-7.114,3.682-13.686,3.786-21.081.718-14.1-5.834-25.834-11.991-35.87-23.473-14.1-16.12-18.366-38.48-20.8-59.727A524.025,524.025,0,0,1,371.32,157.41" transform="translate(-191.632 -140.952)" fill="#263238"/>
      <path id="Path_536" data-name="Path 536" d="M430.346,381.042a3.726,3.726,0,0,1,.447-.114c.3-.073.759-.146,1.342-.322a22.88,22.88,0,0,0,11.294-7.1,13.322,13.322,0,0,0,2.517-4.462,24.479,24.479,0,0,0,.884-5.71,56.256,56.256,0,0,0-1.352-13.25,119.754,119.754,0,0,1-2.434-15.215,31.511,31.511,0,0,1,.593-8.32,53.339,53.339,0,0,1,2.642-8.32,89.176,89.176,0,0,0,2.974-8.455,21.57,21.57,0,0,0,.728-9.048,20.458,20.458,0,0,0-3.38-8.4,38.561,38.561,0,0,0-5.9-6.677c-4.3-4.014-8.944-7.28-12.917-11.045a73.163,73.163,0,0,1-16.827-23.234,71.207,71.207,0,0,1-3.869-10.4c-.5-1.55-.79-3.047-1.144-4.4s-.51-2.621-.738-3.744c-.322-2.278-.572-4.035-.634-5.2,0-.582-.083-1.04-.1-1.373a2.517,2.517,0,0,1,0-.468,2.328,2.328,0,0,0,.073.468c.073.312.094.78.166,1.362.094,1.2.374,2.954.728,5.2.239,1.123.5,2.371.78,3.734a37.526,37.526,0,0,0,1.186,4.368,72.52,72.52,0,0,0,3.921,10.3,73.508,73.508,0,0,0,16.817,23.026c3.952,3.682,8.611,6.978,12.948,11.014a39.362,39.362,0,0,1,5.98,6.77,20.967,20.967,0,0,1,3.463,8.632,22.048,22.048,0,0,1-.738,9.266c-.811,2.954-1.945,5.751-3,8.5a54.212,54.212,0,0,0-2.642,8.216,30.962,30.962,0,0,0-.593,8.206c.281,5.387,1.487,10.4,2.382,15.153a56.659,56.659,0,0,1,1.29,13.354,25.54,25.54,0,0,1-.936,5.8,14.07,14.07,0,0,1-2.61,4.545,21.548,21.548,0,0,1-6.573,5.148,21.052,21.052,0,0,1-4.94,1.872A12.158,12.158,0,0,1,430.346,381.042Z" transform="translate(-190.046 -138.216)" fill="#455a64"/>
      <path id="Path_537" data-name="Path 537" d="M243.16,416.123l49.92-23.7s19.438-94.38,23.119-101.463,19.032-13.208,19.032-13.208l-2.569,127.8-4.576,29.5L257.7,441.717Z" transform="translate(-196.498 -136.137)" fill="#687dac"/>
      <path id="Path_538" data-name="Path 538" d="M202.247,432.3c-.281,0-1.664.853-.51,3.047s9.62,9.443,12.106,6.916-1.31-5.606-1.31-5.606Z" transform="translate(-198.174 -129.955)" fill="#ffbe9d"/>
      <path id="Path_539" data-name="Path 539" d="M213.006,437.686s10.213,1.29,14.134,2.787c4.274,1.622,9.474.51,12.969-1.851a36.908,36.908,0,0,0,5.533-4.514l13.021-.208a15.6,15.6,0,0,0,2.538-16.13,17.5,17.5,0,0,0-2.974-5.086c-1.55-1.674-3.994-3.026-8.216-3.754l-15.465,3.338s-23.92-1.716-28.226.3c0,0-5.356,3.172-7.01,4.5-.624.51-2.527,6.6,1.373,9.776,0,0-3.39,2.694-1.55,5.117l.874,1.04s-2.278,2.954-1.1,4.243,11.44,7.28,15.09,5.866.634-4.836-.988-5.46" transform="translate(-198.293 -130.89)" fill="#ffbe9d"/>
      <path id="Path_540" data-name="Path 540" d="M203.161,421.09a11.27,11.27,0,0,1,1.269.458c.8.3,1.976.738,3.453,1.206.728.239,1.539.478,2.423.707s1.83.426,2.818.749a6.021,6.021,0,0,1,2.808,1.7,3.442,3.442,0,0,1,.749,3.422,2.683,2.683,0,0,1-1.258,1.362,4.889,4.889,0,0,1-1.706.478,14.425,14.425,0,0,1-3.255-.177,29.121,29.121,0,0,1-5.283-1.373c-1.466-.52-2.621-1.04-3.422-1.352a6.8,6.8,0,0,1-1.217-.582,10.958,10.958,0,0,1,1.279.426c.811.291,1.986.738,3.453,1.217a31.2,31.2,0,0,0,5.2,1.279,14.376,14.376,0,0,0,3.12.146,4.358,4.358,0,0,0,1.55-.437,2.247,2.247,0,0,0,1.04-1.144,3.047,3.047,0,0,0-.6-2.974,5.689,5.689,0,0,0-2.61-1.591c-.957-.322-1.914-.53-2.787-.78s-1.7-.51-2.423-.759c-1.477-.51-2.631-1.04-3.422-1.342a7.1,7.1,0,0,1-1.175-.634Z" transform="translate(-198.203 -130.403)" fill="#eb996e"/>
      <path id="Path_541" data-name="Path 541" d="M204.028,414a8.766,8.766,0,0,1,1.258.458c.811.312,1.976.759,3.432,1.238s3.214,1.04,5.2,1.487a7.176,7.176,0,0,1,3.026,1.227,2.527,2.527,0,0,1,.884,1.57,3.235,3.235,0,0,1-.26,1.82,4.358,4.358,0,0,1-2.673,2.267,7.02,7.02,0,0,1-3.255.26,31.281,31.281,0,0,1-5.2-1.518L203,421.6a9.617,9.617,0,0,1-1.248-.489,7.94,7.94,0,0,1,1.3.333l3.484,1.04a35.368,35.368,0,0,0,5.2,1.414,6.749,6.749,0,0,0,3.068-.27,3.983,3.983,0,0,0,2.423-2.08,2.423,2.423,0,0,0-.51-2.9,6.915,6.915,0,0,0-2.85-1.154,50.536,50.536,0,0,1-5.2-1.581c-1.456-.541-2.6-1.04-3.39-1.373a8.385,8.385,0,0,1-1.248-.541Z" transform="translate(-198.155 -130.687)" fill="#eb996e"/>
      <path id="Path_542" data-name="Path 542" d="M208.708,416.16a12.949,12.949,0,0,1-.468-2.08,11.441,11.441,0,0,1-.51-2.08,3.671,3.671,0,0,1,.926,1.945,3.453,3.453,0,0,1,.052,2.215Z" transform="translate(-197.916 -130.767)" fill="#eb996e"/>
      <path id="Path_543" data-name="Path 543" d="M244.7,416.883l-9.1-3.453s-25.262-11.794-25.688-11.149-1.8.562-1.5,3.64,15.018,9.3,15.486,10.4-.312,6.469,5.127,10.327,9.36,3.952,9.36,3.952" transform="translate(-197.89 -131.157)" fill="#ffbe9d"/>
      <path id="Path_544" data-name="Path 544" d="M238.393,430.517h-.239l-.624-.062a15.129,15.129,0,0,1-2.361-.572,23.1,23.1,0,0,1-7.717-4.441,10.879,10.879,0,0,1-3.12-5.314,24.148,24.148,0,0,1-.541-3.4,1.894,1.894,0,0,0-.094-.385.749.749,0,0,0-.239-.25,8.241,8.241,0,0,0-.738-.478c-.51-.3-1.04-.593-1.6-.884-2.184-1.175-4.524-2.35-6.874-3.7a41.02,41.02,0,0,1-3.5-2.215,12.774,12.774,0,0,1-1.643-1.373,4.16,4.16,0,0,1-.7-.874,1.707,1.707,0,0,1-.208-.572,2.571,2.571,0,0,1,0-.562,3.983,3.983,0,0,1,.385-2.194,2.674,2.674,0,0,1,.8-.8,1.778,1.778,0,0,0,.354-.3l.083-.094a.26.26,0,0,1,.177-.052.788.788,0,0,1,.177,0l.281.073c1.362.416,2.621.967,3.879,1.487q3.744,1.56,7.145,3.12c4.545,2.08,8.6,3.931,12.012,5.533.853.385,1.654.79,2.423,1.123l2.226.874,3.567,1.414,2.246.9.572.25a.215.215,0,0,1,.2.094c0,.01-.073,0-.208-.062l-.593-.2-2.278-.842-3.6-1.279-2.246-.842c-.79-.322-1.591-.718-2.444-1.1L221.305,407.1q-3.416-1.56-7.155-3.12c-1.248-.51-2.517-1.04-3.827-1.466l-.229-.052h-.083v-.1h0c.291.187.073.062.135.1h0a1.9,1.9,0,0,1-.437.4,2.132,2.132,0,0,0-.686.676,3.619,3.619,0,0,0-.333,1.966,1.945,1.945,0,0,0,.218.936,4.005,4.005,0,0,0,.624.79,12.186,12.186,0,0,0,1.591,1.321c1.123.811,2.3,1.518,3.463,2.194,2.34,1.352,4.659,2.538,6.854,3.713.551.3,1.04.593,1.612.915a8.972,8.972,0,0,1,.78.5,1.04,1.04,0,0,1,.354.406,2.081,2.081,0,0,1,.1.468,26.971,26.971,0,0,0,.51,3.37,10.692,10.692,0,0,0,2.974,5.2,23.651,23.651,0,0,0,7.561,4.5,16.709,16.709,0,0,0,2.319.634c.27.062.478.083.624.1Z" transform="translate(-197.898 -131.167)" fill="#eb996e"/>
      <path id="Path_545" data-name="Path 545" d="M210.84,430.56a3.12,3.12,0,0,1,.967.281,9.787,9.787,0,0,1,2.382,1.373,8.727,8.727,0,0,1,1.373,1.342,2.839,2.839,0,0,1,.738,2.08,2.35,2.35,0,0,1-1.685,1.82,4.493,4.493,0,0,1-2.642-.083,48.409,48.409,0,0,1-8.382-3.359,25.111,25.111,0,0,1-2.35-1.394,4.016,4.016,0,0,1-.8-.6,4.913,4.913,0,0,1,.884.458c.562.322,1.373.77,2.4,1.269a58.714,58.714,0,0,0,8.32,3.224,4.16,4.16,0,0,0,2.413.094,1.976,1.976,0,0,0,1.425-1.477,2.548,2.548,0,0,0-.624-1.851,8.66,8.66,0,0,0-1.29-1.321,14.445,14.445,0,0,0-3.13-1.851Z" transform="translate(-198.207 -130.024)" fill="#eb996e"/>
      <g id="Group_71" data-name="Group 71" transform="translate(106.605 208.266)" opacity="0.3">
        <path id="Path_546" data-name="Path 546" d="M325.427,432.487c-8.174-27.57-15.382-63.076-23.556-90.647-3,25.449.749,59.051,5.429,84.24.551,2.954.8,5.845,3.12,7.79l15.007-1.383" transform="translate(-300.798 -341.84)"/>
      </g>
      <path id="Path_547" data-name="Path 547" d="M312.433,411.686c-.114,0-.458-1.8-1.57-4.555a32.34,32.34,0,0,0-2.34-4.638,35.185,35.185,0,0,0-3.848-5.054,34.263,34.263,0,0,0-4.763-4.212,30.991,30.991,0,0,0-4.451-2.683c-2.662-1.31-4.451-1.789-4.42-1.893a5.593,5.593,0,0,1,1.269.3,10.559,10.559,0,0,1,1.446.478,18.951,18.951,0,0,1,1.872.77,29.122,29.122,0,0,1,4.576,2.621,33.279,33.279,0,0,1,4.878,4.243,33.646,33.646,0,0,1,3.869,5.2,29.746,29.746,0,0,1,2.278,4.753c.281.7.447,1.352.624,1.924a10.69,10.69,0,0,1,.374,1.487,6.645,6.645,0,0,1,.208,1.258Z" transform="translate(-194.583 -131.701)" fill="#263238"/>
      <path id="Path_548" data-name="Path 548" d="M327.6,277.442s-26.135,58.4-26.135,69.15S321.043,431.8,321.043,431.8c-.187,2.964-.946,17.8-.946,17.8l109.814.385h0l1.674-23.608-8.57-22.5,8.559-63.6s5.762-36.92,6.24-47.247c.645-12.917-43.119-27.893-41.923-29.682l-7.55-10.15-43.275,35.142-8.559-24.71-10.254,9.682Z" transform="translate(-194.166 -137.119)" fill="#687dac"/>
      <path id="Path_549" data-name="Path 549" d="M398.558,291.906c-11.887,20.1-33.634,56.732-33.634,56.732l-38.979,44.45s-2.548,22.578,2.548,29.5,13.842,11.658,13.842,11.658,10.286,0,23.358-10.93,49.13-56.1,49.13-56.1l12.386-14.945S441.978,316,439.222,297.543c-1.04-7.124-4.1-10.078-8.133-13.343C420.928,276.015,405.2,280.663,398.558,291.906Z" transform="translate(-193.212 -136.045)" fill="#687dac"/>
      <path id="Path_550" data-name="Path 550" d="M431.9,337.4a3.21,3.21,0,0,1-.187.416c-.135.291-.333.676-.572,1.186-.52,1.04-1.31,2.548-2.392,4.462-2.153,3.838-5.5,9.256-9.87,15.8-2.194,3.266-4.638,6.812-7.332,10.577a124.859,124.859,0,0,0-8.268,12.178c-2.517,4.534-4.8,9.485-7.561,14.435a91.185,91.185,0,0,1-9.911,14.466,57.97,57.97,0,0,1-13.125,11.606,41.33,41.33,0,0,1-15.2,5.886,34.081,34.081,0,0,1-14.726-.624,27.9,27.9,0,0,1-6.24-2.527,28.487,28.487,0,0,1-5.138-3.474,23.3,23.3,0,0,1-3.869-4.087,22.985,22.985,0,0,1-2.558-4.326,27.373,27.373,0,0,1-2.08-7.738,35.756,35.756,0,0,1-.177-5.065c0-.562.062-1.04.083-1.321a3.115,3.115,0,0,1,0-.447,2.976,2.976,0,0,1,0,.447c0,.322,0,.759,0,1.321a38.481,38.481,0,0,0,.27,5.034,27.644,27.644,0,0,0,2.163,7.644,23.242,23.242,0,0,0,2.558,4.243,22.783,22.783,0,0,0,3.848,4,28.141,28.141,0,0,0,5.086,3.4,27.811,27.811,0,0,0,6.146,2.465,33.852,33.852,0,0,0,14.56.562,40.914,40.914,0,0,0,15-5.845,57.669,57.669,0,0,0,13.01-11.513,90.24,90.24,0,0,0,9.849-14.373c2.756-4.919,4.982-9.911,7.592-14.425a135.324,135.324,0,0,1,8.32-12.2c2.7-3.744,5.2-7.28,7.374-10.525,4.41-6.5,7.8-11.887,10-15.683,1.113-1.9,1.934-3.39,2.475-4.41l.634-1.165a2.009,2.009,0,0,1,.239-.385Z" transform="translate(-193.318 -133.751)" fill="#263238"/>
      <path id="Path_551" data-name="Path 551" d="M324.134,386.83c0,.073-.551.416-1.269,1.217a6.24,6.24,0,0,0-.707,7.654,14.68,14.68,0,0,0,1.04,1.425c0,.062-.655-.291-1.342-1.206a6.136,6.136,0,0,1,.759-8.143,3.12,3.12,0,0,1,1.518-.946Z" transform="translate(-193.398 -131.774)" fill="#263238"/>
      <path id="Path_552" data-name="Path 552" d="M330.93,399.607a3.119,3.119,0,0,1,.614.146l.728.2,1.04.187a14.487,14.487,0,0,0,6.427-.6,23.534,23.534,0,0,0,8.32-4.867,62.652,62.652,0,0,0,7.748-9,54.381,54.381,0,0,1,8-8.934c1.414-1.186,2.8-2.236,3.952-3.37a11.076,11.076,0,0,0,2.6-3.588,6.542,6.542,0,0,0-.593-6.136,4.825,4.825,0,0,0-1.882-1.4,3.193,3.193,0,0,1,.6.177,3.983,3.983,0,0,1,1.446,1.1,6.718,6.718,0,0,1,.79,6.406,11.563,11.563,0,0,1-2.642,3.765c-1.175,1.165-2.569,2.246-3.952,3.432A55.539,55.539,0,0,0,356.244,386a61.414,61.414,0,0,1-7.862,9.048,23.536,23.536,0,0,1-8.486,4.846,14.134,14.134,0,0,1-6.583.447l-1.04-.239c-.291-.083-.53-.187-.718-.25a2.817,2.817,0,0,1-.624-.25Z" transform="translate(-192.987 -132.757)" fill="#263238"/>
      <path id="Path_553" data-name="Path 553" d="M402.279,285.51a5.637,5.637,0,0,1-.437.624c-.343.437-.78,1.04-1.331,1.737-1.186,1.477-2.818,3.682-4.815,6.427a210.365,210.365,0,0,0-13.863,22.537c-4.909,9.11-8.965,17.566-12.074,23.6-1.539,3.026-2.808,5.46-3.734,7.124l-1.009,1.9a3.818,3.818,0,0,1-.406.645,4.035,4.035,0,0,1,.3-.7l.978-1.966,3.567-7.186c3.016-6.084,7.03-14.56,11.939-23.691a189.272,189.272,0,0,1,14.04-22.506c2.08-2.714,3.713-4.9,4.95-6.334l1.414-1.674a3.3,3.3,0,0,1,.478-.541Z" transform="translate(-191.64 -135.827)" fill="#263238"/>
      <g id="Group_72" data-name="Group 72" transform="translate(129.446 257.687)" opacity="0.3">
        <path id="Path_554" data-name="Path 554" d="M322.8,396.723c5.065,2.746,10.639,2.454,16.3,1.352a25.293,25.293,0,0,0,14.56-8.715,25.262,25.262,0,0,1-6.729,13.291c-3.6,3.526-8.819,5.564-13.77,4.659s-9.963-5.564-10.4-10.587" transform="translate(-322.76 -389.36)"/>
      </g>
      <g id="Group_73" data-name="Group 73" transform="translate(172.953 207.018)" opacity="0.3">
        <path id="Path_555" data-name="Path 555" d="M369.072,368.658a22.35,22.35,0,0,1,3.12,16.765c4.3-6.573,5.3-14.893,4.16-22.662s-4.316-15.1-7.831-22.121c0,0-3.869,6.552-3.91,7.28-.187,3.786,1.206,10.9,1.934,14.612a8.122,8.122,0,0,1,2.361,7.342" transform="translate(-364.594 -340.64)"/>
      </g>
      <g id="Group_74" data-name="Group 74" transform="translate(146.668 208.953)" opacity="0.3">
        <path id="Path_556" data-name="Path 556" d="M339.32,425.8c10.338,8.06,25.678,8.434,36.983,1.82,10.889-6.375,17.6-17.857,23.816-28.829,9.641-16.994,21.393-38.012,28.278-56.3,0,0-19.292,26.322-25.106,37.669A187.254,187.254,0,0,1,390.124,402.3a56.743,56.743,0,0,1-49.8,24.263" transform="translate(-339.32 -342.5)"/>
      </g>
      <path id="Path_557" data-name="Path 557" d="M319.97,445.045a1.04,1.04,0,0,1,0-.322v-.946c0-.884.073-2.08.135-3.609.146-3.12.343-7.592.593-12.927v.125c-1.862-6.24-4.046-13.811-6.313-21.986-3-10.837-5.522-20.7-7.228-27.862-.842-3.578-1.508-6.49-1.924-8.507-.2-.967-.354-1.747-.468-2.319a6.945,6.945,0,0,1-.135-.822,4.251,4.251,0,0,1,.239.79l.572,2.309c.51,2.08,1.217,4.93,2.08,8.455,1.8,7.145,4.389,16.983,7.384,27.81,2.257,8.174,4.41,15.746,6.24,22v.073c-.322,5.335-.593,9.776-.79,12.938-.1,1.508-.187,2.714-.25,3.6a9.18,9.18,0,0,1-.083.936,1.091,1.091,0,0,1-.052.27Z" transform="translate(-194.039 -132.612)" fill="#263238"/>
      <path id="Path_558" data-name="Path 558" d="M425.78,283.55c0,.083-1.123-.312-2.922-.759a35.253,35.253,0,0,0-7.166-1.04,34.506,34.506,0,0,0-7.218.562c-1.83.343-2.943.655-2.964.572a2.683,2.683,0,0,1,.749-.333,21.447,21.447,0,0,1,2.132-.614,28.31,28.31,0,0,1,7.28-.728,28.731,28.731,0,0,1,7.28,1.165,17.681,17.681,0,0,1,2.08.749C425.551,283.384,425.78,283.509,425.78,283.55Z" transform="translate(-190.004 -136)" fill="#263238"/>
      <path id="Path_559" data-name="Path 559" d="M392.842,265a3.056,3.056,0,0,1-.281.541l-.884,1.487c-.78,1.29-1.934,3.12-3.4,5.4-2.943,4.5-7.155,10.65-12.137,17.181-4,5.273-7.883,10-11.055,13.707l-.229.26-.135-.312c-1.518-3.307-2.766-6.053-3.671-8.039-.406-.915-.728-1.664-.988-2.236a4.16,4.16,0,0,1-.3-.8,4.26,4.26,0,0,1,.426.749c.281.562.634,1.29,1.092,2.184.946,1.966,2.257,4.68,3.827,7.966l-.354-.052c3.12-3.744,6.958-8.486,10.962-13.749,4.971-6.531,9.214-12.626,12.241-17.077l3.546-5.294.967-1.435a2.3,2.3,0,0,1,.374-.478Z" transform="translate(-191.834 -136.647)" fill="#263238"/>
      <path id="Path_560" data-name="Path 560" d="M415.881,427.2c-.156,0,.322-5.418,1.04-12.064s1.456-12.012,1.6-11.991-.333,5.408-1.04,12.054S416.006,427.206,415.881,427.2Z" transform="translate(-189.59 -131.121)" fill="#263238"/>
      <path id="Path_561" data-name="Path 561" d="M343.5,424.9a77.472,77.472,0,0,1,1.238,9.069,73.676,73.676,0,0,1,.7,9.121,80.206,80.206,0,0,1-1.238-9.069,78.864,78.864,0,0,1-.7-9.121Z" transform="translate(-192.484 -130.251)" fill="#263238"/>
      <path id="Path_565" data-name="Path 565" d="M336.776,295.5a1.321,1.321,0,0,0-2.007-.8l-.073.062a1.258,1.258,0,1,0,2.08.738Z" transform="translate(-192.853 -135.468)" fill="#fff"/>
      <path id="Path_566" data-name="Path 566" d="M332.207,285.369a1.331,1.331,0,0,0-2.018-.8l-.073.062a1.269,1.269,0,1,0,2.08.738Z" transform="translate(-193.037 -135.873)" fill="#fff"/>
      <path id="Path_567" data-name="Path 567" d="M334.2,273.669a1.331,1.331,0,0,0-2.018-.8l-.073.052a1.258,1.258,0,1,0,2.08.749Z" transform="translate(-192.957 -136.341)" fill="#fff"/>
      <path id="Path_568" data-name="Path 568" d="M319.867,289.769a1.331,1.331,0,0,0-2.018-.8l-.073.052a1.258,1.258,0,1,0,2.08.749Z" transform="translate(-193.53 -135.697)" fill="#fff"/>
      <path id="Path_569" data-name="Path 569" d="M353.1,294.409a1.321,1.321,0,0,0-2.007-.8l-.073.062a1.258,1.258,0,1,0,2.08.738Z" transform="translate(-192.201 -135.512)" fill="#fff"/>
      <path id="Path_570" data-name="Path 570" d="M324.957,315.279a1.331,1.331,0,0,0-2.018-.8h-.073a1.258,1.258,0,1,0,2.08.749Z" transform="translate(-193.327 -134.677)" fill="#fff"/>
      <path id="Path_572" data-name="Path 572" d="M308.417,340.679a1.331,1.331,0,0,0-2.018-.8l-.073.062a1.258,1.258,0,1,0,2.08.738Z" transform="translate(-193.988 -133.661)" fill="#fff"/>
      <path id="Path_590" data-name="Path 590" d="M365.817,435.419a1.331,1.331,0,0,0-2.018-.8l-.073.062a1.258,1.258,0,1,0,2.08.738Z" transform="translate(-191.692 -129.871)" fill="#fff"/>
      <path id="Path_602" data-name="Path 602" d="M343.417,315.279a1.331,1.331,0,0,0-2.018-.8h-.073a1.258,1.258,0,1,0,2.08.749Z" transform="translate(-192.588 -134.677)" fill="#fff"/>
      <path id="Path_603" data-name="Path 603" d="M338.7,363.039a1.331,1.331,0,0,0-2.018-.8l-.062.062a1.258,1.258,0,1,0,2.08.738Z" transform="translate(-192.777 -132.766)" fill="#fff"/>
      <path id="Path_607" data-name="Path 607" d="M351.286,334.089a1.321,1.321,0,0,0-2.007-.8l-.073.052a1.258,1.258,0,1,0,2.08.749Z" transform="translate(-192.273 -133.924)" fill="#fff"/>
      <path id="Path_612" data-name="Path 612" d="M361.037,279.9a1.331,1.331,0,0,0-2.018-.8l-.073.052a1.258,1.258,0,1,0,2.08.749Z" transform="translate(-191.883 -136.092)" fill="#fff"/>
      <path id="Path_613" data-name="Path 613" d="M319.661,158.21c-8.185,5.2-11.44,16.13-9.9,22.589.79,3.255,2.267,6.531,1.622,9.807-.551,2.839-2.6,5.117-4.16,7.571a22.8,22.8,0,0,0,28.5,32.927" transform="translate(-194.073 -140.92)" fill="#263238"/>
      <path id="Path_614" data-name="Path 614" d="M314.573,201.5c-19.926-43.826,27.477-65.843,53.331-58.542,24.3,6.864,34.674,18.959,38.678,35.215s3.806,33.883-2.569,49.369c-3.12,7.634-8.8,15.392-17,16.349" transform="translate(-193.832 -141.585)" fill="#263238"/>
      <path id="Path_615" data-name="Path 615" d="M337.745,307.976c-.343-20.946-.593-49.7-.593-49.587s-17.961-2.985-21.736-26.447c-1.851-11.679-1.258-30.826-.281-46.478.894-14.092,10.223-31.377,24.263-29.89l43.836,11.076a8.247,8.247,0,0,1,7.384,8.382h0l-2.85,90.657" transform="translate(-193.656 -141.029)" fill="#ffbe9d"/>
      <path id="Path_621" data-name="Path 621" d="M336.27,254.752a59.769,59.769,0,0,0,31.45-8.382S359.774,262.7,336.27,260.5Z" transform="translate(-192.774 -137.393)" fill="#eb996e"/>
      <path id="Path_622" data-name="Path 622" d="M348.331,189.224c.312.884,3.557.458,7.353.926s6.874,1.487,7.384.7c.229-.374-.312-1.206-1.55-2.08a12.907,12.907,0,0,0-11.232-1.238C348.892,188.111,348.185,188.808,348.331,189.224Z" transform="translate(-192.292 -139.777)" fill="#263238"/>
      <path id="Path_624" data-name="Path 624" d="M383.861,204.045c.343-.166,12.574-5.574,12.719,8.486s-14.009,11.3-14.04,10.9S383.861,204.045,383.861,204.045Z" transform="translate(-190.923 -139.132)" fill="#ffbe9d"/>
      <path id="Path_625" data-name="Path 625" d="M386.62,217.89c.062,0,.25.166.666.354a2.475,2.475,0,0,0,1.83,0c1.477-.562,2.7-2.933,2.746-5.47a7.873,7.873,0,0,0-.718-3.494,2.808,2.808,0,0,0-1.862-1.862,1.238,1.238,0,0,0-1.435.686c-.187.4-.094.676-.166.7s-.312-.229-.2-.811a1.549,1.549,0,0,1,.541-.884,1.83,1.83,0,0,1,1.352-.374,3.442,3.442,0,0,1,2.579,2.153,8.32,8.32,0,0,1,.894,3.91c-.062,2.829-1.487,5.5-3.515,6.1a2.642,2.642,0,0,1-2.246-.343C386.652,218.233,386.579,217.911,386.62,217.89Z" transform="translate(-190.76 -138.979)" fill="#eb996e"/>
      <path id="Path_626" data-name="Path 626" d="M334.278,148.88c-7.821,4.046-11.045,20.041-7.81,28.236s11.96,12.189,20.561,14.071a52.331,52.331,0,0,0,25.522-.25c.582,5.7,4,11.554,9.537,13.062,7.332,1.986,14.716-4.722,16.349-12.137s-.822-15.049-3.234-22.256" transform="translate(-193.216 -141.293)" fill="#263238"/>
      <path id="Path_627" data-name="Path 627" d="M394.548,198.32a10.188,10.188,0,0,1-1.092,1.04,36.728,36.728,0,0,1-3.234,2.444,20.009,20.009,0,0,1-5.47,2.652,11.825,11.825,0,0,1-7.457-.114,11.534,11.534,0,0,1-5.647-4.878,15.673,15.673,0,0,1-2.028-5.741,20.944,20.944,0,0,1-.218-4.077,4.544,4.544,0,0,1,.177-1.477c.156,0,0,2.132.6,5.45a16.141,16.141,0,0,0,2.08,5.45,11.1,11.1,0,0,0,5.294,4.514,11.378,11.378,0,0,0,6.978.146,21.029,21.029,0,0,0,5.356-2.4C392.78,199.516,394.465,198.206,394.548,198.32Z" transform="translate(-191.449 -139.721)" fill="#263238"/>
      <path id="Path_631" data-name="Path 631" d="M406.4,199.49c-.032-.186,0-1.536,0-1.724,0-.426,0-.967-.062-1.654,0-1.487-.1-3.567-.177-6.146-.1-5.294-.25-12.667-.426-21.164l.26.25h-5.98l.27-.27c0,1.6.083,3.3.135,5.023.2,8.091.385,15.6.541,21.954v.187h-.177a10.826,10.826,0,0,0-6.167,3.973,14.561,14.561,0,0,0-2.465,5.2,22.941,22.941,0,0,0-.634,3.692c0,.426-.052.759-.062.978a2.917,2.917,0,0,0,0,.343,1.444,1.444,0,0,1,0-.343V208.8a19.34,19.34,0,0,1,.52-3.744,14.56,14.56,0,0,1,2.423-5.366,11.211,11.211,0,0,1,6.354-4.16l-.177.229c-.177-6.313-.4-13.853-.624-21.954-.052-1.716-.094-3.411-.135-5.023V168.5h6.521v.26c.094,8.507.177,15.87.239,21.174v9.255C406.558,199.4,406.464,199.3,406.4,199.49Z" transform="translate(-190.877 -140.217)" fill="#455a64"/>
      <path id="Path_632" data-name="Path 632" d="M400.457,169.856s-6.074-14.206-20.54-21.226A86.5,86.5,0,0,0,362.58,142.2s8.445-2,22.1,4.077c6.24,2.766,12.48,6.354,16.64,11.752,2.621,3.422,5.907,10.109,5.9,11.825Z" transform="translate(-191.721 -141.572)" fill="#455a64"/>
      <path id="Path_633" data-name="Path 633" d="M363,338.405s.083-.1.26-.281.447-.447.78-.811a38.6,38.6,0,0,0,2.808-3.328,54.351,54.351,0,0,0,3.8-5.824c1.352-2.361,2.766-5.148,4.3-8.258,3.068-6.24,6.614-13.749,10.3-22.381,1.83-4.316,3.7-8.9,5.574-13.738l1.394-3.661a21.256,21.256,0,0,1,1.674-3.692,7.634,7.634,0,0,1,3.016-2.87,4.285,4.285,0,0,1,2.08-.53,2.153,2.153,0,0,1,1.1.4,2.36,2.36,0,0,1,.7.936v.156a3.6,3.6,0,0,1-.562,1.383,2.184,2.184,0,0,1-1.3.853,4.711,4.711,0,0,1-2.9-.53,4.6,4.6,0,0,1-2.569-5.044,4.046,4.046,0,0,1,1.7-2.538,4.722,4.722,0,0,1,2.954-.842,3.255,3.255,0,0,1,2.725,1.508,1.57,1.57,0,0,1-.1,1.7,3,3,0,0,1-1.321.957,4.337,4.337,0,0,1-4.982-1.414,3.65,3.65,0,0,1-.676-2.621,4.5,4.5,0,0,1,1.04-2.454,3.765,3.765,0,0,1,2.34-1.29,3,3,0,0,1,2.527.874,1.872,1.872,0,0,1,.5,1.321,1.747,1.747,0,0,1-.6,1.279,2.912,2.912,0,0,1-2.538.686,3.193,3.193,0,0,1-2.028-1.622,6.687,6.687,0,0,1-.759-2.4,8.507,8.507,0,0,1,.551-4.846,3.609,3.609,0,0,1,1.778-1.758,3.255,3.255,0,0,1,2.465.083,2.34,2.34,0,0,1,1.529,1.924,2.142,2.142,0,0,1-1.321,2.08,2.621,2.621,0,0,1-2.392,0,3.307,3.307,0,0,1-1.487-1.83,4.566,4.566,0,0,1-.135-2.267,10.318,10.318,0,0,1,.478-2.163,3.963,3.963,0,0,1,1.258-1.841,5.044,5.044,0,0,1,1.966-.967,2.08,2.08,0,0,1,1.144,0,2.424,2.424,0,0,1,.946.6,2.725,2.725,0,0,1,.614.915,1.529,1.529,0,0,1,0,1.154,1.872,1.872,0,0,1-1.862,1.04,3.39,3.39,0,0,1-1.955-.655,5.367,5.367,0,0,1-2.08-3.276,5.522,5.522,0,0,1,.572-3.806,4.212,4.212,0,0,1,1.175-1.425,3.8,3.8,0,0,1,1.654-.718,2.673,2.673,0,0,1,1.768.25,1.841,1.841,0,0,1,.957,1.466,2.59,2.59,0,0,1-1.955,2.5,2.829,2.829,0,0,1-2.829-1.04,4.534,4.534,0,0,1-1.04-2.662,16.639,16.639,0,0,1,1.04-4.971c.426-1.5.811-2.87,1.165-4.1.7-2.444,1.238-4.347,1.622-5.658.177-.634.322-1.123.426-1.466s.166-.5.166-.5a1.768,1.768,0,0,1-.114.51c-.114.333-.218.853-.374,1.487-.354,1.321-.874,3.234-1.529,5.678l-1.113,4.108a17.731,17.731,0,0,0-.967,4.888,4.326,4.326,0,0,0,1.04,2.475,2.527,2.527,0,0,0,2.5.936,2.246,2.246,0,0,0,1.685-2.08,1.487,1.487,0,0,0-.77-1.175,2.361,2.361,0,0,0-1.518-.2,3.4,3.4,0,0,0-1.5.655,3.91,3.91,0,0,0-1.04,1.3,5.2,5.2,0,0,0-.385,3.432,4.971,4.971,0,0,0,1.934,3.006,3.047,3.047,0,0,0,1.706.572,1.425,1.425,0,0,0,1.435-.759,1.591,1.591,0,0,0-.551-1.581,2.079,2.079,0,0,0-.759-.489,1.789,1.789,0,0,0-.9,0,3.952,3.952,0,0,0-2.881,2.527,9.455,9.455,0,0,0-.447,2.08,4.046,4.046,0,0,0,.125,2.08,2.735,2.735,0,0,0,1.248,1.55,2.174,2.174,0,0,0,1.945,0,1.633,1.633,0,0,0,1.04-1.55,1.841,1.841,0,0,0-1.217-1.487,2.829,2.829,0,0,0-2.08-.073,3.12,3.12,0,0,0-1.508,1.508,8.081,8.081,0,0,0-.489,4.545,6.24,6.24,0,0,0,.7,2.215,2.683,2.683,0,0,0,1.674,1.362,2.371,2.371,0,0,0,2.08-.551,1.29,1.29,0,0,0,.073-1.862,2.486,2.486,0,0,0-2.08-.7,3.193,3.193,0,0,0-2,1.123,3.578,3.578,0,0,0-.374,4.4,3.817,3.817,0,0,0,4.347,1.227,2.589,2.589,0,0,0,1.04-.78,1.04,1.04,0,0,0,.062-1.123,2.735,2.735,0,0,0-2.278-1.217,3.9,3.9,0,0,0-4.087,2.943,4.014,4.014,0,0,0,2.184,4.378,4.087,4.087,0,0,0,2.548.5,2.08,2.08,0,0,0,1.456-1.82v.156a1.56,1.56,0,0,0-1.362-1.04,3.713,3.713,0,0,0-1.841.478,7.072,7.072,0,0,0-2.818,2.683,20.313,20.313,0,0,0-1.633,3.588l-1.414,3.671c-1.872,4.826-3.765,9.36-5.616,13.728-3.7,8.632-7.28,16.162-10.4,22.36-1.55,3.12-2.985,5.876-4.368,8.237a53.346,53.346,0,0,1-3.879,5.793A27.342,27.342,0,0,1,363,338.405Z" transform="translate(-191.704 -138.032)" fill="#fff"/>
      <path id="Path_634" data-name="Path 634" d="M414.346,186.212a13.641,13.641,0,0,0-.946-3.848,15.153,15.153,0,0,0-7.467-7.478,20.165,20.165,0,0,0-7.2-1.758,33.863,33.863,0,0,0-8.538.645c-5.959,1.1-12.22,3.671-19.23,4.732a39.209,39.209,0,0,1-10.3,0,41.433,41.433,0,0,1-9.256-2.517,40.852,40.852,0,0,1-13.52-8.9,36.4,36.4,0,0,1-6.531-8.736,12.381,12.381,0,0,1-.77-1.529l-.5-1.154c-.125-.281-.218-.52-.3-.707a.893.893,0,0,1-.083-.25,1.039,1.039,0,0,1,.135.229l.343.686.551,1.123a13.033,13.033,0,0,0,.811,1.508,37.868,37.868,0,0,0,6.614,8.559A40.56,40.56,0,0,0,360.7,177.975a38.553,38.553,0,0,0,10.15,0c6.916-1.04,13.187-3.6,19.219-4.68a34.07,34.07,0,0,1,8.653-.6,20.228,20.228,0,0,1,7.332,1.862,15.174,15.174,0,0,1,7.5,7.738,11.349,11.349,0,0,1,.718,2.891v.77a.9.9,0,0,1,.073.26Z" transform="translate(-193.036 -141.06)" fill="#455a64"/>
      <path id="Path_635" data-name="Path 635" d="M398.685,163.912a5.058,5.058,0,0,1-.749.125c-.489.073-1.217.177-2.142.343-1.851.3-4.5.894-7.769,1.706a82.662,82.662,0,0,1-11.638,2.257,58.479,58.479,0,0,1-14.5-.322,61.361,61.361,0,0,1-14.009-3.765,59.282,59.282,0,0,1-10.556-5.46c-1.394-.946-2.642-1.82-3.7-2.652s-1.955-1.55-2.642-2.194l-1.581-1.487c-.354-.343-.541-.53-.52-.551a4.064,4.064,0,0,1,.593.468l1.643,1.4c.707.624,1.654,1.29,2.694,2.08s2.33,1.654,3.723,2.569a62.743,62.743,0,0,0,24.4,9.017,59.686,59.686,0,0,0,14.383.354,84.961,84.961,0,0,0,11.586-2.08c3.276-.759,5.959-1.3,7.831-1.55.936-.125,1.664-.2,2.163-.229a3.83,3.83,0,0,1,.79-.031Z" transform="translate(-193.069 -141.172)" fill="#455a64"/>
      <g id="Group_76" data-name="Group 76">
        <path id="Path_630" data-name="Path 630" d="M399.469,194.73c-1.435-.1-13.052,1.4-12.137,22.984.853,20.166,15,15.725,19.51,8.133C411.086,218.661,413.561,195.718,399.469,194.73Z" transform="translate(-190.732 -139.459)" fill="#455a64"/>
        <path id="Path_636" data-name="Path 636" d="M397.732,231.848a1.987,1.987,0,0,1-.406-.125,6.616,6.616,0,0,1-1.04-.551,9.548,9.548,0,0,1-3.047-3.245,15.672,15.672,0,0,1-1.872-6.334,45.417,45.417,0,0,1,0-8.07,49.176,49.176,0,0,1,1.331-7.956,22.954,22.954,0,0,1,2.319-6.167,9.526,9.526,0,0,1,3.12-3.234,5.7,5.7,0,0,1,1.04-.541c.26-.094.406-.135.406-.114a12.669,12.669,0,0,0-1.373.832,9.973,9.973,0,0,0-2.85,3.245,23.4,23.4,0,0,0-2.163,6.1,52,52,0,0,0-1.29,7.883,48.622,48.622,0,0,0,0,7.966,15.819,15.819,0,0,0,1.706,6.24,9.734,9.734,0,0,0,2.829,3.266C397.233,231.6,397.763,231.8,397.732,231.848Z" transform="translate(-190.576 -139.427)" fill="#263238"/>
        <rect id="Rectangle_159" data-name="Rectangle 159" width="16.806" height="6.334" rx="2.85" transform="translate(146.795 91.872) rotate(-11.1)" fill="#455a64"/>
        <path id="Path_637" data-name="Path 637" d="M354.47,229.479,403.818,214a2.33,2.33,0,0,1,2.912,1.508h0a2.34,2.34,0,0,1-1.612,2.964L354.657,232.1Z" transform="translate(-192.045 -138.692)" fill="#455a64"/>
        <path id="Path_638" data-name="Path 638" d="M389.882,222.674a11.045,11.045,0,0,1,1.633-.572l4.514-1.373c1.893-.582,4.222-1.206,6.677-2.007a4.472,4.472,0,0,0,1.612-1.04,2.433,2.433,0,0,0,.7-1.716,1.5,1.5,0,0,0-1.04-1.414,3.775,3.775,0,0,0-2.08.062l-14.8,4.763-4.5,1.394a10.309,10.309,0,0,1-1.591.51,11.137,11.137,0,0,1,1.612-.634l4.451-1.56c3.775-1.279,8.954-3.058,14.778-4.919a4.264,4.264,0,0,1,2.371,0,2.08,2.08,0,0,1,1.373,1.914,2.954,2.954,0,0,1-.853,2.08,4.992,4.992,0,0,1-1.893,1.04c-2.548.8-4.826,1.362-6.75,1.9l-4.514,1.217A9.224,9.224,0,0,1,389.882,222.674Z" transform="translate(-190.984 -138.688)" fill="#263238"/>
      </g>
      <path id="Path_639" data-name="Path 639" d="M312.952,186c1.685,5.928-4.337,11.014-6.458,16.806-2.08,5.6-.312,11.866,2.215,17.274s5.855,10.525,7.145,16.338c3.193,14.352-9.786,29.817-7.28,44.3.894,5.283,3.026,10.8,4.867,15.818a20.9,20.9,0,0,1,0,14.7c-2.808,8.32-7.571,12.22-10.92,20.311-1.716,4.16-1.581,8.778-1.5,13.25s.062,9.152-1.934,13.166-6.552,7.114-10.878,5.949a15.943,15.943,0,0,0,19.053,3.63c5.689-3.037,8.871-9.194,11.6-15.038,13.187-28.3,20.166-30.691,19.76-61.911,0-2.007-.4-33.28-.4-33.28a31.2,31.2,0,0,1-7.79-3.276c-14.727-10.171-15.267-28.288-15.153-42.339" transform="translate(-194.696 -139.808)" fill="#263238"/>
      <path id="Path_640" data-name="Path 640" d="M340.875,277.08v11.783s-9.058,46.228-11.783,71.906-3.172,32.459-3.172,32.459,6.5,10.14,20.093-7.082,16.016-19.937,21.455-20.238c0,0-6.646-72.207-6.344-74.88a10.91,10.91,0,0,1,2.413-5.138Z" transform="translate(-193.188 -136.164)" fill="#ffbe9d"/>
      <path id="Path_641" data-name="Path 641" d="M358.126,252.892s-14.8,19.635-16.006,22.339-1.82,4.222-1.82,4.222l22.662,8.767,22.058-24.17,8.154-21.455-2.423-25.376s-4.826-.3-5.73,3.931a31.793,31.793,0,0,0-.614,8.154l-6.76-5.439-10.91-3.318s-2.569,4.222,1.664,6.344,5.439,2.08,5.439,2.08l3.806,6.646-1.664,7.446-7.717-7.28a4.4,4.4,0,0,0-5.616-.354l-4.992,3.619-4.67-2.08-9.058,8.1-3.63,3.318s2.423,4.534,7.28,2.423l4.836-2.08Z" transform="translate(-192.612 -138.559)" fill="#ffbe9d"/>
      <path id="Path_642" data-name="Path 642" d="M340.312,283.47a4.889,4.889,0,0,1,0-.634,17.6,17.6,0,0,1,.146-1.841,21.658,21.658,0,0,1,.572-2.964,13.145,13.145,0,0,1,1.581-3.806c3.39-5.2,8.726-12.48,15.382-21.434v.27l-5.741-4.222h.2l-2.985,1.321a20.651,20.651,0,0,1-3.182,1.238,5.2,5.2,0,0,1-3.536-.406,6.511,6.511,0,0,1-2.662-2.538l-.083-.146.135-.125c3.89-3.661,8.226-7.353,12.678-11.3l.135-.114.146.083,4.025,2.382h-.26l4.7-3.12c.822-.53,1.56-1.04,2.444-1.581a2.933,2.933,0,0,1,3.037.26l9.162,7.748-.426.146c.5-2.236,1.04-4.659,1.581-7.1v.187l-3.806-6.646.239.135a7.581,7.581,0,0,1-1.882-.51c-.593-.218-1.186-.468-1.778-.728s-1.175-.551-1.758-.832c-.3-.146-.593-.343-.884-.51a5.5,5.5,0,0,1-.79-.686,3.827,3.827,0,0,1-1.04-2.777,6.126,6.126,0,0,1,.8-2.829l.1-.177.208.062,10.9,3.328h.052l6.76,5.439-.426.229a32.3,32.3,0,0,1,.572-8.039,4.9,4.9,0,0,1,2.2-3.349,7.01,7.01,0,0,1,3.848-.967h.281v.229c.853,9.017,1.654,17.524,2.392,25.376h0v.052c-3.016,7.9-5.762,15.08-8.2,21.434h0L368.08,282.846l-4.638,5.023c-.53.551-.936.988-1.217,1.29l-.426.426s.125-.166.385-.468l1.175-1.321,4.576-5.086,16.994-18.72v.052l8.112-21.466v.1c-.759-7.852-1.57-16.349-2.444-25.376l.239.239a6.406,6.406,0,0,0-3.536.894,4.347,4.347,0,0,0-1.966,3.016,31.2,31.2,0,0,0-.562,7.894v.6l-.468-.374-6.864-5.47h.094l-10.9-3.318.3-.125a5.667,5.667,0,0,0-.718,2.558,3.3,3.3,0,0,0,.894,2.4,5.588,5.588,0,0,0,.7.6c.281.156.53.322.822.468.582.281,1.154.572,1.737.822a15.276,15.276,0,0,0,3.442,1.2h.166l.062.1,3.806,6.646.052.094v.1c-.551,2.444-1.04,4.867-1.591,7.1l-.094.437-.343-.291-9.131-7.727a2.4,2.4,0,0,0-2.5-.229c-.77.458-1.6,1.04-2.392,1.55l-4.711,3.12-.125.083-.135-.073-4.025-2.392h.291c-4.451,3.931-8.8,7.623-12.7,11.263l.052-.27a6,6,0,0,0,2.454,2.35,4.691,4.691,0,0,0,3.245.374,20.6,20.6,0,0,0,3.12-1.2l2.985-1.31h.114l.094.062,5.73,4.243.156.114-.114.156c-6.687,8.954-12.074,16.172-15.506,21.32a13.519,13.519,0,0,0-1.612,3.734,24.11,24.11,0,0,0-.614,2.933c-.114.8-.166,1.425-.2,1.83S340.312,283.47,340.312,283.47Z" transform="translate(-192.624 -138.572)" fill="#eb996e"/>
      <path id="Path_643" data-name="Path 643" d="M367.87,256.677c-.1,0,.291-1.6.458-4.16a9.547,9.547,0,0,0-.707-4.368,11.678,11.678,0,0,0-3.609-4.056,89.657,89.657,0,0,0-8.393-5.71l-2.652-1.56a5.094,5.094,0,0,1-.957-.614,3.744,3.744,0,0,1,1.04.426c.666.3,1.612.78,2.756,1.414a69.537,69.537,0,0,1,8.528,5.616,11.679,11.679,0,0,1,3.723,4.274,9.36,9.36,0,0,1,.645,4.6,19.568,19.568,0,0,1-.51,3.058,4.045,4.045,0,0,1-.322,1.082Z" transform="translate(-192.144 -137.799)" fill="#eb996e"/>
      <path id="Path_644" data-name="Path 644" d="M382.516,247.543a20.3,20.3,0,0,1,.385-2.725,42.637,42.637,0,0,0,.468-6.552,43.515,43.515,0,0,0-.582-6.562,21.143,21.143,0,0,1-.426-2.7,10.4,10.4,0,0,1,.8,2.631,32.126,32.126,0,0,1,.114,13.26,10.4,10.4,0,0,1-.759,2.652Z" transform="translate(-190.93 -138.088)" fill="#eb996e"/>
    </g>
    <g id="freepik--speech-bubble--inject-31" transform="translate(206.698 81.241)">
      <path id="Path_645" data-name="Path 645" d="M289.461,176.466l-10.816-19.1a51.179,51.179,0,1,0-12.262,13.645h0Z" transform="translate(-183.759 -79.314)" fill="#fff"/>
      <path id="Path_646" data-name="Path 646" d="M289.466,176.467l-23.151-5.3h-.2l.125-.166h0l.187.187a52.125,52.125,0,0,1-10.514,6.334,51.1,51.1,0,0,1-14.009,3.994,45.915,45.915,0,0,1-8.091.406c-1.383-.073-2.808-.114-4.233-.229l-4.316-.655a51.5,51.5,0,0,1-31.9-20.571,50.845,50.845,0,0,1-8.632-19.76,52,52,0,0,1,.6-22.724,50.357,50.357,0,0,1,10.951-21.008l2.08-2.3a30.057,30.057,0,0,1,2.246-2.08,30.524,30.524,0,0,1,2.319-2.08l2.454-1.83a21.838,21.838,0,0,1,2.538-1.622l2.59-1.57,2.714-1.3a22.134,22.134,0,0,1,2.735-1.217,52.26,52.26,0,0,1,22.88-3.526,50.492,50.492,0,0,1,21.008,6.24,51.771,51.771,0,0,1,24.253,29.838,55.047,55.047,0,0,1,2.226,16.64,50.544,50.544,0,0,1-2.5,14.342,51.563,51.563,0,0,1-5.127,11v-.135l10.722,19.167c-.458-.8-3.931-6.822-10.951-19.042v-.125a51.885,51.885,0,0,0,5.044-10.962,50.877,50.877,0,0,0,2.423-14.258,54.829,54.829,0,0,0-2.257-16.484,51.4,51.4,0,0,0-24.086-29.526,50.077,50.077,0,0,0-20.8-6.126,51.668,51.668,0,0,0-22.662,3.5,21.64,21.64,0,0,0-2.7,1.206l-2.683,1.3-2.569,1.56a19.043,19.043,0,0,0-2.506,1.664l-2.434,1.81c-.822.582-1.518,1.342-2.288,2a24.733,24.733,0,0,0-2.226,2.08l-2.08,2.267a49.92,49.92,0,0,0-10.837,20.8,51.626,51.626,0,0,0-.614,22.5,50.451,50.451,0,0,0,8.528,19.542,51.251,51.251,0,0,0,31.6,20.374l4.274.655c1.414.125,2.829.156,4.16.239a46.26,46.26,0,0,0,8.029-.374A50.825,50.825,0,0,0,266.2,170.965l.811-.624-.624.822h0l-.083-.218Z" transform="translate(-183.764 -79.315)" fill="#263238"/>
      <path id="Path_647" data-name="Path 647" d="M222.79,128.79a4.16,4.16,0,1,1-4.16-4.16A4.16,4.16,0,0,1,222.79,128.79Z" transform="translate(-182.535 -77.503)" fill="#263238"/>
      <path id="Path_648" data-name="Path 648" d="M238.75,128.79a4.16,4.16,0,1,1-4.16-4.16A4.16,4.16,0,0,1,238.75,128.79Z" transform="translate(-181.897 -77.503)" fill="#263238"/>
      <path id="Path_649" data-name="Path 649" d="M254.658,126.71a4.16,4.16,0,1,1-5.668-1.518,4.16,4.16,0,0,1,5.668,1.518Z" transform="translate(-181.238 -77.502)" fill="#263238"/>
    </g>
    <g id="freepik--Table--inject-31" transform="translate(28.455 485.276)">
      <path id="Path_650" data-name="Path 650" d="M535.522,442.15c0,.156-113.645.27-253.761.27S28,442.306,28,442.15s113.611-.27,253.817-.27S535.522,442,535.522,442.15Z" transform="translate(-28 -441.88)" fill="#263238"/>
    </g>
    <g id="freepik--Device--inject-31" transform="translate(115.14 226.117)">
      <path id="Path_651" data-name="Path 651" d="M353.55,442.874A27.914,27.914,0,0,1,375.8,430.311c15.194-.52,22.786,12.563,22.786,12.563Z" transform="translate(-84.709 -183.185)" fill="#455a64"/>
      <path id="Path_652" data-name="Path 652" d="M381.874,442.476a16.88,16.88,0,0,1-.447-2.267,14.654,14.654,0,0,0-6.022-8.861,19.232,19.232,0,0,1-1.945-1.248,5.429,5.429,0,0,1,2.194.853,12.886,12.886,0,0,1,6.24,9.173,5.481,5.481,0,0,1-.021,2.35Z" transform="translate(-83.912 -183.193)" fill="#263238"/>
      <path id="Path_653" data-name="Path 653" d="M349.933,442.084v-.1a5.824,5.824,0,0,0-5.834-5.73H214.784a5.834,5.834,0,0,0-5.834,5.834H349.933Z" transform="translate(-90.494 -182.947)" fill="#455a64"/>
      <path id="Path_654" data-name="Path 654" d="M106.47,225.253c0,2.725,2.08,165.132,2.08,165.132l120.64,29.027H239.1L232.758,192.69h-9.069Z" transform="translate(-94.593 -192.69)" fill="#263238"/>
      <path id="Path_655" data-name="Path 655" d="M132.438,376.29,95.05,444.805h34.175c-6.115-.6,54.08,0,54.08,0l-54.08-14.342,16.921-38.428L144.7,376.29Z" transform="translate(-95.05 -185.345)" fill="#263238"/>
      <path id="Path_656" data-name="Path 656" d="M131.956,393.5,127.91,265.785l36.733-3.515,4.524,136.355-13.114.666Z" transform="translate(-93.735 -189.907)" fill="#263238"/>
      <path id="Path_657" data-name="Path 657" d="M175.618,402.953v-9.121c0-5.938-.052-14.56-.083-25.407,0-21.7-.052-52.25-.094-87.672l.26.26h-43.42l.27-.27v5.886c0,34.549,0,66.7-.052,93.486h0v.052c-11.253,20.623-20.582,37.742-27.113,49.7-3.266,5.97-5.834,10.65-7.592,13.853-.874,1.581-1.55,2.787-2.007,3.63s-.718,1.227-.718,1.227.218-.437.655-1.258,1.1-2.08,1.945-3.671c1.737-3.214,4.264-7.914,7.488-13.9l26.936-49.8V280.42h43.867v.26c0,35.423-.073,65.967-.094,87.672,0,10.837-.062,19.469-.083,25.407v8.528A1.327,1.327,0,0,1,175.618,402.953Z" transform="translate(-95.049 -189.18)" fill="#455a64"/>
      <path id="Path_658" data-name="Path 658" d="M145.093,391.43c.135.052-5.065,12.085-11.617,26.853S121.5,444.99,121.36,444.928s5.065-12.085,11.617-26.863S144.958,391.368,145.093,391.43Z" transform="translate(-93.998 -184.74)" fill="#455a64"/>
      <path id="Path_659" data-name="Path 659" d="M224.627,419.429v-2.3c0-1.529-.052-3.744-.083-6.594,0-5.72-.177-14-.374-24.232-.385-20.467-1.31-48.724-2.444-79.935s-2-59.5-2.288-79.966c-.156-10.234-.229-18.522-.2-24.242v-6.594c0,1.529,0,3.744.083,6.594,0,5.72.166,14,.374,24.232.447,20.467,1.373,48.755,2.506,79.955s2,59.478,2.288,79.945c.156,10.234.218,18.522.2,24.242v8.31A1.956,1.956,0,0,1,224.627,419.429Z" transform="translate(-90.082 -192.667)" fill="#455a64"/>
      <path id="Path_660" data-name="Path 660" d="M166.2,279.83c.156,0,.27,27.165.27,60.663s-.114,60.663-.27,60.663-.27-27.155-.27-60.663S166.055,279.83,166.2,279.83Z" transform="translate(-92.215 -189.204)" fill="#455a64"/>
      <path id="Path_661" data-name="Path 661" d="M103.935,434.4a4.565,4.565,0,0,1-.52-.728c-.177-.25-.374-.551-.6-.894a12.074,12.074,0,0,1-.749-1.269,32,32,0,0,1-3.3-8.788,43.534,43.534,0,0,1-.645-13.9,55.64,55.64,0,0,1,4.514-16.443,34.144,34.144,0,0,1,4.711-7.5,18.941,18.941,0,0,1,1.383-1.622c.478-.52.936-1.04,1.414-1.539,1.04-.946,1.945-1.914,2.974-2.735a47.943,47.943,0,0,1,6.042-4.378c1.04-.562,1.986-1.154,2.964-1.622a30.784,30.784,0,0,1,2.839-1.3,32.53,32.53,0,0,1,9.069-2.413,17.135,17.135,0,0,1,2.548-.156,5.37,5.37,0,0,1,.894,0,6.924,6.924,0,0,1-.884.094,22.438,22.438,0,0,0-2.527.26,34.077,34.077,0,0,0-8.954,2.558c-.926.343-1.82.863-2.8,1.31a31.057,31.057,0,0,0-2.922,1.643,48,48,0,0,0-5.949,4.378c-1.04.811-1.945,1.778-2.933,2.714-.468.489-.926,1.04-1.394,1.518a20.158,20.158,0,0,0-1.352,1.612,33.8,33.8,0,0,0-4.638,7.394,55.755,55.755,0,0,0-4.5,16.266,43.93,43.93,0,0,0,.52,13.77,33.613,33.613,0,0,0,3.12,8.767,11.065,11.065,0,0,0,.707,1.29l.551.926A6.7,6.7,0,0,1,103.935,434.4Z" transform="translate(-94.938 -185.633)" fill="#455a64"/>
    </g>
  </g>
</svg>
