<svg xmlns="http://www.w3.org/2000/svg" width="41" height="41" viewBox="0 0 41 41">
  <defs>
    <style>
      .cls-1 {
        fill: #687dac;
      }
    </style>
  </defs>
  <path id="facebook-round-line-icon" class="cls-1" d="M20.5,0A20.489,20.489,0,1,1,6,6,20.489,20.489,0,0,1,20.5,0Zm2.226,13.982h3.7V9.543h-3.7a5.185,5.185,0,0,0-5.177,5.177v2.226H14.585v4.439h2.964V33.228h4.439V21.385h3.7l.738-4.439H21.988V14.72A.748.748,0,0,1,22.726,13.982ZM33.954,7.059A19,19,0,1,0,39.524,20.5,18.94,18.94,0,0,0,33.954,7.059Z"/>
</svg>
