<svg xmlns="http://www.w3.org/2000/svg" xmlns:xlink="http://www.w3.org/1999/xlink" width="307.914" height="215.062" viewBox="0 0 307.914 215.062">
  <defs>
    <clipPath id="clip-path">
      <path id="Path_9" data-name="Path 9" d="M8.8,0H299.116c4.859,0,8.8,3.027,8.8,6.76V208.3c0,3.733-3.939,6.76-8.8,6.76H8.8c-4.859,0-8.8-3.027-8.8-6.76V6.76C0,3.027,3.939,0,8.8,0Z" transform="translate(0 284.168)" fill="#fbfbfb"/>
    </clipPath>
    <clipPath id="clip-path-2">
      <path id="Path_8" data-name="Path 8" d="M89.248,365q19.329,54.181,61.288,104.667T261.928,518.18a255.4,255.4,0,0,0,128.935-38.665q59.508-36.7,78.328-102.7a245.144,245.144,0,0,0,1.018-132.742q-17.8-66.741-83.413-87.424T260.149,128.576q-61.035-7.388-118.762,24.628t-64.6,94.812Q69.919,310.817,89.248,365Z" transform="translate(-74.986 -127.191)"/>
    </clipPath>
  </defs>
  <g id="Mask_Group_5" data-name="Mask Group 5" transform="translate(0 -284.168)" clip-path="url(#clip-path)">
    <g id="magicpattern-blob-1665139710751" transform="translate(-95.963 284.168)" clip-path="url(#clip-path-2)">
      <path id="Path_20" data-name="Path 20" d="M89.248,365q19.329,54.181,61.288,104.667T261.928,518.18a255.4,255.4,0,0,0,128.935-38.665q59.508-36.7,78.328-102.7a245.144,245.144,0,0,0,1.018-132.742q-17.8-66.741-83.413-87.424T260.149,128.576q-61.035-7.388-118.762,24.628t-64.6,94.812Q69.919,310.817,89.248,365Z" transform="translate(-74.986 -127.191)" fill="#d2e0ee"/>
    </g>
  </g>
</svg>
