<svg id="Layer_1" data-name="Layer 1" xmlns="http://www.w3.org/2000/svg" viewBox="0 0 36.5 36.5"><defs><style>.cls-1{fill:#687dac;stroke:#6f7d9f;stroke-miterlimit:10;stroke-width:0.5px;}</style></defs><path class="cls-1" d="M18,0A18,18,0,1,0,36,18,18,18,0,0,0,18,0Zm0,1A17,17,0,1,1,1,18,17,17,0,0,1,18,1ZM8.84,12.59a.5.5,0,0,0-.43.53V24.5a.5.5,0,0,0,.5.5H27.09a.5.5,0,0,0,.5-.5V13.19a.49.49,0,0,0-.39-.59H18l-9,0-.09,0Zm9.16,1h7.38L18,18.22l-7.34-4.6ZM9.41,14l8.34,5.22a.51.51,0,0,0,.53,0L26.59,14V24H9.41Z" transform="translate(0.25 0.25)"/></svg>