<svg xmlns="http://www.w3.org/2000/svg" width="41" height="41" viewBox="0 0 41 41">
  <defs>
    <style>
      .cls-1, .cls-3 {
        fill: #687dac;
      }

      .cls-1 {
        fill-rule: evenodd;
      }

      .cls-2 {
        fill: #fbfbfb;
      }
    </style>
  </defs>
  <g id="Group_81" data-name="Group 81" transform="translate(-498.092 -55.889)">
    <path id="instagram-round-line-icon" class="cls-1" d="M20.439,14.437a6.346,6.346,0,1,1-6.346,6.346A6.345,6.345,0,0,1,20.439,14.437ZM15.7,9.26H25.3a6.522,6.522,0,0,1,6.542,6.456v9.567A6.514,6.514,0,0,1,25.3,31.74H15.7a6.687,6.687,0,0,1-5.253-2.616,6.192,6.192,0,0,1-1.29-3.841V15.716A6.522,6.522,0,0,1,15.7,9.26Zm10.871,4.292a1.033,1.033,0,1,1-1.033,1.033A1.031,1.031,0,0,1,26.575,13.552Zm-10.084-2.46h8.018a5.471,5.471,0,0,1,5.472,5.448v8.067a5.471,5.471,0,0,1-5.472,5.448H16.491a5.471,5.471,0,0,1-5.472-5.448V16.54A5.471,5.471,0,0,1,16.491,11.092ZM20.5,0A20.489,20.489,0,1,1,6,6,20.489,20.489,0,0,1,20.5,0ZM33.941,7.046a19,19,0,1,0,5.571,13.441A18.941,18.941,0,0,0,33.941,7.046Zm-13.5,9.518a4.193,4.193,0,1,1-4.193,4.193A4.2,4.2,0,0,1,20.439,16.565Z" transform="translate(498.092 55.889)"/>
    <rect id="Rectangle_160" data-name="Rectangle 160" class="cls-2" width="26" height="27" transform="translate(506 63)"/>
    <g id="Group_80" data-name="Group 80" transform="translate(-17673.805 -4120.067)">
      <g id="email_1_1_" data-name="email (1) (1)" transform="translate(18178.57 4187.12)">
        <path id="Path_663" data-name="Path 663" class="cls-3" d="M38.8,18.314a.436.436,0,0,0,0-.1,1.024,1.024,0,0,0,0-.139.846.846,0,0,0-.092-.152.311.311,0,0,0-.04-.059.581.581,0,0,0-.178-.126.469.469,0,0,0-.165-.04h-26.7a.469.469,0,0,0-.165.04.581.581,0,0,0-.178.126.311.311,0,0,0-.04.059.846.846,0,0,0-.092.152,1.024,1.024,0,0,0,0,.139.436.436,0,0,0,0,.1v17.68a1.149,1.149,0,0,0,.033.145.39.39,0,0,0,0,.112.31.31,0,0,0,.04.059.819.819,0,0,0,.112.152l.066.046a.945.945,0,0,0,.139.079.429.429,0,0,0,.132,0,.594.594,0,0,0,.106,0H38.137a.6.6,0,0,0,.106,0,.429.429,0,0,0,.132,0,.945.945,0,0,0,.139-.079l.066-.046a.819.819,0,0,0,.112-.152.31.31,0,0,0,.04-.059.39.39,0,0,0,0-.112,1.151,1.151,0,0,0,0-.145V18.314ZM12.371,19.827l7.149,6.66-7.149,7.789Zm15.764,6.858a4.724,4.724,0,0,1-6.422,0l-8.318-7.71H36.453Zm-7.644.661.324.3a6.052,6.052,0,0,0,8.219,0l.324-.3,7.267,7.928H13.21Zm9.838-.859,7.149-6.66V34.276Z" transform="translate(-11.146 -17.7)"/>
      </g>
    </g>
  </g>
</svg>
