<svg xmlns="http://www.w3.org/2000/svg" xmlns:svgjs="http://svgjs.com/svgjs" xmlns:xlink="http://www.w3.org/1999/xlink" width="288" height="288"><svg xmlns="http://www.w3.org/2000/svg" width="288" height="288" viewBox="0 0 26 26"><path style="line-height:normal;text-indent:0;text-align:start;text-decoration-line:none;text-decoration-style:solid;text-decoration-color:#000;text-transform:none;block-progression:tb;isolation:auto;mix-blend-mode:normal" fill="#687dac" d="M13 0C5.826 0 0 5.826 0 13s5.826 13 13 13 13-5.826 13-13S20.174 0 13 0zm0 1c6.633 0 12 5.367 12 12s-5.367 12-12 12S1 19.633 1 13 6.367 1 13 1zM5.621 8l-.012.016h-.082a.5.5 0 0 0-.5.5v.232L5 8.783l.027.022V17.5a.5.5 0 0 0 .5.5h14.97a.5.5 0 0 0 .501-.5V8.519a.5.5 0 0 0-.502-.5H5.641l-.02-.015V8zm1.281 1.016H19.13l-6.11 4.847-6.117-4.847zm-.877.582 6.686 5.297a.5.5 0 0 0 .62 0l6.665-5.293V17H6.026V9.598z" class="color000 svgShape" color="#000" font-family="sans-serif" font-weight="400" overflow="visible"/></svg></svg>