<svg id="Layer_1" data-name="Layer 1" xmlns="http://www.w3.org/2000/svg" xmlns:xlink="http://www.w3.org/1999/xlink" viewBox="0 0 1366 170"><defs><style>.cls-1{fill:none;}.cls-2{clip-path:url(#clip-path);}.cls-3{fill:#f0d7ba;}.cls-4{fill:#9dafcd;}</style><clipPath id="clip-path"><rect class="cls-1" width="1366" height="170"/></clipPath></defs><g class="cls-2"><path class="cls-3" d="M1406.05,105.54c.5,15-4.53,22.72-10.18,35.76-4.71,10.88-10.22,21.65-17.72,30.7-7.78,9.39-20,10.28-31.67,13.31-28.22,7.3-55.93,16.33-83.9,24.52-34.72,10.17-69.77,18.84-104,30.68-30.61,10.61-60.4,23.61-91.08,33.92-35.19,11.83-71.44,19.27-107.88,26.07-72.81,13.57-146.51,10.12-220.4,8.59-46.43-1-90.82,3.52-137,7.5C548.31,321.24,493.7,319,439.61,319c-100.27,0-206.17,8.14-299.61-34.88C95.44,263.6,67.69,223.68,36,188.2,11.08,160.39-14.41,123.48-17,85c14.16-4.39,31.64-4.46,46.37-7a290,290,0,0,1,47.47-4c10.43-.11,22.57,0,32.16-4,39.88,0,79.48,1,119.3,1,33.68,0,66.5,5.13,99.74,10,25,3.69,50,7.6,74.19,14.9,27.84,8.41,55.2,18,84,22,38.13,5.29,77,4.92,115.6,5,25.27,0,49.26-7.59,74.09-9.78C729.4,108.52,781.75,91,836.21,93c24.69.91,49.17,7.21,74.2,8,19.75.62,39.9,2.49,59.67.3,17-1.89,33.28-6.1,50.25-8.27,73.74-9.43,148.14-25,222.67-25,24.73,0,47.87-6.82,72-10,24.8-3.26,51.18-8.34,76-9,.32,9.21,3.82,20.1,7,28.71,3.43,9.42,7.75,17.51,8.1,27.83Z"/><path class="cls-4" d="M1382.62,133.16c4,39.87-20.15,80.62-28.79,118.69-7,31-19,61.85-32.6,90.43-4.2,8.85-10,20.81-17.26,26.59-22,17.39-66.8,13.34-91.82,16.38-22.81,2.78-43.19,9.91-65.19,15.8-28,7.5-56.17,8-85,7.95-43.59,0-86.14,1.51-129.57,4.58C882,417.15,831,415,780.46,415c-62.59,0-125.27-3.09-187.82-2-34.82.63-69.33,5.8-104.14,6-31,.18-62,0-93-.05-77.48-.08-155,3-232.54,3-28.78,0-57.55,1.06-86.3,1.05-16.68,0-37.82,1.57-53.75-4.33-11.69-4.33-8.93-10-8.91-21.62,0-11.22-.53-20.91-4.73-31.07-10.69-25.9-5.55-60-4.18-87.57,1.43-28.95,6.71-56.65.91-85.39C2,173-1,156.31-1,135.75-1,112,1,88.83,1,65c12.79.61,26.89-5.27,39.88-6.34a235,235,0,0,1,45.77,1c30.9,3.53,61,12,90.45,21.95,56.37,19,112.45,43.08,171.9,45.26,73.29,2.68,144-28.22,217.32-31,65.19-2.51,130.28,17.3,195.1,9.94,30.76-3.49,60.63-13,91.48-15.69,50-4.29,99.77,9.74,149.94,10.6C1069.6,101.84,1133.75,80,1197,61.27c32.33-9.6,65-18.73,98.34-23.86,29.78-4.57,59.79-4,89.66-4.33-40.27,12.27-5.61,67.09-2.33,100.08Z"/></g></svg>