<?xml version="1.0" encoding="UTF-8"?><svg id="Layer_2" xmlns="http://www.w3.org/2000/svg" viewBox="0 0 520.32 513.77"><defs><style>.cls-1{fill:#b8c8de;}.cls-2{fill:#f1d8bb;}.cls-3{fill:#4d6491;}.cls-4{fill:#9eb0ce;}.cls-5{fill:#687dac;}</style></defs><g id="Layer_1-2"><g id="Layer_1-2"><path class="cls-4" d="m519.46,235.88c.57,6.88.86,13.86.86,20.87,0,12.48-.91,24.94-2.73,37.29-7,5-19.09,6.5-26.6,9.36-11.19,4.28-22.1,9.25-33.13,13.91-22,9.31-45,18-69.36,17.3-23-.66-44.75-9.63-66.63-16.68-55.56-17.91-114.27-23.87-172.53-28.43-24.72-1.93-49.65-3.63-74.24-.47s-49.08,11.5-67.78,27.55l-.18.05C-.13,286.56-1.87,255.42,2.01,224.72c73.68,16.56,144.25,10.94,218.38-.38,51.15-7.82,103.19,4.16,152.87,18.55,47.44,13.73,98.53,6,146.2-7h0Z"/><path class="cls-1" d="m490.88,303.38c7.51-2.86,19.57-4.33,26.6-9.36-2.91,19.76-8.17,39.1-15.65,57.61l-1.06-.43c-51.82,28.43-114,29.75-171.15,45.17-34.29,9.25-67.41,23.75-102.75,27.46-32.54,3.45-65-2.53-96.53-10.06-15.74-3.76-31.36-8-47.11-11.73-14.19-3.39-30.07-4.45-43.75-9.19-14.94-23.46-25.91-49.22-32.46-76.25l.17-.05c18.71-16.05,43.2-24.41,67.78-27.55s49.52-1.45,74.25.47c58.25,4.56,117,10.52,172.52,28.43,21.88,7,43.63,16,66.64,16.68,24.32.71,47.37-8,69.35-17.3,11-4.66,21.95-9.63,33.14-13.91h.01Z"/><path class="cls-2" d="m500.78,351.58l1.06.43c-38.24,94.77-132.07,161.76-241.79,161.76-89.32.25-172.55-45.23-220.57-120.54,13.67,4.74,29.56,5.8,43.75,9.19,15.75,3.75,31.37,8,47.11,11.73,31.52,7.52,64,13.51,96.53,10.06,35.35-3.72,68.47-18.22,102.75-27.46,57.19-15.37,119.33-16.74,171.15-45.17h.01Z"/><path class="cls-5" d="m487.45,131.97c18.05,31.91,28.94,67.37,31.91,103.91-47.68,13-98.77,20.75-146.21,7-49.67-14.4-101.7-26.37-152.86-18.55-74.14,11.32-144.69,16.94-218.38.38,3.14-24.96,10.01-49.31,20.36-72.24,7.45-4.62,18-5.4,26.41-7.86,10.3-3,20.43-6.59,30.46-10.4,20.13-7.64,39.81-16.4,59.73-24.6,69.81-28.73,153.25-43.61,225.39-13,31.83,13.51,61.41,26.4,96,31.85,9,1.43,18.11,2.4,27.19,3.51h0Z"/><path class="cls-3" d="m487.45,131.88c-9.07-1.13-18.16-2.09-27.19-3.51-34.59-5.45-64.18-18.34-96-31.85-72.13-30.61-155.57-15.71-225.39,13-19.92,8.2-39.59,16.95-59.73,24.6-10,3.8-20.17,7.36-30.46,10.39-8.39,2.48-19,3.24-26.41,7.86C62.77,62.6,154,0,260.05,0c94.04-.28,180.93,50.12,227.39,131.88h0Z"/></g></g></svg>