<?xml version="1.0" encoding="UTF-8"?><svg id="Layer_2" xmlns="http://www.w3.org/2000/svg" viewBox="0 0 545.71 128.63"><defs><style>.cls-1{fill:#f0d7ba;}</style></defs><g id="Layer_1-2"><path class="cls-1" d="M.08,4.1C10.75,4.33,21.08,0,31.98,0c14.53,0,28.97,3.33,42.74,7.75,22.7,7.29,44.55,17.63,68.01,21.88,39.24,7.12,80.83-3.17,118.92,8.67,27.9,8.67,51.33,28.53,79.32,36.89,23.83,7.11,49.35,5.43,73.83,9.82,45.03,8.08,86.5,31.95,130.91,42.99-52.23,1.39-104.76,.07-157.04,.07H136.94c-45.58,0-91.15,0-136.73,0H.1c-.21,0,.3-112.39-.1-123.97,.03,0,.06,0,.08,0Z"/></g></svg>