<svg xmlns="http://www.w3.org/2000/svg" viewBox="0 0 500 500"><g id="freepik--Floor--inject-1"><path id="freepik--floor--inject-1" d="M88.23,268.41C-1.12,320-1.11,403.62,88.23,455.2s234.2,51.58,323.54,0,89.34-135.21,0-186.79S177.57,216.82,88.23,268.41Z" style="fill:#fafafa"></path></g><g id="freepik--Window--inject-1"><g id="freepik--window--inject-1"><g id="freepik--window--inject-1"><g id="freepik--Frame--inject-1"><polygon points="344.44 36.32 341.57 37.92 341.57 145.6 344.44 144 344.44 36.32" style="fill:#fafafa"></polygon><polygon points="344.44 144 344.44 39.58 459.37 105.93 459.35 210.35 344.44 144" style="fill:#fff"></polygon><path d="M464.68,222.82v-120L336.26,28.72v120ZM341.57,145.6V37.92l117.8,68V213.61Z" style="fill:#f0f0f0"></path><polygon points="341.57 145.6 344.44 144 459.35 210.35 459.37 213.61 341.57 145.6" style="fill:#e0e0e0"></polygon><polygon points="373.66 56.44 370.79 54.79 370.79 162.47 373.66 160.87 373.66 56.44" style="fill:#fafafa"></polygon><polygon points="438.22 93.72 435.35 92.06 435.35 199.74 438.22 198.15 438.22 93.72" style="fill:#fafafa"></polygon><polygon points="464.68 222.81 467.53 221.16 467.53 101.2 464.68 102.86 464.68 222.81" style="fill:#e0e0e0"></polygon><polygon points="467.53 101.2 464.68 102.86 336.26 28.72 339.11 27.06 467.53 101.2" style="fill:#fafafa"></polygon><polygon points="459.37 155.22 459.37 158.52 341.57 90.51 344.41 88.85 459.37 155.22" style="fill:#e0e0e0"></polygon></g><polygon points="459.36 164.65 459.37 158.52 341.57 90.51 341.57 96.65 459.36 164.65" style="fill:#f0f0f0"></polygon><polygon points="435.35 205.88 430.05 202.82 430.05 82.86 435.35 85.93 435.35 205.88" style="fill:#f0f0f0"></polygon><polygon points="370.8 168.61 365.5 165.55 365.5 45.6 370.81 48.66 370.8 168.61" style="fill:#f0f0f0"></polygon><polygon points="435.35 144.66 438.22 143.01 438.22 93.72 435.35 92.06 435.35 144.66" style="fill:#fafafa"></polygon><polygon points="370.82 107.4 373.68 105.75 373.68 56.46 370.82 54.8 370.82 107.4" style="fill:#fafafa"></polygon></g></g></g><g id="freepik--Pictures--inject-1"><g id="freepik--Picture--inject-1"><g id="freepik--frame--inject-1"><polygon points="35.03 111.55 36.62 112.5 69.06 93.76 67.48 92.82 35.03 111.55" style="fill:#fafafa"></polygon><polygon points="67.48 92.82 36.62 110.64 36.62 78.31 67.48 60.51 67.48 92.82" style="fill:#fff"></polygon><path d="M72.05,54.42,33.63,76.59v41.07L72.05,95.49Zm-3,39.34L36.62,112.5V78.32L69.06,59.58Z" style="fill:#f0f0f0"></path><polygon points="69.06 93.76 67.48 92.82 67.48 60.51 69.06 59.58 69.06 93.76" style="fill:#e0e0e0"></polygon><polygon points="72.05 54.41 70.44 53.5 32.03 75.67 33.63 76.59 72.05 54.41" style="fill:#fafafa"></polygon><polygon points="32.03 75.67 33.63 76.59 33.63 117.66 32.03 116.74 32.03 75.67" style="fill:#e0e0e0"></polygon></g><g id="freepik--Land--inject-1"><polygon points="66.28 91.86 37.82 108.28 37.82 100.07 44.94 83.64 49.37 87.75 47.77 94.63 57.6 73.62 66.28 83.64 66.28 91.86" style="fill:#f0f0f0"></polygon><path d="M49.1,75.71A4.66,4.66,0,0,0,47,79.35c0,1.35.95,1.89,2.11,1.22a4.65,4.65,0,0,0,2.1-3.65C51.2,75.58,50.26,75,49.1,75.71Z" style="fill:#f0f0f0"></path></g></g><g id="freepik--picture--inject-1"><g id="freepik--frame--inject-1"><polygon points="35.03 165.03 36.62 165.97 69.06 147.24 67.48 146.3 35.03 165.03" style="fill:#fafafa"></polygon><polygon points="67.48 146.3 36.62 164.11 36.62 131.79 67.48 113.99 67.48 146.3" style="fill:#fff"></polygon><path d="M72.05,107.89,33.63,130.07v41.07L72.05,149Zm-3,39.35L36.62,166V131.79l32.44-18.73Z" style="fill:#f0f0f0"></path><polygon points="69.06 147.24 67.48 146.3 67.48 113.99 69.06 113.06 69.06 147.24" style="fill:#e0e0e0"></polygon><polygon points="72.05 107.89 70.44 106.97 32.03 129.15 33.63 130.07 72.05 107.89" style="fill:#fafafa"></polygon><polygon points="32.03 129.15 33.63 130.07 33.63 171.14 32.03 170.22 32.03 129.15" style="fill:#e0e0e0"></polygon></g><g id="freepik--land--inject-1"><polygon points="66.28 145.33 37.82 161.76 37.82 153.54 44.94 137.12 49.37 141.22 47.77 148.11 57.6 127.1 66.28 137.12 66.28 145.33" style="fill:#f0f0f0"></polygon><path d="M49.1,129.18A4.69,4.69,0,0,0,47,132.83c0,1.34.95,1.89,2.11,1.21a4.65,4.65,0,0,0,2.1-3.64C51.2,129.06,50.26,128.51,49.1,129.18Z" style="fill:#f0f0f0"></path></g></g></g><g id="freepik--Shelves--inject-1"><g id="freepik--shelves--inject-1"><g id="freepik--Shelf--inject-1"><polygon points="175.16 119.94 150.48 105.69 85.48 143.18 85.48 145.89 110.16 160.14 175.16 122.65 175.16 119.94" style="fill:#ebebeb"></polygon><polygon points="110.16 157.43 175.16 119.94 150.48 105.69 85.48 143.18 110.16 157.43" style="fill:#fafafa"></polygon><polygon points="110.16 157.43 110.16 160.14 85.48 145.89 85.48 143.18 110.16 157.43" style="fill:#e6e6e6"></polygon><polygon points="157.9 82.2 172.39 90.56 172.39 118.11 157.9 109.75 157.9 82.2" style="fill:#ebebeb"></polygon><path d="M171.92,91l-14-8a5.94,5.94,0,0,1-3.2,1.75l13.9,8A14.14,14.14,0,0,0,171.92,91Z" style="fill:#fff"></path><path d="M167.25,92.69a3,3,0,0,0,2.69,0l2.36-1.35a.82.82,0,0,0,0-1.55l-13.81-7.93-.59.34L171.49,90c.45.26.45.67,0,.93l-2.19,1.24a1.78,1.78,0,0,1-1.62,0L154.1,84.38l-.66.38Z" style="fill:#fafafa"></path><path d="M153.44,84.76v27.55l13.81,7.93a3,3,0,0,0,2.69,0l2.36-1.35a1,1,0,0,0,.56-.78V90.56a.94.94,0,0,1-.56.77l-2.36,1.36a3,3,0,0,1-2.69,0Z" style="fill:#e0e0e0"></path><path d="M168.6,93a2.79,2.79,0,0,0,1.34-.32l2.36-1.36a.94.94,0,0,0,.56-.77v27.55a1,1,0,0,1-.56.78l-2.36,1.35a2.79,2.79,0,0,1-1.34.32Z" style="fill:#f0f0f0"></path><polygon points="151.83 86.37 166.31 94.73 161.81 123.12 147.33 114.75 151.83 86.37" style="fill:#ebebeb"></polygon><path d="M165.74,95.13l-14-8A7.71,7.71,0,0,1,148,88.53l13.9,8A18.74,18.74,0,0,0,165.74,95.13Z" style="fill:#fff"></path><path d="M160.43,96.43a3.73,3.73,0,0,0,2.92.13l2.76-1.12c.87-.36,1-1,.22-1.42l-13.82-7.93-.68.28,13.59,7.85c.44.25.38.63-.14.84l-2.56,1A2.3,2.3,0,0,1,161,96l-13.58-7.83-.78.31Z" style="fill:#fafafa"></path><path d="M146.61,88.5l-4.49,28.38,13.82,7.94a3.82,3.82,0,0,0,2.92.13l2.75-1.13c.43-.18.68-.42.72-.68l4.5-28.38c0,.25-.29.5-.72.68l-2.76,1.13a3.78,3.78,0,0,1-2.92-.14Z" style="fill:#e0e0e0"></path><path d="M161.85,96.79a3.64,3.64,0,0,0,1.5-.22l2.76-1.13c.43-.18.68-.43.72-.68l-4.5,28.38c0,.26-.29.5-.72.68L158.86,125a3.72,3.72,0,0,1-1.51.22Z" style="fill:#f0f0f0"></path><g id="freepik--Pot--inject-1"><path id="freepik--Shadow--inject-1" d="M146.55,122.65c3.4,2,3.4,5.16,0,7.13a13.68,13.68,0,0,1-12.34,0c-3.41-2-3.41-5.16,0-7.13A13.68,13.68,0,0,1,146.55,122.65Z" style="opacity:0.05"></path><path d="M134.83,127.62c-3-3-4.71-10.59-1.82-13h14.73c2.89,2.4,1.15,10-1.81,13l-.08.09-.11.1-.26.23-.08.06-.22.17a4,4,0,0,1-.38.24,9.77,9.77,0,0,1-8.84,0h0a4.11,4.11,0,0,1-.39-.24l-.21-.16-.09-.07a2.73,2.73,0,0,1-.25-.23l-.12-.11Z" style="fill:#f5f5f5"></path><path d="M146.46,113.47c3.36,1.94,3.36,5.09,0,7a13.45,13.45,0,0,1-12.17,0c-3.36-1.94-3.36-5.09,0-7A13.45,13.45,0,0,1,146.46,113.47Z" style="fill:#fff"></path><path d="M144.08,114.85c2,1.18,2,3.09,0,4.27a8.18,8.18,0,0,1-7.4,0c-2.05-1.18-2.05-3.09,0-4.27A8.18,8.18,0,0,1,144.08,114.85Z" style="fill:#ebebeb"></path><path d="M136.68,116.88a8.18,8.18,0,0,1,7.4,0A3.35,3.35,0,0,1,145.3,118a3.27,3.27,0,0,1-1.22,1.12,8.18,8.18,0,0,1-7.4,0,3.3,3.3,0,0,1-1.23-1.12A3.39,3.39,0,0,1,136.68,116.88Z" style="fill:#e0e0e0"></path><path d="M143.63,118a16.78,16.78,0,0,0,2.68-3.56c1.23-2.19,1.46-5.11.82-5.48s-3.24,2.56-3.24,2.56a15.87,15.87,0,0,0,.27-3.73c-.11-2-.58-3.71-1.14-4.07s-1.8,2.1-2.34,3.88-.85,3.24-.85,3.24a28.45,28.45,0,0,0-1-4.1c-.65-1.84-1.24-2.26-1.7-2.08s-.75,1-.89,3.51a25,25,0,0,0,.11,3.52s-.92-1-1.93-2-1.6-1.22-1.92-1-.41,1.87,1.32,5a17.57,17.57,0,0,0,3.27,4.3S139.53,119.55,143.63,118Z" style="fill:#ebebeb"></path></g><polygon points="117.4 103.1 131.88 111.46 131.88 139.01 117.4 130.65 117.4 103.1" style="fill:#e0e0e0"></polygon><path d="M131.42,111.92l-14-8a5.94,5.94,0,0,1-3.2,1.75l13.89,8A14,14,0,0,0,131.42,111.92Z" style="fill:#fff"></path><path d="M126.75,113.59a3,3,0,0,0,2.69,0l2.36-1.35a.82.82,0,0,0,0-1.55L118,102.76l-.59.34L131,110.94a.49.49,0,0,1,0,.93l-2.2,1.24a1.76,1.76,0,0,1-1.61,0l-13.59-7.83-.66.38Z" style="fill:#fafafa"></path><path d="M112.93,105.66v27.55l13.82,7.93a3,3,0,0,0,2.69,0l2.36-1.36a.94.94,0,0,0,.56-.77V111.46a.94.94,0,0,1-.56.77l-2.36,1.36a3,3,0,0,1-2.69,0Z" style="fill:#e0e0e0"></path><path d="M128.09,113.91a2.81,2.81,0,0,0,1.35-.32l2.36-1.36a.94.94,0,0,0,.56-.77V139a.94.94,0,0,1-.56.77l-2.36,1.36a2.81,2.81,0,0,1-1.35.32Z" style="fill:#f0f0f0"></path><polygon points="111.48 106.5 125.96 114.86 125.96 142.41 111.48 134.05 111.48 106.5" style="fill:#ebebeb"></polygon><path d="M125.49,115.32l-14-8a5.93,5.93,0,0,1-3.21,1.75l13.9,8A13.9,13.9,0,0,0,125.49,115.32Z" style="fill:#fff"></path><path d="M120.82,117a3,3,0,0,0,2.7,0l2.36-1.35a.82.82,0,0,0,0-1.55l-13.82-7.93-.58.34,13.58,7.84c.45.26.45.67,0,.93l-2.19,1.24a1.78,1.78,0,0,1-1.62,0l-13.58-7.83-.66.38Z" style="fill:#fafafa"></path><path d="M107,109.06v27.55l13.81,7.93a3,3,0,0,0,2.7,0l2.36-1.36a.93.93,0,0,0,.55-.77V114.86a.93.93,0,0,1-.55.77L123.52,117a3,3,0,0,1-2.7,0Z" style="fill:#e0e0e0"></path><path d="M122.17,117.31a2.83,2.83,0,0,0,1.35-.32l2.36-1.36a.93.93,0,0,0,.55-.77v27.55a.93.93,0,0,1-.55.77l-2.36,1.36a2.83,2.83,0,0,1-1.35.32Z" style="fill:#f0f0f0"></path><polygon points="105.63 112.34 120.11 120.71 115.61 149.09 101.13 140.72 105.63 112.34" style="fill:#ebebeb"></polygon><path d="M119.54,121.1l-14-8a7.61,7.61,0,0,1-3.73,1.45l13.89,8A17.81,17.81,0,0,0,119.54,121.1Z" style="fill:#fff"></path><path d="M114.23,122.4a3.78,3.78,0,0,0,2.92.14l2.76-1.13c.87-.36,1-1,.22-1.42l-13.82-7.93-.68.28,13.58,7.85c.45.25.39.63-.13.84l-2.56,1a2.29,2.29,0,0,1-1.75-.08l-13.58-7.83-.78.31Z" style="fill:#fafafa"></path><path d="M100.41,114.47l-4.49,28.39,13.81,7.93a3.82,3.82,0,0,0,2.92.13l2.76-1.13c.43-.18.68-.42.72-.68l4.49-28.38c0,.26-.28.5-.71.68l-2.76,1.13a3.82,3.82,0,0,1-2.92-.13Z" style="fill:#e0e0e0"></path><path d="M115.64,122.76a3.69,3.69,0,0,0,1.51-.22l2.76-1.13c.43-.18.67-.42.71-.68l-4.49,28.38c0,.26-.29.5-.72.68l-2.76,1.13a3.64,3.64,0,0,1-1.5.22Z" style="fill:#f0f0f0"></path></g><g id="freepik--shelf--inject-1"><polygon points="175.16 66.47 150.48 52.22 85.48 89.71 85.48 92.42 110.16 106.67 175.16 69.18 175.16 66.47" style="fill:#ebebeb"></polygon><polygon points="110.16 103.96 175.16 66.47 150.48 52.22 85.48 89.71 110.16 103.96" style="fill:#fafafa"></polygon><polygon points="110.16 103.96 110.16 106.67 85.48 92.42 85.48 89.71 110.16 103.96" style="fill:#e6e6e6"></polygon><polygon points="154.27 26.11 170.28 35.36 170.28 65.81 154.27 56.56 154.27 26.11" style="fill:#ebebeb"></polygon><path d="M169.76,35.86,154.27,27a6.47,6.47,0,0,1-3.54,1.94l15.36,8.85A15.38,15.38,0,0,0,169.76,35.86Z" style="fill:#fff"></path><path d="M164.6,37.71a3.33,3.33,0,0,0,3,0l2.61-1.5c.82-.47.82-1.23,0-1.71l-15.27-8.76-.65.37,15,8.67a.54.54,0,0,1,0,1l-2.43,1.37a1.93,1.93,0,0,1-1.78,0l-15-8.65-.74.42Z" style="fill:#fafafa"></path><path d="M149.33,29V59.4l15.27,8.76a3.33,3.33,0,0,0,3,0l2.61-1.5a1,1,0,0,0,.61-.85V35.36a1,1,0,0,1-.61.85l-2.61,1.5a3.33,3.33,0,0,1-3,0Z" style="fill:#e0e0e0"></path><path d="M166.09,38.06a3,3,0,0,0,1.49-.35l2.61-1.5a1,1,0,0,0,.61-.85V65.81a1,1,0,0,1-.61.85l-2.61,1.5a3.12,3.12,0,0,1-1.49.35Z" style="fill:#f0f0f0"></path><polygon points="148.06 31.4 164.06 40.65 159.09 72.02 143.08 62.77 148.06 31.4" style="fill:#ebebeb"></polygon><path d="M163.43,41.08l-15.5-8.89a8.43,8.43,0,0,1-4.12,1.6l15.36,8.85A20.14,20.14,0,0,0,163.43,41.08Z" style="fill:#fff"></path><path d="M157.56,42.52a4.15,4.15,0,0,0,3.23.15l3.05-1.25c1-.39,1.07-1.09.25-1.56l-15.28-8.77-.75.31,15,8.67c.49.29.43.71-.15.94l-2.83,1.14a2.46,2.46,0,0,1-1.94-.09l-15-8.65-.85.35Z" style="fill:#fafafa"></path><path d="M142.29,33.76l-5,31.37,15.27,8.76a4.14,4.14,0,0,0,3.23.15l3.05-1.24c.47-.2.74-.47.79-.76l5-31.37c0,.29-.31.56-.79.75l-3.05,1.25a4.19,4.19,0,0,1-3.23-.14Z" style="fill:#e0e0e0"></path><path d="M159.12,42.92a3.94,3.94,0,0,0,1.67-.25l3.05-1.25c.48-.19.74-.46.79-.75l-5,31.37c0,.29-.32.56-.79.76L155.82,74a4.1,4.1,0,0,1-1.67.25Z" style="fill:#f0f0f0"></path><g id="freepik--picture--inject-1"><g id="freepik--frame--inject-1"><polygon points="121.46 88.39 122.59 88.93 143.59 76.81 142.46 76.26 121.46 88.39" style="fill:#fafafa"></polygon><polygon points="142.46 76.26 122.48 87.79 119.58 57.91 139.55 46.39 142.46 76.26" style="fill:#fff"></polygon><path d="M142.3,42.56,117.44,56.92l3.43,35.24,24.86-14.35Zm1.29,34.25-21,12.12-3-31,21-12.12Z" style="fill:#f0f0f0"></path><polygon points="143.59 76.81 142.46 76.26 139.55 46.39 140.58 45.79 143.59 76.81" style="fill:#e0e0e0"></polygon><polygon points="142.3 42.56 141.15 42.03 116.29 56.38 117.44 56.92 142.3 42.56" style="fill:#fafafa"></polygon><polygon points="116.29 56.38 117.44 56.92 120.87 92.16 119.72 91.63 116.29 56.38" style="fill:#e0e0e0"></polygon></g><g id="freepik--land--inject-1"><polygon points="141.58 75.69 123.16 86.33 122.67 81.29 126.1 66.51 129.36 71.55 128.69 75.8 134.13 60.11 141.09 70.66 141.58 75.69" style="fill:#f0f0f0"></polygon><path d="M125.82,60.28a2.57,2.57,0,0,0-1.22,2.28c.08.82.75,1.13,1.51.7A2.61,2.61,0,0,0,127.32,61C127.24,60.16,126.57,59.85,125.82,60.28Z" style="fill:#f0f0f0"></path></g></g><g id="freepik--pot--inject-1"><path id="freepik--shadow--inject-1" d="M111.11,86.31c3.41,2,3.41,5.16,0,7.13a13.68,13.68,0,0,1-12.34,0c-3.4-2-3.4-5.16,0-7.13A13.68,13.68,0,0,1,111.11,86.31Z" style="opacity:0.05"></path><path d="M99.4,91.28c-3-3-4.72-10.59-1.82-13h14.73c2.89,2.4,1.15,9.95-1.82,13l-.08.09-.1.1a2,2,0,0,1-.27.23l-.07.06-.22.17a4.11,4.11,0,0,1-.39.24,9.77,9.77,0,0,1-8.84,0h0a3,3,0,0,1-.38-.24c-.08,0-.14-.11-.21-.16l-.09-.07-.26-.23-.12-.11Z" style="fill:#f5f5f5"></path><path d="M111,77.13c3.36,1.94,3.36,5.09,0,7a13.45,13.45,0,0,1-12.17,0c-3.36-1.94-3.36-5.09,0-7A13.45,13.45,0,0,1,111,77.13Z" style="fill:#fff"></path><path d="M108.64,78.51c2,1.18,2,3.09,0,4.27a8.18,8.18,0,0,1-7.4,0c-2-1.18-2-3.09,0-4.27A8.18,8.18,0,0,1,108.64,78.51Z" style="fill:#ebebeb"></path><path d="M101.24,80.54a8.18,8.18,0,0,1,7.4,0,3.39,3.39,0,0,1,1.23,1.12,3.3,3.3,0,0,1-1.23,1.12,8.18,8.18,0,0,1-7.4,0A3.27,3.27,0,0,1,100,81.66,3.35,3.35,0,0,1,101.24,80.54Z" style="fill:#e0e0e0"></path><path d="M108.19,81.66a16.78,16.78,0,0,0,2.68-3.56c1.24-2.19,1.47-5.11.83-5.48s-3.24,2.56-3.24,2.56a15.87,15.87,0,0,0,.27-3.73c-.11-2-.58-3.72-1.14-4.07s-1.81,2.1-2.34,3.88-.86,3.24-.86,3.24a27,27,0,0,0-1-4.1c-.65-1.84-1.23-2.26-1.69-2.08s-.76,1.05-.89,3.51a23.35,23.35,0,0,0,.11,3.52s-.92-1-1.94-2-1.6-1.22-1.92-1-.4,1.87,1.33,5a17.57,17.57,0,0,0,3.27,4.3S104.1,83.21,108.19,81.66Z" style="fill:#ebebeb"></path></g></g></g></g><g id="freepik--Furniture--inject-1"><g id="freepik--Drawer--inject-1"><polygon points="408.96 344.28 412.83 363.47 416.59 365.64 420.32 363.49 424.22 344.28 416.59 339.88 408.96 344.28" style="fill:#e0e0e0"></polygon><polygon points="408.96 344.28 412.83 363.47 416.59 365.64 420.32 363.49 424.22 344.28 416.59 339.88 408.96 344.28" style="opacity:0.05"></polygon><polygon points="416.59 365.64 416.59 348.69 408.96 344.28 412.83 363.47 416.59 365.64" style="fill:#ebebeb"></polygon><polygon points="408.96 344.28 411.46 356.68 416.59 359.64 421.7 356.69 424.22 344.28 416.59 339.88 408.96 344.28" style="opacity:0.05"></polygon><polygon points="442.51 324.92 446.37 344.11 450.13 346.28 453.86 344.13 457.76 324.92 450.13 320.51 442.51 324.92" style="fill:#e0e0e0"></polygon><polygon points="442.51 324.92 446.37 344.11 450.13 346.28 453.86 344.13 457.76 324.92 450.13 320.51 442.51 324.92" style="opacity:0.05"></polygon><polygon points="450.13 346.28 450.13 329.32 442.51 324.92 446.37 344.11 450.13 346.28" style="fill:#ebebeb"></polygon><polygon points="442.51 324.92 445 337.31 450.13 340.27 455.24 337.32 457.76 324.92 450.13 320.51 442.51 324.92" style="opacity:0.05"></polygon><polygon points="309.75 287 313.62 306.19 317.38 308.36 321.11 306.21 325 287 317.38 282.6 309.75 287" style="fill:#ebebeb"></polygon><polygon points="309.75 287 313.62 306.19 317.38 308.36 321.11 306.21 325 287 317.38 282.6 309.75 287" style="opacity:0.05"></polygon><polygon points="317.38 308.36 317.38 291.4 309.75 287 313.62 306.19 317.38 308.36" style="fill:#ebebeb"></polygon><polygon points="309.75 287 312.25 299.39 317.38 302.35 322.49 299.4 325 287 317.38 282.6 309.75 287" style="opacity:0.05"></polygon><g id="freepik--Cabinet--inject-1"><g id="freepik--cabinet--inject-1"><polygon points="416.59 356.54 458.16 332.54 458.16 242.58 416.59 266.58 416.59 356.54" style="fill:#e0e0e0"></polygon><polygon points="416.59 266.58 307.59 203.64 307.59 293.61 416.59 356.54 416.59 266.58" style="fill:#ebebeb"></polygon><polygon points="307.59 203.64 416.59 266.58 458.16 242.58 349.15 179.64 307.59 203.64" style="fill:#f5f5f5"></polygon><polygon points="410.66 311.14 313.53 255.06 313.53 288.08 312.44 288.71 409.56 344.79 410.66 344.16 410.66 311.14" style="fill:#e0e0e0"></polygon><polygon points="409.56 311.77 312.43 255.7 312.44 288.71 409.56 344.79 409.56 311.77" style="fill:#f5f5f5"></polygon><path d="M362.87,291.05l-8.08-4.66c-1.05-.61-1.9-.33-1.9.62a3.82,3.82,0,0,0,1.9,2.81l8.08,4.66c1.05.61,1.9.33,1.9-.62A3.82,3.82,0,0,0,362.87,291.05Z" style="fill:#e0e0e0"></path><polygon points="410.66 271.28 313.53 215.2 313.53 248.22 312.44 248.85 409.57 304.93 410.66 304.29 410.66 271.28" style="fill:#e0e0e0"></polygon><polygon points="409.56 271.91 312.44 215.83 312.44 248.85 409.57 304.93 409.56 271.91" style="fill:#f5f5f5"></polygon><path d="M362.87,251.19l-8.08-4.67c-1.05-.6-1.9-.33-1.9.62a3.78,3.78,0,0,0,1.9,2.81l8.08,4.67c1.05.6,1.9.33,1.9-.62A3.78,3.78,0,0,0,362.87,251.19Z" style="fill:#e0e0e0"></path></g></g><g id="freepik--pot--inject-1"><path d="M353.92,208.56c-4.59,2.65-4.59,7,0,9.61s12.05,2.66,16.65,0,4.6-7,0-9.61S358.52,205.9,353.92,208.56Z" style="fill:#e0e0e0"></path><path d="M369.58,214c4-4.09,6.36-14.3,2.45-17.54H352.15c-3.91,3.24-1.56,13.44,2.45,17.53l.11.12.14.13a3.73,3.73,0,0,0,.36.32l.09.08.31.23q.25.18.51.33a13.22,13.22,0,0,0,11.94,0h0c.17-.1.35-.21.52-.33l.28-.22.12-.09.35-.31.16-.16Z" style="fill:#ebebeb"></path><path d="M353.88,195.12c-4.54,2.62-4.54,6.86,0,9.48s11.89,2.62,16.42,0,4.54-6.86,0-9.48S358.41,192.5,353.88,195.12Z" style="fill:#fafafa"></path><path d="M357.09,197c-2.76,1.6-2.76,4.18,0,5.77a11,11,0,0,0,10,0c2.76-1.59,2.76-4.17,0-5.77A11.08,11.08,0,0,0,357.09,197Z" style="fill:#f5f5f5"></path><path d="M367.09,199.71a11.08,11.08,0,0,0-10,0,4.72,4.72,0,0,0-1.65,1.52,4.61,4.61,0,0,0,1.65,1.51,11,11,0,0,0,10,0,4.61,4.61,0,0,0,1.65-1.51A4.72,4.72,0,0,0,367.09,199.71Z" style="fill:#ebebeb"></path><path d="M357.7,201.23a22.62,22.62,0,0,1-3.61-4.81c-1.67-2.95-2-6.9-1.12-7.39s4.38,3.46,4.38,3.46a21.23,21.23,0,0,1-.37-5c.15-2.63.79-5,1.54-5.5s2.44,2.83,3.16,5.24,1.15,4.37,1.15,4.37a38,38,0,0,1,1.3-5.53c.87-2.49,1.67-3.06,2.29-2.81s1,1.41,1.2,4.73a32.25,32.25,0,0,1-.15,4.76s1.24-1.36,2.61-2.68,2.16-1.65,2.59-1.38.55,2.54-1.79,6.77a23.61,23.61,0,0,1-4.41,5.81S363.23,203.32,357.7,201.23Z" style="fill:#e0e0e0"></path></g><g id="freepik--picture--inject-1"><g id="freepik--frame--inject-1"><polygon points="418.2 251.5 416.73 252.22 389.25 236.61 390.72 235.89 418.2 251.5" style="fill:#fafafa"></polygon><polygon points="390.72 235.89 416.86 250.74 420.37 211.77 394.24 196.94 390.72 235.89" style="fill:#fff"></polygon><path d="M386.47,237.93,419,256.41l4.15-46L390.62,192Zm6.43-41.77,27.47,15.61-3.64,40.45-27.48-15.61Z" style="fill:#f0f0f0"></path><polygon points="389.25 236.61 390.72 235.89 394.24 196.94 392.9 196.16 389.25 236.61" style="fill:#e0e0e0"></polygon><polygon points="390.62 191.97 392.11 191.27 424.64 209.75 423.15 210.45 390.62 191.97" style="fill:#fafafa"></polygon><polygon points="424.64 209.75 423.15 210.45 419 256.41 420.5 255.71 424.64 209.75" style="fill:#e0e0e0"></polygon></g><g id="freepik--land--inject-1"><polygon points="391.86 235.14 415.96 248.83 416.55 242.27 411.95 223.03 407.74 229.63 408.66 235.17 401.42 214.77 392.45 228.58 391.86 235.14" style="fill:#f0f0f0"></polygon><path d="M412.26,214.91a3.36,3.36,0,0,1,1.61,3c-.1,1.07-1,1.48-2,.92a3.36,3.36,0,0,1-1.6-2.95C410.4,214.77,411.28,214.35,412.26,214.91Z" style="fill:#f0f0f0"></path></g></g></g></g><g id="freepik--character-3--inject-1"><g id="freepik--Character--inject-1"><g id="freepik--Bottom--inject-1"><g id="freepik--bottom--inject-1"><path d="M329.21,424.6c-.68-.14-.9,1.42-.56,2.21,1,2.29,2.7,4.62,7.58,6.2s14.39,1.19,17.38,1.41,7.44,2.49,10.35,3.26c5.29,1.4,9.17.43,11.14-1a3,3,0,0,0,1-2.26c.19-1.9.06-2.3-.17-2.31Z" style="fill:#37474f"></path><path d="M376.11,426.55a21.73,21.73,0,0,1-.41,6.87,5.71,5.71,0,0,1-4,2.19,22.52,22.52,0,0,1-10.88-1.14,30.66,30.66,0,0,0-7.56-1.65c-3.09-.19-9.94-.3-13-.61a16.28,16.28,0,0,1-7-2,10.18,10.18,0,0,1-4.09-5,7.35,7.35,0,0,1,3-6.82c2.23-1.28,4.73-1.4,7.4-1.31,1.34,0,3,.17,3.74.17,2.72,0,5.25.12,7.3.22a12.42,12.42,0,0,0,5.15-.45,3.3,3.3,0,0,0,1.85-1.24c.54-.82.74-1.36,1.58-1.34,0,0,14.87,4.06,16.09,4.31C376.69,419,375.52,420.8,376.11,426.55Z" style="fill:#455a64"></path><path d="M342.16,417a4.06,4.06,0,0,0-1.28,1.1,6.92,6.92,0,0,0-.91,1.55c-.29.69.65.94,1.12.16a9.25,9.25,0,0,1,1.35-1.82,2.43,2.43,0,0,1,1.43-.72h.78C344.51,416.71,342.8,416.69,342.16,417Z" style="fill:#fafafa"></path><path d="M349.11,417a2,2,0,0,0-1.48.25,3.39,3.39,0,0,0-1.27,1.36,12.68,12.68,0,0,0-.88,2c-.12.45,1,.57,1.25.08a16.88,16.88,0,0,1,.85-1.86c.17-.3.93-1.44,1.76-1.47l.37,0c0-.16-.2-.29-.35-.35Z" style="fill:#fafafa"></path><path d="M353.14,417.34a1.61,1.61,0,0,0-.95.38,3.85,3.85,0,0,0-.77,1,7.09,7.09,0,0,0-.65,2.23c-.09.59,1.09.56,1.19.17a5.56,5.56,0,0,1,1.15-2.89,3.12,3.12,0,0,1,1.13-.86c0-.11-.18-.14-.3-.14A7.22,7.22,0,0,0,353.14,417.34Z" style="fill:#fafafa"></path><path d="M377.7,404s-1.72,12.62-2.44,15.56c-.23.94-2.23,1.1-3.28,1.4a12.86,12.86,0,0,0-3.69,1.44c-2.86,2.06-4.86,2.4-5.86-1.87-.21-.87-.74-1.3-1.93-1.23a7.86,7.86,0,0,1-2.69.05c-.12-.1,0-.28.09-.39a3.92,3.92,0,0,0,1.35-3.13c.25-5.32,0-9.82.12-16.31Z" style="fill:#c8856a"></path><path d="M367,304.06s-3.23,4.8-5.22,21c-2.1,17-4.73,24.33-4.72,33.67,0,7.15.35,15.63.87,26.3.44,8.89.94,20.84.94,20.84s2.68,2.95,9.11,3.63c4.91.53,8.66-.4,9.85-1.13,0,0,1-3.52,2.8-9.79,2.52-8.92,3.36-12.9,3.83-17.48a49.66,49.66,0,0,0-.43-14.48s15.55-29.43,18.44-43.95c1.89-9.51-2.9-20.09-2.9-20.09Z" style="fill:#455a64"></path><path d="M361.71,325.71c-2.08,16.56-4.65,23.81-4.64,33,0,1.69,0,3.45.07,5.29,3.67,8,6.49,13.92,9.19,18,3.55,5.39,9.61,14.72,13.67,18.81l.64-2.28c2.52-8.92,3.36-12.9,3.83-17.48a49.66,49.66,0,0,0-.43-14.48l2.46-5Z" style="fill:#37474f"></path><path d="M393.81,339.79c1.2-9.67.58-14.19-1.26-16.91l-3.2,7.68-.68,26.67.08-.15c1.44-3,3.08-6.59,4.71-10.31C393.46,346.77,393.51,342.21,393.81,339.79Z" style="fill:#37474f"></path><path d="M416.19,413.31c-2.28-2.76-3.93-8.31-9.46-19.39L391,408.24l11.58,13.91a12.44,12.44,0,0,1,1,2.28C406,427.11,416.19,413.31,416.19,413.31Z" style="fill:#c8856a"></path><path d="M422.93,419a5.28,5.28,0,0,0-.38-2c-.47-1.14-1.78-1.64-2.84-2.2a19.88,19.88,0,0,1-3.82-2.48c-.48-.51-.59-.78-1.28-1a6.77,6.77,0,0,0-5.14,1.08c-3.5,2.1-4.4,4.34-4,6.64.35,1.76.74,4.11-.84,5.31-.66.5-2.07-2.24-2.07-2.24-.88,1.7-.42,2.26.68,5.47a12.47,12.47,0,0,1,.65,5.49c-.08,2.9-.51,2.93-2.14,3.27-1.41.3-5.48.4-7.77,2.19a5.27,5.27,0,0,0-1.62,6.1c.55,1.07,5.11,5.86,18.37,2.7a21.82,21.82,0,0,0,6.27-3.09,25,25,0,0,0,3.08-2.11,5.1,5.1,0,0,0,1.38-3.07,15.08,15.08,0,0,0,0-2.77,53,53,0,0,1,1.18-15.06A9.88,9.88,0,0,0,422.93,419Z" style="fill:#455a64"></path><path d="M424.48,418.39c1.44,1.07,1,2.77-.4,7.05-.6,1.9-1.83,5.05-1.57,8.68.23,3.38.43,5.61-.35,7.26-1.21,2.58-7.37,5.3-11.89,6.68,0,0,3.57-3.28,3.29-10.71s-.16-12.24,3.17-15.83C421,417,424.48,418.39,424.48,418.39Z" style="fill:#263238"></path><path d="M392.1,443.51s4.52,4.36,14.92,3.31c4.1-.41,5.9-3.73,5.42-9.48-.58-6.94-.64-10.72,1.44-14.36a10.83,10.83,0,0,1,8.8-5.66,2.93,2.93,0,0,1,1.8,1.07s-3.1-.65-7.41,3.33c-3.18,2.93-3.56,8.52-2.81,15.37.32,2.94.47,4.5-.24,6.81a6,6,0,0,1-4,4.26c-5.51,1.95-14.81-.07-17-2.11A2.74,2.74,0,0,1,392.1,443.51Z" style="fill:#37474f"></path><path d="M403.77,434.94a2,2,0,0,0-.73,1.22A3.28,3.28,0,0,0,405,439c.67.3,1.2.13.08-1A5.68,5.68,0,0,1,403.77,434.94Z" style="fill:#fafafa"></path><path d="M404,431.31s-.31.23-.29,1.2a4.72,4.72,0,0,0,2.23,2.92c1.15.4.44-.71-.1-1.24A7.67,7.67,0,0,1,404,431.31Z" style="fill:#fafafa"></path><path d="M403.19,427.39s-.34.12.17,1.41a4.62,4.62,0,0,0,2.46,1.64c.71,0,1-.34.1-.84C405.19,429.2,403.39,428,403.19,427.39Z" style="fill:#fafafa"></path><path d="M384.37,306c2,1.29,5.58,5.64,8,13.75.72,2.4,1.78,8.42,1,12.72-1.05,6.1-2.7,10.87-2,17,1.66,14.75,2.05,19.33,2.05,19.33,5.34,5.6,5.9,7.45,9.54,15.48,3.82,8.41,8.27,18.65,8.27,18.65-8,1-12.29,4.88-15,12.05,0,0-3.23-3.76-14.69-16.82-10.28-11.72-14.2-18.39-16.6-23.94-1.3-3-3.78-7.07-5.6-11.92-4.34-11.57-7.84-19.1-9.37-31-1.7-13.19-1.9-23.68-1.9-23.68Z" style="fill:#455a64"></path></g></g><g id="freepik--Top--inject-1"><g id="freepik--Arm--inject-1"><g id="freepik--arm--inject-1"><path d="M314.05,233c1,.12,1.22.39,1.22.39.25-.6,1.74-1.48,3.64-.3,0,0,.31-1.69,3.48-.24,3.58,1.64,6.33,4.7,7.89,6.34.62.6,1.53.82,1.16-.22-.49-1.39-1.38-2.72-1.35-4.24a2.54,2.54,0,0,1,.29-1.24,2,2,0,0,1,.95-.82c.85-.37,1.6.94,2,1.68,1.77,2.93,4.11,5,5,8.4.29,1.09.83,2.84,1.76,3.46,5.56,3.73,17.31,8.93,21.84,10.62,1.27.47,4.18-.4,5.55-.55q2.75-.33,5.49-.7c5.48-.74,14.05-4,18.56.29a13.63,13.63,0,0,1,4.23,8.35,5.74,5.74,0,0,1-1,4.36,6.09,6.09,0,0,1-1.11,1c-3.7,2.64-8,2.59-12.4,3.11-5.35.63-10.7,1.27-16,2-3.65.48-6.31-.25-11.31-3.38-8.23-5.14-10.06-7.44-17.85-13a28.91,28.91,0,0,0-8.33-4.48,9.13,9.13,0,0,1-3.37-2.05c-2.28-2.33-3.39-4.52-5.32-6.6a33.2,33.2,0,0,0-5-4.57c-1.42-1.25-1.6-2.16-1.08-3s2.56.35,2.56.35a9.32,9.32,0,0,1-2.34-2.47C312.7,234.22,313,232.88,314.05,233Z" style="fill:#c8856a"></path><path d="M316.46,242.7a22.68,22.68,0,0,0-2-1.67c-.94-.69-2-1.4-1.85-2.72a1.81,1.81,0,0,1,.36-.89,1,1,0,0,1,.94-.25,4.11,4.11,0,0,1,.73.19c-.31-.3-.62-.61-.89-.89a3,3,0,0,1-.95-2,2,2,0,0,1,.22-1.14,1.15,1.15,0,0,1,1.13-.53,5.94,5.94,0,0,1,1.09.3,1.63,1.63,0,0,1,1-.72,2.84,2.84,0,0,1,1.23,0,3.3,3.3,0,0,1,1.37.53,1.45,1.45,0,0,1,1.43-.69,5.6,5.6,0,0,1,1.68.36,15.57,15.57,0,0,1,3.63,2,39.72,39.72,0,0,1,4.81,4.72,46.16,46.16,0,0,0-4.93-4.56,15.29,15.29,0,0,0-3.59-2,5.25,5.25,0,0,0-1.6-.33,1.15,1.15,0,0,0-1.22.65h0a1.67,1.67,0,0,0,.68,1.64c.29.27,1.86,1.45,2.16,1.71a26.08,26.08,0,0,1,3.76,4,30.34,30.34,0,0,0-3.94-3.79c-.31-.25-1.84-1.41-2.15-1.68a1.94,1.94,0,0,1-.83-1.81,3,3,0,0,0-1.3-.48,2.4,2.4,0,0,0-1.1.06,1.3,1.3,0,0,0-.82.58h0a1.19,1.19,0,0,0,.28,1.2,5.15,5.15,0,0,0,1,1,20.47,20.47,0,0,1,2.33,1.84,26,26,0,0,1,2.11,2.09l1.92,2.26-2-2.19a27.59,27.59,0,0,0-2.16-2,21.63,21.63,0,0,0-2.37-1.75,5.68,5.68,0,0,1-1.13-1,1.67,1.67,0,0,1-.42-1.23,4.94,4.94,0,0,0-1-.29c-.67-.17-1,.61-1,1.27a2.59,2.59,0,0,0,.83,1.78c.48.49,1.06,1,1.66,1.56,1,1,1.25,1.15,2.18,2.18s1.86,2.07,2.7,3.19c-.88-1.08-1.86-2.07-2.83-3.06s-1.2-1.17-2.24-2.08a4.86,4.86,0,0,0-1.57-.6.77.77,0,0,0-.72.16,1.68,1.68,0,0,0-.31.75c-.15,1.15.82,1.83,1.73,2.51a16.14,16.14,0,0,1,2,1.75,33.55,33.55,0,0,1,2.51,2.55A35.36,35.36,0,0,0,316.46,242.7Z" style="fill:#af6152"></path><path d="M333,250c-2.65-.72-4.16-4.48-4.34-7.22C328.05,246.14,329,249.42,333,250Z" style="fill:#af6152"></path></g><path d="M389.14,251.52c7-1,10.28,3.95,11.54,7.39s1.18,10-1,17.48Z" style="fill:#455a64"></path></g><path d="M361.55,224.52a21.23,21.23,0,0,0-6.1,5.43c.28,1,4.25,3.23,4.25,3.23Z" style="fill:#af6152"></path><path d="M374.37,214c-6-1.17-10.26-.31-13,5.41-.86,1.79.16,5-1.36,7.33-5.59,8.52-2.47,16.51-1.14,18.56,2,3.08,7.67,3.83,11.18,3.71,4.39-.15,14.61.23,20.86-6.81,5.89-6.64,9-15.46,4.2-20.51C388.34,214.55,377.73,214.61,374.37,214Z" style="fill:#c8856a"></path><path d="M367.53,248.92l-.23-2.37s-1.36.06-4.48-.11a5.84,5.84,0,0,1-4.34-1.83c.13.25.26.49.37.66C360.42,247.69,364.26,248.67,367.53,248.92Z" style="fill:#af6152"></path><polygon points="367.3 246.54 369.01 263.82 386.71 262.04 384.97 249.66 367.3 246.54" style="fill:#c8856a"></polygon><path d="M366.27,218.63c-.35,0-1.32,1.86-.08,3.49a3.42,3.42,0,0,0,3.56.93,8.32,8.32,0,0,0-1.65,4.73c.17,1.26.9,2,2.22,2.87,0,0,2.11-4.12,6.05-2.72s3.58,6.26.44,8.6-5.32.73-5.32.73.57,7.3,2.91,11.48a26.3,26.3,0,0,0,10.57.92,90.17,90.17,0,0,0,9.2-8.88c7.18-8.48,9.06-17.79,4.76-20.71,1.45-3.77.65-7.25-2.65-10.23a10.37,10.37,0,0,0-9.6-2.18c-.23.07-.81-2-.88-2.11a6.7,6.7,0,0,0-2.18-2.5,11.52,11.52,0,0,0-9.82-1.3,6,6,0,0,0-3.64,3.45c.13-.38-2.86-.95-3.12-1a4.77,4.77,0,0,0-2.43,0,7.57,7.57,0,0,0-4.35,3A7.9,7.9,0,0,0,359,212a7,7,0,0,0,.56,2.51C359.88,215.33,361.83,218.16,366.27,218.63Z" style="fill:#263238"></path><path d="M391.26,251.8c3.6.87,9.46,7.76,8.23,29.67-1,17.25.94,16.16,3.43,31.08-1.9,8.52-19.63,15.73-28.08,17-13.06,2-23.51,1.21-25.55-1.1-2.65-27.22-2.69-48.68-1.49-54.24a87.75,87.75,0,0,1,3.93-12.2,77.57,77.57,0,0,1,10.36-4.95C373.33,253,385.06,250.54,391.26,251.8Z" style="fill:#37474f"></path><path d="M273.11,254.09a9.77,9.77,0,0,1,3.17,1.61s-1.81-1.69-1.11-2.46,1.65-.87,3.33.18a35,35,0,0,0,6.08,3.61c.9.45,1.85.74,2.77,1.12a18.6,18.6,0,0,0,3,1.13c.19.05.43.08.55-.08.36-.42-1.16-2-1.4-2.37a6.3,6.3,0,0,1-1.19-2.89,2.86,2.86,0,0,1,.16-1.33,2.06,2.06,0,0,1,.91-1c.84-.48,1.76.81,2.31,1.52,2.16,2.86,4.83,4.78,6.15,8.2a8.34,8.34,0,0,0,3.13,3.19c6.21,3.26,20.46,9.22,20.46,9.22s12.3-5.4,23.6-9.76c3.63-1.4,9.2-3.24,11.88-3.47,4,6.71.28,20.05-8.94,23.25-5.84,2-11.71,4.4-20.87,6.61-3.75.91-6.8,1.59-11.8-1.28-8.81-5.06-10.08-6.09-18.14-11.33a27.06,27.06,0,0,0-7.73-3.37,34.48,34.48,0,0,1-16.16-10.35c-2.41-2.74-1-3.53-1-3.53-1.75-1.56-1.1-3.34-.57-3.78a11.63,11.63,0,0,1-.76-1.1C270.42,254.67,271.7,254,273.11,254.09Z" style="fill:#c8856a"></path><path d="M276.37,255.79a22.21,22.21,0,0,0,8.3,5.94C281.8,259.86,279.05,257.92,276.37,255.79Zm-4.73,1c3.26,3.82,7.26,7.4,12.09,9C279.15,263.59,275.38,260.16,271.64,256.77Zm9.56,11.07a45.64,45.64,0,0,1-9-7.29A20.46,20.46,0,0,0,281.2,267.84Z" style="fill:#af6152"></path><path d="M359.45,258.14a109,109,0,0,0-19,7.07c-6.61,3.26-11.08,5.13-11.08,5.13a20,20,0,0,0,0,10,18.5,18.5,0,0,0,5.33,8.34s8.29-2.58,9.74-2.93,2.37,1.48,2.37,1.48,3.64.91,7.94-4.6S363.17,264.82,359.45,258.14Z" style="fill:#455a64"></path></g></g></g><g id="freepik--character-2--inject-1"><g id="freepik--character--inject-1"><g id="freepik--bottom--inject-1"><path d="M81.37,378c1.37-14.51.23-20.62,1.91-43.28h0c.22-5.81.56-12,1.07-17.56,1.7-18.59,4.78-24.9,5.12-28.49,0,0,.14-22.32,2.18-63,.95-19.15,6.78-24.86,11.54-35l57.57,1c2.86,25.38,2.35,72.41,1.67,98.27-.35,13.19-7,78.65-7.15,80.27-.5,5.75,0,8,2.25,10.49,4.76,5.15,11.71,10.1,17.72,14.63-.93,2.25-8.25,2-11.84.25A92.94,92.94,0,0,1,150.05,387c-4.93-3.69-11.27-6.69-11.25-12.17a5.5,5.5,0,0,0-.15-1c0-3.2-7-45.54-7.4-56.5-.36-9.42,1.12-25.38,1.12-25.38l-4.91-32.5s-3.38,16.87-7.59,32.9c-3.42,13.05-9.41,30.26-13.29,46.32h0c-3.79,18.52-9.08,31.65-10.13,40.93-.3,2.22-3.31,24-4.47,28.94s-12.36,4.91-12.91-3.69C78.7,399.11,81.11,380.7,81.37,378Z" style="fill:#ffbda7"></path><path d="M185.5,401.29c.31,0,.75,3.32-.95,4.72-2,1.62-7.67,4.25-15.2,3.25s-11.58-3.29-14.58-5.76-7.19-6-10.59-6.72c-3.16-.7-6.58-2.12-7.59-3.08s-.83-5.18-.83-5.18Z" style="fill:#263238"></path><path d="M138.52,372.26s-.57,0-.77,1c-.24,1.16-.52,4.55-1,6.46-.72,2.65-1.22,8.1-.83,10.27s5.55,3.71,8.84,4.95a42.17,42.17,0,0,1,10.62,6.63c3.52,2.86,10.94,5.76,15.85,5.86,7.49.16,12.36-1.78,13.88-4.39,1.88-3.22.45-5.11-8.13-9-1.63-.75-7.33-4.08-9.27-5.29a44.56,44.56,0,0,1-5.83-4.28,32.92,32.92,0,0,1-2.6-2.55,11.45,11.45,0,0,1-2.16-2.72c-.1-.22-.16-.48-.25-.71a11.52,11.52,0,0,1-.54-2c-.14-.69-.22-1.71-.89-2.13a5.84,5.84,0,0,0-3.08-.38,24.73,24.73,0,0,0-3.32.44c-1.27.26-2.74.36-3.5,1.52a6,6,0,0,0-.74,3c0,.49,0,1,0,1.47,0,.21.09.59-.21.5s-.6-.82-.71-1.07c-.23-.55-.38-1.13-.64-1.67a8.59,8.59,0,0,0-1.05-1.78,8.68,8.68,0,0,0-1.35-1.36,15.38,15.38,0,0,1-1.47-.94A3.39,3.39,0,0,1,138.52,372.26Z" style="fill:#37474f"></path><path d="M178.33,394.63c-10.86.65-14.33,7.14-14.82,11.17a26.12,26.12,0,0,0,7.69,1.62c7.49.16,12.67-1.77,14.19-4.38C187.17,400,186,397.52,178.33,394.63Z" style="fill:#fafafa"></path><path d="M162.06,394.62a.54.54,0,0,1-.33-.12.49.49,0,0,1-.07-.72,12.93,12.93,0,0,1,9.84-3.69.52.52,0,0,1,.47.57.53.53,0,0,1-.59.45,12,12,0,0,0-8.91,3.33A.52.52,0,0,1,162.06,394.62Z" style="fill:#f0f0f0"></path><path d="M157.41,391.94a.52.52,0,0,1-.33-.12.49.49,0,0,1-.07-.72,12.9,12.9,0,0,1,9.84-3.69.52.52,0,0,1,.47.57.53.53,0,0,1-.59.45,12,12,0,0,0-8.91,3.33A.52.52,0,0,1,157.41,391.94Z" style="fill:#f0f0f0"></path><path d="M153.11,388.89a.54.54,0,0,1-.34-.12.51.51,0,0,1-.07-.72,13,13,0,0,1,9.85-3.7.52.52,0,1,1-.13,1,12,12,0,0,0-8.9,3.32A.53.53,0,0,1,153.11,388.89Z" style="fill:#f0f0f0"></path><path d="M148.89,385.84a.54.54,0,0,1-.33-.12.5.5,0,0,1-.08-.72c2.1-2.54,6.81-4.18,10.75-3.74a.51.51,0,0,1,.46.57.52.52,0,0,1-.58.45c-3.55-.39-7.94,1.12-9.8,3.37A.57.57,0,0,1,148.89,385.84Z" style="fill:#f0f0f0"></path><path d="M95.41,412.47c-.39,5-1.25,8.25-3.12,11.14s-5.31,3.74-8.77,2.82-7.85-3.27-8.76-7.58-1.43-7.26-.56-11.86Z" style="fill:#263238"></path><path d="M81.53,376.19c-1.43.09-2,6.76-2.94,13.43-1,7.16-3.28,10.08-4.18,15.95-1,6.69,0,9.71,2.4,13.82s10.83,8.23,15.16,2.49c3.54-4.68,3.78-9.94,3.59-16.65a145.84,145.84,0,0,1,.79-17c.38-5,1.62-10.07.39-10.65-.11.73-.22,1.67-.34,2.39a11.46,11.46,0,0,1-.51,2.67c-.15.38-.48.76-.6.15a3.75,3.75,0,0,1,0-1.25c.24-1.85-.71-2-1.23-2.17a65.05,65.05,0,0,0-6.61-1c-1.09-.09-4.86-.31-5.36.28a4.11,4.11,0,0,0-.52,1.94c-.14,1-.39,1.74-.42,1.42-.05-.72.13-2.6.16-3.05s.11-1,.12-1.47S81.49,376.62,81.53,376.19Z" style="fill:#37474f"></path><path d="M73.94,409.45a16.38,16.38,0,0,0,2.47,10.25c2.35,4.1,11.53,8.26,15.86,2.52,2.16-2.86,2.79-6.27,3.14-9.76C93,407.94,78,405.7,73.94,409.45Z" style="fill:#fafafa"></path><path d="M92.44,405.11a.61.61,0,0,1-.18-.05c-.06,0-6.62-2.8-13.08-1.47a.53.53,0,0,1-.63-.39.51.51,0,0,1,.41-.61c6.84-1.41,13.53,1.43,13.78,1.55a.5.5,0,0,1,.23.69A.53.53,0,0,1,92.44,405.11Z" style="fill:#f0f0f0"></path><path d="M79.59,398.6a.54.54,0,0,1-.44-.36.52.52,0,0,1,.34-.65c6.45-2,13.5,1.29,13.77,1.43a.52.52,0,0,1,.21.7.55.55,0,0,1-.72.21c-.06,0-6.93-3.22-12.93-1.36A.61.61,0,0,1,79.59,398.6Z" style="fill:#f0f0f0"></path><path d="M79.91,393.88a.51.51,0,0,1-.11-1c7.1-2.33,13.78,1.25,14,1.4A.5.5,0,0,1,94,395a.54.54,0,0,1-.73.16c-.05,0-6.51-3.46-13.12-1.29A.6.6,0,0,1,79.91,393.88Z" style="fill:#f0f0f0"></path><path d="M80.35,389.24a.53.53,0,0,1-.44-.34.52.52,0,0,1,.33-.66c6.65-2.29,13.84,1.39,14.11,1.55a.5.5,0,0,1,.18.7.52.52,0,0,1-.72.18c-.07,0-7-3.58-13.22-1.46A.5.5,0,0,1,80.35,389.24Z" style="fill:#ebebeb"></path><path d="M99.16,190.76c-6.65,11.28-9,20.56-10.33,54.42s-.45,36.72-.67,40.8-2.8,11.34-5.33,31.43a203.3,203.3,0,0,0-.79,39s1.42,3.26,9.32,4.09c7.29.76,11-1.84,11-1.84s11.09-34,14.09-46,10.9-45.15,10.9-45.15l3.58,24.92s-2.44,11.06-.56,28.75a257.83,257.83,0,0,0,5,30.56A35.74,35.74,0,0,0,147.15,354a19.83,19.83,0,0,0,10.23-2.61s6.69-47.12,7.08-67.12-.88-68.17-2.4-92.21Z" style="fill:#37474f"></path><path d="M83.38,357.93a10,10,0,0,0,1.07.7C83,327,87.76,313.94,90.69,301.88c.29-1.16.55-2.26.8-3.31,2.22-9.42,1.51-15.08,1.78-30.63.08-4.68.16-9.52.3-14.66.17-6,.48-12.23,1.1-18.38,11.37-1.12,14-12,17.4-25.66q.69-2.81,1.45-5.79l-1-.24c-.51,2-1,3.93-1.45,5.8-3.37,13.72-5.85,23.69-16.29,24.85,1.5-14,4.73-27.47,12-37.14l-.84-.59c-10.77,14.39-12.81,37-13.38,57.13-.14,5.14-.23,10-.31,14.66-.26,15.5.45,21.11-1.75,30.43-.24,1-.51,2.14-.79,3.3C86.77,313.67,82.07,326.59,83.38,357.93Zm51.18-125.64-7.25,35.24,3.58,24.92.54-23.92,4.88-23.77c.12,2.37.25,4.8.37,7.29,1,20.47,1.66,36.18.46,41-3.27,13.32-2.55,21.77-1.23,37.11.13,1.56.27,3.18.41,4.89.72,8.67,1.71,12.18,2.27,17.77l1.06.26c-.55-5.57-1.56-9.26-2.3-18.11-.14-1.71-.28-3.34-.41-4.9-1.31-15.23-2-23.63,1.21-36.79,1.23-5,.66-19.78-.43-41.33-.2-3.9-.4-7.69-.57-11.29l1-4.29c5-1.07,13-4.62,14.59-11.25C145,232.8,134.56,232.29,134.56,232.29Z" style="fill:#263238"></path></g><g id="freepik--top--inject-1"><path d="M199.83,150c.92-.52,8.88-5.85,12.8-8A48,48,0,0,1,232,137l3.19-.13c.52,0,1-.07,1.55-.09.79,0,1,0,1.16.43a1.85,1.85,0,0,1,0,1.27c-.42,1.38-2.46,2.23-3.83,2.65s-3,.71-4.4,1.08c-1.07.28-.08,1.07.44,1.37,2.56,1.49,8.39,1.88,11.29,1.84a37.57,37.57,0,0,1,5.71-.16,5.81,5.81,0,0,1,3.22,1.37c.59.55.94,1.25.19,1.92a4.1,4.1,0,0,1-1.72.7c-1.24.33-2.35.64-3,1.82a9.8,9.8,0,0,1-1.34,2.2c-.77.77-1.93,1-2.78,1.72s-1.07,1.54-1.73,2.19a8.19,8.19,0,0,1-3.1,1.28,26.22,26.22,0,0,1-6.82,1.06,28.78,28.78,0,0,1-7.86-.55c-1.89-.35-4.29-1.39-7,.34-1.36.87-4.58,3.39-7,5.42C202.57,161.81,199.07,157.13,199.83,150Z" style="fill:#ffbda7"></path><path d="M227,145.94c-2.65,2.41-7.43,4.22-9.69,4.29,0,0,3,1.21,5.51.06A7.38,7.38,0,0,0,227,145.94Z" style="fill:#f0997a"></path><path d="M154.42,120c4.43,1.08,7,1.18,14,12.17,5.78,9.1,16.21,25.64,16.21,25.64l17.26-9.46s.14,10.93,8.44,14.86a190.77,190.77,0,0,1-15.83,14.08c-8.4,6.58-11.34,8.3-15.09,7.89-4.57-.51-26-27.09-26-27.09Z" style="fill:#37474f"></path><g id="freepik--top--inject-1"><path id="freepik--Chest--inject-1" d="M116.9,116.34l-18.61,3s-4.59,12.14-4.67,41c0,4.27,1.43,17.83,1.33,26.7-.06,5-1.9,12.84-3.07,20.84,0,0,11.87,10.6,41.08,10.15,22.94-.35,30.21-9.9,30.21-9.9s.06-32,.47-48.91c.55-22.16-4.52-35-9.22-39.16l-14.84-3.4Z" style="fill:#455a64"></path><g id="freepik--Head--inject-1"><path d="M111.26,90.75a46.58,46.58,0,0,0,4.15,13.17,5.66,5.66,0,0,0,3,3l.7-8.79.32-6.14s5.4-4,6.29-8.3a17.35,17.35,0,0,0,.31-4.91l29.24,5s3.49-7.1.22-13.34c-3.12-6-8.25-10.13-18.18-10.65-12.13-.63-19,4.59-20.37,9.43h0a8.58,8.58,0,0,0-5,3.83C110.59,75.12,109.35,79,111.26,90.75Z" style="fill:#263238"></path><path d="M110.83,99.81c4.31,2.69,6.76-.69,6.76-.69l-2,18.11c7.48,12.6,32,10.88,23.39,1.13l.42-4.13a26.2,26.2,0,0,0,4,0c4.08-.21,7.18-2.57,8.83-6.8,2.45-6.26,3.39-20.27,3.13-28a8,8,0,0,0-3.15-6c-4.57-2.89-9.4.08-16.4,2-2.9.79-9.7.55-11.4-.47,2.08,2.84,1.19,11-2.62,14a7.44,7.44,0,0,1-2,2.07c-1.6,1.13-2.46-2.3-3.56-3.73a5.09,5.09,0,0,0-8.07,1A8.3,8.3,0,0,0,110.83,99.81Z" style="fill:#ffbda7"></path><path d="M139.36,114.23c-5.27-.59-9.89-1.73-12.86-3.38s-5.29-6.14-5.75-10.41c-.36,3.36.49,9.48,4.94,12.45s9.94,3.69,13.39,4.13Z" style="fill:#f0997a"></path><path d="M137,82.56l-4.6,1.58A2.55,2.55,0,0,1,134,81,2.38,2.38,0,0,1,137,82.56Z" style="fill:#263238"></path><path d="M152.6,85.42l-4.42-2.12a2.35,2.35,0,0,1,3.19-1.21A2.58,2.58,0,0,1,152.6,85.42Z" style="fill:#263238"></path><path d="M133.34,87.92a2,2,0,1,0,2-1.92A2,2,0,0,0,133.34,87.92Z" style="fill:#263238"></path><path d="M148,89.17a2,2,0,1,0,2-1.91A2,2,0,0,0,148,89.17Z" style="fill:#263238"></path><path d="M141.74,86l-.48,12.64,7.48-1.53A29.7,29.7,0,0,0,141.74,86Z" style="fill:#f0997a"></path><path d="M135.34,100.36l5,2a2.68,2.68,0,0,1-3.5,1.59A2.84,2.84,0,0,1,135.34,100.36Z" style="fill:#b16668"></path><path d="M135.82,101.32a3,3,0,0,0-.65-.1,2.81,2.81,0,0,0,1.7,2.78,2.57,2.57,0,0,0,.85.17A2.49,2.49,0,0,0,135.82,101.32Z" style="fill:#f28f8f"></path></g></g><path d="M125.37,238.07c-.29-1.33-2.37-3.55-2.37-3.55s2.27,1.92,3.1,1,.79-2.1-.7-4a41.29,41.29,0,0,1-5.18-6.72c-.66-1-1.15-2.1-1.73-3.15a23.45,23.45,0,0,1-1.78-3.36c-.08-.23-.15-.51,0-.68.46-.49,2.57,1.1,3,1.34a7.57,7.57,0,0,0,3.62,1,3.37,3.37,0,0,0,1.56-.39,2.41,2.41,0,0,0,1-1.21c.46-1.07-1.21-2-2.14-2.54-3.72-2.17-6.4-5.08-10.66-6.16-1.36-.34-3.57-1-4.37-2.15C104,200.59,93,177.07,90.8,171.4l7.75-23.7s3.19-20-.79-27.69C80.28,121.61,77,143.87,70,167.8c-1.3,4.44-1.65,9,2.37,15.25,6.6,10.27,14.24,20.08,21.33,29.78a40.43,40.43,0,0,1,5.12,8.75,41.56,41.56,0,0,0,14.67,17.79c3.61,2.47,4.36.7,4.36.7,2.1,1.87,4.14.84,4.58.15a13.19,13.19,0,0,0,1.43.74C125.07,241.37,125.74,239.74,125.37,238.07Z" style="fill:#ffbda7"></path><path d="M114.6,225.38a26.67,26.67,0,0,0,8.27,9.05C120,231.54,117.24,228.54,114.6,225.38Zm-4.72,1.71c2.64,5.53,7.48,9.78,12.5,13.13C117.81,236.24,113.17,232.23,109.88,227.09Zm7.92,13a54.83,54.83,0,0,1-10-9.68A24.57,24.57,0,0,0,117.8,240.07Z" style="fill:#f0997a"></path><path d="M98.29,119.3c-10.86,2.31-14.82,2.31-20.31,17.93-4.56,13-9.42,28.67-9.79,32.18-.76,7.13-.12,7.56,2.11,11.62,3.62,6.58,19.07,26.08,19.07,26.08s.86-3,6.21-5.88,8.93-1.91,8.93-1.91L91.18,171.64s6-16.13,8.13-23.28C101.48,139,101.48,124.11,98.29,119.3Z" style="fill:#37474f"></path></g></g></g><g id="freepik--character-1--inject-1"><g id="freepik--character--inject-1"><g id="freepik--bottom--inject-1"><path d="M179.8,333.57s-4.75.78-7.47,4.23-8.75,13.81-9.93,15a8.5,8.5,0,0,0,2.69,2.83l3.23-3.65c.79-.65,1.13-1.38,1.1.77s-.35,4.36-.29,7.55c0,2.53-.49,7.33,3.86,12.18,4.06,4.54,8.42,6.72,11.45,7.15,1.8.25,5-.17,4.78-3.77-.11-1.91-1-8.19-1.28-11.67S179.8,333.57,179.8,333.57Z" style="fill:#263238"></path><path d="M175.32,353.38c.15,2.15-.29,8.54,6.66,14.33,3.41,2.84,6,2.22,6-1,0-5.22-.64-14.78,5.33-24.55,2-3.34,7.77-10,14.85-18.2v.19c6.59-7.66,14.14-16.5,21-25.19a3.92,3.92,0,0,1,.25-.32l.17-.22c7.13-9,13.51-17.88,17.25-25.24.19-.36.37-.72.54-1.07a.47.47,0,0,0,.05-.1h0c1.88-3.88,2.9-7.19,2.73-9.69l-16.8.31-12.76-8.5a123.45,123.45,0,0,1-8.93,20.09c-3.18,5.91-13.43,17.5-19.59,33.22-4.79,12.21-8.63,20.14-9.55,21.65s-2.83,4.74-3.44,5.51C175.54,339,174.57,342.23,175.32,353.38Z" style="fill:#ffbda7"></path><path d="M220.94,262.82l29.19-.54a8.5,8.5,0,0,1,0,1,2.45,2.45,0,0,1,0,.38,5.38,5.38,0,0,1-.07.69c0,.17-.06.35-.09.53s-.07.41-.12.62-.11.42-.16.64-.1.38-.16.57a.84.84,0,0,1-.05.17c-.12.09-7.39,5.06-21,7.38,0,0-.43,21.79-4,30.58l0,0,0,0c-1.34,1.65-2.7,3.29-4,4.92C219.7,296.73,220.94,262.82,220.94,262.82Z" style="fill:#f0997a"></path><path d="M200.49,356.89a14.51,14.51,0,0,0-4,8.19c-.41,4.71.15,17.6-.22,19.34a8.13,8.13,0,0,0,3.8,1l.72-5.18c.32-1.07.21-1.92,1.35,0s2.07,4.15,3.85,7c1.41,2.26,3.58,6.91,9.86,8.76,5.88,1.73,10.72,1.15,13.49-.24,1.66-.83,4.1-3.07,2-6.2-1.12-1.67-5.26-6.84-7.41-9.81S200.49,356.89,200.49,356.89Z" style="fill:#263238"></path><path d="M216.45,356.73c-.29-12.32,11.31-68.68,8.18-95.16l-33.09-.4A143.54,143.54,0,0,1,195,284.56c.54,7.2-1.77,23.68,1.6,41.49,2.61,13.84,3.69,23.27,3.73,25.17s.2,5.94.11,7c-.53,6.09.4,9.56,7.09,19.21,1.29,1.86,4.39,7.89,13.37,9.06,4.4.57,6.2-1.48,4.45-4.44C222.51,377.31,216.74,369.06,216.45,356.73Z" style="fill:#ffbda7"></path><path d="M195,284.56c.07,2.8-.1,5.59-.25,8.38s-.26,5.59-.34,8.39a132.92,132.92,0,0,0,.61,16.81c.29,2.79.75,5.56,1.25,8.32l1.53,8.22c.49,2.74,1,5.49,1.39,8.24s.88,5.52,1.14,8.3a160.71,160.71,0,0,0-1.89-16.67c-.81-5.54-2.08-11-2.58-16.51-.33-2.77-.5-5.55-.64-8.33s-.13-5.58-.16-8.37.06-5.59.11-8.38S195.22,287.35,195,284.56Z" style="fill:#f0997a"></path><path d="M225.11,276.31a104.85,104.85,0,0,0-.48-14.74l-33.09-.4a106.54,106.54,0,0,1,2.12,11.13h0S206.38,278.71,225.11,276.31Z" style="fill:#f0997a"></path><path d="M249.53,207.74A194.46,194.46,0,0,0,246,185.11c-1.32-5.71-2.55-10.66-3.42-15-9.63,6.41-33.53,7-44.54-.22-1.84,2.88-7.31,10.08-11.64,20.31-3.78,8.94-5.33,14.53-5.16,25.63.16,10.16,4.71,40,8.84,52.8,11.18,6.2,51.22,3.69,62.31-7.42C252.34,261.17,250.86,218.26,249.53,207.74Z" style="fill:#455a64"></path></g><g id="freepik--top--inject-1"><g id="freepik--arm--inject-1"><g id="freepik--arm--inject-1"><path d="M333,190.62c-.92-.85-1.3-.8-1.3-.8.35-.7,0-2.73-2.55-3.54,0,0,1.3-1.6-2.47-3.34-4.27-2-9.18-2.12-11.87-2.26-1-.1-1.93-.75-.7-1.22,1.64-.64,3.54-.86,4.9-2.06a3.26,3.26,0,0,0,.9-1.22,2.27,2.27,0,0,0,0-1.5c-.32-1.06-2.09-.72-3.1-.55-4,.66-7.75.16-11.51,2-1.2.57-3.21,1.44-4.5,1.08-7.69-2.16-27.19-10.72-32.23-13.53-7.3-10.13-11-19.89-15.86-29.14-4.14-7.83-8.91-9.94-13-11.18l-5.81,27.12s10.33,15.36,16,24c2.39,3.68,5.12,5.54,11.83,7.66,11,3.48,20.23,5.29,31.28,8.07,6.84,1.73,8.83,3.21,10.51,4.1a10.82,10.82,0,0,0,4.48,1.47c3.88.27,6.73-.42,10.11-.28a39.19,39.19,0,0,1,8,1c2.24.32,3.2-.21,3.57-1.34s-2.3-2.06-2.3-2.06,2.82.62,4.05.22C332.9,192.79,333.88,191.48,333,190.62Z" style="fill:#ffbda7"></path><path d="M322.3,196a24.44,24.44,0,0,1,3.06.52c1.35.32,2.82.73,3.9-.43a2.06,2.06,0,0,0,.53-1,1.25,1.25,0,0,0-.5-1.06,4.64,4.64,0,0,0-.74-.51l1.5.12a3.52,3.52,0,0,0,2.52-.67,2.24,2.24,0,0,0,.86-1.07,1.35,1.35,0,0,0-.39-1.44,6.25,6.25,0,0,0-1.11-.76,1.93,1.93,0,0,0-.12-1.46,3.36,3.36,0,0,0-.91-1.16,4.11,4.11,0,0,0-1.54-.84,1.74,1.74,0,0,0-.48-1.83,6.7,6.7,0,0,0-1.63-1.24,18.22,18.22,0,0,0-4.65-1.72,47,47,0,0,0-8-.72,55.76,55.76,0,0,1,8,1,18.27,18.27,0,0,1,4.55,1.73,6.6,6.6,0,0,1,1.54,1.21,1.36,1.36,0,0,1,.36,1.6h0a2,2,0,0,1-2,.66c-.46-.06-2.74-.57-3.21-.64a30.88,30.88,0,0,0-6.52-.34,35.79,35.79,0,0,1,6.5.65c.46.08,2.7.57,3.18.65a2.3,2.3,0,0,0,2.28-.66,3.88,3.88,0,0,1,1.46.82,3,3,0,0,1,.79,1,1.52,1.52,0,0,1,.1,1.19h0a1.42,1.42,0,0,1-1.31.67,5.88,5.88,0,0,1-1.71-.17,26.65,26.65,0,0,0-3.47-.7,32.08,32.08,0,0,0-3.53-.28H318l3.54.1a31.75,31.75,0,0,1,3.5.39,24,24,0,0,1,3.43.8,6.74,6.74,0,0,0,1.8.24,2,2,0,0,0,1.44-.57,5.92,5.92,0,0,1,1.05.7c.67.48.25,1.41-.42,1.85a3.13,3.13,0,0,1-2.26.62c-.82,0-1.76-.16-2.7-.29a34.91,34.91,0,0,0-3.67-.3c-1.66-.05-3.32-.09-5,0,1.66,0,3.32.08,5,.19s2,.19,3.61.43a6.18,6.18,0,0,1,1.77,1,.93.93,0,0,1,.41.78,1.91,1.91,0,0,1-.44.86c-.92,1-2.3.68-3.62.38a18.81,18.81,0,0,0-3.1-.43,40.66,40.66,0,0,0-4.26-.3A40.37,40.37,0,0,1,322.3,196Z" style="fill:#f0997a"></path><path d="M302.84,186.58c2.71,1.85,7.29.3,9.92-1.65C310.2,188.09,306.52,189.8,302.84,186.58Z" style="fill:#f0997a"></path></g><path d="M239.45,122.81c11.86,2.79,13.54,7.77,17.45,15.62s11.54,24.29,11.54,24.29l12,6.53a15,15,0,0,0-5.93,7.21,27.48,27.48,0,0,0-1.26,9.35s-11.82-2.49-15.84-4.34-6.2-3.45-9.62-8.73-14.4-22.33-14.4-22.33Z" style="fill:#e0e0e0"></path></g><path d="M241,114.92a4,4,0,0,1,.38,2.8,10.05,10.05,0,0,0,8-9.39c.07-3.54-1.76-6.82-2.41-10.3a12.21,12.21,0,0,1,1.45-8.89c1.53-2.93,4.13-5.87,3.25-9.42-1.5-6-7.29-10.4-12.65-12.89a30.79,30.79,0,0,0-11-2.51c-6.87-.28-16.33,2-19.12,8.86a9.07,9.07,0,0,0-5,2.48c-3.59,3.14-3.84,7.49-4.19,10.18-.46,3.49-.44,5-1,8.49a29.18,29.18,0,0,1-1.71,5.23c-.66,2-1.94,3.85-2.48,5.92-1.54,5.87,3.25,10.53,8.79,11.29A7.65,7.65,0,0,1,202,113c.19,1,1.44,2.3,2.18,3a12.61,12.61,0,0,0,3.23,2,32.06,32.06,0,0,0,12.89,3.37c5.9.46,8.64.29,12.76-.61a18,18,0,0,0,5.17-2A6.08,6.08,0,0,0,241,114.92Z" style="fill:#263238"></path><g id="freepik--chest--inject-1"><path d="M230.89,121.23s-17.08-1-23.25.44-11.41,2.77-11.41,2.77c-2.19,2.35-6.77,11.68-8.06,21.24-.64,4.66,5.09,18.69,4.94,24.13-.14,4.66-4.32,14.66-7.61,21.64,11.42,19.77,55.31,18.8,62.08,1.86l-2.17-16.77s2-13.95,2.46-17.32c0,0,6-4.89,6.14-11.89.08-6.36-2.42-10.8-8.13-18.08a51,51,0,0,0-6.46-6.42S233.73,121.69,230.89,121.23Z" style="fill:#fafafa"></path><path d="M219,121.76c5.7,0,11.26.32,11.81.35,2.49.41,7.16,1.34,8.23,1.55a48.61,48.61,0,0,1,6.16,6.14c5.44,6.93,8,11.32,7.94,17.52-.09,6.48-5.76,11.17-5.81,11.21l-.28.23-.05.35c-.41,3.32-2.43,17.17-2.45,17.3l0,.13,0,.12,2.14,16.53c-3.07,7.23-14.23,12.07-27.91,12.07-14.51,0-27.1-5.42-32.25-13.86,2.35-5,7.34-16.27,7.49-21.56.08-2.76-1.2-7.3-2.54-12.11s-2.72-9.7-2.41-11.93c1.24-9.21,5.54-18.06,7.66-20.56,1.14-.28,5.76-1.42,11.14-2.71a54.92,54.92,0,0,1,11.13-.77m0-.89a57.37,57.37,0,0,0-11.34.8c-6.25,1.5-11.41,2.77-11.41,2.77-2.19,2.35-6.77,11.68-8.06,21.24-.64,4.66,5.09,18.69,4.94,24.13-.14,4.66-4.32,14.66-7.61,21.64,5.78,10,19.87,14.7,33.26,14.7,13.07,0,25.48-4.47,28.82-12.84l-2.17-16.77s2-13.95,2.46-17.32c0,0,6-4.89,6.14-11.89.08-6.36-2.42-10.8-8.13-18.08a51,51,0,0,0-6.46-6.42s-5.69-1.14-8.53-1.6c0,0-5.83-.36-11.91-.36Z" style="fill:#e0e0e0"></path><path d="M230.34,160.81a11.59,11.59,0,0,1-6.43,3.52,18.82,18.82,0,0,1-8.25-.23,14.25,14.25,0,0,1-8.76-6.53c-.08-.15-.22-.32-.38-.27s-.21.31-.17.5a10.56,10.56,0,0,0,3.1,5.6c1.82,1.72,4.18,2.39,6.59,2.9a17.9,17.9,0,0,0,9.09-.55,8.08,8.08,0,0,0,3.13-1.75,8.25,8.25,0,0,0,2.2-3.05C230.49,160.87,230.44,160.74,230.34,160.81Z" style="opacity:0.2"></path></g><g id="freepik--head--inject-1"><path d="M211.33,116.64c.19-6.3.46-10.15.46-10.15-.74,1.09-4.84,2.7-8.34-.93A8,8,0,0,1,203.17,95c2.55-2.71,6.3-2.22,8.44,1.79.12.23,1.22,0,1.42,0a1.94,1.94,0,0,0,1-.76,3.31,3.31,0,0,0,.51-1.5,8.93,8.93,0,0,0,0-1.77,40.46,40.46,0,0,0,12.72-6c5-3.83,8.2-10.09,8.07-10.91a20,20,0,0,1,4.79,2.87,13.83,13.83,0,0,1,3.58,5.55c.7,2.35,0,4.28,0,6.57,0,1.38.51,4.16.47,5.63-.27,10.22-1.64,15-5.44,17.73a13.92,13.92,0,0,1-8.23,2.22s.07,1.3.07,3,.32,1.72,2.12,2.22c1.85,2.29,4.47,10.3-5.39,11.36-10.26,1.1-19.19-6-20.41-11.1C209.15,121.05,211.21,120.86,211.33,116.64Z" style="fill:#ffbda7"></path><path d="M230.49,116.33c-7.18-.33-12.8-2.82-15.9-7.79,0,0,.39,3.84,3.07,5.87a23.73,23.73,0,0,0,12.9,4.36Z" style="fill:#f0997a"></path><path d="M233,105.5l-6.85-2.44a3.45,3.45,0,0,0,2.05,4.6A3.84,3.84,0,0,0,233,105.5Z" style="fill:#b16668"></path><path d="M229.71,107.85a3.79,3.79,0,0,1-1.56-.19,3.43,3.43,0,0,1-2.28-2.9A4.2,4.2,0,0,1,229.71,107.85Z" style="fill:#ffa8a7"></path><polygon points="231.48 88.53 231.73 101.81 238.17 99.7 231.48 88.53" style="fill:#f0997a"></polygon><path d="M240.86,92.53a1.74,1.74,0,1,1-1.44-2A1.74,1.74,0,0,1,240.86,92.53Z" style="fill:#263238"></path><path d="M227.27,92.5a1.75,1.75,0,1,1-1.45-2A1.75,1.75,0,0,1,227.27,92.5Z" style="fill:#263238"></path><path d="M241.92,88.46l-4.4-1.93a2.32,2.32,0,0,1,3.09-1.27A2.51,2.51,0,0,1,241.92,88.46Z" style="fill:#263238"></path><path d="M220.63,89.07l4.44-2a2.34,2.34,0,0,0-3.13-1.27A2.54,2.54,0,0,0,220.63,89.07Z" style="fill:#263238"></path></g><path d="M262,219.54c-.71-1.09-3.3-2.36-3.3-2.36s2.66.94,3.08-.17,0-2.13-1.94-3.28a39.24,39.24,0,0,1-6.85-4.24c-.92-.68-1.72-1.48-2.58-2.22a21.17,21.17,0,0,1-2.7-2.39c-.15-.17-.3-.4-.22-.61.25-.58,2.66.13,3.14.18a7.24,7.24,0,0,0,3.55-.32,3.15,3.15,0,0,0,1.26-.86,2.33,2.33,0,0,0,.49-1.42c0-1.1-1.74-1.36-2.75-1.54-4-.68-7.37-2.37-11.52-1.91-1.32.15-3.5.31-4.6-.45-6.56-4.56-24.18-21.76-28-26.06,0,0-3.31-20.38-4.9-30.72-1.35-8.75-5.29-14.11-8.27-15.57-16.86,3.5-13.5,25.26-6.85,52.17,1,4.27,1.86,6.44,7.5,10.63,9.3,6.91,19.35,13.07,28.89,19.32a38.46,38.46,0,0,1,7.46,6.05,39.39,39.39,0,0,0,19,10.9c4,1,4.1-.83,4.1-.83,2.49.95,4-.64,4.12-1.4a11.73,11.73,0,0,0,1.51.18C262.86,222.56,262.91,220.89,262,219.54Z" style="fill:#ffbda7"></path><path d="M248.23,211.87a25.39,25.39,0,0,0,10.36,5.27C255,215.55,251.62,213.78,248.23,211.87ZM244.6,215c4.19,4,9.91,6.18,15.49,7.48C254.7,220.44,249.24,218.42,244.6,215ZM256,223.84a52.26,52.26,0,0,1-12.1-5.26A23.3,23.3,0,0,0,256,223.84Z" style="fill:#f0997a"></path><path d="M196.21,124.49c-7.52,1.18-13.57,7-13.3,20.06s4.39,29.54,5.11,32.81c1,4.57,3.41,8.74,7,11s7.52,4.33,7.52,4.33a16.82,16.82,0,0,1,3.92-9.62,13,13,0,0,1,9.52-4.13L209.49,172s-2-14.15-3.06-21.14S204,129,196.21,124.49Z" style="fill:#e0e0e0"></path></g></g></g><g id="freepik--speech-bubble--inject-1"><g id="freepik--speech-bubble--inject-1"><g id="freepik--speech-bubble--inject-1"><path d="M389,152.27a29.07,29.07,0,0,1-17.68,12.1l-3.29.55a29.15,29.15,0,0,1-11.08-57l3.27-.71A29.15,29.15,0,0,1,389,152.27Z" style="fill:#fff"></path><path d="M382.47,109.71A31.64,31.64,0,0,0,343,158.86l-2.19,9.59a1.84,1.84,0,0,0,2.84,1.92l8.08-5.62a31.64,31.64,0,0,0,30.79-55ZM389,152.27a29.07,29.07,0,0,1-17.68,12.1l-3.29.55a29.15,29.15,0,0,1-11.08-57l3.27-.71A29.15,29.15,0,0,1,389,152.27Z" style="fill:#AEC1F5"></path><path d="M389,152.27a29.07,29.07,0,0,1-17.68,12.1l-3.29.55a29.15,29.15,0,0,1-11.08-57l3.27-.71A29.15,29.15,0,0,1,389,152.27Z" style="fill:#fff"></path></g><g id="freepik--Family--inject-1"><path d="M370.39,139.09c.14-.44.16-1-.4-1.19s-.77.17-1,.52a17.28,17.28,0,0,1-1.47,1.91,3.51,3.51,0,0,1-5.28,0,12.86,12.86,0,0,1-1.29-1.72c-.3-.42-.61-.94-1.2-.64s-.42.85-.28,1.36a9.67,9.67,0,0,0,2.43,3.48,1.86,1.86,0,0,1,.73,1.29,12.85,12.85,0,0,1-.52,4c-.17.78-.35,1.56-.49,2.35-.11.62-.2,1.23-.25,1.85a3.59,3.59,0,0,0,0,.47.79.79,0,0,0,1.24.59,1.56,1.56,0,0,0,.45-.75c.4-1.14.54-2.21.88-3.37.18-.61.46-1.23,1.05-1.25s.81.67.95,1.07c.45,1.27.57,1.73.95,3.05.17.57.64,1.41,1.43,1.17s.57-1.27.46-1.88c-.4-2.19-.95-4.78-1.31-6.65a1.94,1.94,0,0,1,.58-2.06A9.75,9.75,0,0,0,370.39,139.09Zm-5.5,1.2a2.33,2.33,0,1,0-2.33-2.33A2.32,2.32,0,0,0,364.89,140.29Z" style="fill:#e0e0e0"></path><path d="M370.39,139.09c.14-.44.16-1-.4-1.19s-.77.17-1,.52a17.28,17.28,0,0,1-1.47,1.91,3.51,3.51,0,0,1-5.28,0,12.86,12.86,0,0,1-1.29-1.72c-.3-.42-.61-.94-1.2-.64s-.42.85-.28,1.36a9.67,9.67,0,0,0,2.43,3.48,1.86,1.86,0,0,1,.73,1.29,12.85,12.85,0,0,1-.52,4c-.17.78-.35,1.56-.49,2.35-.11.62-.2,1.23-.25,1.85a3.59,3.59,0,0,0,0,.47.79.79,0,0,0,1.24.59,1.56,1.56,0,0,0,.45-.75c.4-1.14.54-2.21.88-3.37.18-.61.46-1.23,1.05-1.25s.81.67.95,1.07c.45,1.27.57,1.73.95,3.05.17.57.64,1.41,1.43,1.17s.57-1.27.46-1.88c-.4-2.19-.95-4.78-1.31-6.65a1.94,1.94,0,0,1,.58-2.06A9.75,9.75,0,0,0,370.39,139.09Zm-5.5,1.2a2.33,2.33,0,1,0-2.33-2.33A2.32,2.32,0,0,0,364.89,140.29Z" style="opacity:0.2"></path><path d="M364.56,127.73a1,1,0,0,0-1-.67c-.61,0-.81.31-1.18.59a20.94,20.94,0,0,1-1.8,1.39,16.62,16.62,0,0,1-3.47,1.75,15,15,0,0,1-3.78.88c-.72.09-1.63.2-2.35.33a13,13,0,0,0-5.34,2.41,24,24,0,0,0-2.44,2.07,12.19,12.19,0,0,0-1.74,1.78,2.12,2.12,0,0,0-.38,1,1.09,1.09,0,0,0,.33.93,1.2,1.2,0,0,0,1.06.18,9,9,0,0,0,2.72-1.69c.6-.43,1.28-1,1.9-1.44s1.45-.94,1.74-.46a2.94,2.94,0,0,1,0,1.82c-.18.94-.39,1.78-.62,2.78s-.51,1.93-.75,2.77c-.66,2.35-1.25,4.53-2,6.85a2.64,2.64,0,0,0-.2,1.2,1.08,1.08,0,0,0,.77.88,1.32,1.32,0,0,0,1.52-.86c1.71-3.27,2.16-5.26,3.29-7.82a1.41,1.41,0,0,1,1.07-.83c.59,0,.75.74.77,1.21a21.16,21.16,0,0,1,.06,2.87c-.2,2.23-.29,3-.56,5.4-.07.6-.14,1.62.54,2,.93.48,1.5-.38,1.77-1.23a20,20,0,0,0,.68-3.24c.14-1.3.32-2.34.46-4.49.07-1.2.14-2.4.16-3.61,0-1,0-3.52,0-4.51a4.33,4.33,0,0,1,.65-2.46,4.69,4.69,0,0,1,1.26-1.08A34.71,34.71,0,0,0,363,130.6a12.21,12.21,0,0,0,1-1.11A1.81,1.81,0,0,0,364.56,127.73Zm-12.84,2.66a2.82,2.82,0,1,0-2.83-2.82A2.82,2.82,0,0,0,351.72,130.39Z" style="fill:#455a64"></path><path d="M377.82,130.39a2.82,2.82,0,1,0-2.82-2.82A2.83,2.83,0,0,0,377.82,130.39ZM388,138.26a12.19,12.19,0,0,0-1.74-1.78,24,24,0,0,0-2.44-2.07,13.06,13.06,0,0,0-5.34-2.41c-.72-.13-1.64-.24-2.36-.33a14.87,14.87,0,0,1-3.77-.88,16.14,16.14,0,0,1-3.47-1.75,19.47,19.47,0,0,1-1.8-1.39,1.79,1.79,0,0,0-1.18-.59,1,1,0,0,0-1,.67,1.79,1.79,0,0,0,.52,1.76,12.21,12.21,0,0,0,1.05,1.11,35.31,35.31,0,0,0,5.29,3.74,4.64,4.64,0,0,1,1.25,1.08,4.26,4.26,0,0,1,.66,2.46c0,1-.05,3.52,0,4.51,0,1.21.08,2.41.16,3.61.13,2.15.31,3.19.45,4.49a19,19,0,0,0,.69,3.24c.26.85.83,1.71,1.76,1.23.68-.34.61-1.36.55-2-.28-2.43-.36-3.17-.57-5.4a22.92,22.92,0,0,1,.07-2.87c0-.47.17-1.2.77-1.21a1.38,1.38,0,0,1,1.06.83c1.14,2.56,1.59,4.55,3.3,7.82a1.32,1.32,0,0,0,1.52.86,1.08,1.08,0,0,0,.77-.88,2.79,2.79,0,0,0-.2-1.2c-.75-2.32-1.34-4.5-2-6.85-.24-.84-.56-1.91-.75-2.77s-.44-1.84-.63-2.78a3.1,3.1,0,0,1,0-1.82c.29-.48,1.23.12,1.75.46s1.29,1,1.9,1.44a9.11,9.11,0,0,0,2.71,1.69,1.22,1.22,0,0,0,1.07-.18,1.09,1.09,0,0,0,.33-.93A2.12,2.12,0,0,0,388,138.26Z" style="fill:#455a64"></path><path id="freepik--Heart--inject-1" d="M364.75,124.58l-1.79-1c-4.26-2.29-6.13-5.38-5-8.26a3.55,3.55,0,0,1,6.67.2,3.56,3.56,0,0,1,6.71-.14c1,2.72-.72,5.6-4.87,8.11Z" style="fill:#AEC1F5"></path></g></g></g></svg>
