<?xml version="1.0" encoding="UTF-8"?><svg id="Layer_1" xmlns="http://www.w3.org/2000/svg" viewBox="0 0 1366.11 61.1"><defs><style>.cls-1{fill:#e4eaf2;}</style></defs><path class="cls-1" d="M0,45.1c.02-2.78,27.38-13.26,30.22-14.58,14.16-6.61,28.51-12.86,43.28-17.98C102.26,2.57,133.01-3.26,163.35,1.94c49.65,8.51,92.27,45.13,142.58,47.77,36.77,1.93,71.98-14.71,108.65-18.03,56.28-5.1,112.1,21.38,168.25,15.01,47.41-5.37,90.33-33.73,137.96-36.37,60.04-3.33,115.17,34.5,175.1,39.36,72.32,5.87,142.35-36.71,214.55-29.46,58.51,5.88,115.09,44.16,171.97,29.23,20.59-5.41,39.98-17.59,61.51-19.12,25-1.77,22.07,10.49,22.07,30.75H0s0-15.71,0-16Z"/></svg>