<?xml version="1.0" encoding="UTF-8"?><svg id="Layer_1" xmlns="http://www.w3.org/2000/svg" viewBox="0 0 1367 149.61"><defs><style>.cls-1{fill:#f0d7ba;}.cls-2{fill:#fbfbfb;stroke:#fbfbfb;stroke-miterlimit:10;}.cls-3{fill:#9EB0CE;}</style></defs><path class="cls-1" d="M1307.58,33.46s-145.72-39.49-206.72-15.49c-61,24-98,8.52-148-7.74-50-16.26-167.94,42.52-167.37,42.63s0,42.11,0,42.11l459.37,26,62.72-87.51Z"/><path class="cls-1" d="M30.78,26.07S176.5-13.42,237.5,10.58s98,8.52,148-7.74,167.94,42.52,167.37,42.63,0,42.11,0,42.11L93.5,113.58,30.78,26.07Z"/><path class="cls-3" d="M.5,10.58s228.27,101.4,420.71,60c192.45-41.4,275.32-62.49,412.74-13.79s160.97,40.08,257.27,23.06S1366.5,10.58,1366.5,10.58V149.11H.5V10.58Z"/><path class="cls-2" d="M.5,10.58s144,120,278,127,201-26,270-17,98,29,146,28,115-22,158-20,115,24.07,180,20.04,97.17-25.65,157.59-28.84S1366.5,10.58,1366.5,10.58V149.11H.5V10.58Z"/></svg>