<?xml version="1.0" encoding="utf-8"?>
<!-- Generator: Adobe Illustrator 26.0.0, SVG Export Plug-In . SVG Version: 6.00 Build 0)  -->
<svg version="1.1" id="Layer_1" xmlns="http://www.w3.org/2000/svg" xmlns:xlink="http://www.w3.org/1999/xlink" x="0px" y="0px"
	 viewBox="0 0 1366 53.5" style="enable-background:new 0 0 1366 53.5;" xml:space="preserve">
<style type="text/css">
	.st0{fill:#687DAC;}
</style>
<path class="st0" d="M0,34.4c0,6.2,174.1,16.2,242.9-7.6C287.7,15.5,331,14,375,21.5c16.8,2.9,35.6,5.6,70.9,5.2
	c54.2-0.5,64.2-9.8,115-17.5c40.6-3.4,33.2,3.6,100.3,12.6c81.1,10.8,101-23.6,159.3-4.1c10.7,3.6,21.8,6.1,33,7
	c30.4,2.4,46.8-5.4,70.3-10.2c17.5-3.6,118.5-1.9,136.4-2.4c62-1.6,123-2.4,185,0.9c14.2,0.8,31.6,9.4,45.2,13.8
	c28,8.9,49,12.9,75.7,3.9v22.8H0V34.4z"/>
</svg>
