<?xml version="1.0" encoding="utf-8"?>
<!-- Generator: Adobe Illustrator 26.0.0, SVG Export Plug-In . SVG Version: 6.00 Build 0)  -->
<svg version="1.1" id="Layer_1" xmlns="http://www.w3.org/2000/svg" xmlns:xlink="http://www.w3.org/1999/xlink" x="0px" y="0px"
	 viewBox="0 0 1366 53.5" style="enable-background:new 0 0 1366 53.5;" xml:space="preserve">
<style type="text/css">
	.st0{fill:#687DAC;}
</style>
<path class="st0" d="M0,34.4c0,6.2,170.7,8.3,242.9-7.6c48.8-8.1,59.8-9.3,132.1-5.2c16.8,2.9,35.6,5.6,70.9,5.2
	c54.2-0.5,44.6,2.5,95.4-5.2c40.6-3.4,58.6-3.8,125.7,5.2c77.4,16.2,59.3-12.3,150.4-5.2c11.3,0.9,24.8,2.3,36.1,3.2
	c30.4,2.4,51.4-7.2,74.9-12c17.5-3.6,117.8-0.4,135.7-0.9c62-1.6,126.5-1.3,188.5,2.1c14.2,0.8,59.4,13.8,81.1,13.8
	c70.9,0,32.3-31.9,32.3,25.8l0,0H0V34.4z"/>
</svg>
