<svg xmlns="http://www.w3.org/2000/svg" xmlns:xlink="http://www.w3.org/1999/xlink" width="1171" height="640" viewBox="0 0 1171 640">
  <defs>
    <style>
      .cls-1 {
        fill: #fff;
        stroke: #f5f5f5;
      }

      .cls-2 {
        fill: #fbfbfb;
      }

      .cls-3 {
        clip-path: url(#clip-path);
      }

      .cls-4 {
        fill: #687dac;
      }

      .cls-5 {
        fill: #f0d7ba;
      }
    </style>
    <clipPath id="clip-path">
      <rect id="Rectangle_20" data-name="Rectangle 20" class="cls-1" width="1170" height="640" rx="40" transform="translate(354 307)"/>
    </clipPath>
  </defs>
  <g id="Group_81" data-name="Group 81" transform="translate(-801 -288)">
    <rect id="Rectangle_18" data-name="Rectangle 18" class="cls-2" width="1127" height="640" rx="40" transform="translate(844 288)"/>
    <g id="Mask_Group_3" data-name="Mask Group 3" class="cls-3" transform="translate(448 -19)">
      <g id="Layer_1-2" transform="translate(671.324 233)">
        <path id="Path_444" data-name="Path 444" class="cls-4" d="M5.338,52.152s40.037,62.8,80.963,76.632,66.728,13.836,87.191,13.836,56.052,5.322,84.522,15.965,77.4,28.737,112.1,29.8,54.272,9.579,104.985,0,71.176-10.643,101.427-1.064,54.272,20.222,81.853,30.866,41.816,26.608,81.853,31.93S821.2,262.891,850.56,261.826c0,0,15.125.2,58.721.106S951.1,123.463,951.1,123.463L855.9,0,116.552,10.643,0,19.158Z"/>
      </g>
      <g id="Layer_1-2-2" data-name="Layer_1-2" transform="translate(623.431 687.102)">
        <path id="Path_445" data-name="Path 445" class="cls-5" d="M0,263.52a167.769,167.769,0,0,1,58-21.689c33-5.422,55.74-12.027,85.25-20.6s62.62-26.558,101.69-29.551,60.07-3.524,82.07,0,56,12.2,101,3.524,94.97-23.2,123.02-31.351,74.98-23.955,98.98-36.969,42.28-32.87,60.64-35.96,44.79-2.407,67.58-17.384,40.68-27.61,76.23-30.505,48.56-.206,77.55-15.106S973,0,973,0l21,52.053,5,153.991-13,91.093L616,306.9H221L0,297.138Z"/>
      </g>
    </g>
    <rect id="Rectangle_161" data-name="Rectangle 161" class="cls-2" width="1127" height="640" rx="40" transform="translate(843 288)"/>
    <g id="Mask_Group_6" data-name="Mask Group 6" class="cls-3" transform="translate(447 -19)">
      <g id="Layer_1-2-3" data-name="Layer_1-2" transform="translate(671.324 233)">
        <path id="Path_666" data-name="Path 666" class="cls-4" d="M5.338,52.152s40.037,62.8,80.963,76.632,66.728,13.836,87.191,13.836,56.052,5.322,84.522,15.965,77.4,28.737,112.1,29.8,54.272,9.579,104.985,0,71.176-10.643,101.427-1.064,54.272,20.222,81.853,30.866,41.816,26.608,81.853,31.93S821.2,262.891,850.56,261.826c0,0,15.125.2,58.721.106S951.1,123.463,951.1,123.463L855.9,0,116.552,10.643,0,19.158Z"/>
      </g>
      <g id="Layer_1-2-4" data-name="Layer_1-2" transform="translate(623.431 687.102)">
        <path id="Path_667" data-name="Path 667" class="cls-5" d="M0,263.52a167.769,167.769,0,0,1,58-21.689c33-5.422,55.74-12.027,85.25-20.6s62.62-26.558,101.69-29.551,60.07-3.524,82.07,0,56,12.2,101,3.524,94.97-23.2,123.02-31.351,74.98-23.955,98.98-36.969,42.28-32.87,60.64-35.96,44.79-2.407,67.58-17.384,40.68-27.61,76.23-30.505,48.56-.206,77.55-15.106S973,0,973,0l21,52.053,5,153.991-13,91.093L616,306.9H221L0,297.138Z"/>
      </g>
    </g>
  </g>
</svg>
